<?xml version="1.0" encoding="UTF-8" standalone="no"?>
<!-- Created with Inkscape (http://www.inkscape.org/) -->

<svg
   version="1.1"
   id="svg1"
   xml:space="preserve"
   width="40.450787"
   height="55.91188"
   xmlns:inkscape="http://www.inkscape.org/namespaces/inkscape"
   xmlns:sodipodi="http://sodipodi.sourceforge.net/DTD/sodipodi-0.dtd"
   xmlns="http://www.w3.org/2000/svg"
   xmlns:svg="http://www.w3.org/2000/svg"><defs
     id="defs1" /><sodipodi:namedview
     id="namedview1"
     pagecolor="#ffffff"
     bordercolor="#000000"
     borderopacity="0.25"
     inkscape:showpageshadow="2"
     inkscape:pageopacity="0.0"
     inkscape:pagecheckerboard="0"
     inkscape:deskcolor="#d1d1d1" /><inkscape:clipboard
     min="79.914793,53.34043"
     max="120.36558,109.25231"
     geom-min="79.914793,53.34043"
     geom-max="120.36558,109.25231" /><g
     id="g5421"
     transform="matrix(4.1157778,0,0,4.1157778,-111.03202,-73.671735)"><path
       style="display:inline;opacity:1;fill:#ffb380;stroke-width:0.918302"
       d="m 35.755955,17.900716 c -0.201909,-0.0055 -0.405233,0.01457 -0.497641,0.06356 -0.102968,0.05459 -0.309438,0.301744 -0.458888,0.548804 l -0.271817,0.449068 h -0.530717 c -0.431147,0 -0.573466,0.03131 -0.757577,0.167431 l -0.226861,0.167432 -0.137459,-0.188102 c -0.10881,-0.149375 -0.241441,-0.205237 -0.639236,-0.267167 -0.56674,-0.08823 -0.653384,-0.06017 -1.114661,0.356567 -0.282913,0.255594 -0.294105,0.258785 -0.515731,0.144177 -0.256984,-0.13289 -0.629481,-0.152581 -0.832509,-0.04392 -0.07537,0.04034 -0.256045,0.238822 -0.401523,0.441317 -0.259604,0.361348 -0.272937,0.368936 -0.723472,0.401526 -0.653394,0.04726 -0.797364,0.183301 -1.270206,1.196309 l -0.400492,0.856796 0.03721,1.127579 c 0.06624,2.019451 0.475919,3.488004 1.293979,4.636928 0.244425,0.343289 0.251711,0.375171 0.295071,1.31568 0.02445,0.530088 0.06156,1.135499 0.08268,1.345139 l 0.03876,0.380855 0.390673,0.141591 c 0.215022,0.07787 0.593728,0.183896 0.841809,0.235646 0.270145,0.05636 0.873445,0.08646 1.503784,0.07493 l 1.05265,-0.01913 0.770495,-0.475941 0.770496,-0.47594 v -1.350304 -1.34979 l 0.331245,-0.378788 c 0.323334,-0.36962 1.427446,-2.221845 1.659332,-2.783809 0.06396,-0.155001 0.184579,-0.69648 0.2682,-1.203027 0.08362,-0.506547 0.238771,-1.219418 0.344681,-1.584399 0.223046,-0.768647 0.211912,-0.888139 -0.167947,-1.83038 -0.254675,-0.631704 -0.262485,-0.680784 -0.213424,-1.30793 0.0346,-0.442398 0.02437,-0.667733 -0.03153,-0.702283 -0.08722,-0.05391 -0.287464,-0.08491 -0.489376,-0.09043 z"
       id="path936" /><path
       id="path857"
       style="font-style:normal;font-variant:normal;font-weight:normal;font-stretch:normal;font-size:medium;line-height:125%;font-family:Gallaudet;-inkscape-font-specification:Gallaudet;text-align:start;letter-spacing:0px;word-spacing:0px;text-anchor:start;display:inline;opacity:1;fill:#000000;fill-opacity:1;stroke:none;stroke-width:0.242967px;stroke-linecap:butt;stroke-linejoin:miter;stroke-opacity:1"
       d="m 35.584545,17.945365 q 0.59009,0 0.68844,0.13113 0.0328,0.262262 -0.0328,0.786784 -0.0328,0.49174 -0.0328,0.524522 0.39339,0.950697 0.49174,1.245741 0.0983,0.262261 0.0983,0.491739 0,0.327827 -0.16392,0.688436 -0.16391,0.360609 -0.32782,1.540784 -0.13114,1.147393 -0.59009,1.901394 -0.42618,0.754 -0.81957,1.409653 -0.36061,0.62287 -0.88513,1.11461 0,0.688436 0,1.376871 0,0.655653 0.0328,1.311306 l -1.508,0.917914 q -0.65565,0.09835 -1.27852,0.09835 -1.44244,0 -2.52427,-0.524522 l -0.13113,-2.655395 q -0.81957,-0.983479 -1.21296,-2.36035 -0.36061,-1.409654 -0.36061,-2.85209 0,-0.62287 0.0328,-0.917914 0.36061,-0.852349 0.62287,-1.409654 0.26226,-0.590087 0.98348,-0.590087 0.42617,0.163913 0.72121,-0.360609 0.29505,-0.524523 0.59009,-0.524523 0.59009,-0.06557 0.85235,0.295044 0.29504,-0.327826 0.55731,-0.557305 0.26226,-0.262261 0.62287,-0.163913 0.52452,0 0.754,0.163913 0.13113,0.196696 0.29504,0.360609 0.13113,-0.229478 0.32783,-0.295044 0.19669,-0.09835 0.5573,-0.09835 0.1967,0 0.59009,0.06557 0.26226,-0.458957 0.45896,-0.786784 0.19669,-0.327826 0.59008,-0.327826 z m -0.13113,0.262261 q -0.39339,0.229478 -0.55731,0.590088 -0.13113,0.360609 -0.13113,0.852348 0,0.458957 0.0656,0.721219 0.0656,0.262261 0.0656,0.426174 0.0328,0.13113 0.26227,0.163913 0.26226,0.03278 0.26226,0.163913 h -0.59009 q -0.0656,0.196696 -0.1967,0.557305 -0.13113,0.327827 -0.0656,0.557305 0.0328,0.229479 0.0656,0.458957 l -0.16391,-0.09835 q -0.16391,0.295044 -0.29504,0.557305 0.42617,0.426175 0.72121,0.754001 0.29505,0.327827 0.36061,0.688436 -0.13113,-0.06557 -0.36061,-0.393392 -0.22947,-0.327827 -0.32782,-0.360609 0.22948,0.393392 0.36061,0.655653 0.16391,0.262261 0.16391,0.524522 l -0.36061,-0.590088 q -0.16391,-0.262261 -0.36061,-0.557305 -0.19669,-0.327826 -0.42617,-0.393391 -0.16392,0.196696 -0.49174,0.196696 -0.29505,-0.03278 -0.42618,-0.03278 -0.32782,0 -0.36061,0.229478 -0.16391,0.36061 -0.62287,0.393392 -0.45895,0.03278 -0.62287,0.06556 -0.32782,0.426175 -0.32782,0.950697 0,0.426175 0.13113,0.786784 0.16391,0.360609 0.52452,1.016262 0.22948,0.196695 0.49174,0.295043 0.26226,0.06557 0.65565,0.06557 l 0.754,-0.06557 q 0.29505,-0.163913 0.52453,-0.360609 0.26226,-0.229478 0.52452,-0.62287 0.85235,-1.016262 1.27852,-2.917655 0.42618,-1.934176 0.49174,-2.196437 -0.0656,-0.06557 -0.26226,-0.09835 -0.1967,-0.06557 -0.13113,-0.262262 0.0328,-0.09835 0.13113,-0.13113 0.13113,-0.03278 0.22948,-0.06557 -0.1967,-0.03278 -0.36061,-0.09835 l 0.36061,-0.06557 q -0.16391,-0.491739 -0.26226,-0.819566 -0.0984,-0.327826 -0.42618,-0.491739 0,-0.295044 0,-0.590088 0.0328,-0.295044 0.22948,-0.524522 -0.45895,0 -0.52452,0.06556 z m 0.62287,0.163913 -0.0656,0.62287 q 0,-0.163913 0.0328,-0.360609 0.0656,-0.229478 0.0328,-0.262261 z m -4.13061,0.721218 q -0.62287,0 -0.85235,0.721219 0,0.590087 0.0328,1.835828 0.0328,1.24574 0.0328,1.803045 l 0.0983,0.03278 q 0.0656,-0.458957 0.19669,-0.524523 0.13113,-0.09835 0.3934,-0.09835 0.19669,0 0.29504,0.131131 0.1967,0.458957 0.1967,0.655653 0,0.03278 -0.0656,0.229478 l 0.19669,-0.09835 0.0984,-1.868611 q 0,-0.360609 0.16391,-1.147393 0.1967,-0.819566 0.1967,-1.049044 -0.26226,-0.754001 -0.98348,-0.622871 z m 1.44243,0.360609 q -0.26226,0.917915 -0.42617,1.573567 -0.16391,0.655653 -0.0983,1.245741 l 0.52452,-0.03278 q 0.1967,0.196696 0.26226,0.524523 0.0656,0.327826 0.0983,0.491739 0.32783,-0.262261 0.49174,-0.721218 0.16392,-0.49174 0.16392,-0.983479 0.32782,-0.295044 0.32782,-0.721218 0,-0.229479 -0.16391,-0.754001 -0.16391,-0.557305 -0.0983,-0.786784 -0.39339,-0.03278 -0.59009,-0.03278 -0.36061,0 -0.49174,0.196695 z m -3.40939,0.131131 q -0.26226,0.09835 -0.42618,0.393392 -0.16391,0.262261 -0.29504,0.524522 0.42617,0.688436 0.5573,1.540784 0.16392,0.819566 0.16392,1.934176 l 0.0983,0.09835 0.0984,-0.688435 q 0.0328,-0.229479 0.36061,-0.229479 0.32782,-0.03278 0.42617,-0.03278 l -0.0328,-0.852349 q -0.26226,0.06556 -0.42617,0.13113 -0.16391,0.06557 -0.29505,-0.06557 -0.0328,-0.196696 0.29505,-0.229478 0.36061,-0.03278 0.42617,-0.09835 l -0.0983,-2.09809 q -0.13113,-0.393391 -0.85235,-0.327826 z m -1.04905,0.917914 q -0.19669,-0.06557 -0.36061,-0.06557 -0.3606,0 -0.62287,0.295044 -0.0983,0.262261 -0.0983,0.458957 0,0.360609 0.26226,0.852348 0.26226,0.458957 0.45895,0.786784 0.1967,0.327826 0.29505,0.590087 0.0983,0.229479 0.29504,0.262262 v -0.426175 q 0.0983,-0.360609 0.55731,-0.295044 -0.0984,-0.590087 -0.13113,-0.688435 l -0.42618,0.13113 q -0.0984,0.03278 -0.22948,0 -0.13113,-0.06557 -0.0328,-0.196695 0.55731,0.06557 0.68844,-0.229479 -0.22948,-0.917914 -0.65566,-1.475219 z m -1.18017,0.917914 q -0.16392,0.03278 -0.22948,0.229479 -0.0656,0.163913 -0.0984,0.229478 0.26226,0.131131 0.52452,0.262261 z m -0.32783,0.754001 q -0.16391,0.131131 -0.16391,0.426174 0.0328,0.229479 0.0328,0.327827 l 1.04905,-0.09835 q 0,-0.295044 -0.42618,-0.393392 -0.39339,-0.09835 -0.49174,-0.262261 z m 5.50749,0.393392 q -0.26227,0.163913 -0.13113,0.557305 0.19669,0.06556 0.3606,0.06556 0.22948,0 0.32783,-0.09835 0.13113,-0.327826 -0.13113,-0.393392 -0.26226,-0.06557 -0.42617,-0.13113 z m -5.6714,1.212958 q 0.39339,2.229219 0.65565,2.950438 0.29505,0.688435 0.9507,1.278523 0.36061,0.196696 0.85235,0.196696 0.72122,0 1.3113,-0.426175 0.26226,0.262261 0.26226,0.754001 0,0.262261 -0.0328,0.590088 -0.0328,0.327826 -0.0328,0.360609 0,0.327826 0.0656,0.458957 0.0656,-0.09835 0.0656,-0.426175 0,-0.721218 0.0656,-0.819566 0.0983,0.360609 0.0983,0.688436 0,0.262261 -0.0328,0.524522 0,0.229479 0,0.458957 0,0.49174 0.0984,0.754001 l 0.1967,-0.03278 q -0.13113,-0.393391 -0.16391,-0.721218 -0.0328,-0.327826 -0.0328,-0.786783 0,-0.49174 0.0328,-1.11461 0.0328,-0.622871 0.0328,-0.754001 l -0.22948,0.917914 q -0.0984,-0.163913 -0.0984,-0.327827 0.0328,-0.393391 0.0984,-0.819566 l -0.59009,-1.475219 0.1967,-1.278523 h -0.13113 q -0.29505,0.590088 -0.55731,1.147393 l 0.29504,-1.147393 q -0.36061,0.06557 -0.68843,-0.360609 -0.32783,-0.458957 -0.68844,-0.327826 -0.29504,-0.03278 -0.52452,-0.360609 -0.1967,-0.360609 -0.29504,-0.524523 -0.45896,-0.06557 -0.72122,-0.06557 -0.55731,0 -0.55731,0.327826 0,0.163914 0.0983,0.36061 z m 4.36009,-0.655653 q -0.0984,0 -0.13113,0.163913 -0.0328,0.163913 -0.0656,0.196696 0,0.196696 0.16391,0.262261 0.1967,0.03278 0.29505,0.03278 0.29504,-0.196696 0.26226,-0.262262 0.13113,-0.262261 -0.0984,-0.295043 -0.22948,-0.06557 -0.42618,-0.09835 z m -1.04904,0.196696 q 0.0983,0 0.19669,0 z m -1.18018,0.06557 v 0.229478 h 0.13113 q 0.0984,-0.06557 0.1967,-0.163913 -0.0328,-0.06556 -0.32783,-0.06556 z m 0.9507,0.13113 -0.0983,0.524523 q 0.0328,0.163913 0.22948,0.163913 0.29504,-0.03278 0.42617,-0.03278 0.0983,0 0.16391,-0.09835 0.0984,-0.13113 0.0328,-0.196696 0,-0.327826 -0.29504,-0.327826 -0.39339,0 -0.45896,-0.03278 z m 1.54078,4.065048 q 0,0.262261 -0.0328,0.917914 -0.0328,0.622871 -0.0328,0.950697 0,0.557305 0.0328,0.917914 0.0656,0.327827 0.1967,0.688436 0.29504,0 0.5573,-0.163914 0.29505,-0.163913 0.45896,-0.262261 -0.0328,-0.163913 -0.0328,-0.491739 0,-0.262262 0.0656,-0.786784 0.0656,-0.524522 0.0656,-0.786783 0,-0.262262 -0.0328,-0.393392 -0.81957,0 -0.98348,-0.262261 0.0656,-0.163913 0.29504,-0.03278 0.22948,0.09835 0.36061,0.03278 -0.0656,-0.03278 -0.26226,-0.06557 -0.16391,-0.06557 -0.65565,-0.262261 z m -2.39313,1.049045 q 0.29504,0.06557 0.754,-0.06556 0.49174,-0.163914 0.62287,-0.163914 -0.52452,0.524523 -1.37687,0.524523 -0.16392,0 -0.1967,-0.196696 -0.0328,-0.196696 -0.29504,-0.09835 v 1.803045 l 0.16391,0.360609 q 0.85235,0.163914 1.7047,0.327827 0.26226,0 0.39339,-0.03278 -0.13113,-0.62287 -0.16391,-1.212958 -0.0328,-0.590087 -0.0328,-1.376871 v -0.393391 q -0.55731,0.295043 -0.85235,0.426174 -0.29504,0.09835 -0.72122,0.09835 z m 3.83557,-0.196696 0.0656,-0.131131 z m 0,0.295044 0.0656,-0.09835 z m 0,0.163913 q 0,0.163913 -0.0656,0.557305 -0.0656,0.393392 -0.0656,0.62287 0,0.131131 0.0656,0.393392 h 0.13113 q 0,-0.426174 -0.0328,-0.917914 -0.0328,-0.524522 -0.0328,-0.655653 z m -0.32783,-7.244964 q 0.13113,0.06557 0.39339,0.06557 0.26226,0 0.52453,0 -0.13114,0.163913 -0.32783,0.163913 -0.32783,-0.06556 -0.52452,-0.06556 z m -1.44243,0.393391 q 0.5573,-0.06557 0.85234,-0.06557 -0.16391,0.327827 -0.59008,0.262261 -0.0656,0.03278 -0.16392,0 -0.0984,-0.06556 -0.0984,-0.196696 z" /></g></svg>
