<?xml version="1.0" encoding="UTF-8" standalone="no"?>
<!-- Created with Inkscape (http://www.inkscape.org/) -->

<svg
   version="1.1"
   id="svg1"
   xml:space="preserve"
   width="34.754272"
   height="84.753838"
   xmlns:inkscape="http://www.inkscape.org/namespaces/inkscape"
   xmlns:sodipodi="http://sodipodi.sourceforge.net/DTD/sodipodi-0.dtd"
   xmlns="http://www.w3.org/2000/svg"
   xmlns:svg="http://www.w3.org/2000/svg"><defs
     id="defs1" /><sodipodi:namedview
     id="namedview1"
     pagecolor="#ffffff"
     bordercolor="#000000"
     borderopacity="0.25"
     inkscape:showpageshadow="2"
     inkscape:pageopacity="0.0"
     inkscape:pagecheckerboard="0"
     inkscape:deskcolor="#d1d1d1" /><inkscape:clipboard
     min="171.58162,24.404093"
     max="206.33589,109.15793"
     geom-min="171.58162,24.404093"
     geom-max="206.33589,109.15793" /><g
     id="g5428"
     transform="matrix(4.1157778,0,0,4.1157778,-202.69884,-44.735398)"><path
       style="display:inline;opacity:1;fill:#ffb380;stroke-width:0.918302"
       d="m 53.82307,10.873238 c -0.365945,-0.03458 -0.635143,0.154998 -0.853178,0.586527 -0.117353,0.232269 -0.13454,0.239004 -0.485759,0.197405 -0.467122,-0.05532 -0.85912,0.119771 -1.011822,0.451135 -0.06045,0.131182 -0.131818,0.526019 -0.158647,0.877465 -0.09616,1.259421 -0.09484,1.255698 -0.445968,1.366842 -0.265631,0.08408 -0.342633,0.159078 -0.518832,0.506946 -0.02418,0.04773 -0.0401,0.09363 -0.0615,0.14211 l -0.06356,0.07545 -0.01085,0.09767 c -0.04024,0.110053 -0.06629,0.203304 -0.0646,0.248564 0.0013,0.03892 0.01572,0.03674 0.03617,0.0088 l -0.03514,0.313676 c -0.0029,-0.0029 -0.0062,-0.0027 -0.0098,0.0016 -0.02744,0.03163 -0.160168,0.97085 -0.295073,2.087211 -0.134906,1.116362 -0.311846,2.300074 -0.393259,2.630847 -0.09805,0.398393 -0.161424,0.982107 -0.187584,1.729094 -0.0359,1.025083 -0.01749,1.261032 0.202055,2.59364 0.260675,1.582251 0.458808,2.228353 0.866613,2.824634 0.305541,0.446754 0.322122,0.658257 0.149347,1.949235 -0.155718,1.163495 -0.159171,1.139063 0.167947,1.30328 0.416893,0.209285 1.202547,0.45471 1.712558,0.53485 0.633634,0.09956 2.021101,0.03726 2.516124,-0.113171 0.227406,-0.06911 0.601572,-0.220903 0.831474,-0.336931 l 0.418063,-0.210838 0.126605,-1.027846 c 0.159653,-1.298297 0.441434,-2.559645 0.778764,-3.486608 0.624938,-1.717295 0.647997,-1.827045 0.648023,-3.053044 2.1e-5,-0.86911 -0.05373,-1.494433 -0.234092,-2.728516 -0.128712,-0.880646 -0.272037,-2.047824 -0.318329,-2.59364 -0.10337,-1.218849 -0.415515,-3.528586 -0.56534,-4.18269 -0.06095,-0.266082 -0.218019,-0.701686 -0.349332,-0.968416 -0.269073,-0.546569 -0.517226,-0.709438 -1.110009,-0.727088 -0.337069,-0.01004 -0.338709,-0.01108 -0.380339,-0.318327 -0.04977,-0.367338 -0.174818,-0.535038 -0.500745,-0.671277 -0.145246,-0.06071 -0.277995,-0.09699 -0.399976,-0.10852 z"
       id="path942"
       sodipodi:nodetypes="cssscsscccccccssssssssscccssssssssscc" /><path
       id="path859"
       style="font-style:normal;font-variant:normal;font-weight:normal;font-stretch:normal;font-size:medium;line-height:125%;font-family:Gallaudet;-inkscape-font-specification:Gallaudet;text-align:start;letter-spacing:0px;word-spacing:0px;text-anchor:start;display:inline;opacity:1;fill:#000000;fill-opacity:1;stroke:none;stroke-width:0.242967px;stroke-linecap:butt;stroke-linejoin:miter;stroke-opacity:1"
       d="m 53.562765,10.906946 c 0.6338,0 1.016263,0.218553 1.14739,0.65566 -0.04373,0.218547 -2.3e-5,0.393387 0.13113,0.52452 0.10928,-0.06553 0.20763,-0.0983 0.29505,-0.0983 0.131127,0 0.273183,0.03277 0.42617,0.0983 0.152987,0.06553 0.262263,0.109243 0.32783,0.13113 0.393387,0.52452 0.655647,1.23481 0.78678,2.13087 0.131133,0.874205 0.251337,1.726555 0.36061,2.557049 0,0.655653 0.109277,1.715625 0.32783,3.179916 0.218547,1.464292 0.32782,2.447771 0.32782,2.950438 0,0.546377 -0.02187,0.939769 -0.0656,1.180176 -0.02187,0.218551 -0.09836,0.546377 -0.22948,0.983479 -0.34968,0.786783 -0.633793,1.65006 -0.85234,2.589829 -0.1967,0.917914 -0.33876,1.890466 -0.42618,2.917655 -0.72122,0.502667 -1.61728,0.754001 -2.68818,0.754001 -1.092753,0 -2.098087,-0.240406 -3.016,-0.721218 0,-0.262261 0.0328,-0.644726 0.0984,-1.147393 0.08742,-0.524522 0.13113,-0.885131 0.13113,-1.081827 0,-0.262261 -0.02187,-0.469885 -0.0656,-0.62287 -0.196693,-0.218551 -0.360607,-0.458957 -0.49174,-0.721218 -0.109273,-0.262261 -0.229477,-0.601015 -0.36061,-1.016262 -0.17484,-1.005335 -0.295043,-1.726553 -0.36061,-2.163655 -0.0656,-0.437102 -0.0984,-0.972552 -0.0984,-1.60635 0,-0.808638 0.109277,-1.551711 0.32783,-2.229219 0.218553,-1.792118 0.274447,-3.140268 0.405574,-4.123747 0.03836,-0.294116 0.03483,-0.60579 0.04268,-0.824535 0.0165,-0.460207 0.532796,-0.757759 0.764715,-0.788679 0.34968,-0.04373 0.502667,-0.185793 0.45896,-0.42618 0.04373,-0.568233 0.09837,-1.136463 0.16391,-1.70469 0.109273,-0.327827 0.33875,-0.524523 0.68843,-0.59009 0.10928,-0.04373 0.240413,-0.04373 0.3934,0 0.17484,0.04373 0.29504,0.0656 0.3606,0.0656 0.131133,-0.240407 0.229483,-0.426173 0.29505,-0.5573 0.08742,-0.131133 0.21855,-0.229483 0.39339,-0.29505 z m 0.81957,0.3934 c -0.0656,-0.10928 -0.196733,-0.16392 -0.3934,-0.16392 h -0.32782 c -0.218553,0.131133 -0.382467,0.28412 -0.49174,0.45896 -0.08742,0.152987 -0.13113,0.338757 -0.13113,0.55731 0,0.109273 0.03277,0.349677 0.0983,0.72121 0.0656,0.37154 0.07653,0.666583 0.0328,0.88513 h 1.34409 c -0.02187,-0.2404 -0.02187,-0.491733 0,-0.754 0.02187,-0.284113 0.04373,-0.5573 0.0656,-0.81956 0,-0.34968 -0.06557,-0.644723 -0.1967,-0.88513 z m -2.29479,0.59008 c -0.218553,0.10928 -0.37154,0.284123 -0.45896,0.52453 -0.0656,0.218547 -0.0984,0.502663 -0.0984,0.85235 v 0.68843 c 0,0.152987 -0.02187,0.338757 -0.0656,0.55731 h 1.34409 l 0.0656,-2.16366 c 0,-0.196693 -0.109273,-0.316897 -0.32782,-0.36061 -0.218553,-0.06553 -0.37154,-0.0983 -0.45896,-0.0983 z m 2.95044,0.32783 c -0.08742,0.08742 -0.163913,0.207623 -0.22948,0.36061 -0.04373,0.152987 -0.0656,0.36061 -0.0656,0.62287 0,0.17484 0.02187,0.39339 0.0656,0.65565 0.0656,0.240407 0.131167,0.50267 0.1967,0.78679 h 1.44243 c 0,-0.218553 -0.02187,-0.480817 -0.0656,-0.78679 -0.04373,-0.327827 -0.09837,-0.655653 -0.16391,-0.98348 -0.08742,-0.240407 -0.240407,-0.426173 -0.45896,-0.5573 -0.218547,-0.152987 -0.458953,-0.185753 -0.72122,-0.0983 z m -1.86861,1.90139 c -0.06553,0.174847 -0.0983,0.33876 -0.0983,0.49174 0,0.08742 0.02187,0.295045 0.0656,0.622874 0.04373,0.327827 0.0656,0.568233 0.0656,0.721218 0.08742,-0.02185 0.207623,-0.03278 0.36061,-0.03278 0.17484,-0.02185 0.338753,-0.04371 0.49174,-0.06557 h 0.65565 v -1.016262 c 0,-0.26226 -0.01093,-0.458957 -0.0328,-0.59009 -0.17484,-0.218547 -0.469883,-0.32782 -0.88513,-0.32782 -0.240407,0 -0.44803,0.06556 -0.62287,0.19669 z m -2.262,0.3934 c -0.437107,0.15298 -0.677513,0.480805 -0.72122,0.983475 -0.04373,0.480812 -0.07653,0.874204 -0.0984,1.180175 0.131127,-0.04371 0.33875,-0.06556 0.62287,-0.06556 0.26226,0 0.448027,0.01093 0.5573,0.03278 0.04373,-0.393392 0.07653,-0.732146 0.0984,-1.016262 0.04373,-0.284117 0.0656,-0.535453 0.0656,-0.754008 0,-0.2404 -0.17484,-0.3606 -0.52452,-0.3606 z m 0.81956,0.19669 c 0,0.327827 -0.01093,0.655654 -0.0328,0.983481 l -0.0656,0.983479 c 0.152987,-0.02185 0.371537,-0.05464 0.65565,-0.09835 0.28412,-0.04371 0.480817,-0.05464 0.59009,-0.03278 l 0.0656,-1.44244 c -0.02187,-0.284113 -0.218563,-0.42617 -0.59009,-0.42617 -0.305967,0.02187 -0.51359,0.0328 -0.62287,0.0328 z m 3.27827,0.1967 c -0.0656,0.262259 -0.0984,0.52452 -0.0984,0.786781 0,0.262261 0.04371,0.49174 0.13113,0.688436 0.109273,-0.08742 0.25133,-0.131131 0.42617,-0.131131 0.04373,0 0.229503,0.04371 0.55731,0.131131 0.34968,0.06557 0.601013,0.08742 0.754,0.06557 l -0.13113,-0.98348 c 0.109273,-0.458951 -0.10928,-0.688427 -0.65566,-0.688427 -0.305967,0 -0.524517,0.02187 -0.65565,0.0656 l -0.32783,0.0656 z m -1.80305,1.278521 c -0.02187,0.152985 -0.0328,0.360609 -0.0328,0.62287 0,0.196696 0.01093,0.415247 0.0328,0.655653 0.04373,0.240406 0.07653,0.437102 0.0984,0.590087 0.06553,0.174841 0.17481,0.262262 0.32783,0.262262 0.284113,-0.06557 0.502663,-0.109277 0.65565,-0.131131 0.17484,-0.02185 0.30597,-0.01093 0.39339,0.03278 0.109273,-0.284117 0.16391,-0.611943 0.16391,-0.98348 0,-0.371537 -0.05464,-0.721218 -0.16391,-1.049044 -0.08742,-0.02185 -0.21855,-0.03278 -0.39339,-0.03278 -0.37154,0.02185 -0.73215,0.03278 -1.08183,0.03278 z m 1.86861,0.557305 v 0.590087 c 0,0.174841 0.04371,0.415247 0.13113,0.721218 0.152987,0.262261 0.40432,0.458957 0.754,0.590088 0.34968,0.131131 0.688433,0.251334 1.01626,0.360609 0,-0.349681 -0.01093,-0.688435 -0.0328,-1.016262 -0.02187,-0.327827 -0.06558,-0.666581 -0.13113,-1.016262 -0.17484,-0.262261 -0.491737,-0.393392 -0.95069,-0.393392 -0.305973,0 -0.568237,0.05464 -0.78679,0.163914 z m -2.62261,0 c -0.02187,0.02185 -0.174853,0.05464 -0.45896,0.09835 -0.26226,0.04371 -0.39339,0.163916 -0.39339,0.360609 0.02187,0.08742 0.0328,0.229478 0.0328,0.426174 0,0.480812 0.02187,0.797711 0.0656,0.950697 0.06553,0.152985 0.284083,0.196695 0.65565,0.13113 0.17484,0 0.327827,-0.07649 0.45896,-0.229478 0.131133,-0.174841 0.1967,-0.448029 0.1967,-0.819566 -0.02187,-0.305971 -0.05467,-0.557305 -0.0984,-0.754001 -0.02187,-0.196696 -0.174853,-0.251334 -0.45896,-0.163913 z m -1.93418,0.06557 c -0.284113,0 -0.42617,0.152986 -0.42617,0.458957 0.02187,0.240406 0.0328,0.426174 0.0328,0.557305 0,0.08742 -0.02187,0.196695 -0.0656,0.327826 l 1.27852,-0.06557 0.0656,-0.852349 c 0,-0.218551 -0.09835,-0.349681 -0.29504,-0.393391 -0.28412,-0.02185 -0.480817,-0.03278 -0.59009,-0.03278 z m -0.45895,1.704697 -0.13113,1.540785 c 0.240407,-0.109276 0.49174,-0.218552 0.754,-0.327827 0.26226,-0.152985 0.371533,-0.382464 0.32782,-0.688435 0.152987,-0.196696 0.305973,-0.40432 0.45896,-0.622871 -0.08742,-0.08742 -0.185767,-0.13113 -0.29504,-0.13113 -0.37154,0.08742 -0.743077,0.163913 -1.11461,0.229478 z m 4.09783,0 c -0.1967,0.02185 -0.393397,0.05464 -0.59009,0.09835 -0.196693,0.02185 -0.327823,0.120201 -0.39339,0.295044 0.08742,0.08742 0.34968,0.174841 0.78678,0.262261 0.4371,0.08742 0.721217,0.262262 0.85235,0.524523 0.152987,0.04371 0.305973,-4e-6 0.45896,-0.131131 0.17484,-0.152985 0.284113,-0.240406 0.32782,-0.262261 0.06553,0.131131 0.04367,0.240406 -0.0656,0.327826 l -0.32782,0.262261 c 0.131127,0.240407 0.25133,0.426175 0.36061,0.557305 0.131127,0.131131 0.28411,0.229479 0.45895,0.295044 0.08742,0.152986 0.327827,0.426175 0.72122,0.819566 0.415247,0.371537 0.644727,0.710291 0.68844,1.016262 -0.0656,-0.896059 -0.12024,-1.551711 -0.16392,-1.966958 -0.02187,-0.437102 -0.08743,-0.830494 -0.19669,-1.180176 -0.218553,-0.196695 -0.50267,-0.338753 -0.85235,-0.426174 -0.34968,-0.109275 -0.688433,-0.218551 -1.01626,-0.327826 -0.08742,0.04371 -0.14206,0.109272 -0.16392,0.196696 -0.02187,0.08742 -0.04373,0.163913 -0.0656,0.229478 0.10928,-0.284116 0.05464,-0.458957 -0.16391,-0.524522 -0.327827,-0.02185 -0.546377,-0.04371 -0.65565,-0.06557 z m -2.42592,0.262262 c -0.196693,0.109275 -0.29504,0.284116 -0.29504,0.524522 l 0.16391,0.13113 c 0.131133,0.06557 0.251337,0.09835 0.36061,0.09835 0.196693,0 0.30597,-0.120203 0.32783,-0.360609 -0.04373,-0.06557 -0.131153,-0.131132 -0.26226,-0.196696 -0.131133,-0.06557 -0.229483,-0.131132 -0.29505,-0.196695 z m 0.9507,0.163913 c 0.17484,0.06557 0.284113,0.07649 0.32782,0.03278 -0.04373,-0.06557 -0.109297,-0.109277 -0.19669,-0.13113 -0.08742,-0.02185 -0.13113,0.01093 -0.13113,0.09835 z m -1.508,0.295044 c -0.10928,0.393391 -7e-6,0.775855 0.32782,1.147392 0.28412,0.240406 0.579163,0.448029 0.88513,0.62287 0.305973,0.152986 0.59009,0.229479 0.85235,0.229479 0.152987,0 0.3169,-0.03278 0.49174,-0.09835 -0.08742,0.109275 -0.142057,0.196696 -0.16391,0.262261 0.152987,0.305971 0.513597,0.62287 1.08183,0.950697 0.568233,0.305971 0.88513,0.66658 0.95069,1.081827 -0.152987,0.02185 -0.27319,-0.05464 -0.36061,-0.229478 -0.08742,-0.196696 -0.17484,-0.316899 -0.26226,-0.36061 l -0.0656,0.196696 c -0.17484,-0.218551 -0.34968,-0.393391 -0.52452,-0.524522 -0.17484,-0.152985 -0.371537,-0.229478 -0.59009,-0.229478 l -0.81956,2.032523 0.65565,2.491481 c 0.37154,0.305971 0.885137,0.513595 1.54079,0.622871 0.284113,0 0.535447,-0.04371 0.754,-0.131131 0.218547,-0.109275 0.448023,-0.273189 0.68843,-0.49174 0.305973,-1.289451 0.45896,-2.655394 0.45896,-4.09783 l -0.26226,0.327826 0.0656,-0.983479 c -0.743073,-0.699363 -1.47522,-1.409654 -2.19644,-2.130872 -0.04373,0.218551 -0.131153,0.36061 -0.26226,0.426175 0.0656,-0.240407 0.0984,-0.458958 0.0984,-0.655653 -0.08742,-0.06557 -0.196697,-2e-6 -0.32783,0.196695 h 0.1967 c -0.08742,0.262261 -0.240407,0.44803 -0.45896,0.557305 -0.08742,-0.04371 -0.109287,-0.131127 -0.0656,-0.262261 0.06553,-0.152985 0.142027,-0.316898 0.22948,-0.491739 l -0.36061,0.524522 c -0.04373,-0.08742 -0.02187,-0.218551 0.0656,-0.393392 0.109273,-0.174841 0.152983,-0.295044 0.13113,-0.360609 l -1.11461,-0.163913 c -0.0656,0.02185 -0.15302,0.109274 -0.26226,0.262261 -0.109273,0.152986 -0.21855,0.218551 -0.32783,0.196696 -0.305967,-0.04371 -0.5573,-0.08742 -0.754,-0.131131 -0.196693,-0.04371 -0.29504,-0.174837 -0.29504,-0.393391 z m -0.32783,0.721218 c -0.08742,0.109275 -0.273187,0.207623 -0.5573,0.295044 -0.262267,0.08742 -0.42618,0.163913 -0.49174,0.229478 -0.10928,0.305971 -0.185773,0.633798 -0.22948,0.983479 -0.04373,0.327827 -0.0656,0.655653 -0.0656,0.98348 v 0.786783 c 0.02187,0.152986 0.109287,0.699363 0.26226,1.639132 0.131127,0.502667 0.28411,1.02719 0.45895,1.573567 0.174847,0.546377 0.404327,0.983479 0.68844,1.311306 0.240407,0.08742 0.524523,0.131131 0.85235,0.131131 0.568233,0 1.092757,-0.152986 1.57357,-0.458957 0.04373,0.08742 0.02187,0.163913 -0.0656,0.229478 -0.08742,0.06557 -0.163913,0.120204 -0.22948,0.163913 l 0.13113,0.06557 -0.0656,0.196696 c -0.305973,0.152985 -0.557307,0.262261 -0.754,0.327826 -0.1967,0.06557 -0.415253,0.09835 -0.65566,0.09835 -0.305967,0 -0.5573,-0.08742 -0.754,-0.262261 0,0.131131 -0.04371,0.469885 -0.13113,1.016262 -0.0656,0.546377 -0.0984,0.961624 -0.0984,1.24574 0.393393,0.152986 0.80864,0.284117 1.24574,0.393392 0.437107,0.109275 0.841427,0.163913 1.21296,0.163913 v -0.491739 c 0,-0.284117 0.0328,-0.743074 0.0984,-1.376871 0.06553,-0.633798 0.0983,-1.11461 0.0983,-1.442437 l 0.16391,-0.163913 -0.16391,2.425916 c 0.08742,-0.305971 0.142057,-0.62287 0.16391,-0.950697 0.02187,-0.327827 0.0328,-0.688436 0.0328,-1.081827 -0.02187,-0.08742 0.02184,-0.196696 0.13113,-0.327827 0.10928,-0.131131 0.16392,-0.218551 0.16392,-0.262261 0,-0.08742 -0.07649,-0.142058 -0.22948,-0.163913 l -0.13113,0.163913 c -0.10928,-0.196696 -0.25134,-0.611943 -0.42618,-1.24574 -0.15298,-0.655653 -0.28411,-1.092755 -0.39339,-1.311306 0,-0.327827 0.06557,-0.710291 0.1967,-1.147393 0.131127,-0.437102 0.262257,-0.852349 0.39339,-1.24574 -0.02187,-0.02185 -0.0765,-0.01093 -0.16391,0.03278 -0.08742,0.02185 -0.14206,-0.01093 -0.16392,-0.09835 0.04373,-0.06557 0.142083,-0.120204 0.29505,-0.163913 0.17484,-0.04371 0.273187,-0.131127 0.29504,-0.262261 -0.34968,-0.371537 -0.78678,-0.557305 -1.3113,-0.557305 -0.28412,0 -0.710297,0.06556 -1.27853,0.196696 -0.568233,0.131131 -0.98348,0.196696 -1.24574,0.196696 0.327827,-0.196696 0.67751,-0.327827 1.04905,-0.393392 0.393387,-0.08742 0.841413,-0.13113 1.34408,-0.13113 -0.17484,-0.131131 -0.382463,-0.316899 -0.62287,-0.557305 -0.218547,-0.240406 -0.42617,-0.49174 -0.62287,-0.754001 z m 3.08157,7.769487 c -0.109273,0.371536 -0.196693,0.852348 -0.26226,1.442436 -0.04373,0.568233 -0.09837,1.20203 -0.16392,1.901393 h 0.13113 c 0.04373,-0.458957 0.09837,-1.049044 0.16392,-1.770263 0.08742,-0.743073 0.13113,-1.267595 0.13113,-1.573566 z m 1.96696,0.163913 c -0.152987,0.546377 -0.22948,1.0709 -0.22948,1.573567 z m -1.73748,0.03278 c 0,0.262261 -0.0328,0.644726 -0.0984,1.147393 -0.0656,0.502667 -0.0984,0.885131 -0.0984,1.147392 0,0.262261 0.0328,0.513595 0.0984,0.754001 0.458953,0 0.73214,-0.01093 0.81956,-0.03278 0.10928,-0.04371 0.229483,-0.142061 0.36061,-0.295044 l 0.32783,-2.688177 h -0.65565 c -0.240407,0 -0.382467,0.06556 -0.42618,0.196696 -0.02187,-0.174841 -0.13114,-0.251334 -0.32782,-0.229479 z m 1.73748,1.671915 0.0983,-0.458957 z m -0.32783,0.786784 0.0328,-0.327827 z m -4.39287,-6.982704 c 0.393387,-0.152985 0.655647,-0.262261 0.78678,-0.327826 0.152987,-0.06557 0.284117,-0.207625 0.39339,-0.426174 -0.393393,0.262261 -0.786783,0.513594 -1.18017,0.754 z m 3.14713,5.868094 0.0656,-0.09835 z m 0.0984,-0.852349 0.0656,0.426174 z"
       sodipodi:nodetypes="cccsscccssccccsccsccccsccsccccccccccsccsccccccccssccccccccscccccccccssccccscscccccsccssccscsccccccscscccsccccscccccsccsccscscscsccsccscccccssscsccccssccccccccccscccccccccccccsccccsccsccssccsccccscccccccccccccccccccccccccccccccsccccccsccscscccccsscccscsccccccssccccscccccssccccccccccccccccssccccsccccccccccccccccccc" /></g></svg>
