<?xml version="1.0" encoding="UTF-8" standalone="no"?>
<!-- Created with Inkscape (http://www.inkscape.org/) -->

<svg
   version="1.1"
   id="svg1"
   xml:space="preserve"
   width="66.224327"
   height="72.115082"
   xmlns:inkscape="http://www.inkscape.org/namespaces/inkscape"
   xmlns:sodipodi="http://sodipodi.sourceforge.net/DTD/sodipodi-0.dtd"
   xmlns="http://www.w3.org/2000/svg"
   xmlns:svg="http://www.w3.org/2000/svg"><defs
     id="defs1" /><sodipodi:namedview
     id="namedview1"
     pagecolor="#ffffff"
     bordercolor="#000000"
     borderopacity="0.25"
     inkscape:showpageshadow="2"
     inkscape:pageopacity="0.0"
     inkscape:pagecheckerboard="0"
     inkscape:deskcolor="#d1d1d1" /><inkscape:clipboard
     min="259.41556,37.137185"
     max="325.63989,109.25227"
     geom-min="259.41556,37.137185"
     geom-max="325.63989,109.25227" /><g
     id="g5435"
     transform="matrix(4.1157778,0,0,4.1157778,-290.53278,-57.46849)"><path
       style="display:inline;opacity:1;fill:#ffb380;stroke-width:0.918302"
       d="m 79.527444,13.962972 -0.465603,0.377238 c -0.256096,0.207581 -0.549826,0.41518 -0.65319,0.46147 -0.103368,0.04629 -0.441794,0.406677 -0.751893,0.800468 -0.3101,0.393791 -0.716211,0.894939 -0.902272,1.113627 -0.362754,0.426369 -1.183124,1.116032 -1.414899,1.189592 -0.104074,0.03303 -0.225295,0.306422 -0.46147,1.039213 -0.372967,1.157217 -0.781968,2.098364 -2.277899,5.242057 -1.086604,2.283494 -2.010211,4.40836 -2.010211,4.625556 0,0.234035 0.974661,1.658239 1.606103,2.347145 0.276521,0.301689 0.315841,0.31936 0.706416,0.31936 0.479076,0 2.017527,-0.32599 2.469616,-0.523483 0.377912,-0.165087 0.550862,-0.388935 1.19321,-1.543574 0.735213,-1.321562 0.942107,-1.498653 2.011764,-1.718757 0.320188,-0.06589 0.709248,-0.184586 0.864545,-0.264067 0.155292,-0.07948 0.671213,-0.547757 1.146701,-1.040764 l 0.864547,-0.896586 0.827339,-0.283704 c 1.651781,-0.566884 2.462051,-1.072655 2.775024,-1.732194 0.08108,-0.170855 0.320371,-0.395132 0.701249,-0.657324 0.837094,-0.576237 1.099577,-1.049645 0.810803,-1.461926 -0.06079,-0.0868 -0.286176,-0.270557 -0.500743,-0.408244 -0.34617,-0.222143 -0.446122,-0.249796 -0.885735,-0.243396 -0.617614,0.009 -0.780142,0.07354 -1.461926,0.577743 -0.300913,0.222537 -0.713875,0.477894 -0.917773,0.567923 -0.203901,0.09003 -0.576379,0.297646 -0.827339,0.460954 -0.337939,0.219904 -0.533927,0.296623 -0.756028,0.296623 -0.366761,0 -0.45365,-0.06627 -0.834573,-0.638721 -0.640339,-0.962297 -0.903671,-1.673442 -0.724503,-1.954919 0.05264,-0.08269 0.265755,-0.564418 0.473871,-1.070736 0.208127,-0.506319 0.463923,-1.056066 0.568442,-1.22163 0.187758,-0.297429 0.195654,-0.300757 0.647504,-0.300757 0.298238,0 0.533633,-0.04556 0.676963,-0.130225 0.216529,-0.127908 0.227692,-0.125743 0.763259,0.142627 0.700873,0.351206 0.797801,0.376778 1.097092,0.290938 0.348576,-0.09997 1.426549,-0.823138 1.480529,-0.993221 0.07296,-0.229891 -0.03528,-0.554502 -0.25218,-0.756543 -0.397674,-0.370424 -1.138816,-0.867027 -1.793689,-1.201994 -1.121873,-0.573836 -2.044367,-0.809769 -3.163631,-0.809769 z"
       id="path940" /><path
       id="path861"
       style="font-style:normal;font-variant:normal;font-weight:normal;font-stretch:normal;font-size:medium;line-height:125%;font-family:Gallaudet;-inkscape-font-specification:Gallaudet;text-align:start;letter-spacing:0px;word-spacing:0px;text-anchor:start;display:inline;opacity:1;fill:#000000;fill-opacity:1;stroke:none;stroke-width:0.242967px;stroke-linecap:butt;stroke-linejoin:miter;stroke-opacity:1"
       d="m 79.51093,14.044234 q 0.22948,-0.0328 0.68843,-0.0328 1.44244,0 2.68818,0.59009 1.27852,0.55731 2.39313,1.573568 0.22948,0.62287 -0.0984,0.786783 -0.32782,0.163914 -0.754,0.49174 -0.42617,0.327827 -0.754,0.295044 -0.22948,0.03278 -0.754,-0.262261 -0.52452,-0.295044 -0.65565,-0.295044 -0.1967,0 -0.42618,0.229479 h -0.95069 q -0.32783,0.393391 -0.72122,1.376871 -0.36061,0.983479 -0.62287,1.376871 0.0656,0.590087 0.42617,1.212957 0.3934,0.622871 0.78679,1.180176 0.26226,0.13113 0.52452,0.13113 0.26226,0 0.85235,-0.426174 0.59009,-0.426174 0.91791,-0.426174 0.85235,-0.655653 1.21296,-0.885132 0.39339,-0.229478 0.9507,-0.229478 0.29504,0 0.59008,0.09835 0.49174,0.295043 0.65566,0.458957 0.16391,0.163913 0.19669,0.393391 0,0.524523 -0.68843,0.98348 -0.68844,0.426174 -0.81957,0.590087 -0.36061,0.98348 -1.7047,1.508002 -1.3113,0.524522 -1.73748,0.62287 -0.39339,0.09835 -1.18017,1.049045 -0.754,0.917914 -1.34409,1.11461 -0.62287,0.13113 -1.21296,0.262261 -0.68843,0.229478 -1.08182,0.983479 -0.3934,0.754001 -0.78679,1.409654 -0.36061,0.655653 -0.88513,0.819566 -0.49174,0.131131 -1.21296,0.295044 -0.72122,0.163913 -1.08182,0.163913 -0.26227,0 -0.3934,-0.03278 -1.08182,-1.049044 -1.93417,-2.622611 0.52452,-1.245741 1.04904,-2.524264 2.19644,-4.556787 2.6554,-5.638615 0.49174,-1.11461 0.91791,-2.622611 0.85235,-0.426175 1.67192,-1.376871 0.88513,-1.147393 1.37687,-1.737483 0.22947,-0.0656 0.52452,-0.29505 0.32783,-0.26226 0.72122,-0.59008 z m 0.78678,1.868607 q -0.0656,0.13113 -0.19669,0.229478 -0.0984,0.06557 -0.1967,-0.03278 -0.72122,0.09835 -1.18017,0.163913 -0.45896,0.06556 -0.78679,0.393392 -0.0984,0.163913 -0.22948,0.327826 -0.13113,0.163913 -0.29504,0 -0.45896,0.786784 -1.24574,1.639132 -0.754,0.852349 -1.44244,1.60635 -1.27852,3.016003 -2.0653,4.687918 -0.754,1.671915 -0.754,1.999741 0,0.524523 -0.42618,0.622871 -0.29504,0.688435 -0.59009,1.376871 0,0.229478 0.1967,0.393391 0.1967,0.163914 0.78678,0.98348 0.59009,0.819566 1.08183,0.819566 0.26226,0 0.52452,-0.131131 0,-0.557305 0.22948,-1.147392 0.26226,-0.62287 0.52452,-1.180175 l -0.81956,-0.09835 q -0.1967,-0.163914 -0.32783,-0.262262 -0.0984,-0.13113 -0.0328,-0.262261 0.52452,0.360609 1.01626,0.262261 l -0.45895,-0.13113 q -0.16392,-0.06556 -0.29505,-0.196696 -0.13113,-0.163913 0,-0.295044 0.42618,0.262261 1.21296,0.262261 0.22948,0 0.49174,0 0.32783,-0.06557 0.45896,-0.06557 1.11461,-0.754001 1.54078,-1.999741 0.45896,-1.245741 0.45896,-2.85209 0,-0.360609 -0.0328,-0.754001 -0.0328,-0.426174 -0.0328,-0.655653 -0.26226,0.09835 -0.42618,0.09835 -0.22948,0 -0.45895,-0.06557 -0.1967,-0.09835 -0.49174,-0.262262 h 0.68843 q 0.72122,0 1.08183,-0.229478 0.36061,-0.983479 0.72122,-1.999741 -0.26226,0 -0.26226,0.06556 -0.1967,0.09835 -0.42618,0.09835 -0.22948,0 -0.32782,-0.131131 0.65565,0 0.88513,-0.327826 0.26226,-0.360609 0.26226,-0.62287 0,-0.295044 -0.36061,-0.49174 0.29504,0.06557 0.62287,0.09835 0.39339,-0.196696 0.65565,-0.360609 0.29505,-0.196696 0.26226,-0.557305 0.3934,0.295044 1.04905,0.295044 0.26226,0 0.52452,-0.03278 0.29504,-0.03278 0.55731,-0.06557 0.19669,-0.09835 0.39339,-0.295044 0.19669,-0.229479 0.0328,-0.524522 -0.32783,0.03278 -0.91792,-0.196696 -0.5573,-0.262261 -0.78678,-0.262261 -0.13113,0 -0.39339,0.06556 z m -1.63913,-0.917917 q -0.52452,0.426177 -1.60635,1.868614 -1.08183,1.409653 -1.57357,1.803045 l -0.49174,0.983479 q 0.13113,-0.196696 0.1967,-0.327826 0.5573,-0.393392 1.14739,-1.180175 0.62287,-0.819566 1.37687,-1.835828 l 2.16366,-0.655653 2.4587,0.163913 q 0.29504,0.524522 0.29504,0.983479 0,0.196696 -0.0328,0.295044 0.39339,0.196696 0.62287,0.295044 0.22948,0.09835 0.52452,0.09835 0.1967,0 0.39339,-0.09835 0.1967,-0.131131 0.29505,-0.229479 0.13113,-0.09835 0.0983,-0.295043 -0.22948,-0.03278 -0.49174,-0.03278 -0.26226,-0.03278 -0.39339,-0.360609 -0.0983,-0.327827 -0.52453,-0.557305 -0.42617,-0.229479 -0.81956,-0.458957 -0.16391,-0.131131 -0.45896,0 -0.26226,0.13113 -0.36061,0.13113 l 0.0984,-0.393393 q -0.45895,0 -1.44243,-0.0983 -0.98348,-0.0983 -1.47522,-0.0983 z m 5.63861,0.786786 q -0.13113,0.196696 0,0.327827 0.13114,0.13113 0.22948,0.196696 0.13113,0.09835 0.26226,0.13113 0.16392,0.03278 0.22948,-0.13113 -0.32782,-0.393392 -0.72122,-0.524523 z m -2.58982,-1.376866 q -0.22948,0 -0.68844,-0.0656 -0.45896,-0.0656 -0.72122,-0.0656 -0.29504,0 -0.52452,0.0656 -0.22948,0.0656 -0.42617,0.29504 -0.16392,0 -0.22948,0 -0.0328,0 -0.0328,0.0984 l 2.49148,0.1967 q 0.45896,0.19669 1.27852,0.622868 0.85235,0.393392 1.18018,0.491739 l -0.13113,-0.295043 q 0.26226,-0.229479 0,-0.426175 -0.3934,-0.196699 -0.45896,-0.262259 -0.26226,-0.0328 -0.52452,-0.0656 l 0.0656,-0.16391 q -0.26226,-0.13113 -0.68844,-0.22948 -0.42617,-0.13113 -0.59009,-0.19669 z m 0.36061,1.606345 -0.22948,-0.03278 z m 1.70469,0.229478 q -0.0984,0.09835 0,0.196696 0.0984,0.06557 0.1967,0.131131 0.13113,0.13113 0.36061,-0.03278 z m 1.01626,0.622871 h 0.13114 q 0.0983,-0.131131 0.19669,-0.295044 -0.42617,0 -0.32783,0.295044 z m -5.278,1.114609 q 0.42617,0.196696 0.59009,0.163914 0.16391,-0.06557 0.26226,-0.295044 0.13113,-0.262261 0.19669,-0.393392 -0.29504,-0.13113 -0.62287,0.163913 -0.29504,0.262262 -0.42617,0.360609 z m -3.67166,-0.163913 q -0.26226,0.295044 -0.49174,0.590088 z m 3.44218,0.295044 -0.0984,0.688436 q -0.26226,0.295043 -0.49174,1.016262 -0.22948,0.688435 -0.42617,1.016262 0.22947,-0.131131 0.39339,-0.590088 0.19669,-0.458957 0.32782,-0.524522 -0.19669,0.426174 -0.29504,0.655653 -0.0656,0.196695 -0.0328,0.360609 0.55731,-0.360609 0.81957,-0.950697 0.29504,-0.62287 0.42617,-1.376871 -0.16391,0.03278 -0.36061,-0.131131 -0.19669,-0.163913 -0.26226,-0.163913 z m -0.1967,0.229479 q -0.22947,0.360609 -0.13113,0.458957 z m -1.37687,3.311047 0.16392,1.704697 q 0.0983,0.393392 0.0983,0.786784 0,0.688435 -0.1967,1.311305 -0.1967,0.622871 -0.42617,1.049045 -0.1967,0.426174 -0.3934,0.721218 -0.16391,0.262261 -0.0656,0.458957 l 2.62262,-0.819566 1.60635,-1.573567 Q 80.98606,24.33798 80.85493,23.649545 80.7238,22.961109 80.19928,22.6005 q 0.0656,-0.327826 -0.32783,-0.491739 -0.3606,-0.196696 -0.42617,-0.426175 -0.0656,-0.590087 -0.0983,-1.180175 -0.81957,0.721218 -1.63913,1.147393 z m 5.57305,0.262261 q 0.0983,1.081827 0.39339,1.868611 -0.29504,-0.295044 -0.45895,-0.819567 -0.16392,-0.524522 -0.22948,-0.786783 l -0.22948,0.06556 q -0.39339,0.229479 -0.68843,0.393392 -0.26227,0.131131 -0.26227,0.426174 0,0.131131 0.0984,0.327827 -0.16391,-0.62287 -0.81956,-0.524523 0,0.590088 0.19669,1.081828 0,0.360609 0.0328,0.754001 0.0328,0.393391 0.16392,0.557305 1.24574,-0.590088 2.49148,-1.212958 0.32782,-0.03278 0.65565,-0.426175 0.36061,-0.426174 0.52452,-0.62287 0.0984,-0.295044 0.68844,-0.590088 0.59009,-0.327826 0.59009,-0.62287 0,-0.163913 -0.13113,-0.393392 -0.42618,-0.426174 -1.01627,-0.426174 -0.52452,0 -1.04904,0.295044 -0.52452,0.262261 -0.9507,0.655653 z m -3.73722,-0.852349 q -0.0328,0.327826 0.32783,0.754001 z m 1.57357,3.114351 -0.0656,-0.590087 z m -3.63888,1.540785 0.1967,-0.754001 z m -0.72121,2.327567 q -0.49174,0.786784 -0.81957,1.344089 -0.32783,0.557305 -0.42617,1.081827 0.26226,-0.655653 0.59008,-1.24574 0.36061,-0.590088 0.78679,-1.11461 z m -0.65566,0.196696 q -0.42617,0.458957 -0.754,1.016262 -0.29504,0.557305 -0.29504,1.016262 z m -1.3113,0.327827 q -0.45896,0.393391 -0.72122,1.049044 -0.22948,0.62287 -0.36061,1.376871 0.29504,0.06557 0.45896,0.03278 0.19669,-0.06557 0.49174,-0.229479 0,-0.491739 0.39339,-1.344088 0.42617,-0.885131 0.45896,-0.950697 -0.45896,0.03278 -0.72122,0.06557 z m 3.37661,-5.343571 q 0.29504,-0.229479 0.55731,-0.327827 0.26226,-0.13113 0.5573,-0.09835 -0.62287,0.09835 -1.11461,0.426175 z" /></g></svg>
