<?xml version="1.0" encoding="UTF-8" standalone="no"?>
<!-- Created with Inkscape (http://www.inkscape.org/) -->

<svg
   version="1.1"
   id="svg1"
   xml:space="preserve"
   width="37.574776"
   height="90.0168"
   xmlns:inkscape="http://www.inkscape.org/namespaces/inkscape"
   xmlns:sodipodi="http://sodipodi.sourceforge.net/DTD/sodipodi-0.dtd"
   xmlns="http://www.w3.org/2000/svg"
   xmlns:svg="http://www.w3.org/2000/svg"><defs
     id="defs1" /><sodipodi:namedview
     id="namedview1"
     pagecolor="#ffffff"
     bordercolor="#000000"
     borderopacity="0.25"
     inkscape:showpageshadow="2"
     inkscape:pageopacity="0.0"
     inkscape:pagecheckerboard="0"
     inkscape:deskcolor="#d1d1d1" /><inkscape:clipboard
     style="font-variation-settings:normal;opacity:1;vector-effect:none;fill:#000000;fill-opacity:1;stroke-width:0.99999818px;stroke-linecap:butt;stroke-linejoin:miter;stroke-miterlimit:4;stroke-dasharray:none;stroke-dashoffset:0;stroke-opacity:1;-inkscape-stroke:none;stop-color:#000000;stop-opacity:1;stroke:none"
     min="372.39774,19.192634"
     max="409.97251,109.20944"
     geom-min="372.39774,19.192634"
     geom-max="409.97251,109.20944" /><g
     id="layer2"
     transform="matrix(3.7795276,0,0,3.7795276,-372.39774,-19.192634)"><g
       style="display:inline;stroke-width:0.918302"
       transform="matrix(1.0889662,0,0,1.0889662,-8.2330985,-5.3793243)"
       id="g5442"><path
         style="display:inline;opacity:1;fill:#ffb380;stroke-width:0.918302"
         d="m 103.7823,9.6030313 c -0.5551,4.234e-4 -0.83158,0.1943995 -0.93018,0.6521567 -0.0696,0.32341 -0.0131,0.716845 0.51935,3.643188 0.59774,3.284833 0.66176,3.748092 0.52141,3.748092 -0.0414,0 -0.0749,-0.04454 -0.0749,-0.09922 0,-0.200879 -0.66803,-1.464749 -0.83664,-1.582849 -0.20586,-0.14419 -0.44447,-0.151982 -1.10949,-0.03617 -0.59882,0.10428 -0.8811,0.343067 -0.9555,0.808219 -0.0472,0.295414 -0.0613,0.308649 -0.32194,0.309025 -0.41486,6.35e-4 -0.819591,0.137288 -1.069707,0.361218 -0.187407,0.167781 -0.241993,0.297754 -0.320394,0.765845 l -0.09405,0.56379 -0.296106,0.0956 c -0.709006,0.228463 -0.829151,0.732509 -0.75344,3.167249 0.05829,1.87488 0.142322,2.424895 0.546219,3.578593 0.144751,0.413467 0.394327,1.123901 0.554487,1.578714 0.330774,0.939324 0.358286,1.287388 0.170532,2.161109 -0.186812,0.869323 -0.124579,0.966295 0.973579,1.51257 0.4743,0.235942 1.07791,0.475583 1.34152,0.532783 0.99246,0.215331 1.52048,0.138293 2.81999,-0.41031 l 0.91209,-0.38499 0.0806,-0.690915 c 0.0443,-0.379994 0.10334,-0.976177 0.13074,-1.324983 0.0454,-0.576693 0.0696,-0.651552 0.26924,-0.826822 1.12469,-0.987587 1.16105,-1.078694 1.08675,-2.744019 -0.0392,-0.878822 -0.0257,-1.281897 0.0584,-1.705322 0.26926,-1.355918 0.23709,-1.887891 -0.29766,-4.912362 -0.1825,-1.032234 -0.38747,-2.351315 -0.45527,-2.931604 -0.1122,-0.959813 -0.17964,-1.22146 -0.74724,-2.896981 -0.95979,-2.8332647 -1.01777,-2.9321299 -1.72237,-2.9316037 z"
         id="path946" /><path
         id="path863"
         style="font-style:normal;font-variant:normal;font-weight:normal;font-stretch:normal;font-size:medium;line-height:125%;font-family:Gallaudet;-inkscape-font-specification:Gallaudet;text-align:start;letter-spacing:0px;word-spacing:0px;text-anchor:start;display:inline;opacity:1;fill:#000000;fill-opacity:1;stroke:none;stroke-width:0.242967px;stroke-linecap:butt;stroke-linejoin:miter;stroke-opacity:1"
         d="m 103.25911,9.7497037 q 0.22948,-0.13113 0.52452,-0.13113 0.754,0 0.85235,0.6228703 0.29504,0.52452 0.81956,2.19644 0.55731,1.67191 0.68844,1.96696 0,1.016257 0.49174,3.671651 0.52452,2.655395 0.52452,3.737222 0,0.590087 -0.0984,1.180175 -0.16391,0.458957 -0.16391,1.081827 0,0.393392 0.0328,0.786784 0.0328,0.393392 0.0656,0.754001 0,0.62287 -0.16392,1.049044 -0.13113,0.393392 -0.62287,0.786784 -0.5573,0.196696 -0.62287,0.786783 -0.0328,0.590088 -0.0656,1.11461 l -0.16391,1.212958 -1.80304,0.754001 q -0.42618,0.13113 -0.98348,0.13113 -0.72122,0 -1.27853,-0.196696 -0.5573,-0.196695 -1.508002,-0.721218 -0.49174,-0.196696 -0.49174,-0.688435 0,-0.163913 0.13113,-0.721218 0.16392,-0.590088 0.0984,-0.885132 -0.0984,-0.655653 -0.754,-2.294785 -0.62287,-1.671915 -0.62287,-2.720959 0,-0.36061 -0.0328,-1.081828 -0.0328,-0.721218 -0.0328,-1.049044 0,-0.655653 0.0328,-1.049045 0.0328,-0.393392 0.16391,-0.721218 0.13114,-0.360609 0.55731,-0.426174 0.45896,-0.09835 0.39339,-0.458958 0,-0.426174 0.13113,-0.754 0.16392,-0.360609 0.655652,-0.49174 0.52453,-0.163913 0.88514,-0.06557 0.0656,-0.458957 0.16391,-0.688436 0.13113,-0.262261 0.42617,-0.393392 0.3934,-0.06557 0.65566,-0.09835 0.29504,-0.06557 0.36061,-0.06557 0.26226,0 0.45895,0.09835 0.1967,0.09835 0.29505,0.393392 0.16391,0.295044 0.32782,0.655653 0.16392,0.327826 0.26226,0.655653 0.0656,0 0.16392,-0.03278 0,-0.163913 0.0328,-0.327826 -0.62287,-3.311054 -1.21296,-6.654884 0.0328,-0.26226 0.0984,-0.52452 0.0656,-0.2950403 0.32783,-0.3933903 z m -0.16392,0.3933903 q -0.0656,0.32783 -0.0656,0.49174 0,0.52452 0.16392,1.08183 0.16391,0.52452 0.32782,1.01626 0.32783,0.0328 0.88513,-0.13113 0.55731,-0.16391 0.78679,-0.0984 0,-0.42617 -0.26226,-0.95069 -0.22948,-0.55731 -0.42618,-1.04905 -0.0328,-0.39339 -0.29504,-0.5245203 -0.26226,-0.13113 -0.49174,-0.13113 -0.36061,0 -0.62287,0.2950403 z m 2.09809,2.55705 -1.63913,0.26226 q 0.0328,0.32783 0.1967,0.98348 0.16391,0.65565 0.16391,1.04904 0.29504,0 0.78678,-0.13113 0.49174,-0.13113 0.754,-0.13113 0.13113,0 0.3934,0.0656 0,-0.45896 -0.0984,-0.72122 -0.0656,-0.26226 -0.55731,-1.37687 z m -0.49174,2.39313 q 0.22948,-0.0983 0.49174,-0.1967 -0.26226,0.0984 -0.49174,0.1967 z m 1.1474,-0.0983 q -0.22948,0 -0.72122,0.16392 -0.49174,0.163909 -0.754,0.163909 -0.13113,0 -0.3934,-0.06556 0.16392,1.212958 0.32783,2.425916 1.01626,0.13113 2.06531,0.229478 z m -3.17992,1.114613 q -0.32783,-0.03278 -0.62287,0.06557 -0.26226,0.09835 -0.68844,0.360609 -0.0984,0.49174 -0.0984,0.917914 0,0.754001 0.13113,1.245741 0.13113,0.458957 0.9507,2.458698 l 0.0656,-0.655653 q 0.13113,-0.163913 0.68844,-0.327826 0.26226,0.03278 0.49174,0.458957 0.22947,0.426174 0.29504,0.491739 -0.36061,-1.573567 -0.36061,-3.311047 -0.0984,-0.950696 -0.85235,-1.704697 z m -1.90139,1.24574 q -0.13113,-0.03278 -0.42618,0 -0.26226,0.03278 -0.458962,0.131131 -0.16391,0.06556 -0.26226,0.262261 -0.0656,0.163913 -0.16391,0.917914 0.42617,0.524522 0.852352,1.934176 0.45896,1.376871 0.98348,1.934176 l -0.0984,-1.049045 q 0.16391,-0.393391 0.78678,-0.393391 l -0.78678,-2.09809 q -0.0656,-0.163913 -0.16392,-0.754 -0.0656,-0.622871 -0.26226,-0.885132 z m 2.95043,1.081827 q 0.0656,0.327827 0.16392,0.655653 0.13113,-0.327826 0.22948,-0.524522 0.0983,-0.229478 0.22947,-0.360609 l -0.13113,0.688436 q -0.32782,0.295043 -0.32782,0.721218 0,0.262261 0.16391,0.786783 0.16391,0.524522 0.16391,0.754001 0.0328,0.196696 0.22948,0.360609 0.22948,0.163913 0.39339,0.03278 l 0.59009,-1.049045 q 0.13113,0.06556 0,0.295044 -0.0983,0.229478 -0.0983,0.327826 l 0.22948,-0.03278 q -0.0984,0.196696 -0.22948,0.458957 -0.0984,0.229478 -0.26226,0.327826 -0.0328,0.131131 0.22948,0.360609 0.26226,0.229479 0.32783,0.295044 0.16391,-0.131131 0.32782,-0.458957 0.16391,-0.360609 0.22948,-0.49174 0.0656,0.295044 -0.0656,0.655653 -0.13113,0.327827 -0.26226,0.62287 0.36061,0.458958 0.754,0.917915 0.1967,-1.147393 0.1967,-2.327568 0,-1.639132 -0.16392,-2.393133 -0.16391,-0.786784 -0.45895,-0.917914 -0.16392,0.09835 -0.36061,0.09835 -0.26226,0 -0.81957,-0.163914 -0.52452,-0.196695 -0.65565,-0.196695 -0.45896,0 -0.62287,0.557304 z m -4.917392,0.688436 q -0.36061,0.06557 -0.42618,0.393392 -0.0328,0.295044 -0.0328,0.524522 v 0.360609 q 0.49174,1.081827 0.754,1.639132 0.29505,0.524523 0.72122,0.819566 0.196702,0.06557 0.360612,0.06557 0.49174,0 0.65565,-0.393392 -0.19669,0.06557 -0.32782,0.06557 -0.16392,0.09835 -0.42618,0.09835 -0.229482,0 -0.360612,-0.13113 -0.16391,-0.524523 -0.0656,-0.917914 0.22948,-0.393392 0.590092,-0.295044 l -0.491742,-1.508002 q -0.19669,-0.327826 -0.32782,-0.557305 -0.0983,-0.262261 -0.32783,-0.262261 -0.13113,0 -0.29504,0.09835 z m 3.770002,1.573567 q 0,0.754001 0.0328,0.885131 0.1967,0 0.42618,-0.09835 0.22947,-0.13113 0.52452,-0.426174 0,-0.458957 -0.29505,-0.458957 -0.45895,0.09835 -0.68843,0.09835 z m 1.01626,0.688435 q -0.52452,0.196696 -0.85235,0.622871 -0.32782,0.426174 -0.32782,0.983479 0.13113,0.524522 0.45895,0.950697 0.36061,0.426174 0.68844,0.655653 0.36061,0.229478 0.81957,0.327826 0.49174,0.06556 0.65565,0.262261 l -0.45896,0.163913 0.754,0.655653 q -0.26226,0.06557 -0.52452,-0.09835 -0.22948,-0.196695 -0.45896,-0.393391 0.0328,0.393391 0.0656,0.786783 -0.19669,-0.13113 -0.32782,-0.62287 -0.0984,-0.49174 -0.29505,-0.590088 -0.26226,-0.06556 -0.62287,-0.491739 -0.36061,-0.426175 -0.62287,-0.524523 -0.29504,0.426175 -0.29504,1.049045 0,0.426174 0.16391,0.983479 0.16392,0.524523 0.32783,1.016262 0.32782,0.524523 0.85235,0.655653 0.52452,0.131131 0.95069,0.131131 0.22948,0 0.68844,-0.06557 0.72122,-0.393391 1.08183,-1.212957 0.39339,-0.819567 0.39339,-1.770263 -0.1967,-0.524523 -0.39339,-0.721218 l -0.81957,0.950696 -0.45896,-0.09835 q 0.0983,-0.393391 0.29505,-0.655653 0.19669,-0.262261 0.68843,-0.688435 -0.13113,-0.524522 -0.91791,-1.180175 -0.754,-0.688436 -0.78678,-0.754001 0.0984,0.262261 0.13113,0.426174 0.13113,0.131131 0.13113,0.295044 0,0.262261 -0.26226,0.524522 -0.22948,0.262262 -0.45896,0.49174 -0.26226,0.09835 -0.45896,0.03278 -0.19669,-0.09835 -0.65565,-0.557305 0,-0.458957 0.32782,-0.786784 0.32783,-0.360609 0.85235,-0.688435 -0.13113,-0.131131 -0.32782,-0.06557 z m -1.57356,0.03278 q -0.0656,0.163913 -0.36061,0.196696 -0.26226,0.03278 -0.26226,0.196696 0.0328,0.295044 0.0984,0.62287 0.0656,0.295044 0.32782,0.295044 0.26226,0 0.52452,-0.590088 -0.16391,-0.590087 -0.32782,-0.721218 z m -3.606092,0.229479 q -0.0656,0.262261 -0.0656,0.393391 0.0328,0.360609 0.0984,0.688436 0.26226,0 0.39339,0 0.19669,0 0.29504,-0.131131 -0.0656,-0.06557 -0.26226,-0.491739 -0.1967,-0.458957 -0.45896,-0.458957 z m 1.999742,0.03278 q -0.32783,0.163914 -0.524532,0.229479 -0.19669,0.06556 -0.0656,0.426174 0.196702,0.163913 0.262272,0.163913 0.49174,-0.06557 0.52452,-0.327826 z m 3.47496,0.131131 q -0.72122,0.262261 -0.88513,1.049044 0.0328,0.163914 0.19669,0.229479 0.1967,0.06557 0.39339,0.131131 l 0.29505,-0.49174 q 0.0328,-0.06557 0.26226,-0.131131 0.22948,-0.06557 0.19669,-0.262261 -0.0656,-0.06556 -0.16391,-0.295044 -0.0984,-0.262261 -0.29504,-0.229478 z m 0.22948,1.11461 0.0328,-0.163913 -0.16392,0.229478 z m -2.62262,0.262261 q -0.45895,-0.295044 -0.59008,-0.295044 -0.13113,0 -0.32783,0.196696 -0.16391,0.163913 -0.39339,0.163913 -0.229482,0 -0.655652,-0.196696 -0.42618,-0.196696 -0.59009,-0.196696 -0.22948,0 -0.49174,0.196696 0,0.98348 0.39339,2.196438 0.52452,1.376871 0.754,2.065306 0.1967,0.426175 0.557312,0.590088 0.39339,0.163913 0.85234,0.163913 0.42618,0 0.72122,-0.03278 0.29505,-0.03278 0.62287,-0.09835 v 2.360351 l 0.32783,-2.589829 q -0.32783,-0.49174 -0.55731,-0.950697 -0.19669,-0.458957 -0.32782,-1.049044 l 0.0984,-0.06557 0.13113,0.03278 v -0.196696 q -0.1967,-0.196696 -0.1967,-0.458957 0,-0.262261 0.26226,-0.754001 0.29505,-0.524522 0.32783,-0.62287 l -0.13113,-0.196696 q -0.52452,0.426174 -0.85235,0.983479 -0.29504,0.557305 -0.65565,1.442437 0.16391,-1.573567 1.37687,-2.622612 h -0.13113 q -0.39339,0.295044 -0.88513,0.819566 -0.49174,0.524523 -0.9507,1.016262 h -0.196702 l 1.475222,-1.639132 z m 0.3934,-0.196696 h 0.19669 q -0.0328,-0.06556 -0.19669,0 z m 3.9667,1.081827 q -0.26227,0.229479 -0.3934,0.360609 -0.13113,0.131131 -0.19669,0.393392 0.32782,-0.262261 0.39339,-0.360609 0.0984,-0.131131 0.1967,-0.393392 z m -3.83557,1.73748 q 0.0984,0.327827 0.22947,0.688436 0.13114,0.327826 0.26227,0.426174 z m 1.08182,2.22922 q 0,0.426175 -0.0328,0.917914 -0.0328,0.49174 -0.0656,0.950697 0,0.557305 0.13113,0.950697 0.0656,-0.03278 0.49174,-0.06557 0.42618,-0.03278 0.59009,-0.229478 l 0.13113,-1.835828 q -0.45896,-0.03278 -0.78678,-0.06556 -0.32783,-0.06557 -0.45896,-0.426175 l 0.0984,-0.06557 q 0.16391,0.13113 0.52452,0.196696 0.3934,0.06556 0.62287,0.06556 -0.22947,0 -0.65565,-0.163913 -0.42617,-0.196696 -0.59009,-0.229479 z m -0.85235,0.09835 q -0.19669,0.09835 -0.68843,0.163913 -0.49174,0.06557 -0.65565,0.196696 0.26226,0 0.52452,0 0.19669,0 0.26226,0.06557 -0.49174,0.196695 -1.08183,0.196695 -0.32782,0 -0.45895,-0.03278 l 0.0983,1.475219 q 0.45895,0.393392 0.81956,0.590087 0.39339,0.163914 0.68844,0.163914 0.13113,0 0.39339,-0.06557 z m 0.52453,0.09835 q -0.13113,0.62287 -0.16392,1.278523 -0.0328,0.622871 -0.0328,1.376871 h 0.29505 q -0.0656,-0.458957 -0.0656,-0.688435 0,-0.229479 0,-0.557305 0.0328,-0.327827 0.0656,-0.754001 0,-0.360609 -0.0983,-0.655653 z m -3.016012,0.196696 -0.0328,1.573567 q 0.22948,0.229478 0.360612,0.131131 -0.0656,-0.196696 -0.0983,-0.819567 -0.0328,-0.62287 -0.22948,-0.885131 z m 5.343572,1.11461 0.0984,-1.11461 z m -0.72121,0.885131 h 0.13113 q 0.0656,-0.327826 0.0984,-0.786783 0.0328,-0.49174 0.0328,-0.917914 z m -3.2127,-10.523229 -0.26226,0.262262 0.32782,-0.09835 q 0,0.09835 -0.16391,0.196696 -0.16391,0.06556 -0.29504,0.13113 -0.13113,-0.13113 -0.26227,-0.13113 0.26227,-0.262262 0.65566,-0.36061 z m 5.11409,0.262262 h 0.1967 z m -7.408882,0.655653 q 0.0984,-0.458957 0.72122,-0.590088 0,0.196696 -0.32783,0.327826 -0.29504,0.09835 -0.39339,0.262262 z m 3.802792,-2.065307 q 0.13113,-0.03278 0.22948,0.09835 0.13113,0.09835 0.22948,0.196696 -0.1967,-0.06557 -0.55731,-0.03278 -0.36061,0.03278 -0.49174,0.03278 0.0656,-0.06557 0.32783,-0.09835 0.26226,-0.03278 0.26226,-0.196696 z" /></g></g></svg>
