<?xml version="1.0" encoding="UTF-8" standalone="no"?>
<!-- Created with Inkscape (http://www.inkscape.org/) -->

<svg
   version="1.1"
   id="svg1"
   xml:space="preserve"
   width="38.075268"
   height="64.003281"
   xmlns:inkscape="http://www.inkscape.org/namespaces/inkscape"
   xmlns:sodipodi="http://sodipodi.sourceforge.net/DTD/sodipodi-0.dtd"
   xmlns="http://www.w3.org/2000/svg"
   xmlns:svg="http://www.w3.org/2000/svg"><defs
     id="defs1" /><sodipodi:namedview
     id="namedview1"
     pagecolor="#ffffff"
     bordercolor="#000000"
     borderopacity="0.25"
     inkscape:showpageshadow="2"
     inkscape:pageopacity="0.0"
     inkscape:pagecheckerboard="0"
     inkscape:deskcolor="#d1d1d1" /><inkscape:clipboard
     min="461.39325,45.24903"
     max="499.46851,109.25231"
     geom-min="461.39325,45.24903"
     geom-max="499.46851,109.25231" /><g
     id="g5448"
     transform="matrix(4.1157778,0,0,4.1157778,-492.51048,-65.580336)"><path
       style="display:inline;opacity:1;fill:#ffb380;stroke-width:0.918302"
       d="m 124.8084,15.935461 c -0.44347,-0.01982 -0.78775,0.146133 -1.2268,0.573092 l -0.44235,0.429948 -0.20722,-0.169499 c -0.27308,-0.223568 -0.39801,-0.217289 -0.95291,0.04754 -0.51166,0.244193 -0.61056,0.374768 -0.74569,0.984436 -0.076,0.342963 -0.13552,0.438205 -0.36587,0.587561 -0.38422,0.249118 -0.52046,0.618189 -0.88832,2.402954 l -0.31523,1.529106 0.0863,1.220081 c 0.0474,0.670921 0.14989,1.531131 0.2279,1.912028 0.15473,0.755274 0.60842,1.787395 0.94567,2.15129 0.53784,0.580345 0.58943,0.925981 0.33487,2.237073 -0.0826,0.42527 -0.15038,0.816486 -0.15038,0.869196 -2.7e-4,0.118859 0.19446,0.199927 1.24023,0.516247 0.57225,0.173091 0.92303,0.23943 1.13844,0.216009 0.4598,-0.05 2.26658,-0.663361 2.66547,-0.904854 l 0.34571,-0.209291 0.0971,-0.721402 c 0.0534,-0.39692 0.0907,-1.016257 0.0827,-1.376143 l -0.0145,-0.654225 0.29611,-0.150894 c 0.59322,-0.302639 0.88901,-0.753102 1.44487,-2.199349 l 0.51056,-1.328601 -0.11059,-0.438216 c -0.2892,-1.141961 -0.4381,-1.423342 -0.87384,-1.650029 -0.26705,-0.13892 -0.26301,-0.342385 0.0119,-0.607198 0.2756,-0.265503 0.3824,-0.753622 0.3824,-1.743046 0,-0.855788 -0.18304,-1.683311 -0.52917,-2.391068 -0.22074,-0.451353 -0.23829,-0.467319 -0.58187,-0.522449 -0.41175,-0.06607 -0.96715,-0.07832 -1.17874,-0.02584 -0.10643,0.0264 -0.17561,-0.02179 -0.25012,-0.17415 -0.11403,-0.233315 -0.2779,-0.315414 -0.77979,-0.390674 -0.068,-0.01019 -0.13354,-0.01681 -0.19689,-0.01964 z"
       id="path938" /><path
       id="path865"
       style="font-style:normal;font-variant:normal;font-weight:normal;font-stretch:normal;font-size:medium;line-height:125%;font-family:Gallaudet;-inkscape-font-specification:Gallaudet;text-align:start;letter-spacing:0px;word-spacing:0px;text-anchor:start;display:inline;opacity:1;fill:#000000;fill-opacity:1;stroke:none;stroke-width:0.242967px;stroke-linecap:butt;stroke-linejoin:miter;stroke-opacity:1"
       d="m 124.86648,15.978406 q 0.26226,0.03278 0.52452,0.09835 0.29505,0.03278 0.39339,0.295044 -0.0328,0.196696 0.1967,0.262261 0.22948,-0.131131 0.55731,-0.131131 0.68843,0.09835 0.98347,0.131131 0.81957,1.245741 0.81957,2.884873 0,0.852349 -0.22948,1.540784 -0.0984,0.06556 -0.26226,0.196696 -0.13113,0.13113 -0.13113,0.360609 0,0.09835 0.0984,0.196696 0.52452,0.196696 0.65565,0.590087 0.16392,0.393392 0.42618,1.508002 -0.49174,1.278523 -0.98348,2.557046 -0.45896,0.786784 -1.21296,1.081828 -0.0656,0.13113 -0.0656,0.393391 0.0656,0.557305 0.0656,0.819566 l -0.22948,1.573567 q -0.59009,0.393392 -1.18017,0.590088 -0.59009,0.196696 -1.9014,0.557305 -0.754,-0.196696 -1.24574,-0.327826 -0.49174,-0.131131 -0.98348,-0.36061 0,-0.262261 0.16392,-1.016262 0.16391,-0.754 0.16391,-1.049044 0,-0.721218 -0.52452,-1.11461 -0.754,-1.016262 -0.98348,-2.327568 -0.22948,-1.344088 -0.22948,-3.114351 0.32783,-1.639132 0.52452,-2.557046 0.22948,-0.950697 0.52452,-1.11461 0.32783,-0.163913 0.3934,-0.262261 0.13113,-0.688436 0.22948,-0.917914 0.0984,-0.229479 0.45895,-0.426175 l 0.754,-0.295044 0.55731,0.426175 q 0.32782,-0.49174 0.754,-0.786784 0.42617,-0.295043 0.91791,-0.262261 z m 0.55731,0.327827 q -0.32783,-0.06557 -0.49174,-0.06557 -0.78679,0 -1.21296,0.524523 -0.22948,0.196695 -0.22948,0.327826 0,0.163913 0.22948,0.426174 0.26226,0.229479 0.32782,0.36061 0.65566,0.557304 0.85235,1.508001 0.22948,0.917914 0.3934,1.508002 0.0656,-0.393392 0.0656,-0.62287 0.13113,-0.590088 0.62287,-0.49174 0.22947,-0.03278 0.32782,0.09835 0.13113,0.09835 0.22948,0.360609 0.0984,-0.393392 0.0984,-0.721218 0,-0.458957 -0.0656,-0.688436 -0.0328,-0.262261 -0.1967,-0.754001 -0.16391,-0.491739 -0.42617,-0.917914 -0.26226,-0.426174 -0.52452,-0.852348 z m 0.68843,0.590087 q 0.68844,1.442437 0.68844,3.048786 0,0.524522 -0.0328,0.786784 0,-0.131131 0.0328,-0.229479 0.0656,-0.09835 0.13113,-0.262261 0.0983,-0.458957 0.65565,-0.458957 0.32783,0.06557 0.45896,0.590088 0.0983,-0.590088 0.0983,-1.180176 0,-1.049044 -0.42618,-1.803045 0,-0.655653 -0.85235,-0.655653 -0.49174,0 -0.754,0.163913 z m -4.42566,0.393392 q -0.16391,0.295044 -0.22947,0.49174 -0.0656,0.196695 -0.0328,0.426174 0.29504,0.09835 0.3606,0.09835 0.754,0.62287 1.34409,1.409654 0.59009,0.786783 0.81957,1.639132 h 0.19669 q -0.16391,-0.262261 -0.16391,-0.688436 0,-0.360609 0.1967,-0.557305 0.29504,-0.196696 0.65565,-0.262261 -0.16391,-0.393392 -0.32783,-0.786783 -0.26226,0.03278 -0.52452,0.09835 -0.22948,0.03278 -0.39339,0.262261 -0.0328,-0.262261 0.26226,-0.360609 0.29504,-0.131131 0.55731,-0.229479 -0.55731,-1.049044 -1.60635,-1.901393 -0.1967,-0.06557 -0.45896,0 -0.22948,0.06556 -0.65565,0.360609 z m -0.98348,1.573567 q -0.22947,0.327826 -0.29504,0.721218 -0.0656,0.393392 -0.0656,0.885131 v 0.49174 h 0.16392 q 0.45895,0.03278 0.45895,-0.09835 0,-0.06556 -0.22948,-0.393392 -0.22947,-0.327826 -0.16391,-0.491739 0.16391,0 0.26226,0.295044 0.13113,0.295043 0.32783,0.327826 l 0.13113,-0.229478 q 0.19669,0.524522 0.68843,0.917914 0.52453,0.360609 1.1474,0.590087 -0.26226,-0.590087 -0.26226,-0.852349 0.0328,-0.163913 0.52452,-0.393391 -0.13113,-0.524523 -0.62287,-1.016262 -0.45896,-0.524523 -0.88513,-1.016262 -0.16392,-0.09835 -0.29505,-0.09835 -0.19669,0 -0.42617,0.13113 -0.1967,0.09835 -0.45896,0.229479 z m 5.14688,1.147392 q 0.22948,0 0.26226,-0.03278 -0.0656,-0.06557 -0.26226,0.03278 z m 1.44244,0 q 0.39339,0.06557 0.42617,-0.06556 -0.22948,0.03278 -0.42617,0.06556 z m -0.0983,0.163914 q -0.1967,0.262261 -0.1967,0.491739 0,0.131131 0.13113,0.229479 0.36061,0 0.52452,0 0.26226,0 0.22948,-0.295044 0.0656,-0.360609 -0.26226,-0.360609 -0.32783,-0.03278 -0.42617,-0.06557 z m -1.57357,0 q -0.1967,0.393391 -0.0983,0.62287 l 0.26226,0.03278 q 0.36061,-0.06557 0.52452,-0.163914 0.16392,-0.13113 0.0328,-0.426174 z m -0.78678,0.13113 q -0.32783,0.06557 -0.65566,0.131131 0,0.590087 0.0328,0.721218 h 0.55731 q 0.29504,-0.131131 0.22948,-0.327826 z m -4.39288,0.917914 q -0.45896,0.196696 -0.45896,1.049045 0,0.163913 0.0328,0.360609 0.0328,0.196696 0.0328,0.295044 0.45896,0 0.88514,-0.196696 0.45895,-0.196696 0.85235,-0.360609 0.42617,-0.163913 0.81956,-0.327827 -0.45896,-0.327826 -0.78678,-0.557305 -0.32783,-0.229478 -0.52452,-0.458957 -0.42618,0.09835 -0.85235,0.196696 z m 5.17966,-0.196696 -0.1967,-0.06557 z m -2.22922,0.03278 q -0.0328,0.06556 -0.1967,0.09835 -0.16391,0.03278 -0.0984,0.196696 0.13113,0.262261 0.36061,0.229478 0.1967,-0.163913 0.1967,-0.295043 -0.13113,-0.229479 -0.26226,-0.229479 z m 1.83583,0.196696 q -0.22948,0.13113 -0.22948,0.327826 0,0.06557 0.0983,0.360609 0.0984,0.262262 0,0.426175 -0.13113,0.229478 -0.49174,0.360609 -0.32783,0.13113 -0.65565,0.13113 -0.16392,-0.09835 -0.26226,-0.393391 -0.0983,-0.327827 -0.26227,-0.393392 -0.13113,0.426174 0.13113,0.786783 0.68844,0.36061 1.50801,0.49174 0.85235,0.09835 1.90139,0.09835 0,0.131131 -0.29504,0.196696 -0.26226,0.06557 -0.32783,0.131131 0.13113,0.163913 0.39339,0.327826 0.29505,0.131131 0.32783,0.196696 -0.22948,0.09835 -0.45896,0.03278 -0.19669,-0.09835 -0.42617,-0.295043 0.0328,0.196696 0.0656,0.360609 0.0656,0.163913 0.0328,0.229478 -0.0984,-0.09835 -0.22948,-0.295044 -0.0984,-0.229478 -0.29505,-0.688435 l -1.01626,-0.03278 q -0.39339,0.688436 -0.52452,1.016262 -0.0983,0.295044 -0.0983,0.688436 0,0.393392 0.1967,0.754001 0.0656,0.393391 0.29504,0.590087 0.26226,0.163913 0.72122,0.360609 0.26226,0.229479 0.65565,0.229479 0.29504,0 0.65565,-0.163913 0.36061,-0.196696 0.68844,-0.360609 0.62287,-1.442437 1.24574,-2.917656 0,-0.688435 -0.45896,-1.344088 -0.42617,-0.688436 -1.14739,-1.049045 v 0.62287 q -0.0328,-0.09835 -0.0984,-0.327826 -0.0328,-0.262261 -0.16391,-0.360609 0.0328,0.262261 0.0656,0.458957 0.0656,0.163913 -0.0656,0.262261 -0.0656,-0.295044 -0.0984,-0.458957 0,-0.163913 -0.16392,-0.229479 0.0328,0.327827 0.0983,0.655653 -0.13113,-0.09835 -0.16391,-0.360609 -0.0328,-0.295044 -0.16391,-0.393391 z m -1.47522,0.917914 q 0.16391,0.393392 0.5573,0.393392 0.16392,0 0.36061,-0.09835 -0.0656,-0.426175 -0.0984,-0.885132 -0.36061,-0.09835 -0.65565,0.06557 -0.29504,0.163913 -0.16391,0.524522 z m 0.98348,-0.49174 q -0.0656,0.163914 -0.0328,0.360609 0.0328,0.163914 0.19669,0.163914 l 0.0656,-0.262262 q -0.0656,-0.09835 -0.0984,-0.196695 -0.0328,-0.09835 -0.13113,-0.06557 z m -1.60635,0.721218 q -0.29505,-0.09835 -0.55731,-0.09835 -0.45895,0 -1.24574,0.393391 -0.754,0.393392 -1.21295,0.458957 -0.0328,0.196696 -0.0328,0.655653 0,0.360609 0,0.62287 0.0328,0.229479 0.13113,0.786784 0.39339,0.917914 0.68843,1.573567 0.29505,0.655653 0.72122,1.081827 0.36061,0.131131 0.78678,0.131131 0.55731,0 1.04905,-0.163914 0.49174,-0.196695 0.85235,-0.327826 0.16391,0.327826 0.19669,0.590088 0.0328,0.262261 0.0328,0.688435 0,0.196696 -0.0328,0.62287 -0.0328,0.426175 -0.0328,0.688436 0,0.229478 0.0656,0.688435 0.0656,-0.688435 0.0984,-1.409653 0.0656,-0.754001 0.0656,-1.212958 0,-0.557305 -0.0328,-0.819566 0.13113,0.491739 0.13113,1.671915 0.0328,1.180175 0.16392,1.671915 0.16391,0.03278 0.29504,-0.06557 0.16391,-0.09835 0.39339,-0.229478 l 0.0984,-2.360351 q -0.26226,-0.06557 -0.45895,-0.06557 -0.1967,-0.03278 -0.1967,-0.262261 h 0.5573 l -1.24574,-0.655653 q -0.19669,-0.196696 -0.36061,-0.62287 -0.13113,-0.426175 -0.26226,-0.754001 -0.0984,-0.327827 -0.0984,-0.49174 0,-0.360609 0.32783,-0.983479 0.36061,-0.62287 0.39339,-0.688436 -0.19669,0 -0.59009,-0.13113 -0.3606,-0.131131 -0.39339,-0.131131 -0.0656,0.03278 -0.13113,0.163913 -0.0328,0.131131 -0.0984,0.09835 0.0984,-0.229478 0.0656,-0.393391 -0.52452,0.393391 -0.9507,1.049044 l -0.0656,-0.06557 q 0.45896,-0.62287 0.65566,-0.917914 0.22948,-0.327827 0.29504,-0.62287 z m 2.81931,7.769487 q 0.0984,-0.393392 0.13113,-0.983479 0.0328,-0.590088 0.0328,-1.147393 z m -1.77027,-2.032524 q 0,0.688436 -0.0328,1.409654 -0.0328,0.688435 -0.0656,1.376871 0.1967,0.131131 0.22948,-0.06557 -0.0656,-0.229479 -0.0656,-0.622871 0,-0.393391 0.0328,-0.983479 0.0656,-0.590087 0.0656,-0.62287 0,-0.327827 -0.0328,-0.49174 z m -1.63913,0.262261 q 0.32783,0.03278 0.39339,-0.03278 -0.39339,0 -0.39339,0.03278 z m 1.40965,-0.03278 q -0.0656,0.393391 -0.0983,0.62287 0,0.229479 0,0.49174 0,0.196696 0.0656,0.524522 z m -2.03252,0.03278 q -0.16391,0.393392 -0.1967,1.212958 -0.0328,0.786784 -0.0983,1.049045 0.22948,0.03278 0.9507,0.262261 0.754,0.196696 1.18018,0.09835 -0.0328,-0.163913 -0.0656,-0.524522 -0.0328,-0.360609 -0.0328,-0.655653 v -0.524523 q 0,-0.196695 -0.0328,-0.458957 -0.0328,-0.295043 -0.0328,-0.458957 -0.3934,0.131131 -0.68844,0.229479 -0.26226,0.09835 -0.49174,0.09835 -0.26226,-0.163913 -0.49174,-0.327827 z m 0.29504,-8.097313 q -0.0328,-0.163913 0.13114,-0.262261 0.16391,-0.131131 0.32782,-0.262261 z m 4.98297,-1.704697 q 0.0656,-0.06557 0.22947,-0.03278 0.16392,0 0.3934,0.03278 -0.29505,0.13113 -0.62287,0 z m -2.03253,0.295044 q 0.13113,-0.196696 0.39339,-0.229479 0.29505,-0.03278 0.62287,0 -0.52452,0.229479 -1.01626,0.229479 z" /></g></svg>
