<?xml version="1.0" encoding="UTF-8" standalone="no"?>
<!-- Created with Inkscape (http://www.inkscape.org/) -->

<svg
   version="1.1"
   id="svg1"
   xml:space="preserve"
   width="43.25005"
   height="88.776817"
   xmlns:inkscape="http://www.inkscape.org/namespaces/inkscape"
   xmlns:sodipodi="http://sodipodi.sourceforge.net/DTD/sodipodi-0.dtd"
   xmlns="http://www.w3.org/2000/svg"
   xmlns:svg="http://www.w3.org/2000/svg"><defs
     id="defs1" /><sodipodi:namedview
     id="namedview1"
     pagecolor="#ffffff"
     bordercolor="#000000"
     borderopacity="0.25"
     inkscape:showpageshadow="2"
     inkscape:pageopacity="0.0"
     inkscape:pagecheckerboard="0"
     inkscape:deskcolor="#d1d1d1" /><inkscape:clipboard
     min="548.44128,22.03132"
     max="591.69132,110.80814"
     geom-min="548.44128,22.03132"
     geom-max="591.69132,110.80814" /><g
     id="g5455"
     transform="matrix(4.1157778,0,0,4.1157778,-579.5585,-42.362625)"><path
       style="display:inline;opacity:1;fill:#ffb380;stroke-width:0.918302"
       d="m 146.7931,10.295495 c -0.0703,-0.0054 -0.1451,-0.0029 -0.22479,0.0078 -0.45855,0.06151 -0.67051,0.262799 -0.81493,0.773079 -0.0691,0.243955 -0.12878,0.451771 -0.13178,0.461471 -0.003,0.0097 -0.11573,-0.04933 -0.25011,-0.131258 -0.28145,-0.171604 -0.89291,-0.199697 -1.18029,-0.05426 -0.38271,0.193678 -0.46546,0.480214 -0.47956,1.65778 -0.0156,1.300388 -0.0469,1.367926 -0.60151,1.302246 -0.32979,-0.03906 -0.38921,-0.0223 -0.57206,0.160714 -0.275,0.275259 -0.55569,1.290414 -0.57619,2.083594 -0.009,0.330774 -0.10093,0.990572 -0.20568,1.46606 -0.10475,0.475487 -0.36558,1.710351 -0.57929,2.744019 -0.36608,1.770469 -0.38608,1.927288 -0.35088,2.706294 0.0444,0.980744 0.18581,1.534741 0.79116,3.09335 0.28299,0.728731 0.42048,1.17766 0.38138,1.247471 -0.0336,0.05999 -0.13156,0.511937 -0.21756,1.004072 -0.0861,0.492136 -0.20552,1.044226 -0.26562,1.227315 -0.0602,0.183089 -0.10955,0.356616 -0.10955,0.385506 0,0.121454 1.8614,1.158205 2.36781,1.318784 0.16539,0.05244 0.4314,0.09745 0.59118,0.10025 0.45088,0.0078 2.77131,-0.524221 2.92954,-0.671793 0.0952,-0.08877 0.16897,-0.34571 0.23978,-0.834575 0.0671,-0.463388 0.19036,-0.90552 0.35863,-1.286224 0.29755,-0.673158 0.39157,-0.802315 0.67231,-0.920359 0.13692,-0.05757 0.51615,-0.526502 1.1343,-1.402498 0.85342,-1.209408 0.93285,-1.350516 0.97875,-1.740978 0.0275,-0.233705 0.16575,-0.874334 0.30696,-1.423686 0.40731,-1.584348 0.40894,-1.626391 0.0817,-2.055171 -0.15203,-0.19917 -0.42755,-0.663467 -0.61237,-1.031462 -0.32751,-0.652144 -0.33423,-0.678902 -0.25683,-1.0573 0.13218,-0.646014 -0.11147,-1.606125 -0.63355,-2.497005 -0.15615,-0.26644 -0.23798,-0.32944 -0.48111,-0.37052 -0.34955,-0.05906 -0.81903,0.05466 -1.08262,0.262 -0.10494,0.08256 -0.21548,0.149861 -0.24598,0.149861 -0.0304,0 -0.0251,-0.228373 0.0119,-0.507462 0.099,-0.746908 0.0694,-4.012864 -0.0424,-4.679301 -0.16859,-1.005168 -0.43875,-1.449635 -0.93069,-1.487765 z"
       id="path944" /><path
       id="path867"
       style="font-style:normal;font-variant:normal;font-weight:normal;font-stretch:normal;font-size:medium;line-height:125%;font-family:Gallaudet;-inkscape-font-specification:Gallaudet;text-align:start;letter-spacing:0px;word-spacing:0px;text-anchor:start;display:inline;opacity:1;fill:#000000;fill-opacity:1;stroke:none;stroke-width:0.242967px;stroke-linecap:butt;stroke-linejoin:miter;stroke-opacity:1"
       d="m 146.50315,10.35716 q 0.29505,-0.13113 0.62287,0.0656 0.32783,0.1967 0.49174,0.88513 0.16391,0.65566 0.1967,1.63914 0.0656,0.98348 0.0656,2.688174 0,0.09835 -0.13113,0.688436 -0.0983,0.590087 -0.0656,0.852348 0.52452,-0.590087 1.21296,-0.590087 0.22947,0 0.49174,0.09835 0.3606,0.524522 0.59008,1.147392 0.26226,0.590088 0.26226,1.180175 0,0.426175 -0.13113,0.786784 0.22948,0.524522 0.52453,1.11461 0.29504,0.557305 0.68843,0.950696 0,0.524523 -0.36061,1.770263 -0.32782,1.212958 -0.32782,1.770263 -0.9507,1.344088 -1.9014,2.688177 -0.39339,0.03278 -0.59009,0.360609 -0.29504,0.819566 -0.45895,1.081827 -0.13113,0.229479 -0.16392,0.885132 -0.0328,0.62287 -0.29504,0.852348 -1.34409,0.295044 -2.65539,0.590088 -0.32783,0 -0.78679,-0.131131 -0.45895,-0.13113 -1.27852,-0.62287 -0.78678,-0.49174 -1.08183,-0.62287 0.22948,-0.426174 0.36061,-1.376871 0.13113,-0.983479 0.32783,-1.409654 -0.42618,-1.081827 -0.85235,-2.196437 -0.42617,-1.278523 -0.42617,-2.327568 0,-0.688435 0.19669,-1.376871 0.49174,-2.425916 1.01626,-4.884614 -0.0328,-0.295044 -0.0328,-0.458957 v -0.295044 q 0.1967,-0.786788 0.29505,-1.180178 0.13113,-0.39339 0.39339,-0.59009 0.0984,-0.0656 0.36061,-0.0328 0.26226,0.0328 0.36061,0.0328 0.22947,0 0.29504,-0.26226 0.0656,-0.29504 0.0656,-0.68843 -0.0328,-0.59009 -0.0328,-0.88513 0,-0.49174 0.13113,-0.78679 0.13113,-0.29504 0.39339,-0.39339 0.26226,-0.0983 0.36061,-0.0983 0.13113,0 0.16391,0 0.55731,0 0.85235,0.42618 0.13113,-0.52453 0.22948,-0.88513 0.13113,-0.36061 0.62287,-0.45896 z m -0.42617,0.42617 q -0.0983,0.29505 -0.13113,0.754 -0.0328,0.45896 -0.0328,0.52453 0,0.22947 0.0328,0.78678 0.0328,0.5573 0.0328,0.88513 0.19669,-0.0328 0.72121,-0.13113 0.55731,-0.0983 0.85235,-0.0656 v -1.27852 -0.49174 q 0,-0.16391 0,-0.36061 -0.0656,-0.22948 -0.13113,-0.5573 -0.0328,-0.36061 -0.65565,-0.36061 -0.39339,0 -0.68844,0.29504 z m -1.60635,0.68844 q -0.32783,0.26226 -0.45896,0.62287 -0.0983,0.32782 -0.0983,0.85235 0,0.19669 0.0328,0.68843 0.0328,0.45896 0.0328,0.72122 l 0.9507,-0.16391 q 0.39339,0.0328 0.45895,0 0,-0.49174 0.0328,-0.91792 0.0328,-0.45895 0.0656,-0.91791 0,-0.39339 -0.0328,-0.59009 -0.16391,-0.29504 -0.98347,-0.29504 z m 3.08157,2.262 q -0.32783,-0.0656 -0.49174,-0.0656 -0.68844,0 -1.08183,0.29504 -0.36061,0.78678 -0.36061,1.44244 0,0.16391 0.0656,0.42617 0.26226,0 0.85235,-0.06556 0.62287,-0.06557 0.65565,-0.06557 0.22948,0 0.36061,0.03278 0.0656,-0.22948 0.0983,-0.72122 0.0328,-0.52452 0.0328,-0.754 z m -2.26201,0.65565 q -0.39339,-0.0656 -0.5573,-0.0328 -0.16391,0.0328 -0.78678,0.22948 -0.13114,0.22948 -0.0983,0.5573 0.0656,0.29505 0,0.68844 -0.0656,0.360609 -0.0656,0.458957 0,0.196696 0.0983,0.393392 l 1.57356,-0.262262 -0.0656,-1.835827 z m -2.36035,0.13113 q -0.36061,0.0656 -0.42617,0.42618 l -0.36061,1.737479 q 0.0984,0.13113 0.29504,0.13113 0.42618,0 0.88514,0 -0.22948,0 -0.36061,0.03278 -0.13113,0.09835 -0.42618,0.196696 -0.26226,0.06557 -0.36061,0.13113 0,1.540785 -0.52452,3.114351 0.49174,-0.196695 1.01626,-0.426174 0.55731,-0.229478 0.88513,-0.590087 l 0.0983,-4.261745 q -0.0656,-0.26226 -0.26226,-0.42617 -0.16391,-0.16391 -0.45895,-0.0656 z m 2.78653,1.770267 -0.0328,2.163654 0.0984,0.131131 q 0.13113,-0.03278 0.42617,-0.03278 0.29505,-0.03278 0.55731,-0.06557 0.39339,0 0.5573,-0.03278 0,-0.491739 0.0983,-1.24574 0.13113,-0.786784 0.1967,-1.180175 -0.32783,-0.06557 -0.49174,-0.06557 -0.754,0 -1.40965,0.327827 z m -0.32783,0.393392 q -0.36061,-0.03278 -0.91791,0.196695 -0.52452,0.196696 -0.65566,0.229479 0.0328,1.081827 0.0983,2.130872 l 1.34409,-0.590088 0.26226,-1.573567 z m 3.86835,0.163913 q -0.32782,-0.06557 -0.52452,-0.06557 -0.5573,0 -0.81956,0.393391 -0.0656,0.262261 -0.0656,0.393392 0,0.229479 0.0656,0.655653 0.0984,0.393392 0.0984,0.49174 0.13113,0.229478 0.13113,0.885131 0,0.62287 0.26226,0.885131 0.0984,-0.163913 0.13113,-0.196696 -0.16392,-0.09835 -0.0656,-0.360609 0.0984,-0.295043 0.0656,-0.491739 0,-0.458957 0.72122,-0.458957 0.29504,-0.03278 0.3606,0.295044 0.0983,0.327826 0.22948,0.360609 0.0656,-0.196696 0.13113,-0.458957 0.0656,-0.295044 0.0656,-0.622871 0,-0.458957 -0.19669,-0.819566 z m -3.47496,1.868611 -0.0983,0.06557 q -0.72121,0.09835 -1.77026,0.721218 -1.04904,0.590088 -1.54078,0.754001 -0.78679,0 -0.98348,0.754001 -0.0984,1.016262 -0.16392,1.409653 0.0656,0 0.16392,-0.06557 0.13113,-0.09835 0.19669,0 -0.49174,0.393392 -0.49174,1.016262 0,0.295044 0.0984,0.688436 0.0983,0.360609 0.16392,0.590087 0.0656,0.196696 0.52452,1.60635 0.45896,1.409653 0.91791,1.639132 0.49174,0.229479 0.65566,0.262261 0.19669,0.03278 0.42617,0.03278 0.32783,0 1.08183,-0.163913 -0.62287,0.458957 -1.44244,0.458957 -0.26226,0 -0.39339,-0.03278 l 0.26226,0.09835 q 0.1967,0.03278 0.52452,0.03278 0.45896,0 0.88513,-0.229479 0.26227,0.163913 0.42618,-0.09835 0.19669,-0.295044 0.22948,-0.295044 l 0.0656,0.06557 q -0.1967,1.278523 -0.36061,2.557046 0,0.229478 0.0656,0.688435 l -0.0984,0.09835 q -0.22948,-0.426174 -0.22948,-0.885131 0,-0.196696 0.0656,-0.721218 0.0656,-0.524523 0.0656,-0.590088 -0.22948,0.49174 -0.36061,1.245741 -0.13113,0.754 -0.1967,1.016262 0.62287,0.06557 1.08183,-0.03278 0.45896,-0.131131 0.88513,-0.295044 -0.0656,-0.426174 0.16392,-1.278523 0.22947,-0.852349 0.26226,-1.147393 h -0.29505 q -0.19669,0 -0.42617,-0.03278 -0.1967,-0.06557 -0.22948,-0.295044 0.45896,0.06557 0.9507,0.09835 -0.0656,-0.163913 -0.36061,-0.196696 -0.29505,-0.03278 -0.55731,-0.13113 -0.26226,-0.131131 -0.42617,-0.655653 -0.16392,-0.557305 -0.26226,-0.819566 0.13113,0.09835 0.26226,0.458957 0.13113,0.327826 0.22948,0.393391 -0.0984,-0.426174 -0.1967,-0.819566 -0.0656,-0.426174 -0.0656,-0.852349 0,-0.295043 0.0328,-0.458957 l -0.26226,1.278524 -0.13113,-0.131131 q -0.0328,-0.131131 -0.0328,-0.393392 0,-0.590087 0.32783,-1.278523 0.3606,-0.721218 0.5573,-1.081827 0.68844,-0.393392 1.18018,-0.655653 0.49174,-0.262261 0.98347,-0.327827 0.13114,-0.13113 -0.0328,-0.688435 -0.16391,-0.557305 -0.0983,-0.754001 l -0.49174,0.196696 -1.24574,0.327826 q -0.98348,0.622871 -1.47521,1.049045 -0.45896,0.393392 -0.65566,1.049045 h -0.26226 q 0.0983,-0.131131 0.0328,-0.426175 -0.0656,-0.295044 0,-0.458957 l 0.22948,0.360609 q 0.754,-0.917914 1.73748,-1.442436 0.98348,-0.524522 2.19644,-0.819566 l 0.13113,-0.360609 q -0.22948,-0.131131 -0.52453,-0.131131 -0.62287,0.09835 -0.91791,0.09835 0.26226,-0.09835 0.59009,-0.163913 0.36061,-0.09835 0.59009,-0.09835 0,-0.163913 -0.0328,-0.62287 -0.0328,-0.458957 -0.0328,-0.721218 -0.49174,-0.131131 -0.55731,-0.393392 z m 2.98322,0.721218 q -0.0984,0.09835 -0.0984,0.327826 0,0.196696 0.0656,0.327827 l 0.1967,-0.131131 q -0.0328,0.229479 -0.26226,0.62287 -0.22948,0.393392 -0.32783,0.622871 -0.0656,0.196695 -0.0656,0.524522 0,0.49174 0.1967,0.885131 0.22948,0.360609 0.68843,0.885132 -0.22947,-0.06557 -0.36061,-0.03278 0.0328,0.196696 0.0656,0.360609 h -0.26226 q -0.0983,0.163913 -0.0983,0.295044 0,0.163913 0.0983,0.458957 0.13113,0.262261 0.13113,0.360609 -0.26226,-0.06557 -0.3606,-0.393392 -0.0983,-0.360609 -0.13114,-0.524522 0,-0.196696 0.0983,-0.557305 0.0984,-0.393392 0.0656,-0.557305 -1.60634,0.327826 -2.55704,1.376871 -0.1967,0.688436 -0.1967,1.573567 0,0.819566 0.26226,1.540784 0.29505,0.393392 0.78679,0.524523 0.52452,0.09835 1.24574,0.09835 0.65565,-0.09835 1.21296,-1.016262 0.59008,-0.950697 0.754,-1.081828 -0.0984,-0.196696 0.19669,-0.327826 0.29505,-0.163913 0.32783,-0.295044 l 0.45896,-2.22922 q -0.0656,0 -0.29505,0.131131 -0.19669,0.09835 -0.26226,0.09835 -0.0983,0 -0.16391,-0.196696 0.81956,-0.229479 0.98348,-1.016262 -0.0983,-0.229479 -0.32783,-0.458957 -0.1967,-0.262261 -0.45896,-0.524522 -0.16391,0.06557 -0.45895,0.360609 -0.29505,0.295043 -0.52453,0.295043 -0.19669,-0.06557 -0.42617,-0.295043 -0.1967,-0.262261 -0.0328,-0.590088 0.16391,-0.262261 0.36061,-0.458957 0.22948,-0.229478 0.42617,-0.163913 -0.42617,0.295044 -0.5573,0.426174 -0.13113,0.09835 -0.16392,0.393392 0.0984,0.393392 0.45896,0.458957 0.13113,-0.06557 0.26226,-0.327826 0.49174,0 0.49174,-0.393392 0,-0.06556 -0.0656,-0.393392 -0.0656,-0.327826 0,-0.426174 -0.16391,-0.131131 -0.39339,-0.131131 -0.1967,0 -0.42617,0.09835 -0.1967,0.09835 -0.29505,0.131131 -0.0983,-0.196696 0.26226,-0.327827 0.36061,-0.13113 0.16392,-0.393392 -0.0983,-0.06556 -0.36061,-0.03278 -0.26226,0.03278 -0.32783,0.09835 z m -6.32705,8.654618 q -0.26226,0.327826 -0.36061,1.147392 -0.0983,0.819567 -0.19669,1.016262 1.08183,0.557305 2.19644,1.11461 l 0.52452,-2.622611 q -0.16392,0 -0.55731,0.03278 -0.39339,0.03278 -0.59008,0.03278 -0.26227,0 -0.42618,-0.03278 -0.16391,-0.03278 -0.22948,-0.360609 -0.0656,-0.327826 -0.36061,-0.327826 z m 4.49123,2.85209 0.16391,-0.131131 q 0,-0.360609 0.26226,-1.311305 0.26226,-0.98348 0.26226,-1.016262 -0.22948,0.62287 -0.45896,1.278523 -0.22947,0.62287 -0.22947,1.180175 z m -2.39314,-0.688436 q 0.22948,-0.786783 0.45896,-1.573567 -0.16391,0.295044 -0.29504,0.721219 -0.0983,0.426174 -0.16392,0.852348 z m 2.06531,0.754001 q 0.26226,-0.819566 0.39339,-1.376871 0.16391,-0.557305 0.22948,-0.950697 -0.49174,1.049045 -0.59009,1.442437 -0.0983,0.360609 -0.0328,0.885131 z m -2.16366,-0.426174 0.0983,-0.131131 z m -0.78678,-8.785749 q 0.68844,-0.06556 1.73748,-0.49174 1.08183,-0.426174 1.37687,-0.491739 -0.26226,0.06557 -1.44243,0.557305 -1.1474,0.491739 -1.86861,0.491739 -0.55731,0 -0.98348,0.09835 -0.42618,0.06557 -0.81957,0.295044 0.39339,-0.262261 0.81957,-0.393392 0.42617,-0.13113 0.78678,-0.13113 0.13113,0 0.39339,0.06556 z m 7.21218,0.524522 -0.29504,0.327827 z m -2.52426,-3.999482 q 0.22948,-0.295044 0.72122,-0.295044 0.36061,0 0.52452,0.196696 z m -2.49148,0.721218 q 0.0984,0.295044 -0.0983,0.786783 -0.0328,-0.09835 0.0656,-0.360609 0.0983,-0.295043 0.0328,-0.426174 z m -3.47496,-0.327826 q 0.0984,-0.196696 0.29504,-0.262262 0.22948,-0.09835 0.62287,-0.13113 -0.22948,0.03278 -0.49174,0.196696 -0.26226,0.163913 -0.42617,0.196696 z m 7.40888,1.508001 q 0.22947,-0.13113 0.29504,-0.13113 -0.22948,0.163913 -0.29504,0.13113 z m -6.16314,-0.09835 v 0.327827 z" /></g></svg>
