<?xml version="1.0" encoding="UTF-8" standalone="no"?>
<!-- Created with Inkscape (http://www.inkscape.org/) -->

<svg
   version="1.1"
   id="svg1"
   xml:space="preserve"
   width="77.722763"
   height="40.638226"
   xmlns:inkscape="http://www.inkscape.org/namespaces/inkscape"
   xmlns:sodipodi="http://sodipodi.sourceforge.net/DTD/sodipodi-0.dtd"
   xmlns="http://www.w3.org/2000/svg"
   xmlns:svg="http://www.w3.org/2000/svg"><defs
     id="defs1" /><sodipodi:namedview
     id="namedview1"
     pagecolor="#ffffff"
     bordercolor="#000000"
     borderopacity="0.25"
     inkscape:showpageshadow="2"
     inkscape:pageopacity="0.0"
     inkscape:pagecheckerboard="0"
     inkscape:deskcolor="#d1d1d1" /><inkscape:clipboard
     min="623.11001,69.417383"
     max="700.83278,110.05561"
     geom-min="623.11001,69.417383"
     geom-max="700.83278,110.05561" /><g
     id="g5462"
     transform="matrix(4.1157778,0,0,4.1157778,-654.22724,-89.748688)"><path
       style="display:inline;opacity:1;fill:#ffb380;stroke-width:0.918302"
       d="m 166.96655,21.815206 c -2.5019,-0.01168 -4.46596,0.0097 -4.66173,0.05064 -0.18606,0.03895 -0.79908,0.151088 -1.36271,0.249598 -1.09657,0.191655 -1.34137,0.282567 -1.65829,0.617533 -0.4362,0.460811 -0.4372,0.855481 -0.003,1.236617 l 0.2682,0.235645 0.87023,-0.05788 c 0.47876,-0.03163 1.70184,-0.06371 2.71767,-0.07131 1.01582,-0.0076 1.8869,-0.03854 1.93579,-0.06873 0.13716,-0.08477 0.26285,0.02295 0.16485,0.141076 -0.1337,0.161093 -0.17648,0.822754 -0.0796,1.226799 0.0534,0.222714 0.19384,0.497554 0.3421,0.67076 0.17818,0.208773 0.23143,0.324956 0.18293,0.401526 -0.15514,0.245178 0.009,1.344206 0.24237,1.625742 0.0542,0.06534 0.24689,0.18235 0.42788,0.259932 0.28811,0.123483 0.32148,0.161806 0.27078,0.309025 -0.10831,0.314063 -0.0691,0.724326 0.0894,0.937927 0.0847,0.114054 0.4282,0.404193 0.76326,0.644406 l 0.60927,0.436665 1.86397,0.154512 c 1.49213,0.12346 1.99996,0.13894 2.54144,0.07803 l 0.67645,-0.07648 0.45113,0.269235 c 0.24808,0.147958 0.55241,0.349398 0.67645,0.447516 0.28404,0.224705 0.65444,0.192455 1.33532,-0.116271 1.0023,-0.454467 1.94962,-2.005661 2.15904,-3.535185 0.1044,-0.762511 0.0731,-0.826318 -0.65474,-1.335318 -1.18462,-0.828381 -1.29065,-0.923345 -1.45676,-1.309481 -0.2144,-0.498381 -0.76792,-1.000431 -2.02469,-1.835547 -0.55641,-0.369737 -1.17847,-0.803877 -1.38234,-0.964282 -0.82044,-0.645525 -0.43699,-0.599971 -5.30458,-0.622701 z"
       id="path934" /><path
       id="path869"
       style="font-style:normal;font-variant:normal;font-weight:normal;font-stretch:normal;font-size:medium;line-height:125%;font-family:Gallaudet;-inkscape-font-specification:Gallaudet;text-align:start;letter-spacing:0px;word-spacing:0px;text-anchor:start;display:inline;opacity:1;fill:#000000;fill-opacity:1;stroke:none;stroke-width:0.242967px;stroke-linecap:butt;stroke-linejoin:miter;stroke-opacity:1"
       d="m 166.79227,21.806009 3.57331,0.131131 q 0.29504,-0.09835 0.52452,-0.09835 0.59009,0 1.44244,0.688435 0.88513,0.688436 1.14739,0.786784 1.18017,0.786783 1.63913,1.180175 0.45896,0.393392 0.68844,1.11461 0.16391,0.196696 0.98348,0.721218 0.81956,0.524522 1.04904,0.885131 0,1.147393 -0.45896,2.130872 -0.42617,0.98348 -1.27852,1.835828 -0.29504,0.131131 -0.68844,0.327827 -0.3606,0.163913 -0.62287,0.163913 -0.0983,0 -0.19669,0 -0.13113,-0.06557 -0.26226,-0.163913 -0.0983,-0.09835 -0.59009,-0.393392 -0.49174,-0.295044 -0.5573,-0.327826 -0.55731,0.13113 -1.34409,0.13113 -0.62287,0 -1.99974,-0.13113 -1.34409,-0.131131 -1.7047,-0.131131 -0.68844,-0.49174 -1.14739,-0.819566 -0.45896,-0.360609 -0.3934,-0.950697 0.13113,-0.163913 0.13113,-0.295044 0,-0.163913 -0.39339,-0.295043 -0.39339,-0.163914 -0.49174,-0.426175 -0.0656,-0.262261 -0.13113,-0.590087 -0.0656,-0.327827 -0.0656,-0.393392 0,-0.360609 0.1967,-0.557305 -0.68844,-0.458957 -0.68844,-1.475219 0,-0.196696 0.0656,-0.590088 0.16392,-0.163913 0.13113,-0.229478 l -0.13113,-0.06556 q -0.5573,0.09835 -1.08182,0.09835 -0.32783,0 -0.98348,-0.03278 -0.65566,-0.03278 -0.9507,-0.03278 -0.81957,0 -1.34409,0.163913 -0.5573,0.03278 -0.81956,0.03278 -0.36061,0 -0.62287,-0.131131 -0.49174,-0.360609 -0.3934,-0.819566 0.26226,-0.721218 1.11461,-0.950696 1.11461,-0.163914 1.57357,-0.229479 0.45896,-0.163913 0.81957,-0.196696 0.36061,-0.03278 0.95069,-0.03278 0.32783,0 1.01627,0.03278 0.68843,0.03278 1.04904,0.03278 0.59009,0 1.24574,-0.09835 z m 4.22896,4.786266 q 0.0656,0.426174 0.42617,0.754001 0.3934,0.295044 0.91792,0.590088 l -0.0983,0.09835 q -0.36061,-0.03278 -0.65565,-0.262261 -0.26227,-0.229478 -0.52453,-0.590087 h -0.16391 q -0.1967,0.13113 -0.1967,0.295043 0.16392,0.426175 0.16392,0.622871 -0.1967,0.524522 -0.754,0.885131 -0.52453,0.360609 -1.04905,0.688436 -0.16391,0.327826 -0.32782,0.655653 l 1.24574,0.13113 q 0.68843,0 1.14739,0.03278 0.45896,0.03278 0.85235,0.06557 0.81956,0 1.40965,-0.229478 0.62287,-0.229479 0.9507,-0.852349 0.16391,-0.524523 0.32782,-1.049045 0.0983,0.196696 0.22948,0.393392 0.22948,0.09835 0.29505,-0.06556 0.0328,0.13113 0.0984,0.262261 0.0983,0.13113 0.29504,0.360609 l -0.13113,-0.06556 q -0.16391,-0.09835 -0.26226,0.13113 -0.0983,0.196696 -0.29505,0.655653 -0.16391,0.458957 -0.81956,0.458957 0.49174,-0.557305 0.72122,-0.819566 0.26226,-0.295044 0.26226,-0.590088 -0.1967,-0.262261 -0.32783,-0.262261 0,0.49174 -0.19669,0.950697 -0.16392,0.458957 -0.55731,0.721218 0.13113,0.196696 0.32783,0.360609 0.22948,0.163913 0.45895,0.295044 0.55731,0.06556 0.91792,-0.229479 0.36061,-0.327826 0.81956,-0.950696 l -0.52452,-0.426175 q 0.32783,0.09835 0.65565,0.196696 -0.91791,-0.819566 -1.83582,-1.639132 0.0656,-0.06556 -0.0656,-0.229478 -0.0984,-0.196696 0,-0.295044 0.95069,0.327826 1.57356,0.983479 -0.22948,-0.09835 -0.68843,-0.360609 -0.45896,-0.295044 -0.68844,-0.360609 0.26226,0.327826 0.45896,0.524522 0.19669,0.163913 1.3113,1.049045 0.13114,0.13113 0.26227,0.03278 0.13113,-0.13113 0.16391,-0.295043 l -0.81957,-0.590088 q 0.0983,0 0.39339,0.229479 0.32783,0.196695 0.52453,0.196695 0.19669,-0.229478 0.26226,-0.62287 0.0656,-0.426174 0.0656,-0.786783 -0.22948,-0.06557 -0.78678,-0.458957 -0.52453,-0.393392 -0.68844,-0.426175 l 1.14739,0.885132 q -0.29504,0 -0.72122,-0.327827 -0.42617,-0.360609 -0.52452,-0.426174 -0.16391,0.196696 -0.29504,0.360609 -0.0983,0.131131 -0.22948,0.131131 -0.0983,-0.09835 0.0656,-0.295044 0.16391,-0.196696 0.16391,-0.295044 -0.26226,0.49174 -1.18017,0.688435 -0.88513,0.196696 -0.9507,0.229479 l -1.37687,-0.295044 v 0.229479 q -0.59009,-0.524523 -1.18018,-1.049045 z m -8.78575,-4.360092 q -0.22948,0.06557 -0.26226,0.426175 -0.0328,0.327826 -0.0983,0.426174 0.13113,0.06557 0.16391,0.327827 0.0656,0.229478 0.13113,0.295043 0.1967,-0.03278 0.49174,0 0.29505,0.03278 0.68844,0.06557 0.29504,0 0.59009,-0.09835 -0.0983,-0.262261 -0.0983,-0.557305 0,-0.262261 0.0328,-0.524523 0.0328,-0.262261 0.0656,-0.524522 -0.13113,-0.03278 -0.45896,-0.03278 -0.22948,0 -0.62287,0.09835 -0.39339,0.06557 -0.62287,0.09835 z m 6.29427,-0.196695 0.0328,0.327826 q -0.0656,-0.09835 -0.16391,-0.09835 -0.0983,-0.03278 -0.13113,0.09835 l -0.16392,-0.295044 q -0.0656,0 -0.13113,0.196696 -0.0984,-0.163913 -0.22948,-0.163913 -0.52452,0.229478 -0.78678,0.262261 -0.29504,-0.03278 -0.39339,0.327826 -0.0656,0.360609 -0.26226,0.426175 -0.45896,0.06556 -0.754,-0.06557 -0.29505,-0.13113 -0.59009,-0.491739 -0.13113,0.13113 -0.0656,0.360609 0.0656,0.196696 0.0656,0.327826 0.19669,0.458957 0.62287,0.655653 0.45896,0.163913 1.11461,0.163913 0.5573,0 0.81956,0 0.55731,0 0.75401,-0.13113 0.19669,-0.131131 0.26226,-0.426174 -0.0328,0.262261 -0.0328,0.491739 0.45895,0.06556 0.754,-0.163913 l -0.1967,0.327826 q 0.29505,0.09835 0.78679,0.09835 0.62287,0 0.91791,-0.295043 0.29504,-0.03278 0.42617,-0.03278 0.1967,0 0.29505,0.13113 -0.88513,0.163914 -1.37687,0.557305 l 1.57356,2.065307 q 0.72122,0.262261 1.24574,0.426174 0.55731,0.163914 0.98348,0.163914 0.754,0 1.18018,-0.524523 0.19669,-0.360609 0.26226,-0.557305 0.0656,-0.196696 0.0656,-0.524522 0,-0.196696 -0.26226,-0.655653 -0.22948,-0.49174 -1.67192,-1.409654 -1.40965,-0.917914 -1.73748,-1.24574 -0.13113,0.06556 -0.29504,-0.03278 -0.16391,-0.09835 -0.36061,-0.262261 -0.49174,0.09835 -0.98348,0.09835 -0.42617,0 -0.88513,-0.03278 -0.45896,-0.06557 -0.68844,-0.09835 z m -6.72044,0.327826 q -0.91792,0 -1.47522,0.131131 -0.55731,0.13113 -0.98348,0.557304 -0.0656,0.196696 -0.0656,0.36061 0,0.393391 0.26226,0.491739 0.22948,0.03278 0.42618,0.03278 0.22947,0 0.45895,0 0.32783,0 0.68844,-0.03278 0.36061,-0.03278 0.68843,-0.13113 z m 3.34383,0.06556 q 0.26226,0.721218 1.01626,0.49174 -0.0328,-0.327827 -0.39339,-0.360609 -0.32783,-0.06557 -0.62287,-0.131131 z m 1.08182,0.196696 q 0.0656,0.163913 0.13114,0.163913 v -0.13113 z m 1.24574,1.770263 q -0.3606,0 -0.95069,-0.06556 -0.55731,-0.09835 -0.62287,-0.09835 -0.29505,0 -0.55731,0.09835 0,0.786783 0.0656,1.147392 0.0656,0.327827 0.52453,0.524522 0.49174,0.09835 1.21295,0.131131 0.754,0.03278 0.85235,0.03278 0.49174,0 0.98348,0 0.49174,0 1.01626,-0.03278 l 0.16392,-0.163913 q -0.26226,-0.393392 -0.26226,-0.721218 0,-0.163914 0.0983,-0.360609 -0.13113,-0.262262 -0.68844,-0.36061 -0.52452,-0.09835 -0.72122,-0.229478 z m 2.8521,0.983479 q -0.0656,0.196696 -0.0656,0.295044 0,0.163913 0.0983,0.262261 0.0656,0.06557 0.16391,0.03278 0.13113,-0.06557 0.13113,-0.163913 z m -0.0983,0.950697 q 0.0656,0.295044 0.13113,0.557305 0.0656,0.229478 0.29504,0.229478 0,-0.655652 -0.0656,-0.721218 -0.29504,-0.09835 -0.36061,-0.06556 z m -4.19618,0.09835 q -0.29505,0.163913 -0.29505,0.458957 0.13113,0.426174 0.16392,0.655653 0.0984,0.196696 0.26226,0.327826 0.19669,0.09835 0.45895,0.196696 1.93418,-0.196696 3.67166,-0.721218 -0.0983,-0.196696 -0.1967,-0.426174 -0.0983,-0.262262 0,-0.524523 -0.26226,0.03278 -0.59008,0.03278 -0.32783,0 -0.49174,0 -0.52453,0 -1.04905,0 -0.49174,0 -1.01626,-0.03278 -0.59009,0 -0.91791,0.03278 z m 10.29375,0.06556 q 0.22948,0.229479 0.59008,0.557305 0.3934,0.295044 0.65566,0.360609 -0.26226,-0.295044 -0.65566,-0.524522 -0.39339,-0.262261 -0.59008,-0.393392 z m -12.0968,-4.425657 q 0,0.262261 -0.0983,0.786784 -0.0656,0.524522 -0.0656,0.688435 0.0656,0.163913 0.39339,0.163913 0.32783,-0.03278 0.42618,-0.03278 l -0.1967,-0.393392 q -0.0983,-0.196696 -0.0983,-0.458957 0,-0.49174 0.36061,-0.688436 0.22948,0 0.72122,0.131131 0.49174,0.131131 0.754,0.131131 0.45896,0 0.72122,-0.360609 -0.754,0 -1.47522,0.03278 -0.72122,0 -1.44244,0 z m 5.86809,5.70418 q 0.16392,0.163914 0.32783,0.295044 l -0.0328,-0.229478 q 0,-0.196696 -0.16391,-0.196696 -0.16392,0 -0.13113,0.13113 z m -0.32782,-0.03278 q -0.52452,0.196696 -1.54079,0.393391 -0.98348,0.163914 -1.37687,0.295044 -0.0983,0.163913 -0.0983,0.327827 0,0.196695 0.0656,0.393391 0.0656,0.196696 0.13113,0.393392 0.62287,0.426174 0.9507,0.62287 0.32783,0.196696 0.62287,0.229479 0.26226,-0.426175 0.26226,-0.458957 -0.29504,0.13113 -0.59009,0.262261 0.0656,-0.131131 -0.0328,-0.163913 -0.0656,-0.03278 -0.13113,-0.09835 0.65566,-0.327827 1.37687,-0.721218 0.72122,-0.393392 1.1474,-0.885132 -0.29505,0.131131 -0.52453,-0.06557 -0.19669,-0.229479 -0.26226,-0.524522 z m 5.6714,0.852348 -0.0983,-0.163913 z m 0.5573,0.458957 0.0983,0.09835 z m -6.49096,-0.819566 -0.0328,0.524523 -0.0656,-0.688436 z m -0.13113,-1.704697 q 0.13113,0 0.22947,0.327826 l -0.19669,0.590088 q 0.0328,-0.295044 -0.0328,-0.917914 z m -0.0656,-1.73748 q 0.0984,0.03278 0.19669,0.295043 -0.0656,0.458957 -0.26226,0.721219 -0.0656,-0.163914 0,-0.524523 0.0983,-0.360609 0.0656,-0.491739 z m 6.49096,4.687918 0.13113,0.09835 -0.29504,-0.196696 z" /></g></svg>
