<?xml version="1.0" encoding="UTF-8" standalone="no"?>
<!-- Created with Inkscape (http://www.inkscape.org/) -->

<svg
   version="1.1"
   id="svg1"
   xml:space="preserve"
   width="85.434059"
   height="44.048664"
   xmlns:inkscape="http://www.inkscape.org/namespaces/inkscape"
   xmlns:sodipodi="http://sodipodi.sourceforge.net/DTD/sodipodi-0.dtd"
   xmlns="http://www.w3.org/2000/svg"
   xmlns:svg="http://www.w3.org/2000/svg"><defs
     id="defs1" /><sodipodi:namedview
     id="namedview1"
     pagecolor="#ffffff"
     bordercolor="#000000"
     borderopacity="0.25"
     inkscape:showpageshadow="2"
     inkscape:pageopacity="0.0"
     inkscape:pagecheckerboard="0"
     inkscape:deskcolor="#d1d1d1" /><inkscape:clipboard
     min="83.733429,291.78087"
     max="169.16749,335.82953"
     geom-min="83.733429,291.78087"
     geom-max="169.16749,335.82953" /><g
     id="g5469"
     transform="matrix(4.1157778,0,0,4.1157778,-114.85065,-312.11217)"><path
       style="display:inline;opacity:1;fill:#ffb380;stroke-width:3.47075"
       d="m 128.74023,286.61328 -7.18945,1.28125 c -3.9543,0.70535 -7.39186,1.34709 -7.64062,1.42578 -0.24876,0.0787 -0.75492,0.46363 -1.12305,0.85547 -0.53694,0.57155 -0.6715,1.03493 -0.68359,2.33984 -0.0164,1.78485 -0.19051,2.04241 -1.38868,2.04883 -0.44316,0.002 -1.61872,0.21989 -2.61132,0.48438 -1.70023,0.45304 -1.82985,0.54754 -2.24805,1.64258 -1.11723,2.92545 0.24384,5.41265 3.25,5.9375 1.74968,0.30547 10.51298,1.07134 14.91601,1.30468 4.40969,0.23373 6.07088,0.54163 7.86524,1.45703 1.12616,0.57454 1.05878,0.37343 1.51562,4.49805 0.22529,2.03397 0.42038,2.34135 2.18946,3.44727 2.22064,1.3882 2.77929,1.96806 2.77929,2.88281 0,1.39607 1.91747,3.1455 4.77539,4.35742 2.42204,1.02707 2.58439,1.05471 8.43555,1.43164 3.2817,0.21143 7.45517,0.38886 9.27344,0.39453 l 3.30664,0.01 2.51758,2.27539 c 2.41332,2.18016 2.568,2.27231 3.70312,2.16992 3.04312,-0.27444 6.91888,-3.10525 10.16992,-7.42773 1.40269,-1.86497 1.55345,-2.2337 2.43165,-5.90235 l 0.9375,-3.91211 -0.84766,-1.05859 c -0.46658,-0.58289 -2.75189,-2.59545 -5.07813,-4.4707 -2.32624,-1.87526 -4.74606,-4.08175 -5.37695,-4.9043 -0.73993,-0.9647 -1.80282,-1.87605 -2.99414,-2.56836 -1.01576,-0.5903 -3.31811,-2.08007 -5.11523,-3.30859 -3.75459,-2.56665 -6.51597,-3.9284 -8.94922,-4.41407 -0.93763,-0.18715 -2.98416,-0.64447 -4.54688,-1.01562 -4.14894,-0.98535 -7.51746,-1.26172 -15.3164,-1.26172 z"
       transform="scale(0.26458333)"
       id="path922" /><path
       id="path871"
       style="font-style:normal;font-variant:normal;font-weight:normal;font-stretch:normal;font-size:medium;line-height:125%;font-family:Gallaudet;-inkscape-font-specification:Gallaudet;text-align:start;letter-spacing:0px;word-spacing:0px;text-anchor:start;display:inline;opacity:1;fill:#000000;fill-opacity:1;stroke:none;stroke-width:0.242967px;stroke-linecap:butt;stroke-linejoin:miter;stroke-opacity:1"
       d="m 33.888893,75.913908 q 0.65565,0 1.3113,0 0.65566,0 1.31131,-0.03278 1.7047,0 2.4587,0.13113 0.754,0.09835 1.63913,0.393392 1.14739,0 2.72096,1.11461 1.57357,1.11461 2.06531,1.278523 0.29504,0.62287 1.3113,1.409654 1.01626,0.786783 1.18018,0.917914 l 0.754,0.786783 -0.49174,2.065307 q -1.01626,1.442436 -1.73748,1.934176 -0.68844,0.491739 -1.54079,0.62287 l -1.37687,-1.212958 q -0.98348,0 -2.72096,-0.09835 -1.70469,-0.13113 -2.13087,-0.13113 -1.21296,-0.458957 -1.44243,-0.622871 -0.22948,-0.163913 -0.52453,-0.590087 0.0984,-0.524523 -0.5573,-0.852349 -0.65565,-0.327826 -0.754,-0.655653 -0.0656,-0.688435 -0.13113,-1.376871 -0.39339,-0.360609 -0.98348,-0.458957 -0.59009,-0.131131 -1.34409,-0.131131 h -0.81957 q -0.5573,-0.13113 -1.67191,-0.196695 -1.11461,-0.06557 -1.77027,-0.196696 -0.59008,-0.262261 -0.68843,-0.754001 -0.0983,-0.229479 0,-0.49174 0.0984,-0.262261 0.19669,-0.524522 0.32783,-0.09835 0.68844,-0.196696 0.39339,-0.09835 0.754,-0.09835 0.16392,-0.06556 0.13113,-0.163913 -0.0328,-0.09835 -0.0656,-0.229479 0,-0.360609 0.0983,-0.590087 0.13113,-0.262261 0.42617,-0.393392 1.83583,-0.327826 3.70444,-0.655653 z m 0.68843,0.295044 q -0.13113,0.754001 -0.22947,1.475219 0,0.262261 0.0328,0.393392 0.26226,0.06556 0.49174,0.06556 0.26226,0 0.52452,0 0.59009,0 0.9507,-0.163913 0.26226,-0.62287 0.42617,-0.98348 0.1967,-0.393391 0.52452,-0.688435 z m 3.34383,0 q -0.59008,0.131131 -0.91791,0.819566 -0.22948,0.590088 -0.42617,1.180175 0.45895,-0.327826 0.91791,-0.491739 0.45896,-0.196696 0.98348,-0.196696 0.22948,0 0.29504,-0.295044 0.0656,-0.295044 0.1967,-0.295044 l 0.0983,-0.13113 -0.13113,-0.06557 q 0.0656,-0.229478 0.0983,-0.327826 z m -5.54026,0.295044 q -0.81957,0.03278 -1.37687,0.09835 -0.52453,0.03278 -0.9507,0.327826 -0.32783,0.327827 -0.26226,0.786784 0.19669,0.262261 0.45896,0.360609 0.29504,0.09835 0.68843,0.09835 0.45896,0 0.78678,-0.06557 0.36061,-0.06557 0.55731,-0.09835 z m 6.9827,0 -0.26226,0.852349 0.98348,-0.196696 q 0.16391,-0.09835 0.32782,-0.09835 0.1967,-0.03278 0.32783,-0.06557 0.32783,0 0.98348,0.229479 0.68844,0.196696 0.91791,0.196696 -0.45895,-0.327827 -1.04904,-0.49174 -0.5573,-0.196696 -2.22922,-0.426174 z m 1.60635,0.852349 q -1.47522,0.295043 -2.91766,0.557304 -0.13113,0 -0.0983,0.163914 0.0656,0.163913 0.0656,0.229478 -0.13113,0.131131 -0.22948,-0.06557 -0.0656,-0.196696 -0.19669,-0.163913 0,0.393391 0.0328,0.786783 -0.32783,-0.295044 -0.42617,-0.655653 -0.1967,0.06557 -0.59009,0.393392 -0.39339,0.295044 -0.59009,0.393392 0.26226,0.327826 0.26226,0.590087 0,0.131131 -0.0983,0.295044 -0.22947,0.196696 -0.52452,0.393392 -0.29504,0.163913 -0.59009,0.03278 0.13113,0.262261 0.36061,0.393391 0.22948,0.131131 0.52453,0.131131 0.22947,0 0.65565,-0.09835 0.42617,-0.131131 0.68843,-0.163913 0.26226,-0.03278 0.68844,-0.49174 0.45896,-0.49174 0.49174,-0.524522 0.0984,0.09835 0.0328,0.229478 -0.0656,0.131131 -0.0983,0.229479 0.1967,-0.03278 0.36061,-0.229479 0.16392,-0.196696 0.26226,-0.295044 v 0.458957 q 0.59009,-0.06556 1.08183,-0.196695 0.52452,-0.163914 0.9507,-0.458957 -0.16392,0.393391 -0.62287,0.590087 -0.45896,0.163913 -0.88513,0.327827 0.45895,0.786783 1.24574,1.180175 0.78678,0.393392 2.91765,0.62287 1.37687,0 1.93418,-1.409654 0.0984,-0.721218 -0.26226,-1.24574 -0.78679,-0.688436 -1.67192,-1.049045 -0.85235,-0.393392 -2.36035,-0.885131 0,0.03278 0.0656,0.262261 0.0983,0.196696 0.0328,0.295044 -0.16391,-0.229479 -0.29504,-0.393392 -0.13113,-0.163913 -0.1967,-0.229478 z m -12.32628,0.885131 q -0.29504,0.163913 -0.45895,0.295044 -0.13113,0.09835 -0.0983,0.327826 0,0.524522 0.42617,0.754001 0.42617,0.131131 1.11461,0.196696 0.72122,0.06557 1.27853,0.06557 0,-0.754001 0.0656,-1.278523 -0.32782,-0.03278 -0.95069,-0.229478 -0.5901,-0.229479 -0.88514,-0.229479 -0.22948,0 -0.49174,0.09835 z m 2.42592,0.327826 q -0.0983,0.163914 -0.0983,0.360609 0,0.131131 0.0656,0.458957 0.0656,0.327827 0.0656,0.49174 0.52453,0.131131 1.31131,0.131131 h 0.49174 q -0.13113,-0.295044 -0.13113,-0.622871 0.0328,-0.491739 0.0656,-1.016261 -0.62287,0.03278 -1.01626,0.06557 -0.36061,0 -0.754,0.13113 z m 1.96696,-0.163913 q -0.13113,0.393392 -0.13113,0.786784 0,0.229478 0.0983,0.491739 0.16391,-0.426174 0.16391,-0.819566 0,-0.295044 -0.13113,-0.458957 z m 0.36061,0 q -0.0984,0.327827 -0.16391,0.786784 -0.0656,0.458957 -0.0328,0.819566 l 1.08183,0.13113 q 0.36061,0.03278 0.29504,-0.524522 0.13113,-0.393392 0.55731,-0.590088 0.42617,-0.196695 0.85235,-0.393391 z m 2.39313,0.852349 q -0.59009,-0.06556 -0.91791,0.229478 -0.0328,0.262262 0.13113,0.49174 0.19669,0.196696 0.59009,0.163913 0.0328,-0.03278 0.26226,-0.196696 0.26226,-0.163913 0.16391,-0.327826 -0.22948,-0.295044 -0.22948,-0.360609 z m 3.44218,1.049045 q -0.49174,0 -1.24574,0.327826 -0.754,0.295044 -1.11461,0.295044 -0.13113,0.06557 -0.72122,0.09835 -0.59009,0.03278 -0.72122,0.295044 0.13113,0.688435 0.26226,1.016261 0.13113,0.327827 0.59009,0.426175 1.34409,-0.163913 2.16366,-0.295044 0.85234,-0.163913 1.96695,-0.688435 -0.68843,0.13113 -0.78678,-0.622871 -0.0656,-0.754001 -0.39339,-0.852348 z m 7.01549,0.09835 0.0656,0.09835 q -0.16391,0.524523 -0.5573,0.917914 0.16391,-0.163913 0.29504,-0.557305 0.13113,-0.393391 0.1967,-0.458957 z m 0.72121,0.49174 -0.16391,-0.09835 0.26226,0.196696 z m -0.5573,0 -0.0328,0.163913 q 0.32782,0.229479 0.98348,0.819566 0.68843,0.557305 0.78678,0.622871 v -0.196696 q -0.26226,-0.229479 -0.78678,-0.721218 -0.52453,-0.524523 -0.9507,-0.688436 z m -6.45818,0.229479 -0.0328,0.163913 q -0.0328,0.163913 0.19669,0.163913 0.0656,0 0.26226,-0.03278 -0.0328,-0.09835 -0.19669,-0.163913 -0.13113,-0.09835 -0.22948,-0.13113 z m 6.2287,0.13113 q -0.39339,0.393392 -0.52452,0.754001 1.14739,0.819566 2.29478,1.639132 l 0.16392,-0.852348 q -0.754,-0.721219 -1.1474,-1.049045 -0.39339,-0.360609 -0.78678,-0.49174 z m -4.98296,0.590088 q 0.19669,0.393392 0.45896,0.327826 0.0656,-0.163913 -0.16392,-0.196696 -0.22948,-0.06557 -0.29504,-0.13113 z m -0.32783,0.196696 q 0.0656,0.163913 0.0656,0.491739 v 0.295044 q -0.16392,0.458957 -0.91792,0.917914 -0.72122,0.426175 -0.72122,0.98348 0.26227,0.13113 0.52453,0.163913 0.26226,0.03278 0.65565,0.03278 0.39339,0 0.85235,-0.03278 0.45896,-0.03278 0.49174,-0.03278 0.22948,0 0.52452,0.06556 0.32783,0.03278 0.45896,0.03278 0.13113,0 0.16391,0 0.49174,0 0.91792,-0.262261 0.81956,-0.917914 0.81956,-2.065307 0,-0.262261 -0.0328,-0.426174 0.42617,0.229478 1.04904,0.852349 0.62287,0.590087 1.37687,1.311305 h 0.29505 q -1.508,-1.704697 -1.86861,-1.966958 -0.32783,-0.295044 -1.01626,-0.295044 -0.36061,0.393392 -0.9507,0.393392 -0.91792,-0.09835 -1.83583,-0.196696 0.22948,0.09835 0.42618,0.229478 0.19669,0.09835 0.42617,0.295044 -0.45896,0 -1.08183,-0.360609 -0.42617,-0.327826 -0.62287,-0.426174 z m -0.45896,0.09835 q 0,0.09835 -0.0328,0.196695 -0.0328,0.09835 0,0.196696 0.0328,0.06557 0.16392,0 0.0328,-0.03278 0.0328,-0.06557 0,-0.03278 0.0328,-0.163913 0.0328,-0.09835 -0.0328,-0.131131 -0.0656,-0.06557 -0.16392,-0.03278 z m 3.14714,0.09835 -0.72122,-0.06557 z m -3.63887,0.09835 q -0.1967,0 -0.32783,0.03278 -0.0984,0 -0.0984,0.131131 0.1967,0.327826 0.1967,0.491739 0,0.163914 -0.13113,0.262262 -0.16392,-0.36061 -0.32783,-0.721219 -0.52452,0.06557 -1.31131,0.295044 -0.78678,0.229479 -1.11461,0.262261 -0.0983,0.426175 0.29505,0.786784 0.52452,0.393392 0.72122,0.590087 0.0328,-0.03278 1.18017,-0.524522 1.18018,-0.524522 1.47522,-1.147392 -0.29504,0.13113 -0.5573,-0.458958 z m 0.22947,0 0.0656,0.09835 z m 4.78627,0.262262 q 0.0328,0.13113 0.0328,0.393391 0,0.524523 -0.22948,1.049045 -0.19669,0.49174 -0.49174,0.852349 1.01627,-0.786784 1.01627,-2.065307 z m 0.52452,0.426174 q -0.16391,0.754001 -0.45895,1.311306 -0.29505,0.524522 -0.85235,0.917914 0.19669,0.229478 0.39339,0.49174 0.22948,0.229478 0.45896,0.295043 0.98347,-0.393391 1.40965,-0.62287 0.42617,-0.229478 0.65565,-0.819566 z m 1.21296,0.03278 0.68844,0.754 q 0.3606,0.163914 0.39339,0.131131 -0.45896,-0.49174 -1.08183,-0.885131 z m -8.1301,1.606349 0.36061,0.06557 q 0.26226,-0.327827 0.26226,-0.524523 -0.19669,0.03278 -0.26226,0.09835 -0.0656,0.03278 -0.36061,0.360609 z m -5.96644,-8.162878 q -0.0656,0.262261 -0.0984,0.491739 -0.0328,0.196696 -0.0328,0.524523 v 0.295044 q 0.16392,0.295043 0.55731,0.295043 0.26226,0 0.59008,-0.03278 0.36061,-0.03278 0.49174,0 -0.0656,-0.426175 0.0328,-0.885132 0.0984,-0.491739 0.19669,-0.983479 -0.5573,0 -0.85235,0.06556 -0.29504,0.03278 -0.88513,0.229479 z m 6.29427,4.09783 q 0.16391,-0.03278 0.26226,0.196696 0.0983,0.196696 0.16391,0.262261 -0.0328,0.393392 -0.0328,0.786784 0,-0.229479 -0.19669,-0.688436 -0.16392,-0.491739 -0.1967,-0.557305 z" /></g></svg>
