<?xml version="1.0" encoding="UTF-8" standalone="no"?>
<!-- Created with Inkscape (http://www.inkscape.org/) -->

<svg
   version="1.1"
   id="svg1"
   xml:space="preserve"
   width="45.253132"
   height="70.747826"
   xmlns:inkscape="http://www.inkscape.org/namespaces/inkscape"
   xmlns:sodipodi="http://sodipodi.sourceforge.net/DTD/sodipodi-0.dtd"
   xmlns="http://www.w3.org/2000/svg"
   xmlns:svg="http://www.w3.org/2000/svg"><defs
     id="defs1" /><sodipodi:namedview
     id="namedview1"
     pagecolor="#ffffff"
     bordercolor="#000000"
     borderopacity="0.25"
     inkscape:showpageshadow="2"
     inkscape:pageopacity="0.0"
     inkscape:pagecheckerboard="0"
     inkscape:deskcolor="#d1d1d1" /><inkscape:clipboard
     min="218.88559,264.61545"
     max="264.13872,335.36328"
     geom-min="218.88559,264.61545"
     geom-max="264.13872,335.36328" /><g
     id="g5476"
     transform="matrix(4.1157778,0,0,4.1157778,-250.00281,-284.94676)"><path
       style="display:inline;opacity:1;fill:#ffb380;stroke-width:3.47075"
       d="m 232.35742,261.67188 c -1.58071,0.0933 -2.77756,1.55492 -2.7793,3.5625 -0.002,2.49305 2.26066,11.63496 3.99024,16.12109 1.0712,2.77844 1.10484,2.98285 1.53906,9.23437 0.97553,14.04465 1.29993,16.27312 2.79102,19.16016 l 0.89062,1.72461 0.11133,5.75977 0.11133,5.76171 0.81445,0.42188 c 0.44845,0.23191 1.7456,0.60028 2.88281,0.81836 1.13722,0.21812 3.02719,0.77701 4.19922,1.24219 1.17204,0.4652 2.38669,0.91697 2.69922,1.0039 0.755,0.20997 3.70607,-0.0199 5.05664,-0.39453 0.70926,-0.19673 2.00126,-1.13389 3.76563,-2.73047 l 2.68554,-2.42969 v -4.78711 -4.7871 l 1.57813,-1.76954 c 1.70467,-1.91042 3.04373,-4.13873 4.24414,-7.06054 0.41732,-1.01577 1.52455,-3.3979 2.45898,-5.29492 1.53838,-3.1231 1.6973,-3.6214 1.69532,-5.25782 -10e-4,-1.04485 -0.36737,-3.30236 -0.86914,-5.35156 -0.47735,-1.94946 -0.86914,-3.90386 -0.86914,-4.34375 0,-0.43989 -0.26101,-1.31209 -0.58008,-1.9375 -0.31906,-0.62541 -0.71289,-1.86238 -0.87696,-2.75 -0.19087,-1.0325 -0.61448,-2.02559 -1.17578,-2.75781 -1.56716,-2.04443 -1.75139,-2.12601 -4.8457,-2.13281 -2.7039,-0.006 -2.81976,0.019 -3.61523,0.81445 -0.70206,0.70207 -0.87044,0.762 -1.16407,0.4082 -1.30003,-1.56645 -4.73939,-1.6092 -6.36914,-0.0781 -0.60007,0.56372 -0.68346,0.57169 -1.50195,0.14843 -1.0727,-0.55472 -3.43773,-0.57949 -4.70313,-0.0508 -1.11619,0.46638 -1.78338,1.3275 -2.16601,2.79883 -0.1524,0.58602 -0.41904,1.60943 -0.5918,2.27344 l -0.31445,1.20703 -0.64649,-1.27734 c -0.35551,-0.70308 -0.92478,-2.30083 -1.26562,-3.54883 -0.34085,-1.24801 -0.98272,-2.90984 -1.42773,-3.69336 -0.44502,-0.78352 -1.29014,-2.95873 -1.87696,-4.83399 -1.23446,-3.94484 -1.81974,-4.8917 -3.17773,-5.14648 -0.23912,-0.0449 -0.47145,-0.0602 -0.69727,-0.0469 z"
       transform="scale(0.26458333)"
       id="path928" /><path
       id="path873"
       style="font-style:normal;font-variant:normal;font-weight:normal;font-stretch:normal;font-size:medium;line-height:125%;font-family:Gallaudet;-inkscape-font-specification:Gallaudet;text-align:start;letter-spacing:0px;word-spacing:0px;text-anchor:start;display:inline;opacity:1;fill:#000000;fill-opacity:1;stroke:none;stroke-width:0.242967px;stroke-linecap:butt;stroke-linejoin:miter;stroke-opacity:1"
       d="m 62.197831,69.735832 0.62287,1.966956 q 0.36061,0.360609 0.5573,1.278523 0.22948,0.885131 0.52453,1.212958 0.0656,-0.09835 0.22947,-0.852349 0.16392,-0.754001 0.754,-0.885132 0.36061,-0.03278 0.52453,-0.03278 0.5573,0 0.754,0.295044 0.16391,-0.295044 0.52452,-0.426175 0.39339,-0.13113 0.81957,-0.06556 0.19669,0 0.39339,0.196696 0.22948,0.196696 0.26226,0.229478 0.16391,-0.491739 0.81957,-0.491739 0.3606,0 0.754,0 0.32782,0 0.62287,0.327826 0.29504,0.426174 0.42617,0.590088 0.0656,0.360609 0.13113,0.688435 0.0983,0.327827 0.29504,0.655653 0,0.49174 0.26227,1.442436 0.26226,0.950697 0.26226,1.376872 0,0.491739 -0.22948,0.950696 -0.32783,0.458957 -0.9507,1.966959 -0.62287,1.475219 -1.37687,2.032524 l -0.0984,0.262261 v 2.425916 q -0.68843,0.62287 -1.11461,1.049044 -0.42617,0.393392 -1.01626,0.393392 -0.26226,0.09835 -0.49174,0.09835 -0.36061,0 -1.04904,-0.295044 -0.68844,-0.327826 -1.04905,-0.327826 -0.16391,-0.06557 -0.52452,-0.09835 -0.36061,-0.06556 -0.55731,-0.295044 v -1.60635 q 0,-0.721218 -0.0983,-1.475219 -0.26226,-0.393391 -0.42618,-0.852348 -0.13113,-0.49174 -0.22948,-1.081828 -0.0983,-0.62287 -0.19669,-2.393133 -0.0983,-1.803045 -0.22948,-2.884872 -0.45896,-1.081828 -0.754,-2.130872 -0.26226,-1.081828 -0.59009,-2.622612 0,-0.524524 0.26226,-0.885124 0.1967,-0.1967 0.49174,-0.1967 0.13113,0 0.39339,0.0656 z m -0.36061,-0.13113 q -0.32783,-0.1967 -0.68844,0.0656 -0.22948,0.32783 -0.22948,0.72122 0,0.426174 0.1967,0.983479 0.1967,0.393392 0.22948,0.557305 0.22948,-0.09835 0.5573,-0.163913 0.32783,-0.09835 0.62287,-0.196696 -0.0983,-0.163913 -0.26226,-0.885131 -0.13113,-0.754004 -0.42617,-1.081824 z m 0.36061,2.229216 q -0.32783,0.06557 -0.52452,0.163913 -0.1967,0.09835 -0.1967,0.295044 0,0.393392 0.0328,0.590088 0.0656,0.196696 0.26226,0.393392 l 0.52453,-0.426175 q 0.0656,-0.09835 0.39339,-0.163913 0.36061,-0.06557 0.36061,-0.295044 -0.1967,-0.426174 -0.36061,-0.557305 -0.13113,-0.13113 -0.49174,0 z m 6.75322,0.458957 q -0.16391,0.09835 -0.36061,0.229479 -0.16391,0.13113 -0.0983,0.327826 0.32782,0.327827 0.88513,0.524522 0.59008,0.196696 0.88513,0.295044 l 0.26226,-0.229478 q 0.0656,0.03278 0.0656,0.163913 0,0.09835 0,0.131131 0.0656,-0.393392 -0.0983,-0.754001 -0.13113,-0.393392 -0.55731,-0.524523 -0.39339,-0.163913 -0.98348,-0.163913 z m -2.19643,0.196696 q -0.32783,0.163913 -0.42618,0.852349 0.16391,1.376871 0.26226,2.294785 0.0983,0.917914 0.26226,1.803045 l 0.26226,-0.491739 q 0.3934,-0.229479 0.59009,-0.06557 l -0.19669,0.131131 q 0.13113,0.06557 0.19669,-0.03278 0.0656,-0.09835 0.16392,-0.09835 l 0.22947,0.524523 q 0.0983,-0.590088 0.0983,-0.754001 0.0328,-0.163913 0.0328,-0.590088 0,-0.262261 -0.0328,-0.393391 -0.13113,0 -0.45896,0.163913 -0.32782,0.13113 -0.5573,0.06557 -0.13113,-0.06557 -0.16391,-0.163913 -0.0328,-0.09835 -0.0656,-0.196696 l 0.36061,0.06556 q 0.45896,0.131131 0.72122,-0.196696 -0.65565,-0.754 -0.81957,-1.081827 -0.16391,-0.327826 -0.16391,-0.786783 0.19669,-0.688436 0.72122,-0.950697 -0.26226,-0.06556 -0.49174,-0.09835 -0.1967,-0.06556 -0.52452,0 z m -1.47522,0.163913 q -0.3934,-0.06557 -0.62287,0.163914 -0.1967,0.229478 -0.29505,0.62287 0,0.950696 0.32783,2.065306 0.32783,1.11461 0.65565,2.09809 l 0.1967,-0.721219 q 0.13113,-0.163913 0.39339,-0.163913 0.29504,0.03278 0.45896,0.03278 0,-1.049045 -0.0656,-1.639132 -0.0656,-0.622871 -0.32783,-2.130872 -0.0656,-0.163913 -0.3606,-0.229479 -0.26227,-0.06557 -0.36061,-0.09835 z m -2.16366,0.196696 q -0.26226,0 -0.59009,0.229479 -0.32782,0.196696 -0.62287,0.393391 0.0328,0.36061 0.26227,0.950697 0.22947,0.590088 0.22947,0.62287 0.29505,-0.229478 0.62287,-0.458957 0.32783,-0.229478 0.55731,-0.262261 z m 4.45844,0.360609 q -0.0983,0.163913 -0.0983,0.327827 0,0.327826 0.29505,0.327826 0.22948,0.131131 0.36061,0.131131 0.16391,0 0.29504,-0.295044 0.13113,-0.295044 0.1967,-0.360609 -0.16392,-0.426175 -0.59009,-0.426175 -0.29505,0 -0.45896,0.295044 z m 1.508,0.295044 -0.68843,0.754001 q -0.26226,0 -0.68844,-0.229479 -0.39339,-0.229478 -0.42617,-0.229478 0.29504,0.786783 0.91791,1.409654 0.65565,0.590087 1.40966,0.688435 -0.3934,0.393392 -0.32783,0.524522 0.0328,0.426175 0.42617,0.688436 0.42618,0.229478 0.68844,0.360609 -0.29504,0.163913 -0.62287,-0.09835 -0.32783,-0.295044 -0.52452,-0.327826 -0.0983,0.03278 -0.0983,0.163913 0,0.13113 0,0.262261 -0.39339,-0.131131 -0.78679,0.327826 -0.39339,0.458958 -0.72121,0.852349 -0.0656,-0.09835 0,-0.196696 0.0983,-0.13113 0.0656,-0.196695 -0.26226,0.03278 -0.49174,0 -0.22948,-0.06557 -0.45895,-0.131131 -0.16392,0.163913 -0.29505,0.426174 -0.13113,0.262261 -0.22948,0.49174 -0.26226,0.295044 -0.26226,0.688436 0,0.393391 0.32783,0.885131 0.32782,0.458957 0.62287,0.885131 0.45896,0.229479 0.9507,0.393392 0.52452,0.131131 0.98347,0.06557 0.85235,-0.491739 1.40966,-1.966958 0.59009,-1.508002 1.04904,-1.966959 0.13113,-0.360609 0.13113,-0.786783 0,-0.49174 -0.22948,-1.147393 -0.19669,-0.688436 -0.29504,-1.016262 -0.0656,0.131131 -0.26226,0.262261 -0.16391,0.09835 -0.22948,0.163913 l 0.29505,-0.426174 q 0.0983,-0.196696 0.13113,-0.327826 0.0656,-0.163914 -0.0656,-0.229479 l -0.42617,0.590088 q -0.0983,-0.06557 -0.1967,-0.131131 0.13113,-0.262261 0.26226,-0.557305 -0.16391,0.09835 -0.26226,0.295044 -0.0983,0.196696 -0.1967,0.393392 -0.0983,-0.229479 0.0656,-0.49174 0.16391,-0.295044 0.32783,-0.557305 z m -5.17965,1.11461 q 0,0.360609 0.45895,0.62287 v -0.13113 q 0.0328,-0.426175 -0.45895,-0.49174 z m -0.3934,0.03278 q -0.0328,0.03278 -0.62287,0.393391 -0.59008,0.327827 -0.59008,0.688436 0,0.163913 0.0983,0.360609 0.0328,0.360609 0.0656,0.49174 0.0656,0.13113 0.26226,0.09835 0.1967,-0.131131 0.65565,-0.163914 0.49174,-0.03278 0.65566,-0.09835 0.16391,-0.06557 0.39339,0 0.22948,0.06557 0.26226,-0.06557 -0.13113,-0.852349 -0.85235,-0.950697 l 0.13113,-0.163913 q -0.0328,-0.03278 -0.16391,-0.295044 -0.13113,-0.295043 -0.29505,-0.295043 z m 5.24523,1.508001 q -0.13113,0 -0.16392,0.229479 -0.0328,0.229478 -0.0656,0.262261 -0.0328,0.163913 0.0656,0.196696 0.13113,0.03278 0.32783,0.03278 0.0656,-0.09835 0.13113,-0.163913 0.0656,-0.09835 0.0328,-0.196696 -0.0656,-0.13113 -0.13113,-0.262261 -0.0328,-0.13113 -0.19669,-0.09835 z m -5.47471,0.524523 q -0.3606,0.06557 -0.59008,0.262261 -0.1967,0.196696 -0.16392,0.524522 l 0.3934,3.671656 q 0.19669,0.458957 0.42617,0.917914 0.42617,0.426175 1.08183,0.426175 0.45895,0 1.24574,-0.229479 0.78678,-0.229478 0.91791,-0.262261 -0.26226,-0.360609 -0.5573,-0.950697 -0.29505,-0.62287 -0.49174,-1.147392 l 0.49174,-1.573567 q -0.36061,0 -0.42618,0.06556 l -0.98348,1.73748 -0.0656,-0.06556 q 0.29504,-0.786784 0.85235,-1.60635 v -0.262261 q -0.13113,-0.163913 -0.29505,-0.163913 -0.16391,0 -0.45895,0.327826 -0.29505,0.327827 -0.36061,0.36061 0.0328,-0.229479 0.26226,-0.458957 0.22948,-0.262262 0.45896,-0.524523 l -0.16392,-0.754001 q -0.16391,-0.360609 -0.65565,-0.360609 -0.45896,0.03278 -0.91792,0.06557 z m 3.17992,0.62287 q -0.0328,-0.262261 -0.22948,-0.262261 -0.32782,0.09835 -0.62287,0.163913 0,0.295044 0,0.557305 0.26226,0.06556 0.36061,0.06556 0.32783,0 0.52452,-0.196696 z m 1.40966,-0.03278 q -0.3934,0 -0.75401,0 -0.19669,0.49174 0,0.557305 0.0983,0.03278 0.32783,0.03278 0.36061,0 0.49174,-0.229479 z m -1.9014,3.278265 0.0656,0.196695 q 0.39339,0.36061 0.5573,0.950697 0.1967,0.590088 0.1967,1.245741 0,0.327826 -0.0328,1.016262 -0.0328,0.655653 -0.0328,0.950696 0,0.393392 0.0328,0.590088 0.0983,-0.754001 0.19669,-1.60635 0.0984,-0.885131 0.0984,-1.311305 -0.13113,-0.163914 -0.13113,-0.295044 0.16391,0 0.36061,-0.03278 0.36061,0.06557 0.42617,-0.03278 -0.5573,-0.09835 -1.04904,-0.721218 -0.49174,-0.655653 -0.68844,-0.950696 z m 0.26226,1.835828 0.1967,-0.196696 q -0.0656,0.03278 -0.13113,0.09835 -0.0328,0.06556 -0.0656,0.09835 z m -0.42617,0.13113 -0.81957,0.262261 q 0.62287,0 0.81957,-0.262261 z m 0.42617,0.06557 q -0.0983,0.524522 -0.19669,1.049044 -0.0656,0.524523 -0.0656,1.147393 0,0.196696 0,0.393391 0.0656,0.262262 0.0656,0.36061 0.13113,-0.458957 0.26226,-0.917914 0.0656,0.229478 -0.0328,0.754 -0.0656,0.524523 -0.0328,0.688436 0.16392,-0.03278 0.36061,-0.09835 -0.0983,-0.458957 -0.0983,-0.885131 0,-0.327827 0.0656,-1.147393 0.0656,-0.852349 0.0656,-0.917914 0,-0.327826 -0.0328,-0.49174 -0.19669,0.03278 -0.36061,0.06557 z m 1.04905,0 q -0.13113,0.721218 -0.16392,1.409653 -0.0328,0.655653 -0.0328,1.508002 v 0.393392 q 0.45896,-0.262261 0.754,-0.426175 0.29505,-0.163913 0.29505,-0.426174 0,-0.131131 -0.0983,-0.295044 l -0.13113,0.196696 q -0.13113,-0.393392 -0.13113,-1.016262 0,-0.262261 0,-0.524522 0.0656,-0.295044 0.0656,-0.426175 0.0328,-0.229478 -0.5573,-0.393391 z m -3.31105,0.196695 q -0.1967,-0.03278 -0.39339,-0.06557 0,1.278523 0.16391,2.491481 l 2.06531,0.688436 q -0.0328,-0.196696 -0.0328,-0.590088 0,-0.426174 0.0656,-1.311306 0.0984,-0.917914 0.0984,-1.212958 -0.52452,0.229479 -0.88513,0.36061 -0.32783,0.09835 -0.68844,0 -0.0656,-0.03278 -0.26226,-0.09835 -0.16391,-0.09835 -0.13113,-0.262262 z m 4.19618,0 h -0.13113 q 0,0.229479 -0.0328,0.524523 0,0.262261 0,0.360609 0,0.590087 0.0328,0.819566 z m 0.29504,0 q -0.22948,1.081828 -0.22948,1.966959 v 0.393392 l 0.0656,-0.06556 q 0.0656,-1.147393 0.16391,-2.294786 z m -3.17991,-7.179399 0.85235,0.06557 q -0.45896,0.06557 -0.62288,0.06557 -0.19669,0 -0.22947,-0.131131 z" /></g></svg>
