<?xml version="1.0" encoding="UTF-8" standalone="no"?>
<!-- Created with Inkscape (http://www.inkscape.org/) -->

<svg
   version="1.1"
   id="svg1"
   xml:space="preserve"
   width="63.38681"
   height="59.665569"
   xmlns:inkscape="http://www.inkscape.org/namespaces/inkscape"
   xmlns:sodipodi="http://sodipodi.sourceforge.net/DTD/sodipodi-0.dtd"
   xmlns="http://www.w3.org/2000/svg"
   xmlns:svg="http://www.w3.org/2000/svg"><defs
     id="defs1" /><sodipodi:namedview
     id="namedview1"
     pagecolor="#ffffff"
     bordercolor="#000000"
     borderopacity="0.25"
     inkscape:showpageshadow="2"
     inkscape:pageopacity="0.0"
     inkscape:pagecheckerboard="0"
     inkscape:deskcolor="#d1d1d1" /><inkscape:clipboard
     min="319.16912,275.73988"
     max="382.55593,335.40545"
     geom-min="319.16912,275.73988"
     geom-max="382.55593,335.40545" /><g
     id="g5483"
     transform="matrix(4.1157778,0,0,4.1157778,-350.28635,-296.07119)"><path
       style="display:inline;opacity:1;fill:#ffb380;stroke-width:3.47075"
       d="M 356.30273,271.88281 355.18555,272.5 c -1.91032,1.05545 -3.0412,2.24729 -3.02344,3.1875 0.0156,0.83461 0.009,0.8376 -1.48242,0.75781 -1.27676,-0.0683 -1.68242,0.0481 -2.74805,0.78125 -1.53447,1.05575 -2.33065,2.03709 -2.58203,3.18164 -0.17934,0.8165 -0.25516,0.86086 -1.20313,0.70703 -0.85088,-0.13807 -1.22845,-0.006 -2.37304,0.83399 -0.74851,0.54945 -1.70083,1.40361 -2.11719,1.89844 -0.69001,0.82 -0.74355,1.05133 -0.59766,2.61328 0.0881,0.94254 0.25141,2.02278 0.36329,2.40039 0.16544,0.55828 -0.23073,0.33396 -2.11915,-1.20313 -1.2773,-1.03965 -2.86334,-2.16595 -3.52539,-2.50195 -0.66204,-0.33601 -2.41972,-1.72485 -3.90429,-3.08789 -3.89988,-3.5806 -5.17642,-4.07531 -7.13086,-2.76172 -0.8659,0.58197 -0.97533,0.80238 -1.05274,2.14258 -0.0767,1.32741 0.0248,1.64392 0.90039,2.83203 1.43514,1.94748 5.75008,6.0508 9.98438,9.49609 4.52589,3.68258 4.38609,3.53195 8.66601,9.45704 1.91898,2.6566 4.25935,5.77117 5.19922,6.92187 2.50307,3.06459 6.45073,7.14258 6.91602,7.14258 0.87506,0 3.2136,1.46067 4.2832,2.67578 0.62065,0.70509 1.99258,2.50015 3.04883,3.99023 1.05625,1.49009 1.97703,2.70899 2.04688,2.70899 0.3884,0 8.36074,-2.09527 10.24023,-2.69141 3.94459,-1.25116 4.73648,-2.10207 6.16016,-6.62109 l 0.74218,-2.35156 -2.09961,-4.4668 -2.09765,-4.4668 0.14843,-3.35547 c 0.0948,-2.14313 0.013,-4.14463 -0.2246,-5.54101 -0.20455,-1.20221 -0.34375,-3.65601 -0.3086,-5.45313 0.0351,-1.79711 -0.0629,-3.69412 -0.21875,-4.21484 -0.39551,-1.32177 -7.02951,-8.29197 -9.54101,-10.02539 -1.09558,-0.75615 -2.51997,-1.84978 -3.16602,-2.42969 -0.64605,-0.57991 -2.2758,-1.53057 -3.62109,-2.11328 z"
       transform="scale(0.26458333)"
       id="path926" /><path
       id="path875"
       style="font-style:normal;font-variant:normal;font-weight:normal;font-stretch:normal;font-size:medium;line-height:125%;font-family:Gallaudet;-inkscape-font-specification:Gallaudet;text-align:start;letter-spacing:0px;word-spacing:0px;text-anchor:start;display:inline;opacity:1;fill:#000000;fill-opacity:1;stroke:none;stroke-width:0.242967px;stroke-linecap:butt;stroke-linejoin:miter;stroke-opacity:1"
       d="m 94.293125,71.997831 c 0.502667,0.196696 0.88513,0.360609 1.14739,0.49174 0.26226,0.131131 0.48081,0.327827 0.65565,0.590088 0.524527,0.240406 1.038123,0.633798 1.54079,1.180175 0.502667,0.524522 0.994407,1.038117 1.47522,1.540784 0.131127,0.240406 0.19669,0.557305 0.19669,0.950697 0,0.196696 -0.01093,0.415247 -0.0328,0.655653 -0.02187,0.240406 -0.0328,0.382464 -0.0328,0.426174 0,0.218551 0.0328,0.426175 0.0984,0.62287 0.06553,0.371537 0.0983,0.644725 0.0983,0.819566 0.02187,0.174841 0.0328,0.40432 0.0328,0.688436 0,0.327827 -0.04371,0.655653 -0.13113,0.983479 0.371533,0.808639 0.753995,1.60635 1.147385,2.393133 -0.15299,0.524523 -0.29505,0.972552 -0.42618,1.344089 -0.131123,0.349681 -0.404308,0.62287 -0.819555,0.819566 -0.415247,0.174841 -0.98348,0.349681 -1.7047,0.524522 -0.69936,0.174841 -1.223883,0.305971 -1.57357,0.393392 -0.568233,-0.852349 -1.005333,-1.453364 -1.3113,-1.803045 -0.28412,-0.349682 -0.699367,-0.590088 -1.24574,-0.721219 -0.786787,-0.743073 -1.562643,-1.617277 -2.32757,-2.622611 -0.743073,-1.027189 -1.365943,-1.890466 -1.86861,-2.589829 -0.218553,-0.196696 -0.81957,-0.688436 -1.80305,-1.475219 -0.98348,-0.808639 -1.715623,-1.551712 -2.19643,-2.22922 -0.0656,-0.131131 -0.0984,-0.284116 -0.0984,-0.458957 0,-0.152985 0.0328,-0.295043 0.0984,-0.426174 0.2404,-0.218551 0.480803,-0.327827 0.72121,-0.327827 0.305973,0 0.710293,0.262261 1.21296,0.786784 0.52452,0.502667 0.863273,0.797711 1.01626,0.885131 0.262267,0.06557 0.61195,0.295045 1.04905,0.688436 0.458953,0.371537 0.69936,0.568232 0.72122,0.590087 -0.06553,-0.284116 -0.120173,-0.502667 -0.16392,-0.655653 -0.04373,-0.152985 -0.0656,-0.284116 -0.0656,-0.393391 0,-0.240406 0.109273,-0.469885 0.32782,-0.688436 0.305973,-0.240406 0.513597,-0.404319 0.62287,-0.49174 0.10928,-0.109275 0.262267,-0.120202 0.45896,-0.03278 0.1967,0.06557 0.29505,0.01093 0.29505,-0.163913 0,-0.196696 0.08742,-0.382464 0.26226,-0.557305 0.196693,-0.196696 0.393387,-0.349682 0.59008,-0.458957 0.0656,-0.06557 0.153023,-0.09835 0.26227,-0.09835 0.284113,0.04371 0.46988,0.06556 0.5573,0.06556 0.131133,0 0.1967,-0.06556 0.1967,-0.196696 l -0.0656,-0.295044 c 0.06553,-0.04371 0.207593,-0.163916 0.42618,-0.360609 0.2404,-0.218551 0.45895,-0.349681 0.65565,-0.393392 z m -4.03227,5.343571 c -0.196693,0.152986 -0.349677,0.371537 -0.45895,0.655653 -0.08742,0.284117 -0.13113,0.568233 -0.13113,0.852349 0.32782,0.415247 0.89605,1.169248 1.70469,2.262003 0.80864,1.092755 1.57357,1.934176 2.29479,2.524263 0.305967,0.131131 0.579153,0.196696 0.81956,0.196696 0.393393,0 0.754003,-0.109275 1.08183,-0.327826 0.34968,-0.218551 0.764927,-0.546378 1.24574,-0.98348 0.131133,0.04371 0.24041,0.163916 0.32783,0.360609 0.109273,0.196696 0.185767,0.40432 0.22948,0.622871 -0.08742,-0.109276 -0.163913,-0.218552 -0.22948,-0.327827 -0.0656,-0.131131 -0.131167,-0.262261 -0.1967,-0.393392 -0.218547,0.109276 -0.458953,0.284117 -0.72122,0.524523 -0.26226,0.218551 -0.4371,0.404319 -0.52452,0.557305 0.08742,-0.02185 0.240407,-0.09835 0.45896,-0.229479 0.240407,-0.152985 0.426173,-0.251333 0.5573,-0.295044 -0.26226,0.196696 -0.557303,0.40432 -0.88513,0.622871 -0.305967,0.218551 -0.590083,0.327826 -0.85235,0.327826 -0.04373,0 -0.153007,-0.02186 -0.32782,-0.06557 0.284113,0.174841 0.590083,0.513595 0.91791,1.016262 0.34968,0.502667 0.56823,0.797711 0.65565,0.885131 0.655653,-0.218551 1.311307,-0.448029 1.96696,-0.688435 l -0.81956,-1.934176 0.754,1.376871 -0.0328,-0.524523 c -0.218547,-0.502667 -0.393387,-0.906986 -0.52452,-1.212957 -0.131127,-0.305971 -0.305967,-0.590088 -0.52452,-0.852349 -0.02187,-0.196696 0.0437,-0.295044 0.1967,-0.295044 0.15298,0.02185 0.273183,0.03278 0.36061,0.03278 0.109273,0 0.196693,-0.04371 0.26226,-0.131131 -0.131133,0.02185 -0.338757,0.03278 -0.62287,0.03278 -0.37154,0 -0.77586,-0.152986 -1.21296,-0.458957 -0.4371,-0.327827 -0.79771,-0.633798 -1.08183,-0.917914 -0.26226,-0.284117 -0.360607,-0.677509 -0.29504,-1.180176 v 0.721219 c 0,0.174841 0.02187,0.349681 0.0656,0.524522 0,0.08742 0.04371,0.207623 0.13113,0.360609 0.08742,0.152986 0.109287,0.262261 0.0656,0.327826 -0.218553,-0.196695 -0.349683,-0.458956 -0.39339,-0.786783 -0.04373,-0.349681 -0.08744,-0.688435 -0.13113,-1.016262 l -0.36061,0.196696 c -0.04373,0.196696 -0.0656,0.524522 -0.0656,0.983479 0,0.458957 0.01093,0.808639 0.0328,1.049045 -0.17484,-0.393392 -0.26226,-0.775856 -0.26226,-1.147393 0,-0.152985 0.02187,-0.360609 0.0656,-0.62287 0,-0.109275 -0.04371,-0.185768 -0.13113,-0.229478 -0.0656,-0.06557 -0.142093,-0.06557 -0.22948,0 -0.0656,0.305971 -0.131167,0.458957 -0.1967,0.458957 v -0.131131 c 0.10928,-0.240406 0.05464,-0.458957 -0.16391,-0.655653 -0.218553,-0.196696 -0.437103,-0.382464 -0.65565,-0.557305 -0.305973,0.109275 -0.579163,0.218551 -0.81957,0.327827 -0.218553,0.08742 -0.513597,0.229478 -0.88513,0.426174 0.131133,-0.218551 0.37154,-0.426175 0.72122,-0.62287 0.371533,-0.218551 0.60101,-0.371537 0.68843,-0.458957 -0.109273,-0.305971 -0.39339,-0.502667 -0.85235,-0.590088 -0.458953,-0.109275 -0.73214,-0.218551 -0.81956,-0.327826 0.109273,0 0.25133,0.02186 0.42617,0.06557 0.17484,0.04371 0.3169,0.06557 0.42618,0.06557 z m 3.54053,-3.671656 -0.52452,-0.13113 c -0.10928,0 -0.196703,0.03278 -0.26227,0.09835 -0.06553,0.152985 -0.109243,0.295043 -0.13113,0.426174 0,0.131131 0.04371,0.229479 0.13113,0.295044 0.218553,0.04371 0.404323,0.06557 0.55731,0.06557 0.152987,0 0.27319,-0.05464 0.36061,-0.163913 l -0.13113,-0.131131 z m 0.78678,-0.13113 c -0.26226,-0.06557 -0.39339,0.04371 -0.39339,0.327826 0,0.240406 -0.02187,0.382464 -0.0656,0.426175 -0.06553,0.174841 -0.20759,0.273188 -0.42617,0.295043 -0.218553,0.02185 -0.382467,0.03278 -0.49174,0.03278 -0.327827,0.06557 -0.49174,-0.120202 -0.49174,-0.557305 -0.06553,0.174841 -0.06553,0.349681 0,0.524522 0.0656,0.152986 0.15302,0.284117 0.26226,0.393392 0.45896,0.174841 0.808643,0.295044 1.04905,0.360609 0.240407,0.06557 0.53545,0.09835 0.88513,0.09835 0.458953,0 0.841417,-0.120203 1.14739,-0.360609 0.02187,0.08742 -0.02184,0.207624 -0.13113,0.360609 -0.08742,0.152986 -0.13113,0.240406 -0.13113,0.262261 0.109273,0.218551 0.316897,0.393392 0.62287,0.524523 0.305973,0.109275 0.480813,0.17484 0.52452,0.196695 -0.02187,0.06557 -0.08743,0.120205 -0.19669,0.163914 -0.10928,0.02185 -0.185773,0.04371 -0.22948,0.06557 0,0.131131 0.04371,0.229479 0.13113,0.295044 0.109273,0.04371 0.26226,0.07649 0.45896,0.09835 0.196693,0.02185 0.327823,0.06556 0.39339,0.13113 -0.08742,0.02185 -0.21855,0.03278 -0.39339,0.03278 -0.174847,0 -0.29505,-0.01093 -0.36061,-0.03278 -0.04373,0 -0.120227,-0.05464 -0.22948,-0.163913 -0.08742,-0.109275 -0.17484,-0.142059 -0.26226,-0.09835 -0.10928,0.174841 -0.240413,0.458957 -0.3934,0.852349 -0.131127,0.393391 -0.251327,0.71029 -0.3606,0.950697 l -0.29505,-0.03278 c -0.131127,0.08742 -0.19669,0.284116 -0.19669,0.590087 v 0.524523 c 0.08742,0.480812 0.371533,0.896059 0.85234,1.24574 0.502673,0.349682 1.049053,0.524523 1.63914,0.524523 0.26226,0 0.61194,-0.09835 1.04904,-0.295044 0.45896,-0.218551 0.68844,-0.732146 0.68844,-1.540784 -0.17484,-1.158321 -0.26226,-2.393134 -0.26226,-3.704439 l -2.22922,-2.294785 c -0.08742,-0.02185 -0.163913,-0.03278 -0.22948,-0.03278 -0.0656,-0.02185 -0.07653,-0.07649 -0.0328,-0.163913 h -0.13114 c -0.218547,-0.04371 -0.349677,0.01092 -0.39339,0.163913 -0.04373,0.152985 -0.0656,0.371536 -0.0656,0.655653 -0.04373,-0.06557 -0.0656,-0.174842 -0.0656,-0.327827 0,-0.196695 0.05464,-0.371536 0.16392,-0.524522 -0.480813,0.02185 -0.841423,0.03278 -1.08183,0.03278 z m -8.78575,0.393391 c -0.17484,0 -0.327823,0.07649 -0.45895,0.229479 -0.10928,0.393392 0.0437,0.808639 0.45895,1.24574 0.568233,0.458957 0.93977,0.775856 1.11461,0.950697 0.1967,-0.349681 0.404323,-0.699363 0.62287,-1.049044 -0.34968,-0.371537 -0.65565,-0.677508 -0.91791,-0.917915 -0.240407,-0.240406 -0.513597,-0.393392 -0.81957,-0.458957 z m 5.63862,0.852349 c -0.10928,-0.08742 -0.24041,-0.13113 -0.39339,-0.13113 -0.131133,0 -0.305977,0.07649 -0.52453,0.229478 -0.196693,0.131131 -0.349677,0.229479 -0.45895,0.295044 -0.0656,0.196696 -0.0984,0.393392 -0.0984,0.590088 0,0.284116 0.09835,0.546377 0.29504,0.786783 1.005333,0.874204 2.01067,1.748408 3.01601,2.622612 l -0.1967,-0.655653 c 0.0656,-0.174841 0.163947,-0.316899 0.29504,-0.426175 0.131133,-0.109275 0.295047,-0.229478 0.49174,-0.360609 -0.240407,-0.349681 -0.44803,-0.633798 -0.62287,-0.852349 -0.152987,-0.240406 -0.327827,-0.437102 -0.52452,-0.590087 -0.196693,-0.152986 -0.4371,-0.415247 -0.72122,-0.786784 -0.26226,-0.393391 -0.448027,-0.633797 -0.5573,-0.721218 z m -3.73722,0.655653 -0.52453,0.688436 c -0.08742,0.240406 -0.03278,0.458957 0.16392,0.655653 0.196693,0.174841 0.360607,0.316899 0.49174,0.426174 0.152987,0 0.30597,-0.142058 0.45895,-0.426174 0.174847,-0.305972 0.34969,-0.480813 0.52453,-0.524523 -0.131133,-0.174841 -0.24041,-0.295044 -0.32783,-0.360609 -0.06553,-0.06557 -0.327793,-0.218552 -0.78678,-0.458957 z m 7.99896,0.49174 c -0.240407,0 -0.371537,0.05464 -0.39339,0.163913 l 0.22948,0.458957 c 0.240407,0.109275 0.437103,0.06556 0.59009,-0.131131 -0.262267,-0.262261 -0.404327,-0.426174 -0.42618,-0.491739 z m -6.4254,0.557305 c -0.17484,-0.131131 -0.34968,-0.07649 -0.52452,0.163913 -0.17484,0.218551 -0.295043,0.338754 -0.36061,0.360609 -0.0656,0.131131 -0.0984,0.240406 -0.0984,0.327826 0,0.174841 0.174843,0.371537 0.52453,0.590088 0.34968,0.218551 0.557303,0.382465 0.62287,0.49174 0.08742,-0.327827 0.163913,-0.57916 0.22948,-0.754001 0.08742,-0.196696 0.21855,-0.360609 0.39339,-0.49174 z m 5.04853,-4.294527 c -0.218553,0.109276 -0.382467,0.196696 -0.49174,0.262261 -0.109273,0.04371 -0.240403,0.142061 -0.39339,0.295044 -0.17484,0.240406 -0.152973,0.415247 0.0656,0.524523 0.1967,-0.02185 0.42618,-0.02185 0.68844,0 0.284113,0.02185 0.546373,0.04371 0.78678,0.06557 0.327827,0 0.611943,-0.07649 0.85235,-0.229479 -0.109273,-0.218551 -0.316897,-0.393391 -0.62287,-0.524522 -0.305967,-0.131131 -0.60101,-0.262261 -0.88513,-0.393392 z m -2.75374,1.901394 c -0.02187,0.174841 0,0.327826 0.0656,0.458957 0.0656,0.131131 0.185803,0.305971 0.36061,0.524522 0.37154,0.349681 0.830497,0.885131 1.37687,1.60635 0.54638,0.721218 0.9507,1.234813 1.21296,1.540784 v -0.09835 c -0.0656,-0.131131 -0.0984,-0.240406 -0.0984,-0.327827 0,-0.08742 0.02187,-0.17484 0.0656,-0.262261 0.0656,-0.08742 0.174877,-0.196695 0.32783,-0.327826 0.17484,-0.04371 0.316897,-0.03279 0.42617,0.03278 0.131133,0.06557 0.262263,0.142059 0.39339,0.229478 -0.131127,-0.284116 -0.25133,-0.491739 -0.36061,-0.62287 -0.08742,-0.152986 -0.240403,-0.360609 -0.45895,-0.62287 l -0.45896,0.426174 c -0.152987,0.02185 -0.27319,0.05464 -0.36061,0.09835 -0.0656,0.02185 -0.131167,-3e-6 -0.1967,-0.06557 0.305973,-0.218551 0.491743,-0.327827 0.55731,-0.327827 0.131127,-0.06557 0.25133,-0.142059 0.36061,-0.229478 0.109273,-0.109276 0.08741,-0.229479 -0.0656,-0.360609 -0.502667,-0.06557 -0.917913,-0.152987 -1.24574,-0.262262 -0.327827,-0.109275 -0.633797,-0.305971 -0.91791,-0.590087 -0.08742,-0.152986 -0.13113,-0.338754 -0.13113,-0.557305 0,-0.152986 0.02187,-0.316899 0.0656,-0.49174 0.0656,-0.196696 0.10931,-0.327827 0.13113,-0.393392 -0.196693,0 -0.38246,0.05464 -0.5573,0.163914 -0.152987,0.109275 -0.3169,0.262261 -0.49174,0.458957 z m 3.31105,3.606091 c -0.152987,0 -0.22948,0.05464 -0.22948,0.163913 0.06553,0.196696 0.109243,0.349682 0.13113,0.458957 0.196693,-0.02185 0.33875,-0.02185 0.42617,0 0.17484,-0.109275 0.30597,-0.207623 0.39339,-0.295044 0.08742,-0.08742 0.09835,-0.185769 0.0328,-0.295044 -0.0656,-0.174841 -0.15302,-0.262261 -0.26226,-0.262261 -0.218553,0.109275 -0.382467,0.185768 -0.49174,0.229479 z m -1.21296,0.458957 -0.13113,0.09835 z m 0.32782,-0.03278 c -0.218547,0.196696 -0.437097,0.382464 -0.65565,0.557305 0.04373,0.131131 0.08744,0.273189 0.13113,0.426174 0.06553,0.152986 0.196663,0.174843 0.39339,0.06557 0.131133,-0.06557 0.262267,-0.131132 0.3934,-0.196696 0.131127,-0.109276 0.19669,-0.251334 0.19669,-0.426175 -0.06553,-0.109275 -0.131097,-0.196696 -0.19669,-0.262261 -0.0656,-0.08742 -0.153023,-0.142058 -0.26227,-0.163913 z m -0.0328,1.24574 0.29505,-0.13113 c -0.0656,0 -0.16395,0.04371 -0.29505,0.13113 z m 4.95018,2.22922 -0.0983,0.06557 c 0,0.218551 0.109277,0.546377 0.32783,0.983479 0.218553,0.415247 0.32783,0.699363 0.32783,0.852349 l -0.85235,-1.60635 c -0.218553,0.06557 -0.426177,0.14206 -0.62287,0.229479 -0.17484,0.08742 -0.30597,0.196695 -0.39339,0.327826 l 0.81956,1.442436 c 0.131133,0.218551 0.273193,0.437102 0.42618,0.655653 0.15298,0.218551 0.305963,0.371537 0.45895,0.458957 0.1967,-0.152985 0.33876,-0.360609 0.42618,-0.62287 0.109273,-0.262261 0.218545,-0.524522 0.327815,-0.786783 -0.152983,-0.196696 -0.360605,-0.546378 -0.622865,-1.049045 -0.26226,-0.524523 -0.4371,-0.841422 -0.52452,-0.950697 z m 0.65565,0.458957 c 0.02187,0.327827 0.14207,0.611943 0.36061,0.852349 -0.08742,-0.371537 -0.207623,-0.655653 -0.36061,-0.852349 z m -1.83582,1.016262 c 0.196693,0.502667 0.360607,0.928842 0.49174,1.278523 0.15298,0.327827 0.360603,0.622871 0.62287,0.885132 0.109273,-0.02185 0.174837,-0.04371 0.19669,-0.06557 -0.131127,-0.284116 -0.316893,-0.590087 -0.5573,-0.917914 -0.218553,-0.349681 -0.469887,-0.743073 -0.754,-1.180175 z m 0.62287,1.868611 c 0.06553,0.240406 0.152953,0.371537 0.26226,0.393392 -0.04373,-0.218551 -0.131153,-0.349682 -0.26226,-0.393392 z m -6.19592,-7.474443 c 0.06553,-0.109275 0.196663,-0.229478 0.39339,-0.360609 0.196693,-0.131131 0.316897,-0.218551 0.36061,-0.262261 -0.04373,0.08742 -0.09837,0.17484 -0.16392,0.262261 -0.04373,0.08742 -0.131153,0.174841 -0.26226,0.262261 -0.109273,0.08742 -0.218547,0.120204 -0.32782,0.09835 z m 4.06504,-3.737221 0.0656,0.13113 -0.13113,0.688436 z"
       sodipodi:nodetypes="cscccsssccsccccccccccccscsccccsscccssccsccccccccscscccccccccccscccccccsccscscccscsccccscscccccscccccccscccccccsccccscsccccssccccccccscsccccccsccscccccccscscscccccccccsccsccccccscccccccccccccccccccssccccsccccccssscscsccsccccccccccccscscccscscccsccsscccsccccccsscccccccccccscccccccccsccccsscccsscccsscccc" /></g></svg>
