<?xml version="1.0" encoding="UTF-8" standalone="no"?>
<!-- Created with Inkscape (http://www.inkscape.org/) -->

<svg
   version="1.1"
   id="svg1"
   xml:space="preserve"
   width="36.619419"
   height="86.916534"
   xmlns:inkscape="http://www.inkscape.org/namespaces/inkscape"
   xmlns:sodipodi="http://sodipodi.sourceforge.net/DTD/sodipodi-0.dtd"
   xmlns="http://www.w3.org/2000/svg"
   xmlns:svg="http://www.w3.org/2000/svg"><defs
     id="defs1" /><sodipodi:namedview
     id="namedview1"
     pagecolor="#ffffff"
     bordercolor="#000000"
     borderopacity="0.25"
     inkscape:showpageshadow="2"
     inkscape:pageopacity="0.0"
     inkscape:pagecheckerboard="0"
     inkscape:deskcolor="#d1d1d1" /><inkscape:clipboard
     min="431.2738,248.76909"
     max="467.89321,335.68562"
     geom-min="431.2738,248.76909"
     geom-max="467.89321,335.68562" /><g
     id="g5490"
     transform="matrix(4.1157778,0,0,4.1157778,-462.39102,-269.1004)"><path
       style="display:inline;opacity:1;fill:#ffb380;stroke-width:3.47075"
       d="m 438.14258,247.11914 c -0.91836,-0.0342 -1.8633,0.17155 -2.39258,0.58789 -0.84045,0.66109 -0.9574,1.73065 -0.43359,3.95703 0.16554,0.70322 0.33575,5.05016 0.37695,9.66016 0.0412,4.60999 0.17158,8.8464 0.29102,9.41406 l 0.21679,1.0332 -1.40234,0.46485 c -1.58854,0.52762 -2.97214,1.80727 -3.61133,3.33984 -0.2386,0.57204 -0.62946,2.61858 -0.86719,4.54688 -0.28142,2.28184 -0.57086,3.60608 -0.83203,3.79101 -0.22057,0.15627 -0.98418,0.62941 -1.69726,1.05274 -1.38777,0.8238 -2.89207,2.88775 -3.16797,4.3457 -0.0887,0.46881 0.53702,5.39512 1.39062,10.94727 1.45266,9.44843 1.61749,10.23466 2.58985,12.2832 0.57138,1.20377 1.34577,2.4298 1.7207,2.72461 0.61292,0.48219 0.71225,0.87517 0.98437,3.91211 0.49856,5.56155 0.2357,5.01141 2.96875,6.18554 1.31222,0.56372 2.87447,1.14964 3.47266,1.30079 1.8469,0.46657 6.23932,0.13275 8.47461,-0.64258 2.31436,-0.80278 6.54195,-2.87665 6.83789,-3.35547 0.11187,-0.1811 0.24623,-2.55396 0.29688,-5.27149 0.0881,-4.70966 0.12299,-4.98318 0.77734,-5.85742 1.88995,-2.52536 2.24702,-4.51111 2.14648,-11.98828 -0.14211,-10.57822 0.1782,-18.87533 1.03321,-26.71875 1.06639,-9.78305 1.17375,-18.40336 0.25,-20.17383 -1.18152,-2.26462 -3.81212,-3.13574 -5.35938,-1.77539 -0.88917,0.78176 -1.18721,2.22435 -1.5957,7.72657 -0.16328,2.19937 -0.45209,4.70036 -0.64258,5.55859 l -0.34766,1.56055 -1.98242,0.21679 c -1.25624,0.1373 -2.26478,0.42493 -2.75586,0.78516 l -0.77539,0.56836 -0.14258,-0.64258 c -0.0779,-0.3537 -0.47294,-3.20075 -0.8789,-6.32617 -1.14187,-8.79105 -2.06462,-12.26796 -3.41406,-12.88281 -0.43793,-0.19954 -0.97829,-0.30763 -1.5293,-0.32813 z"
       transform="scale(0.26458333)"
       id="path930" /><path
       id="path877"
       style="font-style:normal;font-variant:normal;font-weight:normal;font-stretch:normal;font-size:medium;line-height:125%;font-family:Gallaudet;-inkscape-font-specification:Gallaudet;text-align:start;letter-spacing:0px;word-spacing:0px;text-anchor:start;display:inline;opacity:1;fill:#000000;fill-opacity:1;stroke:none;stroke-width:0.242967px;stroke-linecap:butt;stroke-linejoin:miter;stroke-opacity:1"
       d="m 115.73577,65.421234 q 0.5573,0 0.78678,0.1967 0.42618,0.9507 0.65565,2.91765 0.22948,1.93418 0.32783,2.360354 0.16391,-0.360609 0.49174,-0.426174 0.32783,-0.06556 0.98348,-0.06556 0.22948,-0.59009 0.29504,-1.93418 0.0656,-1.37687 0.26226,-1.93418 0.1967,-0.29504 0.59009,-0.29504 l 0.36061,0.0656 q 0.52452,0.22948 0.68844,0.88515 0.0328,0.3606 0.0328,0.68843 0.0328,0.32783 0.0328,0.78677 0,1.21296 -0.26226,3.573318 -0.26226,2.36035 -0.26226,3.540525 0,0.360609 0.0328,0.786784 0.0328,0.393391 0.0328,0.62287 -0.13113,0.49174 -0.13113,1.180175 0,0.295044 0.0328,0.950697 0.0328,0.62287 0.0328,0.950697 0,0.852348 -0.16391,1.409653 -0.13113,0.524523 -0.68844,1.049045 0.13113,0.360609 0.13113,0.786783 0,0.327827 -0.0328,0.688436 -0.0328,0.360609 -0.0656,0.688435 0,0.295044 0.0328,0.458957 -0.754,0.49174 -1.63914,0.819567 -0.85234,0.327826 -1.60635,0.327826 -0.78678,0 -1.37687,-0.262261 -0.5573,-0.262261 -1.01626,-0.458957 l -0.19669,-2.22922 q -0.29505,-0.131131 -0.49174,-0.524522 -0.1967,-0.393392 -0.42618,-0.885132 -0.39339,-2.557046 -0.78678,-5.146875 -0.0983,-0.295044 0.0656,-0.62287 0.16392,-0.327827 0.32783,-0.62287 0.16391,-0.163914 0.52452,-0.360609 0.36061,-0.196696 0.49174,-0.327827 0.0984,-0.852349 0.1967,-1.73748 0.22948,-0.983479 1.04904,-1.245741 0.45896,-0.09835 0.42618,-0.229478 -0.0983,-0.393392 -0.13113,-0.819566 -0.0328,-0.426175 -0.0328,-0.91791 0,-0.49174 0,-0.98348 0,-0.52452 0.0328,-1.01626 0,-0.52452 -0.0328,-0.9507 -0.0328,-0.45895 -0.16391,-0.91791 -0.16391,-0.754 0.59009,-0.81957 z m -0.45896,0.52452 q 0,0.59009 0.13113,1.21296 0.13113,0.62287 0.26226,1.21296 0.754,0 1.24574,-0.16391 0,-0.81957 -0.0656,-1.24574 -0.0328,-0.45896 -0.26226,-0.98348 -0.0983,-0.39339 -0.65566,-0.39339 -0.49174,0 -0.65565,0.3606 z m 4.42566,0.78679 q -0.16392,0.5573 -0.22948,1.27852 -0.0328,0.68844 -0.0328,1.11461 h 0.5573 q 0.65565,0 0.85235,0.29505 -0.62287,-0.0984 -0.91791,-0.0984 -0.32783,0 -0.52453,0.16391 -0.26226,1.409654 -0.52452,2.819308 l 0.72122,1.376871 q 0.0656,0.06557 0.1967,0.754001 0.13113,0.688435 0.68843,0.524522 l 0.16391,-3.081568 q -0.78678,-0.36061 -1.54078,-0.721219 0.26226,-0.09835 0.42617,-0.09835 0.22948,0 0.65566,0.163914 0.45895,0.13113 0.59008,0.163913 0.16392,-1.573562 0.16392,-2.852092 0,-0.754 -0.0984,-1.37687 -0.0656,-0.62287 -0.68844,-0.62287 -0.26226,0 -0.45895,0.1967 z m -2.72096,1.7047 q -0.16392,0.0656 -0.68844,0.0983 -0.52452,0.0328 -0.68843,0.22948 0,0.39339 -0.0328,0.754 -0.0328,0.36061 -0.0656,0.68844 0,0.295042 0.0328,0.458956 0.1967,0.03278 0.65565,0 0.45896,-0.03278 0.68844,-0.03278 0.26226,0 0.36061,0.03278 z m 0.78678,2.458694 q -0.22948,0.524523 -0.32782,1.245741 -0.0983,0.688435 -0.16392,1.147392 0,0.229479 0.16392,0.393392 0.16391,0.131131 0.32782,0.262261 l -0.26226,0.06556 0.32783,1.868611 q 0.19669,0.262261 0.62287,0.62287 0.42617,0.327827 0.52452,0.524523 -0.22948,-0.03278 -0.62287,-0.295044 -0.39339,-0.295044 -0.49174,-0.327827 -0.1967,0.06557 -0.1967,0.327827 0,0.393392 0.0328,0.754001 -0.22948,0.524522 -0.72122,0.524522 -0.0656,0.131131 -0.13113,0.721218 -0.0656,0.590088 -0.36061,0.786784 0,1.24574 0.88513,2.032524 h -0.36061 q 0.0656,0.295043 0,0.327826 -0.32783,-0.49174 -0.5573,-1.081827 -0.1967,-0.62287 -0.1967,-1.147393 v -0.295044 q -0.62287,-0.09835 -1.01626,-0.524522 -0.39339,-0.458957 -0.88513,-1.278523 -0.72122,0 -1.08183,0.06557 -0.32783,0.06557 -0.62287,0.393392 0.19669,0.950697 0.36061,1.868611 0.19669,0.885131 0.36061,1.999741 0.42617,0.885132 0.65565,1.212958 0.22948,0.295044 0.754,0.295044 0.49174,0.09835 1.08183,-0.295044 0.62287,-0.393392 0.91791,-0.426174 l 0.13113,1.114609 q 0.0656,-0.196695 0.0984,-0.721218 0.0328,-0.557305 0.26226,-0.754001 0.1967,0.295044 0.45896,0.393392 0.26226,0.06557 0.68843,0.06557 h 0.59009 q 0.78679,-0.229479 1.11461,-0.950697 0.22948,-0.360609 0.29505,-0.688436 0.0983,-0.360609 0.0983,-0.852348 0,-0.327827 -0.0656,-0.98348 -0.0656,-0.655653 -0.0656,-1.016262 0,-0.590087 0.13113,-1.081827 h -0.29504 q 0.13113,-0.262261 0.26226,-0.524522 -0.42617,-0.721219 -0.68843,-1.212958 -0.22948,-0.524523 -0.22948,-1.081827 -0.26226,0.09835 -0.45896,0.163913 -0.16391,0.06557 -0.29504,-0.06557 l 0.5573,-0.327826 q -0.45896,0 -0.52452,-0.131131 l 0.49174,-0.327826 q -0.0656,-0.163913 -0.49174,-0.983479 -0.39339,-0.852349 -0.39339,-1.311306 0,-0.426174 0.22948,-0.786784 -0.49174,-0.09835 -0.91792,0.295044 z m -2.03252,0.229479 q -0.1967,0.295044 -0.1967,0.557305 0,0.327826 0.55731,1.11461 0.59008,0.754 0.65565,1.11461 0.26226,0 0.36061,-0.131131 -0.0983,-0.295044 -0.0983,-0.590088 0,-0.426174 0.13113,-0.917914 0.13113,-0.491739 0.1967,-0.754001 0.0328,-0.62287 -0.45896,-0.62287 -0.1967,0 -0.62287,0.131131 -0.42617,0.09835 -0.52452,0.09835 z m 2.95044,-0.131131 q -0.0984,0.393392 0.0656,0.524522 0.13113,-0.295043 0.0983,-0.62287 -0.0328,0.09835 -0.16391,0.09835 z m 1.11461,0.327827 q 0.22947,0.13113 0.42617,0.229478 0.22948,0.09835 0.42617,0.09835 -0.26226,-0.163913 -0.45895,-0.262261 -0.1967,-0.131131 -0.39339,-0.06557 z m -4.26175,0.983479 q -0.22948,-0.163913 -0.62287,0.06556 -0.36061,0.196696 -0.49174,0.360609 -0.0984,0.163914 0,0.426175 -0.19669,0.196696 -0.26226,0.524522 -0.0656,0.327826 -0.0656,0.688436 v 0.458957 q 0.26226,0.03278 0.26226,-0.163914 0,-0.196696 0,-0.458957 1.27852,1.278523 2.13087,3.212699 v -0.819566 q 0.26226,-0.458957 0.78678,-0.458957 l -0.62287,-1.73748 z m 1.54079,1.934176 q -0.13113,0.163913 0,0.524522 0.16391,0.327827 0.19669,0.49174 l 0.0984,-0.06557 q 0.0656,-0.721219 -0.29504,-0.950697 z m -2.62262,0.754001 q -0.45895,0.196696 -0.754,0.458957 -0.29504,0.262261 -0.29504,0.688435 -0.1967,0 -0.13113,-0.163913 0.0656,-0.196696 0,-0.262261 -0.49174,0.163913 -0.55731,0.786783 -0.0656,0.590088 -0.13113,1.147393 l 1.57357,-0.393392 q 0.0328,-0.13113 -0.16391,-0.163913 -0.16392,-0.03278 -0.22948,-0.06556 -0.0328,-0.03278 -0.45896,-0.09835 -0.39339,-0.06557 -0.45896,-0.262261 0.32783,0.03278 0.49174,0.03278 l 0.0328,-0.295044 q 0.5573,0.327827 0.88513,0.655653 0.36061,0.295044 0.5573,0.754001 0.36061,0.426175 0.59009,0.721218 0.26226,0.262262 0.49174,0.327827 -0.0984,-0.163913 -0.0984,-0.360609 0,-0.590088 0.52453,-0.754001 -0.29505,-0.721218 -0.68844,-1.409654 -0.39339,-0.721218 -0.81957,-1.278523 z m 5.76975,0.295044 q -0.0983,0.06556 0,0.262261 0.13113,0.163913 0.16391,0.196696 l 0.0656,-0.295044 q -0.16391,-0.163913 -0.22948,-0.163913 z m -3.04879,1.376871 q -0.0656,0.03278 -0.26226,0.03278 -0.19669,0 -0.26226,0.06557 -0.0328,0.196695 0.0328,0.458957 0.0656,0.229478 0.0656,0.262261 h 0.32783 q 0.13113,-0.06557 0.22947,-0.09835 0.0983,-0.06557 0.0656,-0.196696 0,-0.426174 -0.1967,-0.524522 z m -0.98348,1.442436 h 0.13114 z m -0.19669,0.295044 q 0.0328,0.196696 0.0328,0.360609 0.0328,0.13113 0.22948,0.163913 0.36061,-0.196696 0.36061,-0.327826 0,-0.262261 -0.36061,-0.262261 -0.13113,0 -0.26226,0.06557 z m 1.18017,4.392874 q -0.0983,0.49174 -0.0983,0.950697 0,0.49174 0.0983,1.147392 -0.0656,0.557305 -0.0656,0.852349 0,0.262261 0.0656,0.360609 l 0.1967,-0.09835 q -0.0656,-0.295043 -0.0984,-0.819566 0,-0.557305 0,-0.885131 v -0.393392 q 0,-0.557305 -0.0984,-1.11461 z m -0.5573,0.03278 -0.42618,0.491739 0.3934,-0.196695 q 0,-0.131131 0.0328,-0.295044 z m 0.88513,0.06556 q 0,0.426174 -0.0328,0.852349 0,0.393392 0,0.786783 0,0.885132 0.16391,1.409654 0.62287,0 1.18018,-0.393392 v -1.999741 q -0.0328,-0.229479 -0.26227,-0.229479 -0.39339,0.09835 -0.59008,0.09835 -0.26226,0 -0.39339,-0.229478 0,-0.131131 0.13113,-0.09835 0.13113,0 0.32782,0.03278 z m 1.96696,0.262261 q -0.0656,0.262261 -0.0656,0.852349 0,0.295044 0,0.590088 0,0.295043 0.0328,0.557305 0.0656,-0.721219 0.13113,-1.442437 0,-0.295044 -0.0984,-0.557305 z m -4.42566,0.917914 q -0.45896,-0.06557 -0.42617,-0.295044 h -0.22948 l 0.22948,1.770263 q 0.0328,0 0.88513,0.295044 0.85235,0.262261 1.24574,0.262261 -0.0328,-0.229478 -0.0328,-0.426174 0,-0.229479 0,-0.327827 V 84.271249 83.91064 q 0,-0.196696 -0.0656,-0.590088 -0.52452,0.327827 -0.88513,0.557305 -0.36061,0.196696 -0.72122,0.196696 z m 4.03227,0 v 1.344089 q 0,-0.131131 0.0328,-0.426175 0.0656,-0.295043 0.0656,-0.426174 0,-0.229479 -0.0984,-0.49174 z m -2.09809,1.409654 0.0328,-0.819566 z m -1.44244,-8.523488 0.13113,0.163914 q -0.59009,0.262261 -0.68843,0.229478 0.0328,-0.13113 0.26226,-0.229478 0.26226,-0.131131 0.29504,-0.163914 z m 0.26226,-1.573566 q 0.16392,-0.03278 0.42618,-0.09835 0.26226,-0.06557 0.49174,-0.295044 0,0.06557 -0.1967,0.262261 l 0.0656,0.131131 q -0.0983,0.13113 -0.26226,0.13113 -0.26227,-0.06557 -0.52453,-0.13113 z" /></g></svg>
