<?xml version="1.0" encoding="UTF-8" standalone="no"?>
<!-- Created with Inkscape (http://www.inkscape.org/) -->

<svg
   version="1.1"
   id="svg1"
   xml:space="preserve"
   width="66.206673"
   height="86.76635"
   xmlns:inkscape="http://www.inkscape.org/namespaces/inkscape"
   xmlns:sodipodi="http://sodipodi.sourceforge.net/DTD/sodipodi-0.dtd"
   xmlns="http://www.w3.org/2000/svg"
   xmlns:svg="http://www.w3.org/2000/svg"><defs
     id="defs1" /><sodipodi:namedview
     id="namedview1"
     pagecolor="#ffffff"
     bordercolor="#000000"
     borderopacity="0.25"
     inkscape:showpageshadow="2"
     inkscape:pageopacity="0.0"
     inkscape:pagecheckerboard="0"
     inkscape:deskcolor="#d1d1d1" /><inkscape:clipboard
     min="519.95872,248.33654"
     max="586.16539,335.10288"
     geom-min="519.95872,248.33654"
     geom-max="586.16539,335.10288" /><g
     id="g5497"
     transform="matrix(4.1157778,0,0,4.1157778,-551.07595,-268.66784)"><path
       style="display:inline;opacity:1;fill:#ffb380;stroke-width:3.47075"
       d="m 532.93555,246.7207 c -1.44953,-0.0197 -1.74356,0.0685 -2.24219,0.6836 -0.49398,0.60943 -0.54703,0.94649 -0.37695,2.41406 0.49957,4.30238 0.64223,8.43445 0.5039,14.51758 l -0.14843,6.58398 -1.24219,0.16992 c -1.43637,0.19688 -2.77939,0.81728 -3.79102,1.75391 -0.65541,0.6068 -0.81379,0.6337 -2.06055,0.3457 -1.31225,-0.30313 -1.43026,-0.2735 -4.0664,1.03516 -2.68301,1.33191 -3.81357,2.40087 -3.81641,3.60742 -7.9e-4,0.34525 -0.71465,0.61059 -2.97851,1.10742 -4.59474,1.00835 -5.16473,1.51072 -6.15625,5.42383 -0.53182,2.0983 -0.58434,2.87873 -0.43164,6.36914 0.0993,2.27187 0.60424,6.71986 1.17578,10.3711 1.52727,9.75617 1.53844,10.32957 0.30469,13.92187 -0.56361,1.64085 -1.09875,3.68738 -1.18946,4.54688 l -0.16406,1.5625 2.0918,1.45312 c 2.14231,1.48907 4.425,2.73721 6.20312,3.39258 1.51261,0.55748 4.24742,0.48876 6.29883,-0.16016 0.99315,-0.31419 3.2614,-1.37065 5.03906,-2.3457 l 3.23242,-1.77149 0.66797,-2.69921 c 0.36779,-1.48458 1.09591,-3.53112 1.61914,-4.54688 l 0.95118,-1.84765 3.38867,-1.70313 c 4.11243,-2.0696 6.42505,-3.626 8.25586,-5.55273 4.24932,-4.47191 5.25056,-5.31842 9.05859,-7.66016 2.84103,-1.74714 4.59278,-3.06772 6.33594,-4.77539 1.77112,-1.73512 2.9051,-2.58589 4.27929,-3.20899 3.42751,-1.5541 3.97263,-2.76404 2.14844,-4.7832 -0.81558,-0.90272 -1.32648,-1.18711 -2.61719,-1.45508 -0.88153,-0.18289 -2.27429,-0.25278 -3.0957,-0.15625 -2.3447,0.27558 -5.87685,1.5086 -7.08789,2.47461 -0.60752,0.48456 -1.74405,1.20701 -2.52539,1.60547 -1.40666,0.71729 -7.55479,3.48047 -7.74414,3.48047 -0.36389,0 -0.92099,-2.26964 -0.92383,-3.75586 -10e-4,-0.98169 -0.32563,-4.66164 -0.7207,-8.17773 -0.39511,-3.5161 -0.9005,-8.95076 -1.125,-12.07618 -0.71656,-9.98106 -1.59928,-15.41749 -2.89649,-17.83398 -0.95266,-1.77464 -1.86144,-2.27955 -4.15429,-2.31055 z"
       transform="scale(0.26458333)"
       id="path932" /><path
       id="path879"
       style="font-style:normal;font-variant:normal;font-weight:normal;font-stretch:normal;font-size:medium;line-height:125%;font-family:Gallaudet;-inkscape-font-specification:Gallaudet;text-align:start;letter-spacing:0px;word-spacing:0px;text-anchor:start;display:inline;opacity:1;fill:#000000;fill-opacity:1;stroke:none;stroke-width:0.242967px;stroke-linecap:butt;stroke-linejoin:miter;stroke-opacity:1"
       d="m 140.62843,65.345256 q 0.13113,-0.03278 0.45896,-0.03278 0.26226,0 0.55731,0.09835 0.29504,0.09835 0.52452,0.62287 0.26226,0.49174 0.42617,1.901394 0.16392,1.409653 0.22948,1.770263 0,1.147392 0.26226,3.507743 0.29505,2.327567 0.29505,3.311047 0.0984,0.262261 0.19669,0.524522 0.22948,-0.131131 1.34409,-0.590088 1.14739,-0.491739 1.67192,-0.983479 0.3606,-0.163913 0.91791,-0.327826 0.59009,-0.163914 1.01626,-0.163914 0.39339,0 0.88513,0.163914 0.29505,0.229478 0.45896,0.458957 0.16391,0.229478 0.0656,0.557305 -0.16391,0.196695 -0.754,0.458957 -0.59009,0.262261 -0.65565,0.295043 -0.52453,0.852349 -2.19644,1.835828 -1.67192,0.950697 -2.16366,1.835829 -0.59008,0.62287 -1.44243,1.147392 -0.85235,0.524522 -1.80305,0.885131 -0.36061,0.524523 -0.59009,1.147393 -0.19669,0.590088 -0.32782,1.344088 -0.72122,0.393392 -1.54079,0.819567 -0.81956,0.426174 -1.60635,0.426174 h -0.29504 q -0.65565,-0.196696 -1.27852,-0.524522 -0.59009,-0.360609 -1.27853,-0.885132 0,-0.557305 0.1967,-1.147392 0.22948,-0.622871 0.42617,-1.212958 0,-0.917914 -0.3606,-2.950438 -0.32783,-2.032524 -0.32783,-2.884873 0,-0.688435 0.0328,-0.983479 0.0328,-0.327827 0.22948,-0.98348 0.1967,-0.655652 0.9507,-0.819566 0.78678,-0.163913 1.3113,-0.295043 0.0656,-0.458957 0.32783,-0.688436 0.29504,-0.229479 1.47522,-0.754001 l 0.62287,0.196696 q 0.62287,-0.688435 1.60635,-0.688435 0,-0.721219 0,-1.475219 0,-0.754001 0.0328,-1.540785 v -0.393392 q 0,-1.409653 -0.22948,-2.557046 0.13113,-0.327826 0.32783,-0.426174 z m 0.0656,0.262261 q -0.16391,0.262261 -0.16391,0.655653 0,0.262261 0.13113,0.852349 0.13113,0.590087 0.13113,0.852348 l 0.88513,-0.09835 q 0.3934,0 0.3934,0.163914 h 0.26226 q -0.0656,-0.49174 -0.13113,-1.016262 -0.0328,-0.557305 -0.22948,-0.917914 -0.1967,-0.229479 -0.42618,-0.426175 -0.22948,-0.196696 -0.45895,-0.196696 -0.22948,0 -0.3934,0.131131 z m 1.63914,2.655394 q -0.3934,-0.09835 -0.78679,-0.09835 -0.39339,0 -0.78678,0.09835 -0.0656,0.393392 -0.0656,0.590088 0,0.327826 0.0328,0.655653 0.0328,0.327826 0.0656,0.655653 h 1.44244 q 0.0328,0.06556 0.0983,0.163913 0.0984,0.09835 0.19669,0 0.0328,-0.163913 0.0328,-0.557305 0,-0.295044 -0.0328,-0.62287 -0.0328,-0.327827 -0.0656,-0.655653 z m -1.54079,2.262003 q -0.0328,0.426174 -0.0328,0.655653 0,0.590087 0.39339,0.721218 0.0328,0.229478 0.26227,0.393391 0.22947,0.163914 0.72121,0.163914 0.3934,-0.03278 0.55731,-0.03278 0,-0.557305 -0.0984,-0.983479 -0.0656,-0.426175 -0.13113,-0.885132 -0.36061,-0.13113 -0.88513,-0.13113 -0.39339,0 -0.78679,0.09835 z m 0,1.409653 q -0.59009,0 -1.04904,0.163914 -0.42618,0.163913 -0.68844,0.62287 0.0984,0.688435 0.13113,1.606349 0.0656,0.885132 0.0656,1.934176 v 1.180176 l 0.13113,0.196696 0.0656,-0.327827 q 0.16392,-0.327826 0.36061,-0.393392 0.1967,-0.09835 0.42618,0 0.32782,0.06557 0.39339,0.557305 0.0656,0.49174 0.16391,0.557305 0.22948,-0.426174 0.22948,-1.11461 0,-0.196696 -0.0328,-0.62287 -0.0328,-0.458957 -0.0328,-0.688435 0,-0.721219 0.16391,-1.311306 0.16392,-0.590088 0.29505,-1.049045 -0.0983,-0.458957 -0.22948,-0.721218 -0.0983,-0.262261 -0.39339,-0.590088 z m -1.96696,0.655653 q -0.19669,-0.09835 -0.45895,-0.09835 -0.1967,0 -0.3934,0.09835 -0.19669,0.06557 -0.39339,0.163913 -0.19669,0.06557 -0.39339,0.426175 -0.16391,0.360609 -0.22948,0.786783 0.49174,2.130872 0.98348,4.228961 0.13113,-0.393391 0.29505,-0.819566 0.13113,-0.06556 0.29504,-0.13113 0.16391,-0.09835 0.32783,0 0.13113,-0.09835 0.13113,-0.327827 -0.0328,-0.327826 -0.0328,-0.655653 l -0.85235,0.262262 q -0.0983,-0.131131 -0.16392,-0.262262 0.26227,0 0.55731,-0.09835 0.32783,-0.09835 0.45896,-0.131131 z m 2.78653,0.06557 q -0.0656,0.09835 0.0328,0.163913 0.13113,0.06557 0.13113,0.09835 0.0328,0.360609 -0.16391,0.852348 -0.1967,0.458957 -0.22948,0.622871 0.22948,-0.131131 0.45895,-0.426175 0.26227,-0.327826 0.55731,-0.754 -0.0328,0.262261 -0.29504,0.754 -0.22948,0.49174 -0.22948,0.557305 0.26226,-0.06556 0.42617,-0.09835 0.1967,-0.06556 0.29504,-0.262261 -0.0656,0.327827 -0.49173,0.557305 -0.3934,0.196696 -0.75401,0.393392 l -0.0656,2.327568 1.04905,-0.196696 q -0.22948,-0.09835 -0.39339,-0.163913 -0.16392,-0.09835 -0.29505,-0.295044 0.68844,0.163913 1.40966,0.327826 -0.52452,-0.458957 -0.72122,-0.983479 0.36061,0.262261 0.72122,0.49174 -0.16392,-1.835829 -0.32783,-3.704439 -0.5573,-0.131131 -1.11461,-0.262261 z m -4.81905,1.016262 0.13113,-0.36061 z m -0.0984,0.229478 q -0.13113,-0.03278 -0.32783,-0.03278 -0.32782,0 -0.65565,0.196696 -0.29504,0.163913 -0.52452,0.49174 l -0.0984,-0.295044 q -0.49174,0.03278 -0.65565,0.49174 -0.13113,0.590087 -0.1967,0.819566 0.55731,0.426174 1.14739,0.327826 l -0.5573,-0.557305 q 0.0984,0.06557 0.22948,0.131131 0.13113,0.06556 0.26226,0.09835 -0.16391,-0.458957 -0.0328,-0.590088 0.3606,0.49174 0.5573,0.98348 0.1967,0.458957 0.52452,1.508001 0.39339,0.49174 0.52453,0.49174 l 0.0656,-0.163913 q -0.0983,-0.262261 0.0328,-0.426175 0.16391,-0.196696 0.42617,-0.327826 l -0.32783,-1.803046 z m 12.68688,1.508002 q -0.39339,-0.131131 -0.95069,-0.131131 -1.34409,0 -2.32757,0.786784 0.0656,0.13113 0.29504,0.360609 0.22948,0.196696 0.26226,0.426174 -0.0656,0 -0.5573,-0.49174 -0.45896,0.06557 -0.98348,0.262262 -0.49174,0.196695 -0.88513,0.426174 l -0.0656,0.262261 q -0.0328,-0.196696 -0.16392,-0.131131 -0.13113,0.03278 -0.3606,0.196696 0.16391,0.885132 0.29504,1.376871 0.13113,0.458957 0.39339,0.98348 1.27852,-0.917914 2.58983,-1.835828 -0.0328,-0.196696 -0.0328,-0.393392 l 0.16391,0.03278 0.0984,-0.163914 q 0.13113,0.131131 0.26226,0.262262 0.16392,-0.131131 0.78679,-0.754001 0.62287,-0.655653 1.14739,-0.852349 0.0328,-0.06556 0.1967,-0.09835 0.16391,-0.03278 0.13113,-0.131131 z m -15.14558,0.524522 q 0,1.344088 0.16391,2.884873 0.1967,1.540784 0.52453,3.147134 0.39339,0.262261 1.04904,0.262261 0.49174,0 1.01626,-0.196696 0.52453,-0.229479 1.01627,-0.458957 l -0.29505,0.688435 q 0.26226,0.06557 0.39339,-0.196695 0.16392,-0.295044 0.32783,-0.295044 0.5573,0.819566 1.34409,0.819566 -0.9507,-0.360609 -1.47522,-1.212958 0,-0.917914 0.0328,-1.475219 0.0656,-0.590088 0.29504,-1.147393 -0.26226,0.09835 -0.72121,-0.196695 -0.42618,-0.327827 -0.45896,-0.327827 -0.16391,0 -0.32783,0.131131 -0.59009,0 -0.88513,-0.590088 -0.26226,-0.754001 -0.39339,-1.049045 0,-0.491739 -0.49174,-0.491739 -0.36061,0.03278 -0.52452,0.03278 -0.13113,0 -0.22948,-0.06556 -0.0984,-0.06556 -0.1967,-0.163913 -0.0656,-0.131131 -0.16391,-0.09835 z m 5.63862,1.180175 0.36061,0.03278 q -0.0328,-0.03278 -0.16392,-0.03278 -0.13113,0 -0.19669,0 z m -0.16392,0.196696 q -0.26226,0.360609 -0.13113,0.819566 0.29505,0.09835 0.85235,-0.09835 0.22948,-0.426174 -0.19669,-0.557305 -0.3934,-0.13113 -0.52453,-0.163913 z m -0.95069,0.163913 -0.0984,-0.03278 z m 2.52426,0.06557 q 0,0.524522 -0.39339,0.786783 -0.36061,0.262261 -0.85235,0.262261 -0.45896,0 -0.754,-0.13113 -0.32783,0.524522 -0.49174,1.081827 -0.13113,0.557305 -0.13113,1.311306 -0.29505,0.196696 -0.0656,0.360609 0.39339,0.458957 0.78678,0.754001 0.42618,0.295043 0.9507,0.295043 1.40965,-0.360609 2.39313,-0.852348 0.98348,-0.524523 1.44244,-1.540785 -0.1967,-0.360609 -0.29505,-0.62287 -0.0656,-0.295044 -0.13113,-0.819566 l -0.0983,-0.131131 q 0.0656,0.458957 0.0656,0.688436 0,0.196696 -0.0656,0.295044 -0.29504,-0.06557 -0.39339,-0.327827 -0.0656,-0.655653 -0.13113,-0.852348 0.0983,-0.655653 -0.62287,-0.655653 -0.62287,0.06556 -1.21296,0.09835 z m -3.9667,0.06556 q -0.13113,-0.03278 -0.1967,0.06556 -0.0656,0.09835 0,0.196696 0.36061,0.06557 0.3934,-0.163913 -0.13113,-0.09835 -0.1967,-0.09835 z m 5.96644,0 q -0.0328,0.426174 0,0.688435 0.0328,0.229479 0.16391,0.327827 z m -4.9174,0.03278 q -0.19669,0.327826 -0.0983,0.557304 l 0.42618,0.03278 q 0.36061,-0.163913 0.32783,-0.262261 0.0984,-0.295044 -0.13114,-0.295044 -0.49173,0 -0.52452,-0.03278 z m -2.0653,4.982961 1.21296,-0.491739 q 0,0.262261 -0.3934,0.360609 -0.36061,0.06556 -0.81956,0.13113 z m 1.508,0.09835 -0.0983,-0.229478 -0.0984,0.03278 q -0.22948,0.590087 -0.59009,1.442436 -0.32782,0.852349 -0.32782,1.409654 0.0984,-0.131131 0.32782,-0.688436 0.22948,-0.590088 0.32783,-0.754001 -0.0328,0.393392 -0.22948,0.885132 -0.16391,0.458957 -0.39339,0.917914 -0.16391,0 -0.29505,-0.03278 0,-0.590088 0.3934,-1.671915 0.42617,-1.11461 0.49174,-1.344088 l -1.54079,0.327826 q -0.42617,-0.06556 -0.85235,-0.13113 -0.22948,0.655653 -0.39339,1.11461 -0.13113,0.458957 -0.13113,0.852348 0.72122,0.49174 1.34409,0.786784 0.62287,0.295044 1.3113,0.295044 0.26227,0 0.3934,-0.03278 -0.0328,-0.131131 -0.0328,-0.262261 0,-0.131131 0,-0.196696 0,-0.524522 0.39339,-1.770263 0.42617,-1.278523 0.45896,-1.508002 -0.16392,0.03278 -0.29505,0.295044 -0.13113,0.229479 -0.16391,0.262261 z m 0.72122,-0.295043 q -0.55731,1.344088 -0.754,1.901393 -0.16392,0.557305 -0.16392,1.409654 0.16392,0.09835 0.29505,0.09835 0.22948,0 0.49174,-0.163914 0.26226,-0.196695 0.49174,-0.360609 0,-0.491739 0.26226,-1.311305 0.26226,-0.819567 0.29504,-1.081828 z m 0.52452,2.753742 h 0.13113 q 0.0656,-0.49174 0.39339,-1.311306 0.36061,-0.819566 0.39339,-0.983479 -0.59008,1.016262 -0.91791,2.294785 z m 1.27852,-2.262003 q -0.0656,0.196696 -0.13113,0.360609 z m -0.39339,0.917914 q -0.19669,0.327827 -0.29504,0.590088 -0.0656,0.262261 -0.0656,0.524522 0.13113,-0.196696 0.19669,-0.590087 0.0984,-0.393392 0.16392,-0.524523 z m -0.32782,-7.638356 q 0.0656,-0.229478 0.42617,-0.229478 0.59009,0 0.65565,-0.03278 -0.29504,0.327826 -0.754,0.327826 -0.13113,0 -0.32782,-0.06556 z m 4.81904,1.770263 -0.16391,-0.327826 z m -7.54,-1.475219 0.22947,-0.06556 z m -0.45896,0 0.13113,-0.03278 z" /></g></svg>
