<?xml version="1.0" encoding="UTF-8" standalone="no"?>
<!-- Created with Inkscape (http://www.inkscape.org/) -->

<svg
   version="1.1"
   id="svg1"
   xml:space="preserve"
   width="49.274231"
   height="48.790562"
   xmlns:inkscape="http://www.inkscape.org/namespaces/inkscape"
   xmlns:sodipodi="http://sodipodi.sourceforge.net/DTD/sodipodi-0.dtd"
   xmlns="http://www.w3.org/2000/svg"
   xmlns:svg="http://www.w3.org/2000/svg"><defs
     id="defs1" /><sodipodi:namedview
     id="namedview1"
     pagecolor="#ffffff"
     bordercolor="#000000"
     borderopacity="0.25"
     inkscape:showpageshadow="2"
     inkscape:pageopacity="0.0"
     inkscape:pagecheckerboard="0"
     inkscape:deskcolor="#d1d1d1" /><inkscape:clipboard
     min="635.08761,286.54156"
     max="684.36185,335.33212"
     geom-min="635.08761,286.54156"
     geom-max="684.36185,335.33212" /><g
     id="g5504"
     transform="matrix(4.1157778,0,0,4.1157778,-666.20484,-306.87287)"><path
       style="display:inline;opacity:1;fill:#ffb380;stroke-width:3.47075"
       d="m 637.47461,281.80273 c -1.3972,0.0239 -2.8785,0.62299 -4.05469,1.78907 -0.68662,0.68074 -1.5145,1.212 -1.9668,1.26367 -1.08922,0.12433 -2.68526,0.9898 -3.52734,1.91211 -1.16674,1.27793 -3.14128,2.40234 -4.21875,2.40234 -1.6919,0 -2.69472,1.42121 -5.62695,7.9707 -3.42259,7.64484 -3.8408,9.01156 -3.91602,12.82227 -0.0333,1.68091 -0.19755,3.20315 -0.36914,3.41016 -0.17038,0.20565 -0.69479,1.33187 -1.16406,2.5039 l -0.85352,2.13282 0.73047,1.27734 c 0.83207,1.45661 3.10248,4.39128 4.09571,5.29492 0.59625,0.54249 3.92945,1.42981 7.20312,1.91797 0.46881,0.07 2.38847,0.0902 4.26758,0.043 2.79447,-0.0702 3.72293,-0.21009 5.09766,-0.75977 l 1.68164,-0.67187 0.88867,-2.55664 c 1.34944,-3.87999 2.83451,-6.29163 4.35547,-7.07813 0.74449,-0.38499 0.90902,-0.37429 1.85156,0.13086 1.73749,0.93124 2.53162,0.75149 4.44531,-1.00781 0.93491,-0.85949 1.88985,-1.5625 2.12305,-1.5625 0.23323,0 1.37749,-0.9517 2.54101,-2.11523 1.67131,-1.67131 2.38748,-2.67122 3.41211,-4.75977 1.62138,-3.30502 2.16221,-5.32015 2.35157,-8.75195 l 0.15039,-2.69922 -1.35938,-1.84766 c -1.42001,-1.93074 -8.03852,-8.53556 -9.15234,-9.13281 -0.52196,-0.27986 -0.93051,-0.25358 -2.15625,0.13281 -2.09469,0.66028 -2.53807,0.60553 -3.28321,-0.40234 -0.83671,-1.1317 -2.14967,-1.68207 -3.54687,-1.65821 z"
       transform="scale(0.26458333)"
       id="path924" /><path
       id="path881"
       style="font-style:normal;font-variant:normal;font-weight:normal;font-stretch:normal;font-size:medium;line-height:125%;font-family:Gallaudet;-inkscape-font-specification:Gallaudet;text-align:start;letter-spacing:0px;word-spacing:0px;text-anchor:start;display:inline;opacity:1;fill:#000000;fill-opacity:1;stroke:none;stroke-width:0.242967px;stroke-linecap:butt;stroke-linejoin:miter;stroke-opacity:1"
       d="m 167.34715,75.399673 q 0.45896,-0.786783 1.37687,-0.786783 0.72122,0 1.04905,0.655652 0.26226,0.06557 0.65565,-0.09835 0.42618,-0.163914 0.65566,-0.06557 0.72121,0.688436 1.47521,1.376871 0.75401,0.754001 1.27853,1.573567 0,1.475219 -0.52452,2.688177 -0.52453,1.212958 -1.63914,2.032524 -0.26226,0.03278 -0.65565,0.458957 -0.36061,0.426174 -0.65565,0.426174 -0.16392,0 -0.36061,-0.09835 -0.1967,-0.196696 -0.39339,-0.196696 -0.1967,0 -0.42618,0.196696 -0.19669,0.196695 -0.52452,0.688435 -0.29504,0.49174 -0.65565,1.704698 -0.39339,0.262261 -0.88513,0.360609 -0.49174,0.09835 -1.08183,0.09835 -0.68844,0 -1.27853,-0.09835 -0.59008,-0.09835 -1.47521,-0.327827 -0.36061,-0.393392 -0.754,-0.885131 -0.3934,-0.524523 -0.59009,-0.950697 0.22948,-0.62287 0.32782,-0.852349 0.0984,-0.262261 0.32783,-0.557305 -0.0656,-0.458957 -0.0656,-0.688435 0,-0.917914 0.42617,-1.999741 0.59009,-1.278524 0.88514,-1.966959 0.29504,-0.688436 0.49174,-1.016262 0.22947,-0.360609 0.52452,-0.49174 0.5573,0.09835 1.24574,-0.590087 0.68843,-0.688436 1.24574,-0.590088 z m -0.32782,0.229479 q -0.32783,0.06556 -0.754,0.491739 -0.3934,0.393392 -0.55731,0.49174 -0.42617,0.09835 -0.72122,0.163913 -0.26226,0.06556 -0.45895,0.360609 -0.45896,1.049045 -0.9507,2.196437 -0.45896,1.147393 -0.68844,2.065307 -0.13113,0.262261 -0.13113,0.62287 0,0.229479 0.0984,0.721218 0.0983,0.49174 0.0983,0.754001 0,0.295044 -0.0983,0.557305 -0.0984,0.229479 -0.39339,0.458957 0.42618,0.721218 1.14739,1.11461 0.72122,0.393392 1.57357,0.295044 l 0.55731,-1.442436 -1.34409,0.13113 q -0.32783,0.03278 -0.52452,-0.327826 -0.16392,-0.393392 -0.32783,-0.458957 0.29504,0.09835 0.62287,0.196696 0.36061,0.09835 0.754,0.09835 0.85235,-0.163913 1.31131,-0.393391 0.49174,-0.229479 0.68843,-0.786784 -0.0656,-0.09835 -0.42617,-0.754001 -0.36061,-0.688435 -0.59009,-0.983479 l -0.62287,0.557305 q -0.0328,-0.131131 0.0984,-0.327826 0.16391,-0.196696 0.16391,-0.295044 -0.19669,0.196696 -0.42617,0.393392 -0.1967,0.196695 -0.39339,0.229478 0.36061,-0.393392 0.62287,-0.688435 0.26226,-0.295044 0.19669,-0.655653 0,-0.327827 -0.52452,-0.458957 -0.49174,-0.163914 -0.65565,-0.458957 -0.13113,-0.295044 -0.0983,-0.327827 0.16391,0.163913 0.36061,0.327827 0.22947,0.13113 0.42617,0.09835 -0.13113,-0.163914 -0.26226,-0.295044 -0.13113,-0.163913 -0.16391,-0.426175 l 0.22947,-0.09835 q 1.24575,2.032524 2.49149,4.065048 v -0.360609 q 0.19669,-0.327826 0.59008,-0.327826 l 0.26226,0.06556 q -0.0984,-0.262261 -0.22947,-0.852349 -0.0984,-0.590087 -0.26227,-0.950696 l -0.78678,0.327826 q -0.0656,-0.163913 -0.29504,-0.06556 -0.1967,0.06556 -0.29505,-0.06556 0.0984,-0.295044 0.45896,-0.393392 0.36061,-0.131131 0.55731,-0.196696 -0.22948,-0.229479 -0.22948,-0.754001 0,-0.196696 -0.0328,-0.458957 -0.0328,-0.262261 -0.39339,-0.426174 0,-0.06557 -0.13113,-0.262261 -0.13114,-0.229479 0,-0.393392 0.0984,0.163913 0.32782,0.458957 0.22948,0.295044 0.29505,0.393392 0.16391,-0.131131 0.16391,-0.229479 -0.22948,-0.295044 -0.42618,-0.590088 0.16392,-0.06556 0.3934,0.196696 0.22947,0.229479 0.42617,0.196696 0.52452,0.163913 0.65565,0.557305 0.16392,0.360609 0.16392,0.950697 v 0.721218 q 0,0.458957 0.0656,0.655653 -0.0984,0.13113 -0.16392,0.09835 -0.0656,0.426174 -0.0656,0.655653 0,0.229478 0.16392,0.327826 l 0.26226,-0.262261 q 0.19669,-0.09835 0.36061,-0.09835 0.0984,0 0.19669,0.03278 0.13113,0.03278 0.26226,0.06556 0.29505,-0.393392 0.39339,-0.852349 0.13114,-0.491739 0.13114,-1.081827 0,-0.295044 -0.0328,-0.917914 -0.0328,-0.655653 -0.0328,-0.950697 l -0.85235,0.163913 q 0,-0.09835 0,-0.196695 -0.32783,0 -0.62287,0 -0.0984,-0.360609 0.39339,-0.590088 0.52452,-0.229479 0.5573,-0.295044 -0.98348,-0.688435 -1.54078,-1.016262 -0.52452,-0.360609 -1.01626,-0.491739 z m 4.19618,-0.131131 q -0.16392,-0.163913 -0.45896,-0.163913 -0.0984,0 -0.32783,0.06556 -0.22948,0.06557 -0.36061,0.09835 l 1.86861,2.163655 q 0.0983,0.426174 0.36061,0.426174 0.16392,0 0.55731,-0.163913 0.42617,-0.163914 0.59009,-0.131131 z m -2.75375,-0.655653 q -0.42617,0.163913 -0.62287,0.327827 -0.16391,0.163913 -0.19669,0.393391 0.65565,0.426175 1.37687,0.885132 0.72122,0.426174 1.18017,0.950696 0.13113,0.360609 0.1967,0.852349 0.0656,0.49174 0.0656,0.885132 0,0.524522 -0.0984,1.180175 -0.0984,0.62287 -0.13113,0.950696 -0.0328,0.295044 -0.36061,0.754001 -0.32783,0.458957 -0.32783,0.655653 0,0.131131 0.0984,0.295044 l 0.0656,-0.09835 q 0.22948,-0.295044 0.36061,-0.458957 0.16392,-0.196696 0.45896,-0.131131 0.29504,0.131131 0.42617,0.262262 0.16392,0.09835 0.13113,0.229478 0.42618,-0.590088 0.55731,-1.180175 0.16391,-0.62287 0.42617,-3.016003 -0.0984,-0.163914 -0.29504,-0.163914 -0.36061,0.03278 -0.52452,0.03278 -0.13113,0 -0.16392,-0.03278 l 0.52453,-0.163913 q -0.45896,0.06556 -0.65566,0.06556 -0.16391,0 -0.26226,-0.13113 l 1.01626,-0.327827 -0.49174,-0.557305 q -0.0656,-0.09835 -0.98347,-1.212957 -0.88514,-1.11461 -1.77027,-1.245741 z m 1.37687,2.491481 q -0.52452,0.196696 -1.04904,0.360609 l 1.18018,-0.196696 z m -0.49173,0.426174 q 0.19669,0.03278 0.42617,-0.06556 -0.26226,0.03278 -0.42617,0.06556 z m 4.19617,0.295044 -0.19669,-0.06556 -0.26226,0.06556 z m -1.21295,0.163913 -0.26227,2.72096 q 0.13114,0.131131 0.29505,0.131131 0.26226,0 0.5573,-0.03278 0.22948,-0.655653 0.49174,-1.311306 0.22948,-0.721218 0.22948,-1.376871 -0.42617,0.09835 -0.65565,0.09835 -0.16391,0 -0.32783,-0.09835 0.0328,-0.09835 0.13113,-0.09835 0.13113,0 0.26226,0 z m -4.98297,0.885132 q 0,0.458957 0.26227,0.819566 0.26226,0.360609 0.72121,0.557305 l 0.0656,-0.196696 q 0.0656,-0.262261 -0.26226,-0.393392 -0.29504,-0.13113 -0.36061,-0.262261 -0.0328,-0.196696 -0.0328,-0.590087 0,-0.393392 0.0328,-0.557305 -0.26226,-0.09835 -0.36061,0.09835 -0.0656,0.196695 -0.0656,0.524522 z m 0.59009,-0.09835 q 0.0328,0.262261 0.0328,0.49174 0.0328,0.196695 0.29504,0.09835 v -0.229479 q 0.0328,-0.131131 -0.0328,-0.360609 -0.0656,-0.262261 -0.16391,-0.262261 -0.13113,0.13113 -0.13113,0.262261 z m 0.26226,2.065307 v -0.262262 z m 3.86835,0.163913 -0.26226,0.786783 0.32783,0.03278 q 0.26226,-0.229479 0.39339,-0.360609 0.16391,-0.163913 0.1967,-0.360609 z m -2.98322,0.721218 q -0.36061,0.196696 -0.32782,0.360609 0.42617,0.196696 0.62287,0.06556 0.13113,-0.163913 -0.0656,-0.262261 -0.16392,-0.13113 -0.22948,-0.163913 z m -1.18017,0.360609 q -0.1967,0.131131 -0.1967,0.163913 0.0656,0 0.29505,-0.06556 z m 2.52426,0.196696 q 0.0656,0.295044 0.29505,0.13113 -0.16392,-0.09835 -0.29505,-0.13113 z m -2.85209,0.426174 h 0.16392 q 0.42617,-0.13113 0.45895,-0.295044 -0.29504,0 -0.45895,0 -0.26227,0 -0.16392,0.295044 z m 2.49148,-0.262261 q -0.13113,0.163913 -0.22948,0.295044 0.3934,0.196696 0.62288,0.196696 0.13113,0 0.26226,-0.06557 0.0328,-0.196695 -0.26226,-0.295043 -0.29505,-0.09835 -0.3934,-0.131131 z m -1.67191,0.295044 q -0.16391,0.295044 -0.55731,0.295044 -0.36061,-0.03278 -0.52452,-0.03278 -0.39339,0 -0.42617,0.426174 0.49174,0.163914 1.08182,0.163914 0.29505,0 0.55731,-0.09835 0.19669,-0.131131 0.42617,-0.327827 0.26226,-0.196696 0.29505,-0.426174 -0.0656,-0.229479 -0.45896,-0.229479 -0.29504,0 -0.39339,0.229478 z m -5.63862,0.13113 -0.49174,1.11461 q 0.62287,-0.327826 0.62287,-1.11461 z m 3.93392,0.754001 q 0.0328,0.196696 0.0656,0.360609 0.16391,0.09835 0.42618,0.09835 0.22947,0 0.29504,-0.163913 z m 1.04905,0.360609 h 0.26226 q -0.0656,-0.03278 -0.16392,-0.06556 -0.0984,-0.03278 -0.0984,0.06556 z m -1.57357,0 q -0.26226,0.393392 -0.49174,0.852349 -0.1967,0.458957 -0.1967,0.721218 0.29505,-0.393391 0.49174,-0.786783 0.1967,-0.426175 0.1967,-0.786784 z m -0.13113,1.835829 q 0.62287,0.163913 0.85235,-0.393392 0.22948,-0.557305 0.45895,-1.081828 -0.29504,-0.196695 -0.49174,-0.196695 -0.32782,0 -0.59008,0.819566 -0.22948,0.819566 -0.22948,0.852349 z m 1.60635,-1.540785 q -0.32783,0.49174 -0.45896,0.754001 -0.0983,0.229479 -0.16391,0.590088 0.22948,-0.262262 0.42617,-0.622871 0.1967,-0.360609 0.36061,-0.721218 z m 0.36061,0.229479 -0.55731,1.016262 q 0.22948,-0.06557 0.32783,-0.360609 0.0984,-0.295044 0.22948,-0.655653 z m -2.16366,1.24574 0.0984,-0.491739 -0.26226,0.491739 z m 4.58957,-4.556787 q 0.52452,0.03278 1.04905,0.03278 -0.13113,0.229479 -0.45896,0.229479 -0.22948,0 -0.5573,-0.131131 z m -2.68817,0.229478 q -0.1967,0.229479 -0.36061,0.360609 -0.13113,0.131131 -0.36061,0.03278 l -0.0656,-0.09835 z m 1.18017,-0.458957 q 0.13113,-0.09835 0.52452,-0.09835 0.26226,0 0.39339,-0.03278 0,0.229478 -0.26226,0.229478 -0.26226,0 -0.32782,0.03278 -0.16392,-0.06557 -0.32783,-0.131131 z m -4.85183,-2.262002 0.13113,0.852348 q -0.1967,-0.163913 -0.1967,-0.524522 0,-0.13113 0.0656,-0.327826 z" /></g></svg>
