<?xml version="1.0" encoding="UTF-8" standalone="no"?>
<!-- Created with Inkscape (http://www.inkscape.org/) -->

<svg
   version="1.1"
   id="svg1"
   xml:space="preserve"
   width="54.192097"
   height="45.506191"
   xmlns:inkscape="http://www.inkscape.org/namespaces/inkscape"
   xmlns:sodipodi="http://sodipodi.sourceforge.net/DTD/sodipodi-0.dtd"
   xmlns="http://www.w3.org/2000/svg"
   xmlns:svg="http://www.w3.org/2000/svg"><defs
     id="defs1" /><sodipodi:namedview
     id="namedview1"
     pagecolor="#ffffff"
     bordercolor="#000000"
     borderopacity="0.25"
     inkscape:showpageshadow="2"
     inkscape:pageopacity="0.0"
     inkscape:pagecheckerboard="0"
     inkscape:deskcolor="#d1d1d1" /><inkscape:clipboard
     min="82.362915,516.36569"
     max="136.55501,561.87188"
     geom-min="82.362915,516.36569"
     geom-max="136.55501,561.87188" /><g
     id="g5511"
     transform="matrix(4.1157778,0,0,4.1157778,-113.48014,-536.697)"><path
       style="display:inline;opacity:1;fill:#ffb380;stroke-width:3.47075"
       d="m 135.58594,492.85156 c -0.95997,-0.0315 -1.88914,0.41738 -3.39453,1.32422 -1.51536,0.91264 -1.59033,0.92765 -2.69727,0.53711 -1.81147,-0.63916 -2.95017,-0.51414 -4.15625,0.45508 -0.74283,0.59694 -1.69675,0.9879 -3.15039,1.29101 -1.14693,0.23914 -2.31545,0.55699 -2.5957,0.70704 -0.53111,0.28425 -5.45231,6.28717 -6.97657,8.50976 -1.30018,1.89585 -2.6582,4.7155 -2.6582,5.52149 0,1.50262 -1.16811,3.7891 -3.14258,6.14843 -2.96099,3.53817 -2.93836,3.47109 -1.94726,5.72071 1.06105,2.40839 3.0009,5.86561 3.75,6.68554 1.06862,1.16973 5.32469,3.8311 6.96484,4.35547 1.75742,0.56202 4.9943,0.71237 6.12305,0.2832 0.40672,-0.15465 1.48963,-1.39617 2.56836,-2.94335 l 1.86523,-2.67579 3.48828,-1.20898 c 1.91828,-0.66523 4.41134,-1.63286 5.54102,-2.15039 1.82885,-0.83762 2.17096,-0.90878 3.125,-0.64649 0.58931,0.16196 1.62096,0.7977 2.29101,1.41407 0.94471,0.86895 1.35829,1.07854 1.84571,0.92773 1.65823,-0.51341 3.6137,-1.77285 5.08203,-3.27344 1.35206,-1.38175 2.02033,-2.48215 4.07812,-6.70898 2.32364,-4.77298 2.4542,-5.13678 2.31836,-6.50391 -0.16766,-1.68778 -1.65681,-4.79984 -4.34375,-9.08007 -2.66879,-4.25137 -5.01787,-6.13347 -7.14648,-5.72657 -0.55227,0.10557 -1.37545,-0.2518 -3.24805,-1.41015 -1.63238,-1.00967 -2.62401,-1.52128 -3.58398,-1.55274 z"
       transform="scale(0.26458333)"
       id="path908" /><path
       id="path883"
       style="font-style:normal;font-variant:normal;font-weight:normal;font-stretch:normal;font-size:medium;line-height:125%;font-family:Gallaudet;-inkscape-font-specification:Gallaudet;text-align:start;letter-spacing:0px;word-spacing:0px;text-anchor:start;display:inline;opacity:1;fill:#000000;fill-opacity:1;stroke:none;stroke-width:0.242967px;stroke-linecap:butt;stroke-linejoin:miter;stroke-opacity:1"
       d="m 36.193819,130.47424 1.27852,0.78678 q 0.13113,-0.0328 0.39339,-0.0328 0.72122,0 1.44244,1.11461 0.72122,1.11461 0.754,1.21296 0.0328,0.0656 0.39339,0.78678 0.36061,0.68843 0.26226,1.14739 -0.5573,1.18018 -1.11461,2.32757 -0.78678,1.31131 -1.96696,1.63913 -0.16391,0.0328 -0.39339,-0.19669 -0.19669,-0.22948 -0.26226,-0.32783 -0.36061,-0.0984 -0.68843,-0.1967 -0.3934,0.26226 -1.60635,0.68844 -1.18018,0.39339 -1.34409,0.45896 l -0.9507,1.40965 q -0.0983,0.0656 -0.36061,0.13113 -0.26226,0.0328 -0.52452,0.0328 -0.72122,0 -1.34409,-0.32783 -0.59009,-0.32782 -1.44244,-0.98348 -0.3606,-0.59008 -0.65565,-1.14739 -0.29504,-0.5573 -0.49174,-1.11461 0.0984,-0.26226 0.85235,-1.11461 0.754,-0.88513 0.68844,-1.63913 0.39339,-0.9507 1.14739,-1.90139 0.78678,-0.98348 1.34409,-1.63914 0.16391,-0.0983 0.78678,-0.19669 0.65565,-0.0984 0.91791,-0.45896 0.16392,-0.13113 0.3934,-0.13113 0.16391,0 0.36061,0.0656 0.19669,0.0656 0.49174,0.16391 0.13113,-0.0328 0.59008,-0.32782 0.45896,-0.29505 0.754,-0.29505 0.0983,0 0.29505,0.0656 z m -1.508,0.78678 q 0.19669,0.26226 0.52452,0.88513 0.32782,0.59009 0.39339,0.68844 0.22948,-0.0328 0.22948,-0.0984 l 0.0656,0.0984 q -0.0984,0.19669 0,0.39339 0.0983,0.16391 0.19669,0.32782 0.0328,0.1967 0.22948,0.1967 0.13113,0 0.1967,-0.13113 0.0328,-0.16391 -0.13113,-0.26226 -0.13113,-0.0984 -0.16391,-0.1967 l 0.0983,-0.0984 q 0.29504,0.0328 0.49173,0.39339 0.1967,-0.0656 0.3934,0.0328 0.19669,0.0983 0.39339,0.1967 0.22948,0.42617 0.22948,0.85235 0,0.62287 -0.55731,1.40965 -0.5573,0.78679 -1.04904,1.44244 -0.0984,0.19669 -0.0984,0.45896 0,0.19669 0.0984,0.3606 0.0656,-0.32782 0.19669,-0.32782 0.36061,-0.0656 0.754,-0.13113 0.32783,0 0.45896,0.32782 0.16391,-0.0328 0.36061,-0.16391 0.1967,-0.13113 0.36061,-0.42617 -0.1967,0.0328 -0.42618,-0.16392 -0.22947,-0.22948 -0.29504,-0.29504 0.1967,0 0.55731,0.0984 0.39339,0.0656 0.49174,0.0656 0.19669,-0.29504 0.32782,-0.81957 0.13113,-0.5573 0.16392,-0.78678 0.0656,-0.26226 0.19669,-0.62287 0.16391,-0.39339 0.16391,-0.55731 0,-0.0983 -0.0656,-0.29504 -0.42617,-0.16391 -0.85234,-0.16391 -0.26227,0 -0.3934,0.0328 -0.0656,-0.0984 0.0328,-0.16392 0.0984,-0.0983 0.1967,-0.19669 0.13113,-0.0984 0.36061,-0.0656 0.22948,0.0328 0.45896,0.0656 -0.49174,-0.72122 -1.34409,-1.44244 -0.85235,-0.754 -1.63913,-1.44243 -0.1967,-0.0656 -0.29505,-0.0656 -0.36061,0 -0.68843,0.19669 -0.32783,0.1967 -0.62287,0.39339 z m -1.21296,-0.13113 q -0.26226,0.36061 -0.9507,0.45896 -0.68843,0.0984 -0.91791,0.32782 -1.08183,1.40966 -1.77027,2.42592 -0.65565,0.98348 -0.78678,2.0653 0.0656,0.22948 -0.0656,0.45896 -0.13113,0.1967 -0.1967,0.32783 h 0.13114 q -0.0328,0.26226 -0.42618,0.62287 -0.36061,0.32782 -0.36061,0.68843 0.59009,0.91792 0.98348,1.40966 0.39339,0.49174 0.98348,0.72121 0.55731,-0.78678 1.11461,-1.57356 -0.32783,-0.0328 -0.62287,-0.0984 -0.29504,-0.0656 -0.5573,-0.26226 -0.22948,-0.22948 -0.3934,-0.32783 -0.13113,-0.13113 -0.0328,-0.29504 0.65566,0.45895 0.78679,0.5573 0.16391,0.0656 0.45895,0.0656 -0.72121,-0.39339 -1.01626,-0.59009 -0.26226,-0.19669 -0.32782,-0.62287 0.13113,0.0656 0.45895,0.32783 0.32783,0.26226 0.59009,0.42617 0.29504,0.13114 0.81957,0.13114 0.39339,0 0.85235,-0.0984 0.45895,-0.0983 0.68843,-0.13114 -0.19669,0.13114 -0.19669,0.26227 0,0.13113 0.19669,0.29504 0.1967,0.16391 0.1967,0.22948 0.32782,0.32782 0.72122,0.32782 0.32782,0 0.85234,-0.19669 0.52453,-0.1967 0.65566,-0.26226 0.16391,-0.0656 0.42617,-0.1967 0.16391,-0.13113 0.16391,-0.29504 0,-0.0656 -0.0984,-0.22948 -0.16391,0.0328 -0.29504,0.26226 -0.0984,0.22948 -0.26226,0.32783 -0.13113,0.0656 -0.36061,0.0656 -0.52452,0 -0.88513,-0.39339 -0.0983,-0.32783 -0.36061,-0.32783 l -0.36061,0.0656 q -0.5573,-0.16391 -0.754,-0.81957 -0.16391,-0.65565 -0.29504,-1.27852 l -0.81957,0.52452 0.59009,-0.754 q -0.0983,0 -0.42618,0.0656 -0.32782,0.0656 -0.45895,-0.0328 0.16391,-0.13113 0.52452,-0.19669 0.36061,-0.0656 0.45896,-0.13113 -0.0656,-0.36061 -0.65566,-0.68844 -0.5573,-0.36061 -0.72122,-0.59009 0.0656,0.26226 0.13114,0.52452 -0.13114,-0.0328 -0.22948,-0.19669 -0.0983,-0.16391 -0.13113,-0.16391 0,-0.59009 0.16391,-0.78679 -0.0656,0.29505 0.13113,0.36061 0.1967,0.0328 0.39339,0.0656 0.13113,0.29504 0.65565,0.72122 0.55731,0.39339 0.62287,0.45896 0.13114,1.08182 0.22948,1.60634 0.0984,0.49174 0.36061,0.81957 l 0.0656,-0.16391 q 0.13113,-0.22948 0.39339,-0.36061 0.26227,-0.16391 0.49174,-0.0328 0.13113,-0.78679 0.26227,-1.57357 -0.52453,0.0983 -0.78679,0.0983 -0.29504,0 -0.42617,-0.19669 0.13113,-0.0656 0.52452,-0.16392 0.39339,-0.0983 0.62287,-0.19669 -0.52452,-1.27853 -1.04904,-2.58983 0.0328,-0.0656 0.19669,0 0.13113,0.45895 0.59009,1.27852 0.45896,0.81957 0.49174,1.04904 0.0656,0.22948 0.0656,0.62288 0,0.65565 -0.16391,1.3113 -0.13114,0.65565 -0.26227,1.27852 0.16392,0.29505 0.29505,0.29505 0.0984,-0.45896 0.72122,-0.55731 0.62287,-0.13113 0.78678,-0.32782 0.29504,-1.1474 0.39339,-1.54079 0.0984,-0.42617 0.0984,-1.04904 -0.52452,-0.91792 -1.04904,-1.86861 -0.52453,-0.9507 -1.1474,-1.77027 z m 0.32782,-0.0328 0.0656,0.0328 z m 3.90114,0.42617 q 0.78678,0.72122 1.34409,1.24574 0.5573,0.49174 0.72122,0.88513 0.16391,0.3934 0.16391,0.52453 0.0328,0.13113 0.22948,0.0984 l -0.68844,-1.24574 q -0.45896,-0.59009 -0.91791,-1.21296 -0.36061,-0.36061 -0.85235,-0.29504 z m -0.78678,2.22922 q -0.16392,0.0656 -0.36061,0.13113 -0.1967,0.0656 -0.16392,0.26226 0.26226,0.36061 0.26226,0.88514 0,0.45895 -0.16391,1.01626 0.0656,0.16391 0.0656,0.22948 0.0328,0.0656 0.16391,0.0328 0.0656,-0.1967 0.45896,-0.754 0.42618,-0.55731 0.42618,-0.91792 0,-0.19669 -0.0984,-0.42617 -0.0656,-0.26226 -0.22948,-0.39339 -0.13113,-0.13113 -0.36061,-0.0656 z m 2.95043,0.81957 q -0.49174,1.47522 -0.98348,2.91765 0.0328,0.0984 0.42618,0.26227 0.0656,-0.16392 0.59009,-1.18018 0.5573,-1.01626 0.5573,-1.60635 0,-0.32783 -0.59009,-0.39339 z m -11.34279,2.62261 0.13113,-0.22948 -0.26226,0.32783 z m 4.85183,0.39339 q 0.22948,0.0328 0.36061,0.0328 0.26226,0 0.29504,-0.26226 -0.42617,0 -0.59008,0.0656 -0.13114,0.0328 -0.0656,0.16392 z m 5.37635,0.0984 q -0.19669,0.0328 -0.39339,0.26226 -0.19669,0.22948 -0.29504,0.32783 0.13113,0.0656 0.22948,0.55731 0.32782,-0.22948 0.52452,-0.3934 0.22948,-0.16391 0.29504,-0.42617 -0.32782,-0.0983 -0.36061,-0.32783 z m -4.06504,0.55731 q 0.0984,0.0984 0.39339,0.0984 0.29504,0 0.29504,-0.26226 -0.16391,-0.0984 -0.32783,-0.0984 -0.26226,0 -0.3606,0.26226 z m 1.80304,-0.16392 q -0.0328,0.13114 0.0656,0.22948 0.0983,0.0984 0.16391,0.16392 0.29505,0.19669 0.49174,-0.16392 -0.13113,-0.29504 -0.42617,-0.29504 -0.0984,0 -0.29504,0.0656 z m 0.91792,0 -0.0983,-0.13113 z m 0.0984,0.52453 q -0.13114,0.0328 -0.0328,0.29504 0.16391,0.0984 0.32782,0.0984 0.1967,0 0.22948,-0.16391 -0.1967,-0.1967 -0.29504,-0.22948 -0.0983,-0.0656 -0.22948,0 z m -5.63862,0.19669 q -0.29504,0.0656 -0.5573,0.42618 -0.26227,0.36061 -0.49174,0.81956 z m 0.39339,0.13113 q -0.52452,0.65566 -0.81956,1.08183 -0.29505,0.42618 -0.55731,1.01626 0.45896,0.0656 0.754,-0.16391 0.16392,-0.26226 0.62287,-0.72122 0.45896,-0.45896 0.59009,-0.754 z m -1.54078,1.93418 0.98348,-1.57357 q -0.29505,0.32783 -0.65566,0.754 -0.32782,0.42618 -0.52452,0.81957 z m 3.37661,-5.99922 -0.32783,0.13113 0.13113,-0.13113 z m 1.57357,0.13113 -0.1967,0.16391 0.65565,0.0328 q -0.22947,0.13113 -0.65565,0.13113 -0.39339,0 -0.59009,-0.1967 z" /></g></svg>
