<?xml version="1.0" encoding="UTF-8" standalone="no"?>
<!-- Created with Inkscape (http://www.inkscape.org/) -->

<svg
   version="1.1"
   id="svg1"
   xml:space="preserve"
   width="52.804588"
   height="73.833923"
   xmlns:inkscape="http://www.inkscape.org/namespaces/inkscape"
   xmlns:sodipodi="http://sodipodi.sourceforge.net/DTD/sodipodi-0.dtd"
   xmlns="http://www.w3.org/2000/svg"
   xmlns:svg="http://www.w3.org/2000/svg"><defs
     id="defs1" /><sodipodi:namedview
     id="namedview1"
     pagecolor="#ffffff"
     bordercolor="#000000"
     borderopacity="0.25"
     inkscape:showpageshadow="2"
     inkscape:pageopacity="0.0"
     inkscape:pagecheckerboard="0"
     inkscape:deskcolor="#d1d1d1" /><inkscape:clipboard
     min="186.08686,486.71005"
     max="238.89145,560.54397"
     geom-min="186.08686,486.71005"
     geom-max="238.89145,560.54397" /><g
     id="g5518"
     transform="matrix(4.1157778,0,0,4.1157778,-217.20409,-507.04136)"><path
       style="display:inline;opacity:1;fill:#ffb380;stroke-width:3.47075"
       d="m 225.59375,465.61719 c -1.45334,-0.005 -2.68007,0.93034 -7.80859,5.94922 -3.83627,3.75428 -5.03445,4.74019 -7.67188,6.3164 -3.60886,2.15675 -4.29902,2.96457 -4.52148,5.29102 -0.53563,5.60088 -1.22573,10.51719 -2.44141,17.38867 -1.79504,10.14626 -2.22261,13.10393 -2.68945,18.60938 -0.21202,2.50029 -0.52377,4.99314 -0.69336,5.53906 -0.16963,0.54591 -0.3086,1.4614 -0.3086,2.0332 0,1.00139 0.0981,1.10116 2.66602,2.74805 3.26072,2.09121 4.68161,2.83413 6.70898,3.5039 1.02509,0.33827 2.00309,0.46464 2.8418,0.36524 1.65655,-0.19612 4.34334,-1.51598 5.99414,-2.94336 l 1.30664,-1.12891 0.17774,-2.78515 c 0.17788,-2.78279 0.86974,-6.16836 1.39648,-6.83008 0.15339,-0.19268 0.97021,-0.56791 1.81445,-0.83399 1.35432,-0.42689 1.96319,-0.92039 5.17579,-4.19531 4.83375,-4.92756 17.09375,-17.72028 17.09375,-17.83594 0,-0.12642 3.09586,-11.89643 3.29296,-12.51953 0.10577,-0.3343 -0.17348,-0.83754 -0.82812,-1.49218 -0.81109,-0.81128 -1.19767,-0.98829 -2.16992,-0.98829 -2.11511,0 -2.67996,-0.65436 -3.85742,-4.4707 -1.11645,-3.61856 -2.56553,-5.34439 -7.0918,-8.45312 -3.01158,-2.06843 -6.06777,-3.26002 -8.38672,-3.26758 z m 3.05859,15.62304 c 1.2305,0 1.63531,0.25764 3.95899,2.51368 0.9066,0.88021 1.93037,1.56827 2.66015,1.78711 0.72618,0.21755 1.29657,0.59979 1.47266,0.98632 0.47924,1.05181 -0.9886,3.5221 -3.54297,5.96485 -1.46692,1.40284 -2.4224,2.10351 -2.87109,2.10351 -0.71817,0 -2.34986,-1.13817 -5.2461,-3.65625 -2.03175,-1.76651 -1.99859,-1.45189 -0.57812,-5.19336 1.16156,-3.05949 2.49243,-4.50586 4.14648,-4.50586 z"
       transform="scale(0.26458333)"
       id="path918" /><path
       id="path885"
       style="font-style:normal;font-variant:normal;font-weight:normal;font-stretch:normal;font-size:medium;line-height:125%;font-family:Gallaudet;-inkscape-font-specification:Gallaudet;text-align:start;letter-spacing:0px;word-spacing:0px;text-anchor:start;display:inline;opacity:1;fill:#000000;fill-opacity:1;stroke:none;stroke-width:0.242967px;stroke-linecap:butt;stroke-linejoin:miter;stroke-opacity:1"
       d="m 59.615023,123.20169 q 1.04905,0.13114 1.7047,0.52453 0.68844,0.39339 1.44244,1.01626 0.78678,0.62287 1.04904,1.73748 0.26226,1.08183 0.91792,1.08183 0.19669,0 0.32782,-0.0328 0.16392,0.0984 0.32783,0.22948 0.1967,0.13113 0.1967,0.3606 -0.45896,1.67192 -0.88514,3.34383 l -5.278,5.50749 q -0.13113,0.16391 -0.62287,0.29504 -0.49174,0.0984 -0.55731,0.42618 -0.32782,1.08182 -0.32782,2.36035 -0.55731,0.49174 -1.01626,0.754 -0.45896,0.26226 -1.08183,0.32782 -0.85235,-0.16391 -1.57357,-0.59008 -0.68843,-0.42618 -1.37687,-0.88513 -0.13113,-0.26227 0.0328,-0.81957 0.1967,-0.59009 0.16391,-0.81957 0,-1.67191 0.68844,-5.31079 0.68844,-3.67165 0.68844,-5.08131 0.0656,-0.42617 0.49173,-0.72121 0.45896,-0.29505 0.88514,-0.55731 0.62287,-0.22948 1.86861,-1.57357 1.24574,-1.37687 1.93417,-1.57356 z m 0.29505,0.26227 q -0.13113,0.19669 -0.0983,0.22947 l 1.83583,0.88514 q 0.72122,0.19669 1.11461,1.04904 0.42617,0.81957 0.78678,1.57357 0.13113,-0.22948 0.13113,-0.49174 0,-0.26226 -0.13113,-0.55731 -0.13113,-0.32782 -0.1967,-0.49174 0.0328,-0.13113 -0.19669,-0.16391 -0.1967,-0.0656 -0.0656,-0.26226 -1.01626,-0.65565 -1.73748,-1.11461 -0.72122,-0.45896 -1.44244,-0.65565 z m -0.72122,0.42617 -0.13113,0.42617 -0.0983,-0.16391 -0.22948,0.36061 q 0.0328,-0.29504 -0.0983,-0.42617 -1.90139,2.0653 -3.80279,4.09783 l -0.26226,2.19643 q 0.13113,-0.26226 0.32783,-0.95069 0.22948,-0.68844 0.39339,-1.04905 1.73748,-1.63913 3.50774,-3.27826 l 2.78653,0.36061 q 0.0656,0.0656 0.59009,0.65565 0.52452,0.59009 0.91791,0.62287 -0.13113,-0.39339 -0.26226,-0.68844 -0.0984,-0.29504 -0.39339,-0.29504 -0.0656,-0.0656 0,-0.22948 -0.62287,-0.49174 -1.508,-0.91791 -0.88514,-0.45896 -1.73748,-0.72122 z m 0.39339,1.54078 q -0.29504,-0.0656 -0.49174,0 -0.16391,0.0328 -0.13113,0.32783 l -0.0984,-0.0984 -0.22948,0.42618 q -0.0656,-0.0656 -0.0656,-0.22948 0,-0.16392 -0.0328,-0.1967 -1.54078,1.44244 -3.04878,2.88487 l -1.24574,3.44218 -0.91792,5.50749 q 0.0983,0.26226 0.0983,0.42617 0,0.22948 -0.19669,0.78678 -0.16392,0.52453 -0.16392,0.72122 1.24574,0.62287 2.52427,1.21296 0,-0.39339 0.16391,-1.24574 0.16391,-0.88513 0.16391,-1.11461 -0.0983,0.0328 -0.32782,0.0328 -0.36061,0 -0.52452,-0.16391 0,-0.13113 0.29504,-0.0984 0.32783,0.0328 0.42617,-0.0984 -0.59008,-0.0656 -0.72121,-0.36061 0.42617,0 0.62287,0 0.68843,0 1.24574,-0.22948 0.5573,-0.26226 0.78678,-0.85235 0.42617,-0.52452 0.59009,-1.21296 0.19669,-0.68843 0.19669,-1.508 0,-0.22948 0,-0.49174 -0.0656,-0.32783 -0.0656,-0.45896 -0.16391,-0.29504 -0.16391,-0.78678 0,-0.29504 0.0328,-0.65565 0.0328,-0.36061 0.0328,-0.39339 0,-0.32783 -0.13113,-0.59009 -0.26226,-0.0328 -0.49174,-0.0656 l 0.0328,-0.13113 -0.22948,-0.1967 q 0.49174,0 0.78679,-0.0984 0.32782,-0.0984 0.32782,-0.62287 0.13113,-0.22948 0.13113,-0.65565 0,-0.0984 0,-0.1967 -0.0656,-0.13113 -0.0656,-0.16391 -0.0984,0.26226 -0.16391,0.52452 -0.0656,-0.26226 -0.0983,-0.42617 0,-0.16392 -0.1967,-0.1967 0.0656,-0.22948 0.1967,-0.19669 0.754,-0.1967 0.85235,-0.98348 -0.13113,-0.13113 -0.26226,-0.26226 -0.0983,-0.16392 -0.0656,-0.29505 l 0.32782,0.29505 q 0.22948,0.13113 0.59009,0.13113 0.39339,0 0.65565,-0.13113 0.16392,-0.13114 0.1967,-0.16392 0.0656,-0.0656 0,-0.13113 l 0.0328,-0.0328 q 0.0656,-0.0328 0.13113,-0.0656 l 0.0983,0.65565 q 0.36061,0.3934 0.72122,0.78679 0.39339,0.39339 0.85235,0.39339 0.36061,-0.1967 0.49174,-0.29504 0.16391,-0.0983 0.13113,-0.36061 -0.22948,-0.1967 -0.65565,-0.754 -0.42618,-0.55731 -0.68844,-0.78679 -0.16391,-0.0983 -0.32783,0 -0.13113,0.0983 -0.26226,0.1967 0.0656,-0.32783 0,-0.45896 -0.26226,-0.0983 -0.78678,-0.13113 -0.52452,-0.0656 -0.88513,-0.16391 z m -3.50774,1.11461 q -0.62287,0.32783 -1.04905,0.59009 -0.42617,0.22948 -0.3606,0.72122 z m 7.80227,0.59009 q -0.13113,0.36061 0.19669,0.59009 0,-0.32783 -0.19669,-0.59009 z m -4.36009,0.0328 -0.16392,0.45896 q 0.22948,-0.29505 0.16392,-0.45896 z m 1.08182,0.0983 q -0.754,0 -1.14739,1.04905 -0.36061,1.01626 -0.42617,1.14739 0.26226,0.26226 0.72122,0.65565 0.45895,0.39339 1.04904,0.81957 0.42617,0 0.88513,-0.52452 0.49174,-0.55731 0.68844,-0.65566 0,-0.13113 0.16391,-0.39339 0.1967,-0.29504 0.1967,-0.49174 0,-0.22948 -0.29505,-0.39339 -0.42617,0 -0.95069,-0.59009 -0.49174,-0.59009 -0.88514,-0.62287 z m 2.88488,0.32783 -0.0656,-0.0983 z m 0.88513,0.16391 q 0.13113,0.16391 0.0328,0.42618 -0.0983,0.22947 -0.26226,0.39339 -0.22948,-0.0656 -0.52453,0.19669 -0.29504,0.22948 -0.52452,0.1967 -0.5573,0.5573 -0.42617,1.24574 0.22948,0.36061 0.52452,0.72122 0.32783,0.32782 0.68844,0.39339 0,0.0984 -0.16392,0.26226 -0.49174,-0.0656 -0.85235,-0.62287 -0.32782,-0.59009 -0.52452,-0.754 l -0.91791,0.88513 q 0.0328,0.16391 0.36061,0.9507 0.32782,0.78678 0.36061,1.04904 -0.22948,-0.52452 -0.3934,-0.85235 -0.16391,-0.36061 -0.32782,-0.62287 -0.13113,-0.29504 -0.36061,-0.39339 0.0984,0.32783 0.45896,1.04905 0.3606,0.72121 0.45895,1.14739 l 0.16392,0.19669 q 0.59008,-0.52452 1.21295,-1.08182 0.65566,-0.55731 0.98348,-1.21296 -0.0984,-0.26226 0.26226,-0.39339 -0.0984,-0.59009 0.29505,-1.47522 0.42617,-0.88513 0.42617,-1.37687 -0.13113,-0.22948 -0.42617,-0.32783 -0.29505,-0.0984 -0.52452,0 z m -1.08183,0.0983 q -0.0328,0.13113 -0.26226,0.32783 -0.22948,0.19669 -0.13113,0.36061 0.16391,0.0983 0.29504,0.0983 0.42618,0 0.52453,-0.36061 z m 0.68844,0.13113 v 0.36061 q 0.26226,-0.1967 0.22948,-0.29504 z m -4.9174,0.45896 q 0.0984,-0.13113 0.0984,-0.1967 z m -0.0328,1.47522 -0.22948,0.42617 q -0.0656,0.26226 -0.0983,0.78679 0,0.52452 0,0.81956 0,0.754 0.0983,1.60635 l 0.16391,-0.0328 q 0,0.65565 -0.0328,1.24574 0,0.59009 -0.16391,1.34409 0,0.1967 -0.29504,0.29504 -0.26226,0.0984 -0.26226,0.29505 l 0.42617,0.0983 q 1.01626,-0.36061 1.83583,-1.31131 0.81956,-0.98348 1.37687,-1.63913 -0.0328,-0.45896 -0.36061,-1.14739 -0.32783,-0.68844 -0.49174,-1.04905 h -0.26226 q -0.0656,0.16392 -0.42617,0.26226 -0.36061,0.0656 -0.78679,0.13113 -0.13113,-0.19669 0.1967,-0.26226 0.36061,-0.0983 0.42617,-0.22948 -0.32782,-0.0983 -0.65565,-0.22947 0.49174,0.0328 0.78678,0.0328 0.1967,0 0.39339,-0.0984 -0.81956,-0.65566 -1.63913,-1.34409 z m -0.39339,5.31079 -0.1967,0.88513 q 0.29505,-0.39339 0.1967,-0.88513 z m -1.37687,2.58982 0.0656,0.0656 z m -0.55731,0.26227 h 0.16391 q 0.16392,-0.13113 0.13114,-0.22948 -0.0983,0.0328 -0.1967,0.13113 -0.0656,0.0656 -0.0983,0.0984 z m 0.81957,0 q -0.16392,0.36061 -0.36061,1.18017 -0.16391,0.78678 -0.22948,1.01626 0.59009,-0.16391 0.62287,-1.08182 0.0656,-0.9507 0.13113,-1.11461 z m -0.39339,0.39339 0.0656,-0.16392 z m -0.1967,-0.13113 h -0.36061 q -0.13113,0.36061 -0.26226,1.18017 -0.13113,0.81957 -0.1967,1.08183 0.0983,0.0656 0.45896,-0.0984 z" /></g></svg>
