<?xml version="1.0" encoding="UTF-8" standalone="no"?>
<!-- Created with Inkscape (http://www.inkscape.org/) -->

<svg
   version="1.1"
   id="svg1"
   xml:space="preserve"
   width="96.442902"
   height="54.681076"
   xmlns:inkscape="http://www.inkscape.org/namespaces/inkscape"
   xmlns:sodipodi="http://sodipodi.sourceforge.net/DTD/sodipodi-0.dtd"
   xmlns="http://www.w3.org/2000/svg"
   xmlns:svg="http://www.w3.org/2000/svg"><defs
     id="defs1" /><sodipodi:namedview
     id="namedview1"
     pagecolor="#ffffff"
     bordercolor="#000000"
     borderopacity="0.25"
     inkscape:showpageshadow="2"
     inkscape:pageopacity="0.0"
     inkscape:pagecheckerboard="0"
     inkscape:deskcolor="#d1d1d1" /><inkscape:clipboard
     min="290.48376,505.63892"
     max="386.92666,560.32"
     geom-min="290.48376,505.63892"
     geom-max="386.92666,560.32" /><g
     id="g5525"
     transform="matrix(4.1157778,0,0,4.1157778,-321.60098,-525.97023)"><path
       style="display:inline;opacity:1;fill:#ffb380;stroke-width:3.47075"
       d="m 358.55859,483.00195 c -2.17483,0.0291 -4.24631,0.33034 -8.79492,1.06836 -6.6276,1.07535 -11.59941,1.7168 -13.29492,1.7168 -0.68262,0 -2.35023,0.39484 -3.70508,0.87695 -3.6662,1.30466 -7.96246,2.20395 -12.26562,2.56641 -3.1042,0.26143 -4.32313,0.49998 -6.39258,1.25781 -2.8249,1.03453 -6.55625,1.79945 -13.21289,2.70703 -4.41316,0.6017 -4.90375,0.75916 -5.42774,1.73828 -0.41881,0.78259 0.18005,3.604 0.93555,4.40821 1.11197,1.18378 2.19627,1.30853 8.35156,0.96875 12.01998,-0.66395 19.17821,-0.95656 19.34375,-0.79102 0.0948,0.0948 -0.73969,2.22343 -1.85547,4.73047 l -2.02929,4.55859 -0.0176,10.01172 c -0.0104,5.88012 0.10625,10.7156 0.2832,11.7168 0.16573,0.93762 0.30274,1.79022 0.30274,1.89453 9.1e-4,0.10401 0.35346,0.31776 0.7832,0.47461 1.33333,0.4868 3.05308,0.38378 3.83398,-0.23047 0.85566,-0.67306 3.05413,-4.79357 3.06055,-5.73437 0.007,-0.99659 0.29753,-1.22677 1.66016,-1.31446 2.02325,-0.13013 2.84241,-0.69794 5.20312,-3.61328 3.52582,-4.3542 7.41814,-6.91273 13.27149,-8.7207 0.99706,-0.30796 4.63927,-1.6413 8.09375,-2.96289 7.04742,-2.69598 6.53519,-2.6866 7.45898,-0.13281 1.74364,4.82033 2.37795,5.37731 5.57813,4.90234 2.69755,-0.40037 4.50512,-1.39019 8.28515,-4.5332 l 3.21875,-2.67383 1.33203,-4.4082 1.33203,-4.40626 -0.90429,-1.49023 c -0.4969,-0.81989 -1.65038,-2.50108 -2.56445,-3.73437 -0.91408,-1.23338 -2.24048,-3.10358 -2.94532,-4.15625 -3.246,-4.848 -5.43187,-5.83763 -14.33398,-6.49024 -1.9363,-0.14194 -3.27908,-0.22252 -4.58399,-0.20508 z"
       transform="scale(0.26458333)"
       id="path912" /><path
       id="path887"
       style="font-style:normal;font-variant:normal;font-weight:normal;font-stretch:normal;font-size:medium;line-height:125%;font-family:Gallaudet;-inkscape-font-specification:Gallaudet;text-align:start;letter-spacing:0px;word-spacing:0px;text-anchor:start;display:inline;opacity:1;fill:#000000;fill-opacity:1;stroke:none;stroke-width:0.242967px;stroke-linecap:butt;stroke-linejoin:miter;stroke-opacity:1"
       d="m 94.234197,127.83426 q 2.52426,0 3.77,0.29505 1.24574,0.26226 1.96696,1.70469 0.458953,0.49174 0.819563,1.04905 0.39339,0.52452 0.754,1.18017 l -0.68844,2.29479 q -0.26226,0.19669 -1.278513,1.08183 -1.01626,0.85234 -1.99974,0.85234 -0.68844,0.13114 -0.98348,-0.754 -0.26226,-0.88513 -0.42618,-1.04904 l -0.0984,-0.13113 q -1.80304,0.68843 -3.60609,1.37687 -1.27852,0.29504 -2.32757,1.01626 -1.01626,0.72122 -1.83582,1.86861 -0.22948,0.1967 -0.45896,0.32783 -0.22948,0.13113 -0.62287,0.13113 -0.1967,0 -0.29505,-0.0328 0.0328,0.49174 -0.22947,0.9507 -0.22948,0.42617 -0.45896,0.81956 -0.22948,0.26226 -0.55731,0.26226 -0.26226,0 -0.45895,-0.0656 -0.1967,-0.0656 -0.29505,-0.0983 -0.13113,-0.68843 -0.16391,-1.34408 -0.0328,-0.65566 -0.0328,-1.54079 0,-0.5573 0.0328,-1.7047 0.0328,-1.14739 0.0328,-1.73748 l 1.04904,-2.36035 -0.0984,-0.0984 q -1.40965,0 -3.93391,0.16392 -2.49149,0.13113 -2.6554,0.13113 -0.42617,-0.0984 -0.62287,-0.22948 -0.19669,-0.13113 -0.26226,-0.42618 -0.0656,-0.32782 -0.0984,-0.62287 0,-0.13113 0.0984,-0.29504 l 0.22948,-0.16391 q 1.34409,-0.16392 2.78652,-0.39339 1.47522,-0.22948 2.49148,-0.75401 2.58983,0 4.88462,-0.95069 1.08183,0 3.04878,-0.32783 1.99975,-0.32783 2.39314,-0.36061 z m 2.49148,0.42618 q -0.81957,-0.22948 -1.77026,-0.22948 -1.01627,0 -3.04879,0.42617 -1.99974,0.39339 -2.91766,0.39339 -0.16391,0.0328 -0.19669,0.22948 -0.0328,0.16392 -0.13113,0.22948 -0.0984,-0.0328 -0.16392,-0.0984 -0.0328,-0.0656 -0.0328,-0.0983 -0.59008,0.0656 -1.11461,0.22948 -0.52452,0.16391 -1.04904,0.32783 -1.11461,0.16391 -2.22922,0.32782 l -0.16391,-0.16391 -0.0328,0.39339 -0.13113,-0.13113 q -0.16392,0.0328 -0.29505,0.0656 l -0.16391,-0.16391 -1.63913,0.5573 q -0.3934,0.16392 -0.45896,0.0656 -1.27852,0.16392 -1.7047,0.22948 -0.42617,0.0656 -1.04904,0.32783 0,0.49174 0.32782,0.81956 0.754,0.22948 1.40966,0.22948 0.45895,0 0.754,-0.0984 0.29504,-0.0984 0.29504,-0.39339 0,-0.29504 0.1967,-0.26226 l 0.0328,0.59009 q 0.19669,0.0328 0.65565,0.0328 0.49174,0 0.754,-0.0328 0.26226,-0.0328 0.754,-0.13113 0.13113,-0.29505 0.1967,-0.45896 0.0984,-0.16391 0.29504,0.0328 0.0328,0.39339 0.45896,0.39339 0.16391,0 0.49174,-0.0656 0.36061,-0.0656 0.49174,-0.0328 0.13113,-0.0656 0.39339,0.0328 0.29504,0.0984 0.39339,0.0984 0.22948,0 0.32783,-0.29504 0.13113,-0.13113 0.36061,-0.49174 0.22948,-0.36061 0.32782,-0.52452 0.22948,0.13113 0.22948,0.29504 0,0.0984 -0.16391,0.36061 -0.16391,0.26226 -0.16391,0.39339 h 0.39339 q 0.39339,0 0.65565,0.13113 0.52452,-0.0983 1.01626,0.62287 0.49174,0.72122 0.72122,0.81957 0.16391,-0.16392 0.16391,-0.45896 0,-0.19669 -0.0656,-0.39339 -0.0656,-0.22948 -0.13113,-0.45896 0.16392,0.0328 0.26226,0.39339 0.13113,0.36061 0.16392,0.42618 0.13113,-0.0328 0.29504,-0.32783 0.16391,-0.32782 0.32783,-0.29504 -0.36061,1.11461 -2.4587,2.65539 -2.09809,1.54079 -2.09809,3.27827 0.16391,0.26226 0.29504,0.42617 0.13113,0.13113 0.36061,0.13113 -0.52452,-0.42617 -0.52452,-1.01626 0.1967,-0.36061 0.45896,-0.59009 0.29504,-0.26226 0.65565,-0.26226 0.29504,0.13113 0.52452,0.39339 0.26226,0.22948 0.29505,0.49174 0.16391,-0.19669 0.42617,-0.42617 0.29504,-0.22948 0.59009,-0.49174 l -0.36061,-0.16391 q -0.0328,-0.0656 -0.36061,-0.42618 -0.32783,-0.36061 -0.32783,-0.59009 l 0.59009,0.55731 -0.65565,-0.81957 q 0.22948,-0.0328 0.42617,0.1967 0.22948,0.22948 0.29505,0.26226 l -0.0656,-0.1967 0.0984,-0.0656 -0.3934,-0.45895 q 0.36061,0.0983 0.59009,0.42617 0.26226,0.29505 0.32783,0.68844 -0.13113,0.0328 -0.0656,0.22948 0.0984,0.16391 0.0656,0.26226 0.5573,-0.59009 1.47522,-0.91792 0.95069,-0.36061 1.83583,-0.68843 0.19669,0 0.59008,-0.26226 0.42618,-0.29505 0.68844,-0.13113 0.91791,0 1.63913,-0.85235 0.754,-0.85235 1.40965,-1.63914 0.16392,0 0.45896,-0.0983 0.29505,-0.0984 0.39339,-0.0984 0.1967,0 0.36061,0.13113 -0.36061,0.0656 -0.45895,0.16392 0.52452,0.52452 1.01626,1.11461 0.52452,0.59009 0.852353,1.14739 0.26225,-0.0984 0.52451,-0.39339 0.26226,-0.29504 0.32783,-0.85235 0.19669,-0.45896 0.19669,-0.85235 0,-0.88513 -0.91791,-1.93417 -0.786783,-0.81957 -1.540783,-1.67192 -0.22948,-0.16391 -0.98348,-0.29504 -0.72121,-0.16392 -0.88513,-0.22948 z m -8.19566,3.9667 q -0.16392,0 -0.65566,-0.0656 -0.49174,-0.0984 -0.62287,-0.0984 -0.39339,0 -0.62287,0.22948 0.85235,0.98348 1.93418,1.34408 0.13113,0 0.42617,0.0983 0.29505,0.0656 0.3934,0.0656 0.22947,0 0.3606,-0.26226 -0.16391,-0.19669 -0.72121,-0.42617 -0.52453,-0.26226 -0.55731,-0.29505 0.1967,-0.0328 0.42618,0.0328 0.26226,0.0656 0.49174,0.13113 -0.13114,-0.13113 -0.55731,-0.26226 -0.42617,-0.13113 -0.49174,-0.32782 l 0.55731,0.0656 z m -2.42592,0.19669 q -0.5573,0.85235 -0.98348,1.93418 0.29505,0 0.39339,0.0656 v 0.36061 q -0.29504,0.22948 -0.49174,0.29504 0,0.59009 0.0328,1.14739 0.0328,0.55731 0.0656,1.11461 0,0.22948 -0.0328,0.49174 -0.0328,0.26226 -0.0328,0.3934 l 0.1967,0.13113 q -0.0656,0.29504 -0.22948,0.45895 -0.13113,0.49174 0.16391,0.62287 0.13113,0.22948 0.13113,0.42618 0,0.19669 -0.0656,0.39339 -0.0656,0.19669 -0.16391,0.45896 l 0.78678,0.0984 q 0.26227,-0.16392 0.36061,-0.42618 0.13113,-0.29504 0.26226,-0.52452 0.13114,-0.26226 0.13114,-0.59009 0,-0.29504 -0.26227,-0.88513 -0.22947,-0.62287 -0.22947,-0.85235 0,-0.32782 0.16391,-0.62287 0,-0.16391 0.26226,-0.52452 0.29504,-0.39339 0.29504,-0.52452 0,-0.1967 -0.36061,-0.32783 l 0.22948,-0.0984 -0.0984,-0.16391 q 0.0656,-0.13113 0.1967,-0.0328 0.16391,0.0983 0.22948,0.0983 0.45895,-0.62287 0.62287,-1.508 -0.45896,-0.59009 -0.78679,-0.91792 -0.32782,-0.32782 -0.78678,-0.49174 z m 11.08053,0.42618 q -0.32782,0.26226 0,0.42617 0.0656,-0.0656 0.0983,-0.0984 0.0656,-0.0656 0.13114,-0.0983 -0.0328,0.1967 -0.0328,0.39339 0,0.26226 0.19669,0.29505 0.0656,0.45895 0.32783,0.95069 0.26226,0.49174 0.52452,0.9507 0.29504,0 0.62287,-0.22948 0.36061,-0.26226 0.52452,-0.5573 -0.22948,-0.85235 -0.81956,-1.47522 -0.59009,-0.62287 -0.85235,-0.88513 -0.45896,-0.0328 -0.72122,0.32782 z m -0.39339,0.49174 -0.0983,0.19669 0.16392,0.0328 q 0.0656,-0.0656 0,-0.13113 -0.0328,-0.0656 -0.0656,-0.0983 z m -8.65461,0.5573 q -0.3934,0.1967 -0.26227,0.52452 0.3934,0 0.68844,-0.3606 -0.13113,-0.16392 -0.42617,-0.16392 z m 8.98244,0.16392 0.81957,1.34408 q -0.32783,-0.65565 -0.65566,-1.34408 z m -0.26226,0.16391 q 0.22948,0.45896 0.52452,0.9507 0.29504,0.49173 0.55731,0.78678 -0.42618,-0.85235 -0.59009,-1.08183 -0.13113,-0.22948 -0.49174,-0.65565 z m -0.22948,0.19669 q 0.0656,0.32783 0.32783,0.85235 0.26226,0.49174 0.32782,0.68844 -0.0328,-0.26226 -0.22948,-0.65565 -0.16391,-0.3934 -0.42617,-0.88514 z m -8.32679,0.16392 q -0.32783,0.19669 -0.55731,0.0656 -0.26226,0.26226 -0.13113,0.45895 0.42618,-0.16391 0.68844,-0.52452 z m -0.78679,2.49148 q -0.13113,0.0656 -0.26226,0.16391 -0.13113,0.0983 -0.42617,0.39339 0,0.26226 0.16391,0.49174 0.1967,0.22948 0.29505,0.36061 0.16391,0.0984 0.26226,0.0984 0.22948,0 0.32782,-0.22948 0.13113,-0.26226 0.22948,-0.49174 -0.16391,-0.0984 -0.32782,-0.32782 -0.13113,-0.22948 -0.26227,-0.45896 z m 0.29505,0.0328 q 0.0328,0.0328 0.16391,0.26226 0.13113,0.1967 0.26226,0.13113 -0.0328,-0.26226 -0.42617,-0.39339 z m -2.75374,2.98322 0.0328,-0.36061 z m 6.68766,-6.52374 q 0.65565,0.52452 0.78678,0.754 0.16391,0.19669 0.16391,0.59008 -0.16391,-0.16391 -0.45895,-0.65565 -0.29505,-0.52452 -0.49174,-0.68843 z m 6.58931,-4.72071 q 0.42617,0.29505 0.78678,0.88514 -0.32783,-0.29505 -0.52452,-0.45896 -0.1967,-0.1967 -0.26226,-0.42618 z m -9.53975,2.95044 q 0.19669,-0.59008 0.32782,-0.81956 -0.0656,0.0984 0.0328,0.36061 0.13113,0.22947 -0.0328,0.32782 z" /></g></svg>
