<?xml version="1.0" encoding="UTF-8" standalone="no"?>
<!-- Created with Inkscape (http://www.inkscape.org/) -->

<svg
   version="1.1"
   id="svg1"
   xml:space="preserve"
   width="64.764481"
   height="60.50705"
   xmlns:inkscape="http://www.inkscape.org/namespaces/inkscape"
   xmlns:sodipodi="http://sodipodi.sourceforge.net/DTD/sodipodi-0.dtd"
   xmlns="http://www.w3.org/2000/svg"
   xmlns:svg="http://www.w3.org/2000/svg"><defs
     id="defs1" /><sodipodi:namedview
     id="namedview1"
     pagecolor="#ffffff"
     bordercolor="#000000"
     borderopacity="0.25"
     inkscape:showpageshadow="2"
     inkscape:pageopacity="0.0"
     inkscape:pagecheckerboard="0"
     inkscape:deskcolor="#d1d1d1" /><inkscape:clipboard
     min="437.03464,500.42567"
     max="501.79912,560.93271"
     geom-min="437.03464,500.42567"
     geom-max="501.79912,560.93271" /><g
     id="g5532"
     transform="matrix(4.1157778,0,0,4.1157778,-468.15186,-520.75698)"><path
       style="display:inline;opacity:1;fill:#ffb380;stroke-width:3.47075"
       d="m 473.93945,478.22266 c -1.71951,0.0734 -4.11679,0.53743 -8.40625,1.44531 l -7.6582,1.62109 -7.23828,3.88282 c -7.85575,4.21421 -13.30476,7.64182 -14.73047,9.26562 -1.05468,1.20121 -1.14347,2.14141 -0.45117,4.80469 0.24982,0.96015 0.38872,2.25775 0.30859,2.88281 -0.0803,0.6251 -1.48449,7.68346 -3.11914,15.68555 -2.86892,14.04431 -2.95273,14.56578 -2.44922,15.02148 0.28691,0.25965 0.94275,0.57166 1.45703,0.69336 0.51432,0.1217 0.98653,0.23488 1.05078,0.25 0.0644,0.016 0.65324,-0.28307 1.30665,-0.66601 2.23612,-1.31044 3.5244,-3.6408 5.13085,-9.2754 0.54603,-1.91516 1.24635,-4.05779 1.55665,-4.75976 0.51847,-1.17203 0.59721,-1.23388 0.94531,-0.75781 0.33528,0.45845 0.67267,0.49978 2.92969,0.35351 l 2.55273,-0.16406 -0.39648,1.46875 c -0.25097,0.93162 -0.36006,2.45946 -0.29883,4.16992 0.0793,2.21994 0.22173,2.92694 0.79883,3.97852 1.15256,2.10039 3.81666,3.0748 6.16601,2.25586 0.98003,-0.34167 1.37994,-1.20172 2.34961,-5.0625 0.32867,-1.30848 0.83517,-2.90588 1.12695,-3.55079 0.29186,-0.64497 0.74306,-1.93932 1.00196,-2.87695 1.00943,-3.65881 3.32476,-6.7918 8.88086,-12.01953 l 3.70507,-3.48828 0.61524,-2.48438 c 0.33781,-1.36709 0.71632,-2.6525 0.8418,-2.85546 0.35399,-0.57283 3.08875,0.94583 6.53515,3.62695 1.63888,1.27495 3.24081,2.30273 3.58399,2.30273 0.45592,0 0.90621,-0.47035 1.70312,-1.77539 0.59645,-0.9767 1.77667,-2.82242 2.6211,-4.10156 0.87715,-1.32873 1.69793,-2.97322 1.91601,-3.83594 0.42648,-1.68597 1.18065,-10.65138 0.91797,-10.91406 -0.0924,-0.0924 -2.18996,-0.91611 -4.66211,-1.83008 -2.47219,-0.91393 -5.28408,-1.99033 -6.24805,-2.39062 -1.58247,-0.65711 -2.62424,-0.97383 -4.34375,-0.90039 z"
       transform="scale(0.26458333)"
       id="path916" /><path
       id="path889"
       style="font-style:normal;font-variant:normal;font-weight:normal;font-stretch:normal;font-size:medium;line-height:125%;font-family:Gallaudet;-inkscape-font-specification:Gallaudet;text-align:start;letter-spacing:0px;word-spacing:0px;text-anchor:start;display:inline;opacity:1;fill:#000000;fill-opacity:1;stroke:none;stroke-width:0.242967px;stroke-linecap:butt;stroke-linejoin:miter;stroke-opacity:1"
       d="m 126.95705,126.99427 2.52427,0.91791 q -0.13113,1.34409 -0.1967,2.29479 -0.0656,0.95069 -0.62287,1.57356 l -0.98348,1.57357 h -0.22948 q -0.81956,-0.65565 -1.37687,-1.08183 -0.5573,-0.42617 -1.21296,-0.62287 l -0.39339,1.508 q -0.19669,0.1967 -1.73748,1.67192 -1.508,1.47522 -1.7047,2.91765 -0.22948,0.32783 -0.45896,1.24574 -0.19669,0.91792 -0.39339,1.21296 -0.29504,0.1967 -0.65565,0.1967 -0.45896,0 -0.88513,-0.29505 -0.49174,-0.52452 -0.49174,-1.47522 0,-0.32782 0.0328,-0.68843 0.0656,-0.39339 0.19669,-0.78678 -0.62287,0.0656 -1.24574,0.0984 -0.0983,0.0328 -0.19669,-0.0984 -0.0983,-0.16392 -0.1967,-0.13113 -0.22948,0.32782 -0.68843,2.0653 -0.45896,1.7047 -1.47522,2.09809 -0.52453,0 -0.81957,-0.32783 0.78678,-3.9667 1.60635,-7.9334 0.0656,-0.32782 -0.0983,-0.85234 -0.13113,-0.52453 -0.13113,-0.68844 0,-0.16391 0.0983,-0.42617 1.08183,-0.98348 3.016,-1.99975 1.93418,-1.04904 2.91766,-1.57356 1.99975,-0.42618 4.03227,-0.85235 0.98348,0 1.77026,0.45896 z m -3.08157,-0.0328 q -0.16391,0.0328 -0.85234,0.16391 -0.65566,0.13113 -1.50801,0.29504 -0.81957,0.16392 -1.31131,0.754 -0.29504,0.16392 -0.52452,0.32783 -0.22948,0.13113 -0.45896,0.13113 -0.5573,0.26226 -1.40965,0.81957 -0.85235,0.52452 -1.31131,0.78678 0.1967,0 0.55731,-0.16391 0.36061,-0.1967 0.49174,-0.1967 -0.1967,0.22948 -0.88513,0.52452 -0.68844,0.26227 -0.81957,0.72122 0,0.85235 -0.29504,2.06531 -0.29505,1.18017 -0.65565,2.62261 0.0983,0.0328 0.22947,0.0656 0.16392,0 0.16392,0.0984 -0.13113,0.13113 -0.26226,0.13113 l 0.19669,0.1967 q -0.0328,0.13113 -0.22948,0.0984 -0.19669,-0.0328 -0.36061,0.78678 -0.13113,0.78678 -0.3606,2.22922 0,0.39339 0.0983,0.78678 -0.1967,0.32783 -0.36061,0.62288 0.13113,0.13113 0.39339,0.13113 0.0984,0 0.19669,0 0.13113,-0.0656 0.26226,-0.13113 0.13114,-0.0656 0.26227,-0.22948 0.13113,-0.16392 0.29504,-0.49174 0.16391,-0.49174 0.32783,-0.98348 0,-0.22948 -0.22948,-0.36061 0.32782,-0.22948 0.52452,-0.72122 0.1967,-0.49174 0.36061,-0.9507 0,-0.0984 -0.13113,-0.0984 -0.0984,-0.0328 -0.1967,-0.0656 l -0.0328,-0.26226 0.52453,-0.0983 q 0.29504,-0.98348 0.59008,-1.99974 0,-0.39339 -0.16391,-0.68843 0.0984,-0.0984 0.26226,0.0656 0.16391,0.16391 0.29504,0.0656 l -0.16391,0.29504 q 0.68844,0.16391 1.11461,-0.45896 -0.39339,-0.22948 -0.52452,-0.42617 -0.29504,0 -0.29504,-0.22948 0.0656,-0.22948 0.0983,-0.36061 0.0328,-0.16391 0,-0.26226 0.0984,0 0.19669,0.16391 -0.0656,0.49174 0.55731,0.78679 0.65565,0.29504 0.754,0.5573 -0.0328,-0.26226 -0.29505,-0.59009 -0.26226,-0.36061 -0.29504,-0.45895 l 0.72122,0.62287 q 0,-0.16392 -0.13113,-0.45896 -0.13113,-0.29504 -0.13113,-0.45896 0.22947,0.32783 0.39339,0.49174 0.19669,0.16392 0.19669,0.39339 0,0.16392 -0.0656,0.3934 -0.0656,0.19669 -0.16391,0.52452 -0.0656,0.32782 -0.62287,1.73748 -0.52452,1.37687 -0.52452,2.13087 0,0.62287 0.22948,1.18018 0.16391,-0.49174 0.29504,-0.81957 0.13113,-0.32783 0.52452,-0.32783 0.65566,0 0.78679,0.42618 0.26226,-0.78679 0.52452,-1.57357 -0.16392,0.0328 -0.36061,0.0328 -0.16391,0 -0.22948,0 -0.45896,0 -0.72122,-0.1967 0.0656,-0.0328 0.13113,-0.0328 0.0984,0 0.1967,0 l -0.26227,-0.22948 q 0.13113,-0.13113 0.3606,-0.13113 0.16392,0 0.49174,0.16391 0.36061,0.13114 0.55731,0.0656 0.0983,-0.52452 0.68843,-1.3113 0.5901,-0.78678 0.65566,-0.91791 l -0.29505,-0.26227 -0.49174,-0.45895 q 0.22948,0.0656 0.62287,0.29504 0.3934,0.1967 0.52453,0.1967 0.26226,0 0.49174,-0.36061 0.85235,-0.45896 1.31131,-1.99974 0.45895,-1.54079 1.01626,-1.99975 0.9507,-0.0984 1.67191,0.3934 0.754,0.45895 1.37687,0.81956 0.36061,-0.42617 0.45896,-0.95069 0.13113,-0.55731 0.13113,-1.31131 v -0.81957 q 0,-0.26226 -0.52452,-0.3606 -0.52452,-0.0983 -1.7047,-0.62288 -1.18017,-0.5573 -1.86861,-0.5573 -0.59009,0 -1.08183,0.22948 z m 2.06531,3.5733 v 0.13114 l 1.99974,1.57356 q 0,-0.0328 0.13113,-0.16391 0.13113,-0.13113 0.0656,-0.22948 -0.36061,-0.49174 -0.88513,-0.754 -0.49174,-0.26226 -1.31131,-0.55731 z m 1.21296,0.22948 -0.65565,-0.29504 z m -1.37687,0.0984 q 0.32782,0.32783 0.754,0.65566 0.42617,0.32782 0.754,0.49174 -0.1967,-0.26227 -0.55731,-0.55731 -0.32782,-0.29504 -0.95069,-0.59009 z m -10.26097,0.0983 q -0.13113,0.13113 -0.13113,0.29505 0,0.16391 0.0983,0.26226 z m 10.42488,0.62287 -0.49174,-0.26226 0.65565,0.45896 z m 0.81957,0.39339 0.85235,0.78679 q 0.0328,-0.0328 0.0328,-0.0656 0,-0.0328 0.0328,-0.16392 -0.32783,-0.13113 -0.5573,-0.29504 -0.22948,-0.16391 -0.36061,-0.26226 z m -8.06454,2.09809 v 0.13113 q 0.22948,0 0.22948,-0.0656 -0.16391,-0.0656 -0.22948,-0.0656 z m -1.18017,0.65566 -0.62287,1.93417 0.16391,0.26226 q 0.26226,0.0656 0.39339,0.0656 0.26226,0 0.55731,-0.13113 0.32782,-0.13113 0.49174,-0.19669 0.29504,-1.08183 0.62287,-2.16366 -0.29505,0 -0.42618,0 -0.0656,0.55731 -0.19669,0.85235 -0.13113,0.29505 -0.52453,0.52452 0.16392,-0.29504 0.32783,-0.59008 0.16391,-0.32783 0.16391,-0.65566 0,-0.16391 -0.0328,-0.26226 -0.16391,0.0656 -0.45895,0.1967 -0.29505,0.13113 -0.45896,0.16391 z m 2.32756,3.99948 q -0.22947,-0.0984 -0.32782,-0.0984 -0.0983,-0.0328 -0.1967,0.0984 0.22948,0.1967 0.59009,0.0656 z m -0.88513,0.32783 q -0.0983,0.39339 -0.0983,0.45895 0,0.16392 0.16392,0.26226 0.39339,0.0656 0.59008,0.0656 0.1967,0 0.32783,-0.13113 0.16391,-0.45895 0,-0.65565 -0.0984,0.0656 -0.32783,0 -0.19669,-0.0984 -0.42617,-0.19669 -0.13113,0 -0.22948,0.19669 z m -0.16391,0.72121 q 0.42617,0.49174 0.88513,0.32783 -0.36061,-0.0656 -0.5573,-0.0984 -0.16392,-0.0656 -0.32783,-0.22948 z m -4.62235,0.52453 v -0.32783 l -0.13113,0.39339 z m 5.57305,-3.80279 q 0.59008,0 0.98348,0.39339 z m 5.50749,-9.57253 q 0.22947,-0.0656 0.49174,0.0656 0.32782,0.22948 0.45895,0.32782 z m -3.90114,7.27774 0.52452,0.1967 q -0.13113,0.0328 -0.26226,-0.0328 -0.13113,-0.0656 -0.26226,-0.16391 z m 2.32757,-2.29478 q 0.19669,-0.81957 0.5573,-1.47522 0.36061,-0.68843 0.98348,-1.08183 -0.52452,0.45896 -0.88513,1.37687 -0.0328,-0.0328 -0.0328,-0.0983 -0.1967,0.1967 -0.36061,0.59009 -0.13113,0.36061 -0.26226,0.68844 z m -6.03201,3.86835 q 0.0656,0.0328 0.0983,0.1967 0.0656,0.13113 0.19669,0.0656 -0.26226,0.19669 -0.32782,-0.0656 z" /></g></svg>
