<?xml version="1.0" encoding="UTF-8" standalone="no"?>
<!-- Created with Inkscape (http://www.inkscape.org/) -->

<svg
   version="1.1"
   id="svg1"
   xml:space="preserve"
   width="36.155445"
   height="84.552704"
   xmlns:inkscape="http://www.inkscape.org/namespaces/inkscape"
   xmlns:sodipodi="http://sodipodi.sourceforge.net/DTD/sodipodi-0.dtd"
   xmlns="http://www.w3.org/2000/svg"
   xmlns:svg="http://www.w3.org/2000/svg"><defs
     id="defs1" /><sodipodi:namedview
     id="namedview1"
     pagecolor="#ffffff"
     bordercolor="#000000"
     borderopacity="0.25"
     inkscape:showpageshadow="2"
     inkscape:pageopacity="0.0"
     inkscape:pagecheckerboard="0"
     inkscape:deskcolor="#d1d1d1" /><inkscape:clipboard
     min="550.50442,476.21899"
     max="586.65987,560.77169"
     geom-min="550.50442,476.21899"
     geom-max="586.65987,560.77169" /><g
     id="g5539"
     transform="matrix(4.1157778,0,0,4.1157778,-581.62165,-496.5503)"><path
       style="display:inline;opacity:1;fill:#ffb380;stroke-width:3.47075"
       d="m 554.52148,455.99805 c -0.47795,0.0392 -0.96811,0.1564 -1.44921,0.35742 -1.26479,0.52845 -1.84001,1.45848 -2.05469,3.32617 -0.12537,1.09172 -0.39766,1.78483 -0.95703,2.42969 -1.25273,1.44427 -1.25853,2.13532 -0.0508,6.16211 1.00626,3.35542 1.07128,3.78823 0.86718,5.67187 -0.12181,1.1215 -0.3417,3.74461 -0.49023,5.83008 -0.25085,3.51859 -0.49111,4.67103 -0.79688,3.81641 -0.0684,-0.19132 -0.59558,-1.06721 -1.16992,-1.94727 l -1.04297,-1.59961 -1.7832,0.16211 c -3.58273,0.32576 -4.89139,1.58985 -4.89453,4.72852 l -0.002,1.8457 -1.91407,0.99414 c -1.85034,0.96212 -1.92834,1.04634 -2.39258,2.59375 -1.19527,3.984 -1.98107,8.40511 -2.18554,12.2832 -0.19608,3.71827 -0.15402,4.31435 0.56836,7.9961 1.12588,5.73811 1.74167,7.51359 3.3457,9.63281 1.35946,1.79603 1.38583,1.86767 1.96875,5.61133 0.32485,2.08569 0.62728,4.16311 0.67188,4.61719 0.0791,0.80613 0.17606,0.85393 4.19921,2.02343 h 0.002 c 2.26594,0.65866 4.43939,1.13822 4.83008,1.06641 4.18242,-0.77031 7.02323,-2.04628 9.14453,-4.10938 l 1.36718,-1.33203 0.008,-2.5039 c 0.0127,-4.32443 0.48275,-7.91036 1.28711,-9.83399 1.45791,-3.48646 4.41089,-12.61293 4.9375,-15.25781 0.91566,-4.59946 0.98953,-6.69919 0.30468,-8.66602 -0.32651,-0.93762 -1.49524,-4.77492 -2.59765,-8.52539 -1.87556,-6.38059 -3.34359,-10.58843 -4.50977,-12.92773 -0.3428,-0.68784 -0.55282,-2.04599 -0.68359,-4.4043 -0.24023,-4.33202 -0.68315,-7.45578 -1.19531,-8.44726 -0.58193,-1.12663 -1.89818,-1.71125 -3.33204,-1.59375 z"
       transform="scale(0.26458333)"
       id="path920" /><path
       id="path891"
       style="font-style:normal;font-variant:normal;font-weight:normal;font-stretch:normal;font-size:medium;line-height:125%;font-family:Gallaudet;-inkscape-font-specification:Gallaudet;text-align:start;letter-spacing:0px;word-spacing:0px;text-anchor:start;display:inline;opacity:1;fill:#000000;fill-opacity:1;stroke:none;stroke-width:0.242967px;stroke-linecap:butt;stroke-linejoin:miter;stroke-opacity:1"
       d="m 146.36247,120.76557 q 0.26226,-0.0984 0.45895,-0.0984 0.55731,0 0.81957,0.49174 0.13113,0.42618 0.19669,1.11461 0.0656,0.65566 0.0656,1.1474 v 0.754 q 0.65565,1.11461 1.27852,3.40939 0.65566,2.29479 0.91792,2.95044 0,1.508 -0.49174,3.016 -0.49174,1.47522 -0.81957,2.4587 -0.29504,0.49174 -0.42617,1.18018 -0.0983,0.68843 -0.0983,1.54078 v 0.91791 q -0.39339,0.55731 -1.01626,0.9507 -0.62287,0.36061 -1.9014,0.59009 l -2.19643,-0.62287 q 0,-0.39339 -0.16392,-1.24574 -0.16391,-0.88513 -0.16391,-1.21296 -0.68844,-0.68844 -0.91791,-1.40965 -0.22948,-0.754 -0.55731,-2.62261 0,-1.24575 0.16391,-2.36036 0.1967,-1.11461 0.59009,-2.36035 0.52452,-0.26226 1.04905,-0.5573 -0.0656,-0.39339 -0.0656,-0.62287 0,-0.32783 0.16391,-0.59009 0.1967,-0.26226 0.49174,-0.36061 0.29505,-0.13113 0.754,-0.13113 h 0.32783 q 0.1967,0.1967 0.36061,0.49174 0.16391,0.26226 0.32783,0.59009 0.13113,-0.32783 0.16391,-0.98348 0.0328,-0.65565 0.0328,-0.754 l 0.16392,-1.57357 q -0.29505,-0.91791 -0.55731,-1.86861 0,-0.5573 0.45896,-0.85235 0.0656,-0.5573 0.13113,-0.88513 0.0983,-0.32783 0.45896,-0.49174 z m 0.0983,0.13113 q -0.45895,0.42618 -0.36061,1.11461 0.45896,0 0.85235,0.49174 0.29505,0.45896 0.62287,0.88514 v -0.81957 q 0,-0.754 -0.0983,-1.11461 -0.0984,-0.39339 -0.42618,-0.49174 -0.29504,-0.0983 -0.59009,-0.0656 z m -0.49174,1.34409 q -0.45895,0.32783 -0.45895,0.754 0,0.26226 0.29504,0.91792 0.29504,0.62287 0.29504,0.78678 0.13113,0.32783 0.3934,0.32783 0.62287,-0.1967 1.24574,-0.39339 l -0.52453,-1.24574 q -0.26226,-0.36061 -0.5573,-0.75401 -0.26226,-0.39339 -0.68844,-0.39339 z m 1.9014,2.62261 q -0.39339,-0.0983 -0.754,0.0984 -0.32783,0.16392 -0.62287,0.32783 -0.0984,0.1967 -0.0984,0.32783 0,0.29504 0.16391,0.59008 0.16391,0.26227 0.32783,0.52453 l 1.27852,-0.42618 0.0983,0.0656 -0.62287,0.26226 0.88513,-0.16391 q -0.0983,-0.39339 -0.13113,-0.59009 z m -1.83583,0.55731 0.0656,0.36061 q 0.0656,-0.0656 0.0328,-0.1967 -0.0328,-0.13113 -0.0983,-0.16391 z m -0.0328,0.65565 q -0.0656,0.16392 -0.0983,0.55731 -0.0328,0.36061 -0.0328,0.52452 v 0.85235 l 0.95069,-0.0328 q -0.0656,-0.49174 -0.16391,-0.754 -0.0656,-0.26226 -0.42618,-1.1474 z m 2.58982,0.65565 q -0.0983,-0.0328 -0.29504,-0.0328 -0.36061,0 -0.65565,0.0984 -0.29505,0.0983 -0.72122,0.32783 0.13113,0.68844 0.1967,0.9507 0.0983,0.22948 0.36061,0.45895 0.13113,-0.0328 0.39339,-0.0328 0.22948,0 0.62287,0.0984 0.39339,0.0983 0.68843,0.16392 l -0.13113,-0.59009 z m -4.78626,0.65566 q -0.49174,0.36061 -0.42618,0.85235 0.45896,-0.55731 1.18018,-0.55731 0.29504,0 0.42617,0.13113 -0.13113,-0.52452 -0.68843,-0.52452 -0.22948,0 -0.49174,0.0983 z m 0.5573,0.62287 q -0.22947,0.0656 -0.39339,0.22948 -0.16391,0.16391 -0.32782,0.45895 -0.13113,0.22948 0.0656,0.29505 0.1967,0.0656 0.62287,0.16391 -0.0656,-0.1967 0.0983,-0.39339 0.19669,-0.1967 0.39339,-0.39339 -0.22948,-0.16392 -0.45896,-0.36061 z m 1.93418,0.13113 q -0.1967,0.0656 -0.32783,0.0983 -0.0983,0.0328 -0.13113,0.13113 0.16392,0.0983 0.39339,0.0328 0.26227,-0.0656 0.52453,-0.16391 -0.42618,-0.0983 -0.45896,-0.0983 z m -1.01626,0.39339 q -0.1967,0.36061 -0.32783,0.52452 -0.13113,0.16392 -0.36061,0.32783 -0.26226,0.16391 -0.65565,-0.0656 -0.36061,-0.22948 -0.49174,-0.16391 v 0.19669 q 0.68844,0.91792 1.27852,1.24574 0.62287,0.29505 1.1474,0.1967 0,0.13113 -0.1967,0.19669 -0.0984,0.26227 0.13113,0.45896 0.22948,0.1967 0.42617,0.36061 -0.0656,0.0656 -0.13113,0.0983 -0.0328,0 -0.0656,0 0.0328,0.29504 0.26226,0.59009 0.26226,0.29504 0.39339,0.45896 l -0.0656,0.0656 q -0.36061,-0.13113 -0.62287,-0.49174 -0.22948,-0.36061 -0.32783,-0.55731 -1.04905,1.37687 -1.04905,3.17992 0,1.04904 0.36061,1.80304 0.22948,0.0328 0.78679,0.16392 0.5573,0.13113 0.81956,0.13113 0.29505,0 0.59009,-0.0983 1.01626,-0.59009 1.21296,-1.508 0.19669,-0.9507 0.19669,-2.62262 -0.0328,0.0656 -0.13113,0.0984 -0.0656,0.0328 -0.16391,0.0656 0.16391,-0.22947 0.26226,-0.49174 0.13113,-0.26226 0.13113,-0.49174 0,-0.13113 -0.0328,-0.22947 l -1.73748,-2.19644 -0.45896,0.5573 q -0.39339,0.16392 -0.49174,0.0328 l 0.754,-1.01626 q -0.16391,-0.19669 -0.72121,-0.45896 -0.52453,-0.26226 -0.72122,-0.3606 z m 1.01626,0.0656 q 0,0.13113 0.22948,0.1967 0.26226,0.0656 0.19669,-0.1967 z m -1.7047,0.42617 q 0.36061,-0.19669 0.26226,-0.39339 -0.0983,0.0328 -0.22948,0.1967 -0.0983,0.13113 -0.0328,0.19669 z m 3.57331,-0.29504 -0.42617,-0.0983 -0.0656,0.0656 z m -1.21296,-0.0328 q -0.0656,0.0656 -0.0984,0.1967 -0.0328,0.13113 0.0656,0.19669 0.13113,0 0.42617,-0.29504 -0.13113,-0.13113 -0.39339,-0.0983 z m 2.36035,0.52452 q -0.0983,-0.0328 -0.62287,-0.16391 -0.52452,-0.16391 -0.78678,-0.16391 -0.39339,0 -0.62287,0.26226 -0.0656,0.26226 0.13113,0.5573 0.22948,0.29505 0.36061,0.52453 0.13113,0.22947 0.49174,0.22947 0.22948,0 0.68843,-0.16391 0.45896,-0.16391 0.68844,-0.16391 l -0.0983,-0.55731 z m -6.35983,-0.0656 q -0.36061,0.16392 -0.65565,0.36061 -0.26226,0.16392 -0.26226,0.59009 -0.0983,0.16391 -0.0983,0.36061 0,0.22948 0.13113,0.42617 0.13113,0.1967 0.36061,0.1967 -0.29505,-0.32783 -0.36061,-0.42617 -0.0328,-0.13114 0.0328,-0.29505 l 0.13113,0.0328 q 0,-0.0656 0,-0.26226 0,-0.1967 0.13113,-0.22948 0.1967,1.01626 0.55731,1.7047 0.36061,0.68843 0.5573,1.04904 0.22948,0.36061 0.52452,0.42618 -0.13113,-0.0984 -0.13113,-0.39339 v -0.36061 q 0.0656,-0.42618 0.49174,-0.29505 -0.0656,-0.49174 -0.0983,-0.78678 0,-0.32783 -0.13113,-0.65565 -0.22948,-0.16392 -0.49174,-0.45896 -0.22948,-0.29504 -0.68844,-0.98348 z m 3.57331,0.88513 0.19669,-0.3606 -0.29504,0.39339 z m 3.11435,0.36061 q -0.68844,0 -1.44244,0.32783 l 0.39339,0.52452 q 0.32783,0 0.68844,-0.19669 0.36061,-0.22948 0.52452,-0.29505 z m -4.98296,1.47522 q 0.0656,-0.68843 0.26226,-0.88513 -0.1967,-0.0983 -0.32783,-0.0656 -0.0983,0.0328 -0.0983,0.16391 0.0656,0.3934 0.16392,0.78679 z m 4.78626,-0.68843 h 0.13113 q 0.0656,0.16391 -0.26226,0.29504 -0.32782,0.13113 -0.36061,0.29505 0.13113,0.29504 0.13113,0.81956 -0.0328,0.85235 -0.0656,1.67192 0.29504,-1.08183 0.49174,-1.83583 0.19669,-0.78679 0.29504,-1.34409 -0.16391,-0.0328 -0.26226,0.0328 -0.0656,0.0328 -0.0983,0.0656 z m -6.94992,0.26226 q -0.0656,-0.0328 -0.26226,-0.1967 -0.19669,-0.16391 -0.32782,0 -0.0328,0.1967 -0.1967,0.98348 -0.13113,0.754 -0.13113,1.18018 v 0.36061 q 0.32783,1.44243 0.5573,2.45869 0.26227,1.01627 0.98348,1.67192 h 0.3934 q 0.49173,0 0.85234,-0.0984 0.3934,-0.13113 0.65566,-0.45896 -0.65566,-1.24574 -0.65566,-2.58983 0,-0.68843 0.16392,-1.14739 -0.13113,0.26226 -0.26226,0.55731 -0.0984,0.26226 -0.0656,0.49174 0.0328,0.26226 0.0328,0.39339 0,0.16391 -0.0983,0.22948 -0.22948,-0.26227 -0.22948,-0.62287 0,-0.32783 0.0983,-0.65566 0.13114,-0.32782 0.26227,-0.65565 l -0.26227,0.0656 q -0.22947,-0.22948 -0.42617,-0.22948 -0.22948,0 -0.49174,0.36061 -0.22948,0.36061 -0.32783,0.42618 l -0.0656,-0.0984 0.59009,-0.88514 q -0.22948,-0.32782 -0.42618,-0.72121 -0.19669,-0.42618 -0.36061,-0.81957 z m 2.52427,0.0656 q -0.16392,0.16391 0.0328,0.72122 0.13113,-0.0328 0.22948,-0.13113 0.0984,-0.13113 0.26226,-0.49174 -0.0656,-0.13113 -0.26226,-0.0983 -0.16392,0 -0.26226,0 z m -0.78679,0.85235 q -0.19669,0.0656 -0.16391,0.26226 0.0656,0.16391 0.16391,0.32783 0.26226,-0.0983 0.29505,-0.32783 -0.0328,-0.0984 -0.0984,-0.22948 -0.0328,-0.13113 -0.1967,-0.0328 z m 3.14714,5.08131 h 0.26226 q 0,-0.0656 0,-0.16392 -0.22948,-0.0656 -0.26226,0.16392 z m -2.13087,0.13113 0.0328,-0.16392 z m 2.22922,2.19644 q 0.0983,-0.55731 0.0983,-0.98348 -0.0328,-0.72122 -0.0328,-1.1474 -0.16391,0.59009 -0.16391,1.21296 0,0.52452 0.0984,0.91792 z m -2.4587,-2.03253 -0.0983,-0.0656 z m 0.78678,0.16391 q -0.0328,-0.13113 -0.13113,-0.0984 -0.0656,0.0328 -0.13113,0.0656 v 2.8521 q 0.0656,0 0.26226,-0.0328 z m 0.1967,0 q 0,0.32783 -0.0328,0.68844 0,0.32783 0,0.68844 0,0.78678 0.13113,1.34408 l 0.42618,-0.0656 q 0.42617,-0.0983 0.59009,-0.3606 0.19669,-0.26227 0.19669,-0.65566 0,-0.26226 -0.0983,-0.88513 -0.0983,-0.62287 -0.0328,-0.88513 z m -0.754,-0.0328 q 0,0.49174 -0.0328,0.98348 -0.0328,0.45896 -0.0656,0.91792 0,0.49174 0.0983,0.98348 0.19669,-0.9507 0.19669,-1.80305 l -0.0656,-1.08183 z m -1.04905,0.52453 q -0.1967,0.0984 -0.52452,0.0984 -0.29505,0 -0.39339,-0.22948 0,0.45896 0.0656,1.08183 0.0656,0.62287 0.13113,1.08182 l 1.44244,0.29505 q 0.0328,-0.1967 0.0656,-0.81957 0.0328,-0.65565 0.0328,-0.68843 v -1.21296 z m 0,-3.01601 0.45896,1.31131 q -0.13113,-0.0984 -0.26226,-0.42617 -0.0984,-0.32783 -0.1967,-0.62287 z m 1.508,-4.98296 q 0.0984,-0.29504 0.36061,-0.59009 0.26226,-0.29504 0.59009,-0.45895 -0.29504,0.19669 -0.55731,0.52452 -0.22947,0.32783 -0.39339,0.52452 z m 0.72122,0.13113 q 0.0656,-0.26226 0.45896,-0.45895 -0.0656,0.19669 -0.45896,0.45895 z" /></g></svg>
