<?xml version="1.0" encoding="UTF-8" standalone="no"?>
<!-- Created with Inkscape (http://www.inkscape.org/) -->

<svg
   version="1.1"
   id="svg1"
   xml:space="preserve"
   width="40.914143"
   height="55.185551"
   xmlns:inkscape="http://www.inkscape.org/namespaces/inkscape"
   xmlns:sodipodi="http://sodipodi.sourceforge.net/DTD/sodipodi-0.dtd"
   xmlns="http://www.w3.org/2000/svg"
   xmlns:svg="http://www.w3.org/2000/svg"><defs
     id="defs1" /><sodipodi:namedview
     id="namedview1"
     pagecolor="#ffffff"
     bordercolor="#000000"
     borderopacity="0.25"
     inkscape:showpageshadow="2"
     inkscape:pageopacity="0.0"
     inkscape:pagecheckerboard="0"
     inkscape:deskcolor="#d1d1d1" /><inkscape:clipboard
     min="635.55858,505.73702"
     max="676.47272,560.92257"
     geom-min="635.55858,505.73702"
     geom-max="676.47272,560.92257" /><g
     id="g5546"
     transform="matrix(4.1157778,0,0,4.1157778,-666.67581,-526.06833)"><path
       style="display:inline;opacity:1;fill:#ffb380;stroke-width:3.47075"
       d="m 635.08789,483.08984 c -0.49371,-0.003 -1.02535,0.0359 -1.58594,0.11524 -2.30494,0.3264 -2.79137,0.59292 -3.79101,2.08398 l -0.8086,1.20899 -2.16406,0.15429 c -1.9522,0.13928 -2.28262,0.25347 -3.4082,1.17578 -0.6858,0.56195 -1.4884,1.47004 -1.7832,2.01758 -0.39621,0.73573 -0.83846,1.08555 -1.69532,1.3418 -1.63695,0.48956 -2.47228,1.15713 -4.40429,3.52148 -1.95134,2.38806 -2.7234,4.33162 -3.11719,7.85157 -0.5681,5.07779 0.94484,13.21104 3.10351,16.68359 1.01549,1.63332 1.38007,4.08249 1.19336,8.03516 -0.0979,2.06354 -0.0366,2.78457 0.25782,3.02343 0.6003,0.48703 5.75052,2.61406 7.41601,3.0625 1.84811,0.49739 2.59692,0.5172 5.57031,0.14454 3.30142,-0.41398 5.23562,-1.20922 6.9375,-2.84961 l 1.42188,-1.3711 -0.19141,-1.95117 c -0.14593,-1.48116 -0.052,-2.60041 0.39063,-4.63281 0.50502,-2.31893 0.7122,-2.79555 1.53515,-3.5332 1.23927,-1.11077 5.77689,-6.48267 7.41993,-8.78516 2.0183,-2.82841 2.52182,-4.19265 2.31054,-6.25586 -0.0978,-0.95429 -0.4957,-2.88246 -0.88476,-4.28516 -0.6392,-2.30509 -0.68109,-2.75811 -0.41993,-4.70117 0.44663,-3.32296 -0.3342,-7.42241 -1.85546,-9.74414 -0.75444,-1.15139 -4.94727,-1.72665 -6.80664,-0.93359 -0.76479,0.32606 -0.89592,0.29721 -1.42188,-0.3125 -0.59374,-0.68723 -1.73762,-1.05658 -3.21875,-1.06446 z"
       transform="scale(0.26458333)"
       id="path910" /><path
       id="path893"
       style="font-style:normal;font-variant:normal;font-weight:normal;font-stretch:normal;font-size:medium;line-height:125%;font-family:Gallaudet;-inkscape-font-specification:Gallaudet;text-align:start;letter-spacing:0px;word-spacing:0px;text-anchor:start;display:inline;opacity:1;fill:#000000;fill-opacity:1;stroke:none;stroke-width:0.242967px;stroke-linecap:butt;stroke-linejoin:miter;stroke-opacity:1"
       d="m 167.20056,127.94497 q 0.13113,0 0.42618,-0.0328 0.29504,-0.0656 0.42617,-0.0656 0.36061,0 0.59009,0.0983 0.26226,0.0984 0.39339,0.42618 0.29505,-0.26226 0.85235,-0.26226 0.32783,0 0.62287,0.0983 0.32783,0.0656 0.45896,0.0984 0.62287,0.95069 0.62287,2.13087 0,0.59009 -0.13113,1.08182 0.26226,0.9507 0.36061,1.37688 0.0984,0.39339 0.0984,0.98348 -0.26227,0.754 -1.01627,1.67191 -0.754,0.88513 -1.40965,1.67192 -0.32783,0.13113 -0.45896,0.49173 -0.13113,0.65566 -0.26226,1.27853 l 0.0656,1.01626 q -0.49174,0.68844 -1.24574,0.9507 -0.754,0.22948 -1.77027,0.22948 -0.62287,0 -1.47522,-0.3934 -0.85234,-0.39339 -1.01626,-0.42617 l -0.13113,-0.16391 q 0,-0.29505 0,-0.59009 0,-0.32783 0.0328,-0.65565 0,-0.68844 -0.0983,-1.04905 -0.0656,-0.39339 -0.42618,-0.78678 -0.29504,-0.81957 -0.49174,-1.7047 -0.19669,-0.88513 -0.19669,-1.77026 0,-1.21296 0.45895,-2.22922 0.3934,-0.45896 0.78679,-0.9507 0.52452,-0.52452 1.11461,-0.52452 0.0656,-0.32783 0.32782,-0.59009 0.29505,-0.29504 0.49174,-0.42617 0.22948,-0.13113 0.52453,-0.13113 0.29504,0 0.42617,0 0.42617,0 0.52452,-0.36061 0.0983,-0.36061 0.52452,-0.49174 z m 0,0.1967 q -0.29504,0.13113 -0.39339,0.49174 -0.0656,0.32782 -0.0656,0.52452 0.22948,1.80305 0.45895,3.57331 l 0.13113,-0.0983 0.13114,0.29504 q 0.13113,0.0328 0.45895,0.0328 0.22948,0 0.36061,-0.13113 0.0328,-0.22948 -0.0983,-0.29504 -0.13113,-0.0656 -0.36061,-0.0656 -0.32782,0 -0.42617,-0.0984 0.1967,-0.1967 0.29504,-0.29505 0.68844,-0.13113 0.81957,0.32783 l 0.13113,-0.72122 q -0.13113,-0.26226 -0.42617,-0.26226 -0.45896,0.0984 -0.62287,0.0984 -0.16392,0 -0.26227,-0.19669 h 0.68844 q -0.42617,-0.62287 -0.68844,-1.01627 -0.22947,-0.39339 -0.22947,-0.52452 0,-0.22948 0.13113,-0.49174 0.16391,-0.26226 0.32782,-0.49174 0.26226,-0.26226 0.78679,-0.26226 0.19669,0 0.29504,0.0328 v -0.19669 q -0.0983,-0.16392 -0.26226,-0.22948 -0.16391,-0.0656 -0.36061,-0.0656 -0.13113,0 -0.42617,0.0328 -0.29505,0.0328 -0.3934,0.0328 z m 2.36035,0.16391 q -0.19669,0.0328 -0.29504,0.22948 -0.0983,0.1967 -0.0983,0.42617 0.32783,0.32783 1.01627,0.65566 0.72121,0.29504 0.95069,0.52452 0,-0.32783 -0.0328,-0.65565 0,-0.32783 -0.13113,-0.65566 -0.13113,-0.3606 -0.36061,-0.42617 -0.22948,-0.0984 -0.65565,-0.0984 z m -1.27852,0.52452 q -0.26226,0.0656 -0.39339,0.22948 -0.0983,0.16392 -0.1967,0.49174 0.59009,0.52452 1.37688,0.52452 0.0983,-0.0656 0.16391,-0.19669 -0.0328,-0.0328 -0.0328,-0.0656 -0.13113,0.0328 -0.22948,0.0656 0.13113,-0.1967 0.26226,-0.39339 -0.39339,-0.45896 -0.55731,-0.55731 -0.16391,-0.13113 -0.39339,-0.0984 z m -2.52426,0.13113 q -0.45896,0.13114 -0.754,0.36061 -0.29505,0.1967 -0.32783,0.55731 0.52452,0.72122 0.68844,1.63913 0.19669,0.88513 0.19669,2.06531 l 0.1967,0.19669 q 0.16391,-0.32782 0.36061,-0.68843 0.19669,-0.0984 0.39339,-0.0984 0.19669,0 0.36061,0.0984 0,-1.21296 -0.0983,-2.09809 -0.0656,-0.88513 -0.22948,-1.40966 -0.16391,-0.5573 -0.39339,-0.5573 -0.1967,-0.0328 -0.39339,-0.0656 z m 1.63913,0.68844 q 0,0.49174 0.39339,0.91791 0.42618,0.42618 0.68844,0.65566 0.29504,0.22948 0.754,0.26226 0.45896,0.0328 0.62287,0.22948 -0.0983,0.0656 -0.32783,0.0656 -0.26226,0 -0.36061,0.0656 -0.0656,0.13113 0.0656,0.32782 0.16391,0.16392 0.32782,0.32783 -0.0983,0.13113 -0.26226,0.0328 -0.13113,-0.0984 -0.22947,0 0,0.45896 0.13113,0.85235 0.16391,0.36061 0.49174,0.754 -0.36061,0 -0.55731,-0.42617 -0.1967,-0.42618 -0.29504,-0.72122 -0.68844,0 -1.27853,0.59008 -0.5573,0.59009 -1.08182,1.1474 -0.16392,0.29504 -0.16392,0.85235 0,0.26226 0.0328,0.52452 0.0328,0.22948 0.0656,0.45896 -0.26226,-0.16392 -0.49174,-0.36061 -0.0983,-0.29505 -0.0983,-0.754 0,-0.36061 0.13113,-0.52453 0,0.29505 0.0983,0.42618 0,-0.29505 0.0984,-0.55731 0.0983,-0.26226 0.1967,-0.52452 l -0.78679,-0.1967 q -0.0656,0.13113 -0.29504,0.1967 -0.1967,0.0656 -0.26226,0.13113 -0.55731,0.0984 -0.88513,-0.42617 -0.29505,-0.68844 -0.42618,-0.9507 -0.16391,-0.0656 -0.59009,-0.0656 -0.52452,0.0328 -0.754,0.0328 -0.0328,0.1967 -0.0328,0.52452 0,0.55731 0.0656,0.98348 0.0656,0.42618 0.19669,0.98348 0.13113,0.52452 0.32783,1.21296 0.22948,0.65565 0.52452,0.88513 0.32783,0.22948 0.62287,0.29504 0.29504,0.0656 0.55731,0.0656 0.22947,0 0.52452,-0.0328 0.29504,-0.0656 0.42617,-0.0984 0.13113,0 0.32783,-0.13113 0.22948,-0.13113 0.32783,-0.0656 -0.13114,0.26226 -0.16392,0.65566 0,0.39339 0.0328,0.45895 0.0656,-0.39339 0.0983,-0.65565 0.0656,-0.29504 0.29505,-0.49174 0.32782,-0.0984 0.39339,0.0656 l -0.1967,1.83583 q 0,0.78678 0.26226,1.21296 0.26226,0.0328 0.55731,-0.16392 0.29504,-0.22947 0.42617,-0.32782 -0.13113,-0.29505 -0.13113,-0.754 0,-0.22948 0.0656,-0.72122 0.0656,-0.49174 0.0656,-0.72122 -0.39339,-0.0656 -0.65565,-0.0656 -0.26226,-0.0328 -0.32783,-0.29504 0.13113,-0.0656 0.45896,0.0328 0.36061,0.0983 0.52452,0 -0.52452,0 -0.78678,-0.0656 -0.26226,-0.0984 -0.52452,-0.45896 -0.0328,-0.13113 -0.0328,-0.29504 0.26227,0.16391 0.52453,0.36061 0.26226,0.16391 0.78678,0.16391 0.32783,0 0.72122,-0.13113 0.39339,-0.16392 0.754,-0.36061 0.16391,-0.26226 1.18017,-1.40966 1.01627,-1.18017 1.1474,-1.96695 -0.0328,-0.0983 -0.29505,-1.24574 -0.26226,-1.1474 -0.45895,-1.63914 l -0.29505,0.29505 q -0.13113,0.0983 -0.32782,0.19669 -0.16392,0.0984 -0.29505,0.0984 -0.13113,0 -0.29504,-0.19669 0.19669,-0.29505 0.32782,-0.42618 0.16392,-0.13113 0.32783,-0.16391 l -0.49174,0.59009 q 0.49174,-0.22948 0.68844,-0.36061 0.19669,-0.16392 0.19669,-0.49174 l -1.14739,-0.55731 q -0.0328,0.0328 -0.1967,0.32783 -0.13113,0.26226 -0.32782,0.32783 -0.42618,0.0984 -0.88513,-0.0984 -0.42618,-0.1967 -0.72122,-0.52453 -0.0656,-0.42617 0.22948,-0.62287 -0.16392,0.0328 -0.32783,0.62287 z m -2.85209,0.52452 q -0.22948,-0.0656 -0.49174,0.0656 -0.22948,0.13113 -0.45896,0.26226 -0.0656,0.22948 -0.13113,0.45896 l -0.0983,-0.16391 q -0.26226,0.16391 -0.39339,0.32782 -0.13113,0.13113 -0.36061,0.52453 0.1967,0.16391 0.52453,0.22948 -0.13113,-0.1967 -0.22948,-0.42618 0.62287,0.1967 0.85235,0.85235 0.22948,0.65565 0.42617,1.21296 0.1967,0.5573 0.52452,0.5573 l 0.0328,-0.32782 q 0.0328,-0.0983 0.13113,-0.29505 0.13113,-0.22948 0.39339,-0.22948 0,-0.49174 -0.0656,-1.08182 -0.0328,-0.59009 -0.29504,-1.27853 z m -2.06531,1.73748 -0.13113,0.85235 1.24574,0.0328 q 0.0328,-0.42617 -0.36061,-0.62287 -0.39339,-0.13113 -0.754,-0.26226 z m 5.54027,0.36061 -0.22948,-0.0328 z m -1.77026,0.9507 q 0.19669,0.13113 0.36061,0 -0.0656,0 -0.1967,-0.0656 -0.13113,-0.0656 -0.16391,0.0656 z m 0.95069,0.0656 v 0.22948 l 0.1967,-0.0983 q -0.0984,-0.0656 -0.1967,-0.13113 z m -0.95069,0.13113 q -0.16392,-0.0328 -0.1967,0.16391 -0.0328,0.16392 -0.0656,0.1967 0.13113,0.0656 0.45895,0.0656 0.1967,0 0.3934,-0.0656 v -0.13113 q 0,-0.22948 -0.22948,-0.22948 -0.1967,0 -0.36061,0 z m -1.21296,0.1967 -0.0328,0.3606 q 0.29504,0.0656 0.29504,-0.32782 z m 1.04904,2.22922 -0.0328,-0.1967 0.0328,0.32783 z m 2.42592,2.262 0.13113,-0.36061 z m -2.68818,-0.16392 -0.32782,0.13113 z m 2.26201,2.06531 q 0,-0.45896 0.0656,-1.21296 0.0984,-0.754 0.0984,-0.85235 -0.1967,0.68844 -0.1967,1.50801 0,0.39339 0.0328,0.5573 z m -1.60635,-1.99974 q -0.29505,0.98348 -0.29505,2.03252 0,0.1967 0,0.3934 0.0656,0.26226 0.0656,0.39339 0.19669,-0.0328 0.42617,-0.0983 -0.22948,-0.39339 -0.22948,-1.11461 0,-0.29505 0,-0.59009 0,-0.32783 0.0328,-0.65565 z m -3.04879,0.0656 q 0.16391,1.08183 0.16391,2.09809 0.32783,0.0983 1.04905,0.39339 0.754,0.29504 1.18017,0.29504 v -2.65539 q -0.39339,0.1967 -0.68843,0.22948 -0.26226,0.0328 -1.14739,0.13113 -0.22948,0 -0.26227,-0.26226 -0.0328,-0.29505 -0.29504,-0.22948 z m 1.99974,0.0328 -0.16391,-0.0328 z m 3.016,0.62287 -0.0983,0.9507 z m 1.96696,-8.29401 0.16392,-0.16391 z m -4.49122,1.83583 0.754,0.0328 q -0.16391,0.19669 -0.45895,0.19669 -0.29505,0 -0.29505,-0.22947 z m 4.98296,-1.47522 q 0,0.1967 -0.29504,0.39339 -0.29504,0.1967 -0.32783,0.22948 -0.0328,-0.0328 -0.19669,-0.0328 0.26226,-0.0656 0.49174,-0.1967 0.22948,-0.16391 0.32782,-0.39339 z m -6.52374,1.96696 0.81956,-0.13113 q -0.0983,0.0983 -0.39339,0.13113 -0.26226,0.0328 -0.42617,0 z" /></g></svg>
