<?xml version="1.0" encoding="UTF-8" standalone="no"?>
<!-- Created with Inkscape (http://www.inkscape.org/) -->

<svg
   version="1.1"
   id="svg1"
   xml:space="preserve"
   width="38.967354"
   height="56.281429"
   xmlns:inkscape="http://www.inkscape.org/namespaces/inkscape"
   xmlns:sodipodi="http://sodipodi.sourceforge.net/DTD/sodipodi-0.dtd"
   xmlns="http://www.w3.org/2000/svg"
   xmlns:svg="http://www.w3.org/2000/svg"><defs
     id="defs1" /><sodipodi:namedview
     id="namedview1"
     pagecolor="#ffffff"
     bordercolor="#000000"
     borderopacity="0.25"
     inkscape:showpageshadow="2"
     inkscape:pageopacity="0.0"
     inkscape:pagecheckerboard="0"
     inkscape:deskcolor="#d1d1d1" /><inkscape:clipboard
     min="81.517855,728.97314"
     max="120.48521,785.25457"
     geom-min="81.517855,728.97314"
     geom-max="120.48521,785.25457" /><g
     id="g5553"
     transform="matrix(4.1157778,0,0,4.1157778,-112.63508,-749.30445)"><path
       style="display:inline;opacity:1;fill:#ffb380;stroke-width:3.47075"
       d="m 130.77539,688.08789 c -1.43866,0 -2.36644,0.46046 -3.30859,1.64258 l -0.53321,0.66797 -0.75976,-0.73047 c -0.82404,-0.78932 -1.73506,-0.89374 -3.98828,-0.45899 -1.27268,0.24556 -2.06877,0.93393 -3.94922,3.41602 -0.36921,0.48733 -1.53758,1.32165 -2.59766,1.85547 -1.06007,0.53386 -2.16798,1.27615 -2.46094,1.64844 -0.29295,0.37243 -1.2336,0.90869 -2.08984,1.1914 -1.2261,0.40517 -1.98019,0.94332 -3.55273,2.53125 -2.70514,2.73158 -3.92343,5.15602 -4.07227,8.10352 -0.1788,3.54058 0.45797,8.5972 1.57617,12.50976 1.16288,4.06889 1.64963,5.28738 2.89063,7.24219 1.05689,1.66473 1.07468,2.02886 0.28711,5.55274 -0.49954,2.23502 -0.5485,2.90181 -0.28711,3.85546 l 0.3164,1.1543 3.19922,0.5293 c 1.76011,0.29106 3.51948,0.63195 3.91016,0.75781 1.42308,0.45853 6.26729,0.0587 8.94531,-0.73828 1.40308,-0.41756 2.61773,-0.82694 2.69922,-0.9082 0.0815,-0.0813 0.1929,-1.88914 0.24805,-4.01758 l 0.0996,-3.86914 1.95117,-2.11719 c 1.1285,-1.22472 2.42135,-3.02652 3.06836,-4.27539 1.46501,-2.82777 3.8767,-8.63456 4.46484,-10.75 l 0.4668,-1.67578 -1.02735,-3.75781 c -1.15198,-4.21694 -1.16556,-4.2999 -0.67187,-4.30274 0.19534,-7.5e-4 0.69943,-0.28793 1.11914,-0.63867 0.85846,-0.71758 2.50863,-5.04857 2.49805,-6.55664 -0.003,-0.49546 -0.42359,-1.91939 -0.9336,-3.16406 -1.02824,-2.50935 -1.83985,-3.23446 -3.75586,-3.35352 -0.66551,-0.0413 -1.32532,-0.31004 -1.72851,-0.70508 -0.49443,-0.48431 -0.9851,-0.63867 -2.02344,-0.63867 z"
       transform="scale(0.26458333)"
       id="path894" /><path
       id="path895"
       style="font-style:normal;font-variant:normal;font-weight:normal;font-stretch:normal;font-size:medium;line-height:125%;font-family:Gallaudet;-inkscape-font-specification:Gallaudet;text-align:start;letter-spacing:0px;word-spacing:0px;text-anchor:start;display:inline;opacity:1;fill:#000000;fill-opacity:1;stroke:none;stroke-width:0.242967px;stroke-linecap:butt;stroke-linejoin:miter;stroke-opacity:1"
       d="m 33.600543,182.782 q 0.32782,-0.72122 1.04904,-0.72122 0.39339,0 0.62287,0.39339 0.1967,-0.0656 0.45896,0 0.29504,0.0656 0.52452,0.1967 0.1967,0.36061 0.36061,0.78678 0.1967,0.39339 0.1967,0.754 0,0.22948 -0.1967,0.754 -0.16391,0.52452 -0.29504,0.754 -0.13113,0.1967 -0.59009,0.39339 0.26226,1.01627 0.5573,2.03253 0,0.26226 -0.32782,1.14739 -0.32783,0.85235 -0.81957,1.93418 -0.49174,1.04904 -1.44243,1.83582 -0.0328,0.1967 -0.0328,0.59009 v 0.59009 q 0,0.52452 -0.0984,1.01626 -0.45895,0.16391 -1.11461,0.32783 -0.65565,0.16391 -1.14739,0.16391 -0.5573,0 -0.95069,-0.13113 l -1.67192,-0.29504 q -0.13113,-0.26226 -0.13113,-0.59009 0,-0.29504 0.13113,-0.81957 0.16391,-0.52452 0.16391,-0.68843 0,-0.36061 -0.29504,-0.754 -0.29504,-0.3934 -0.5573,-1.24574 -0.26227,-0.85235 -0.3934,-1.31131 -0.13113,-1.08183 -0.22948,-2.16365 0,-0.52453 0.0656,-0.85235 0.0983,-0.36061 0.39339,-0.88513 0.29505,-0.55731 0.78679,-0.98348 0.49174,-0.45896 1.21295,-0.59009 0.0984,-0.36061 0.754,-0.62287 0.65566,-0.29505 0.81957,-0.55731 0.13113,-0.32782 0.32783,-0.52452 0.19669,-0.22948 0.39339,-0.29504 0.19669,-0.0656 0.49174,-0.0656 0.29504,0 0.62287,0 z m 0.45895,-0.22948 q -0.19669,0.22948 -0.26226,0.59009 -0.0656,0.3606 -0.0656,0.42617 0,0.42617 0.0656,0.81957 0.0656,0.36061 0.16392,0.754 0.29504,0.36061 0.5573,0.19669 -0.0328,-0.26226 0.0328,-0.68843 0.0656,-0.42618 0.13113,-0.81957 0.0656,-0.16391 0,-0.49174 -0.0656,-0.32782 -0.0656,-0.42617 0,-0.29505 0.32783,-0.45896 -0.16392,-0.16391 -0.3934,-0.16391 -0.32782,0 -0.49174,0.26226 z m -0.98347,0.0656 q -0.42618,0 -0.72122,0.0983 -0.29505,0.0656 -0.55731,0.29504 0,0.62287 0.32783,1.83583 0.36061,1.18018 0.36061,1.73748 0,0.1967 -0.0656,0.65565 l 0.36061,-0.49174 q 0.16391,-0.16391 0.39339,0 0.26226,0.13113 0.39339,0.0328 v -0.78678 q -0.16391,0 -0.19669,0.0328 -0.29504,0.0328 -0.45896,0.0328 -0.29504,0 -0.32782,-0.1967 0.42617,0 0.65565,-0.0328 0.26226,-0.0656 0.45896,-0.29504 -0.0983,-0.45896 -0.1967,-1.31131 -0.0984,-0.88513 -0.1967,-1.3113 z m 2.32756,0.0983 q -0.16391,0.0656 -0.22948,0.36061 h 0.1967 q 0.0656,-0.13113 0.32783,-0.13113 0.0983,0 0.19669,0 0.13113,0.0656 0.16392,0.0656 -0.0656,-0.1967 -0.36061,-0.22948 -0.26226,-0.0328 -0.29505,-0.0656 z m -0.22948,0.52452 -0.22947,0.88513 q -0.0656,0.45896 -0.13113,0.88513 0,0.45896 0.3606,0.59009 0.49174,0.0984 0.59009,0.0984 0.1967,0 0.22948,-0.16391 -0.36061,-0.0983 -0.78678,-0.22948 -0.39339,-0.13113 -0.32783,-0.49174 0.22948,-0.36061 0.36061,-0.55731 0.16391,-0.19669 0.49174,-0.0984 0.26226,0 0.36061,0.1967 0.13113,0.1967 0.22948,0.55731 0.0983,-0.42618 0.19669,-0.88514 0,-0.19669 -0.0983,-0.39339 -0.19669,-0.19669 -0.5573,-0.26226 -0.36061,-0.0656 -0.68844,-0.13113 z m -3.73722,0.52452 q -0.59008,0.1967 -0.98348,0.36061 -0.39339,0.13113 -0.39339,0.62287 0.68844,0.68844 0.85235,1.73748 0.0656,1.31131 0.13113,1.9014 0.0656,-0.22948 0.0983,-0.3934 0.0656,-0.16391 0.26226,-0.22947 0.42617,-0.32783 0.754,0.19669 v -1.21296 q -0.36061,0.13113 -0.72122,0.22948 -0.16391,0 -0.29504,-0.13113 0.0984,-0.0656 0.49174,-0.16391 0.39339,-0.0983 0.49174,-0.22948 0,-0.55731 -0.13113,-1.14739 -0.13113,-0.59009 -0.55731,-1.54079 z m 3.90114,0.72122 q -0.13113,0.1967 -0.1967,0.36061 -0.0656,0.16391 0.0984,0.22948 0.65565,0.16391 0.78678,0.0656 0.16392,-0.36061 -0.13113,-0.45896 -0.29504,-0.0984 -0.5573,-0.19669 z m -5.73697,0.26226 q -0.59008,0.16392 -1.01626,0.62287 -0.42617,0.45896 -0.5573,1.01626 l 0.5573,0.1967 q -0.13113,-0.16391 -0.13113,-0.45896 0,-0.19669 0.13113,-0.29504 0.0983,0.0328 0.0983,0.22948 0,0.19669 0.16391,0.36061 0.1967,0.16391 0.49174,0.91791 0.32783,0.72122 0.59009,0.98348 l 0.16391,-0.49174 q 0.0984,-0.32783 0.52453,-0.26226 0.0656,-0.1967 0.0656,-0.39339 0,-0.1967 -0.13113,-0.22948 -0.16391,0.1967 -0.45896,0.1967 -0.26226,0 -0.52452,-0.0984 0.0656,-0.0984 0.39339,-0.13114 0.36061,-0.0328 0.45896,-0.13113 0.22948,-0.0328 0.22948,-0.22947 0,-0.13113 -0.0983,-0.26227 -0.0656,-0.13113 -0.19669,-0.3606 -0.0983,-0.22948 -0.22948,-0.59009 -0.22948,-0.39339 -0.52453,-0.59009 z m 4.45844,0.85235 q -0.19669,0.29504 -0.19669,0.55731 0,0.39339 0.42617,0.78678 0.42618,0.39339 0.81957,0.754 0.26226,0.52452 0.52452,1.04904 -0.16391,-0.42617 -0.65565,-0.754 -0.45896,-0.36061 -1.01626,-0.81956 -0.36061,-0.0328 -0.72122,0.32782 -0.32783,0.32783 -0.62287,0.65566 -0.85235,0.49174 -1.08183,1.34409 -0.1967,0.81956 -0.1967,2.09808 -0.26226,-0.39339 -0.26226,-0.95069 0,-0.29505 0.0656,-0.72122 0.0984,-0.42617 0.13113,-0.59009 -0.22948,0.49174 -0.32783,0.65566 -0.0983,0.13113 -0.16391,0.42617 -0.0328,0.26226 -0.0984,0.36061 -0.0983,-0.39339 0.0328,-0.754 0.16392,-0.36061 0.52453,-1.01626 -0.1967,-0.22948 -0.65566,-0.22948 -0.39339,0 -0.62287,-0.0328 -0.32782,-0.13113 -0.52452,-0.49174 -0.16391,-0.36061 -0.32782,-0.68844 -0.3934,0 -0.85235,0.0328 -0.42618,0 -0.65566,0.22948 l 0.26226,1.90139 q 0.29505,1.18018 0.59009,1.96696 0.29505,0.78679 1.21296,0.98348 0.36061,0.0328 0.68844,-0.0328 0.42617,-0.16391 0.59008,-0.22948 0.16392,0.0656 0.36061,-0.0328 0.1967,-0.13113 0.29505,-0.0328 0,0.55731 -0.0328,1.08183 0,0.49174 0,0.98348 0,0.59009 0.0328,0.9507 0.36061,0.0656 0.91791,-0.1967 -0.0328,-0.29504 0.0328,-0.9507 0.0984,-0.65565 0.0984,-0.754 0,-0.26226 -0.0328,-0.39339 -0.32783,0.0328 -0.65565,0.0656 l -0.13114,1.24574 -0.0983,-1.57357 q 0.0656,-0.0983 0,-0.26226 -0.0328,-0.19669 -0.0983,-0.45895 0.42617,0.22948 0.88513,0.32782 0.45896,0.0983 0.91791,0.0656 0.72122,-0.36061 1.31131,-1.44243 0.59009,-1.31131 0.88513,-1.9014 0.0328,-0.26226 0.0328,-0.39339 0.0328,-0.16391 0.22948,-0.1967 0.0328,-0.13113 0.0328,-0.32782 0,-0.36061 -0.26227,-1.08183 -0.26226,-0.72122 -0.26226,-1.11461 -0.13113,-0.0328 -0.59008,-0.29504 -0.45896,-0.26226 -0.75401,-0.13113 z m -6.29426,0.98348 q -0.0656,0.1967 -0.13113,0.45896 -0.0656,0.26226 -0.0328,0.45895 l 1.44244,-0.26226 q -0.55731,-0.52452 -1.27852,-0.65565 z m 4.98296,0.52452 -0.0984,0.42618 q 0.36061,-0.13113 0.45896,-0.39339 -0.1967,0 -0.36061,-0.0328 z m -2.262,0.65566 -0.0656,-0.0656 z m 1.14739,0.19669 0.19669,-0.0328 q -0.0656,-0.0328 -0.13113,0 -0.0656,0.0328 -0.0656,0.0328 z m -0.9507,0.0656 h -0.42617 l -0.0328,0.26226 h 0.45895 z m 0.78679,0.0656 q -0.29505,0 -0.1967,0.42618 0.13113,-0.0328 0.45896,0.0656 0.0656,-0.0328 0.13113,-0.3934 -0.0328,-0.0656 -0.1967,-0.0656 -0.13113,0 -0.19669,-0.0328 z m -0.32783,4.65514 v -0.13113 z m 1.11461,0.0328 -0.22948,-0.16392 -0.0328,0.13113 z m -1.40965,0 q -0.36061,0.26226 -0.91792,0.26226 -0.22948,0 -0.62287,-0.0656 0.22948,0.13113 0.52452,0.13113 0.1967,0 0.52453,-0.0656 0.32782,-0.0984 0.49174,-0.0984 z m 0.49173,0.29504 q -0.29504,1.08183 -0.29504,2.29479 l 0.22948,0.0656 z m 1.57357,0.0656 q 0,0.22948 -0.0983,0.68844 -0.0983,0.45895 -0.0983,0.72121 0,0.22948 0.0983,0.49174 0,-0.16391 0.0656,-0.68843 0.0656,-0.52452 0.0656,-0.78679 0,-0.29504 -0.0328,-0.42617 z m -3.70444,0.16391 q -0.0656,0.3934 -0.13113,0.81957 -0.0656,0.39339 -0.0656,0.45896 0,0.26226 0.0328,0.39339 0.754,0.13113 1.508,0.26226 0,-0.39339 0.13113,-1.04905 0.13113,-0.65565 0.13113,-0.98347 -0.49174,0.13113 -1.11461,0.13113 -0.32782,0 -0.49174,-0.0328 z m 1.83583,0.1967 0.0328,-0.1967 z m 2.13087,0.16391 q -0.0656,0.45896 -0.13113,0.88513 0,0.1967 0.0983,0.36061 0.0656,-0.16391 0.0656,-0.49174 -0.0328,-0.52452 -0.0328,-0.754 z m -2.22922,0.39339 0.0328,-0.3606 z" /></g></svg>
