<?xml version="1.0" encoding="UTF-8" standalone="no"?>
<!-- Created with Inkscape (http://www.inkscape.org/) -->

<svg
   version="1.1"
   id="svg1"
   xml:space="preserve"
   width="36.872364"
   height="90.22805"
   xmlns:inkscape="http://www.inkscape.org/namespaces/inkscape"
   xmlns:sodipodi="http://sodipodi.sourceforge.net/DTD/sodipodi-0.dtd"
   xmlns="http://www.w3.org/2000/svg"
   xmlns:svg="http://www.w3.org/2000/svg"><defs
     id="defs1" /><sodipodi:namedview
     id="namedview1"
     pagecolor="#ffffff"
     bordercolor="#000000"
     borderopacity="0.25"
     inkscape:showpageshadow="2"
     inkscape:pageopacity="0.0"
     inkscape:pagecheckerboard="0"
     inkscape:deskcolor="#d1d1d1" /><inkscape:clipboard
     min="170.32812,695.94337"
     max="207.20048,786.17142"
     geom-min="170.32812,695.94337"
     geom-max="207.20048,786.17142" /><g
     id="g5560"
     transform="matrix(4.1157778,0,0,4.1157778,-201.44534,-716.27468)"><path
       style="display:inline;opacity:1;fill:#ffb380;stroke-width:3.47075"
       d="m 209.64062,657.76562 c -0.65161,0.0589 -1.2214,0.40717 -1.89648,1.09766 -0.98789,1.01046 -1.49425,2.38316 -2.1875,5.92578 -0.25994,1.32828 -0.96354,3.57083 -1.5625,4.98438 -0.62507,1.47511 -1.65122,4.92493 -2.41016,8.09765 -0.72724,3.04018 -1.3651,5.6687 -1.41601,5.8418 -0.0509,0.17329 -0.49679,0.39707 -0.99219,0.49609 -1.79087,0.35815 -2.40348,1.12846 -5.09375,6.42188 -1.42714,2.80807 -2.87576,5.30259 -3.21875,5.54297 -0.34299,0.24026 -0.95603,0.4375 -1.36328,0.4375 -1.10006,0 -3.25785,1.55572 -3.85156,2.77734 -0.67901,1.3971 -0.83345,4.53836 -0.39063,7.97071 0.19497,1.51105 0.37627,4.28099 0.40235,6.15624 0.0461,3.28903 0.10073,3.56789 1.52539,7.86329 1.88931,5.69639 1.96233,7.21738 0.48242,10.05664 -1.43335,2.74991 -1.35776,3.32306 0.70312,5.2539 1.94382,1.82121 3.80244,2.91215 6.00391,3.52735 2.50744,0.70076 8.01001,0.4401 11.11328,-0.52735 1.36321,-0.425 2.54961,-0.88548 2.63477,-1.02343 0.0851,-0.13777 0.53246,-2.1151 0.99414,-4.39454 1.15242,-5.68989 1.88756,-7.65614 3.48047,-9.29101 1.30663,-1.34105 1.753,-2.15491 4.63476,-8.4668 l 1.61524,-3.53906 -0.15039,-2.99609 c -0.11025,-2.18623 -0.43045,-4.03398 -1.1836,-6.83204 -1.62471,-6.03609 -1.63397,-6.26948 -0.54297,-14.06445 0.52494,-3.7505 0.95451,-7.8166 0.95508,-9.03515 6.5e-4,-1.2186 0.20757,-3.96813 0.45899,-6.10938 0.48254,-4.10993 0.40143,-7.36964 -0.23047,-9.28711 -0.42311,-1.28394 -1.938,-2.4746 -3.06055,-2.4043 -1.27123,0.0794 -1.3755,0.003 -1.57227,-1.16211 -0.24301,-1.43833 -1.281,-2.69433 -2.58007,-3.12304 -0.48989,-0.16168 -0.90982,-0.23068 -1.30079,-0.19532 z"
       transform="scale(0.26458333)"
       id="path906" /><path
       id="path897"
       style="font-style:normal;font-variant:normal;font-weight:normal;font-stretch:normal;font-size:medium;line-height:125%;font-family:Gallaudet;-inkscape-font-specification:Gallaudet;text-align:start;letter-spacing:0px;word-spacing:0px;text-anchor:start;display:inline;opacity:1;fill:#000000;fill-opacity:1;stroke:none;stroke-width:0.242967px;stroke-linecap:butt;stroke-linejoin:miter;stroke-opacity:1"
       d="m 55.468289,174.05411 q 0.59009,0 0.98348,0.65565 0.0328,0.26226 0.0328,0.42617 0.0328,0.16392 0.26227,0.16392 0.22947,-0.0656 0.42617,0 0.1967,0.0656 0.45896,0.32782 0.22948,0.68844 0.22948,1.44244 0,0.49174 -0.13114,1.47522 -0.13113,0.98348 -0.13113,1.508 0,0.32783 0.0328,0.49174 -0.26226,1.77026 -0.49174,3.54053 0,0.39339 0.0656,0.754 0.0983,0.32782 0.39339,1.47522 0.29505,1.11461 0.29505,1.67191 0,0.45896 -0.0328,0.65565 -0.0328,0.16392 -0.1967,0.45896 -0.16391,0.29504 -0.65565,1.44244 -0.45896,1.14739 -1.08183,1.54078 -0.26226,0.59009 -0.45896,1.37687 -0.16391,0.78679 -0.39339,1.93418 -0.0983,0.13113 -0.29504,0.16391 -0.1967,0.0328 -0.754,0.22948 -0.52453,0.16391 -1.47522,0.16391 -0.65566,0 -1.24574,-0.16391 -0.55731,-0.16391 -0.98348,-0.49174 -0.42618,-0.36061 -0.68844,-0.59009 -0.22948,-0.22948 -0.22948,-0.52452 0,-0.22948 0.16392,-0.39339 0.42617,-0.59009 0.42617,-1.27852 0,-0.49174 -0.42617,-1.63914 -0.42618,-1.18017 -0.42618,-1.67191 0,-0.32783 0.0328,-0.49174 0.0328,-0.36061 -0.0983,-1.37687 -0.13113,-1.04905 -0.13113,-1.21296 0,-0.62287 0.19669,-1.04904 0.22948,-0.42618 0.81957,-0.68844 0.59009,0.0656 0.85235,-0.49174 0.29504,-0.5573 0.5573,-1.14739 0.29505,-0.59009 0.62287,-1.14739 0.32783,-0.55731 0.98348,-0.55731 0.32783,-1.44244 0.55731,-2.36035 0.22947,-0.9507 0.49174,-1.47522 0.29504,-0.52452 0.49174,-1.73748 0.19669,-1.21296 0.95069,-1.40965 z m -0.45896,0.45895 q 0,0.52453 -0.26226,1.47522 -0.26226,0.91792 -0.26226,1.08183 0.32783,0.0328 0.65566,0.0656 0.3606,0.0328 0.62287,0.1967 0.49174,-0.91792 0.49174,-1.93418 0,-0.39339 -0.0984,-0.754 -0.26226,-0.26226 -0.65566,-0.26226 -0.26226,0 -0.49174,0.13113 z m 1.50801,1.21296 q 0,0.42618 -0.26226,1.18018 -0.26227,0.754 -0.26227,1.18017 l 1.44244,0.0328 q 0.0656,-0.36061 0.0656,-0.95069 -0.0328,-0.78679 -0.0328,-1.21296 -0.16391,-0.32783 -0.62287,-0.32783 -0.16391,0 -0.32782,0.0983 z m -1.93418,1.63913 q -0.39339,0.22948 -0.62287,0.81957 -0.1967,0.72122 -0.26226,1.04905 0.26226,-0.0656 0.39339,-0.0656 0.22948,0 0.65565,0.19669 0.45896,0.16391 0.59009,0.1967 l 0.39339,-1.9014 q -0.16391,-0.19669 -0.42617,-0.22947 -0.22948,-0.0656 -0.72122,-0.0656 z m 1.47522,0.98348 q -0.26226,0.26226 -0.32783,0.85235 -0.0328,0.55731 -0.0656,0.81957 0.81956,0.0656 1.63913,0.13113 l 0.0656,-1.57357 q -0.26227,-0.22948 -0.98348,-0.22948 z m -1.37687,1.21296 -0.45896,-0.0984 z m -1.08183,0 -0.29504,1.37687 q 0.32782,0.0328 0.59009,0.29505 0.26226,0.26226 0.39339,0.62287 0.36061,0.16391 0.52452,-0.0328 0.0984,-0.45896 0.22948,-1.08183 0.16391,-0.65565 0.16391,-0.78678 z m 1.96696,0.78678 q -0.16391,0.36061 -0.26226,0.88514 -0.0656,0.49174 -0.0656,0.68843 0.29505,0.29505 0.91792,0.59009 0.62287,0.29504 0.754,0.39339 0.26226,-1.14739 0.26226,-2.19644 -0.42617,-0.0656 -0.72122,-0.0984 -0.26226,-0.0656 -0.88513,-0.26226 z m -2.13087,0.98348 q -0.754,0 -1.04905,0.16392 -0.29504,0.13113 -0.39339,0.49174 0.1967,0.0328 0.1967,0.29504 -0.0328,0.26226 -0.0328,0.49174 0.36061,0.68844 0.78679,1.44244 0.45896,0.754 0.5573,1.3113 0.13113,0.55731 0.1967,0.88513 0.0656,0.32783 0.39339,0.55731 0.22948,0.22948 0.65565,-0.0656 -0.32782,0 -0.52452,-0.16391 -0.0328,-0.32783 -0.0983,-0.81957 -0.0656,-0.49174 -0.42617,-0.91791 -0.1967,0.0328 -0.32783,-0.13113 0.16392,-0.16392 0.22948,-0.49174 0.0983,-0.36061 0.22948,-0.81957 0.36061,-0.1967 0.36061,-0.65565 0,-0.26226 -0.0984,-0.55731 -0.0984,-0.29504 -0.19669,-0.5573 z m 1.04904,0.98348 0.0328,0.45896 q 0.42617,0.0984 1.11461,0.78678 0.72121,0.68844 1.14739,0.81957 l 0.0656,-0.91791 q -0.42617,-0.49174 -1.04904,-0.78679 -0.62287,-0.29504 -1.31131,-0.36061 z m -2.62261,0.0328 -0.62287,1.37687 q 0.13113,-0.0656 0.45896,-0.16391 0.32782,-0.0984 0.42617,-0.19669 -0.29504,-0.16392 -0.29504,-0.52453 0.0328,-0.32782 0.0328,-0.49174 z m 2.98322,0.98348 q -0.42617,0.32783 -0.32782,0.55731 -0.0656,0.22948 0.13113,0.39339 0.19669,0.16391 0.26226,0.22948 0.26226,0.13113 0.36061,-0.0656 0.0983,-0.22948 0.19669,-0.42618 -0.22948,-0.36061 -0.36061,-0.52452 -0.13113,-0.16391 -0.26226,-0.16391 z m -0.88513,1.08183 q 0,0.52452 0.29504,0.91791 0.45896,0.49174 0.65566,0.72122 0.49174,0.0984 0.85235,0.81957 0.3606,0.72122 0.81956,0.81956 -0.26226,0.0656 -0.42617,0.0984 0.0984,0.26227 0.49174,0.59009 0.42617,0.29505 0.45895,0.49174 -0.42617,-0.22948 -0.754,-0.39339 -0.32782,-0.1967 -0.49174,-0.42617 l 0.36061,0.49174 -0.0656,0.0984 q -0.42618,-0.0984 -0.65566,-0.45896 -0.19669,-0.39339 -0.3606,-0.9507 -0.72122,0.0984 -1.08183,0.59009 -0.32783,0.45896 -0.39339,0.78678 -0.0656,0.29505 -0.0656,0.65566 0,0.39339 0.0656,0.85234 0.0656,0.42618 0.22948,1.04905 -0.16392,-0.0328 -0.29505,-0.26226 -0.13113,-0.22948 -0.16391,-0.26226 0,0.22947 0,0.45895 l -0.13113,-0.0328 q -0.1967,-0.68843 -0.1967,-1.24574 0,-0.32782 0.0328,-0.754 0.0656,-0.42617 0.0984,-0.65565 -0.29504,-0.0656 -0.49174,-0.0328 -0.19669,0.42617 -0.29504,0.91791 -0.0656,0.49174 -0.13113,1.1474 -0.16392,-0.26226 -0.16392,-0.59009 0,-0.26226 0.16392,-0.81957 0.16391,-0.5573 0.16391,-0.81956 -0.19669,0.22948 -0.59009,0.88513 -0.36061,0.62287 -0.45895,0.754 0.0328,-0.42618 0.39339,-1.14739 0.39339,-0.72122 0.45896,-0.9507 l -0.29505,-0.59009 q -0.16391,-0.62287 -0.65565,-0.62287 -0.88513,0.16391 -1.73748,0.29505 0.81956,-0.29505 1.63913,-0.59009 l -0.0328,-0.13113 q -0.59009,-0.1967 -0.98348,-0.32783 -0.36061,-0.13113 -0.59009,-0.42617 l 0.0983,-0.0984 q 0.72122,0.32782 1.27852,0.26226 -0.0984,-0.29505 -0.0984,-0.45896 0,-0.16391 0.16392,-0.1967 0.22948,0.59009 0.45895,1.08183 0.26227,0.45896 0.62287,0.62287 0.0328,0.42618 0.26227,0.754 0.26226,0.32783 0.754,0.78679 0.0983,-0.0656 0.22948,-0.16392 -0.1967,-0.32782 -0.0328,-0.52452 0.16392,-0.19669 0.16392,-0.49174 0,-0.26226 -0.0984,-0.45896 -0.0656,-0.22947 -0.22948,-0.68843 -0.16391,-0.45896 -0.32783,-1.04905 -0.26226,-0.68843 -0.68843,-0.98348 -0.32783,0 -0.49174,0.1967 -0.13113,0.16391 -0.39339,0.65565 -0.0984,-0.0328 -0.0984,-0.13113 0,-0.13113 0,-0.26226 -0.78679,0.22948 -1.37687,0.65565 -0.59009,0.42618 -0.65566,1.11461 0.0656,0.29505 0.32783,2.68818 0.29504,2.39313 0.9507,3.44218 0.19669,0.16391 0.52452,0.22948 0.32783,0.0656 0.65565,0.0656 0.59009,-0.0328 0.85235,-0.0328 0.0656,-0.0328 0.29505,-0.22948 0.22947,-0.22948 0.42617,-0.26226 0.0656,0.52452 -0.0984,0.91791 0,-0.16391 0.1967,-0.5573 0.22948,-0.39339 0.22948,-0.49174 0,-0.1967 -0.22948,-0.39339 0.16391,-0.16392 0.19669,-0.13114 0.62287,0.49174 1.57357,0.49174 0.39339,0 0.59009,-0.0328 0.22948,-0.0656 0.39339,-0.22947 0.16391,-0.16392 0.45896,-0.754 0.42617,-0.68844 0.754,-1.57357 0.32782,-0.88513 0.32782,-1.60635 0,-0.91791 -0.5573,-1.67192 l -0.42618,0.49174 q -0.45895,0.1967 -0.62287,0.0328 l 0.22948,-0.32782 q -0.0328,-0.22948 0.22948,-0.59009 0.29505,-0.36061 0.32783,-0.42617 -0.0656,-0.1967 -0.32783,-0.36061 -0.26226,-0.1967 -0.39339,-0.32783 -0.16391,-0.0328 -0.32783,0.16391 -0.13113,0.1967 -0.26226,0.36061 -0.32782,0.16392 -0.62287,-0.0656 -0.29504,-0.26226 -0.5573,-0.52452 -0.0656,-0.1967 -0.0656,-0.36061 0,-0.29504 0.1967,-0.5573 -0.16392,0.16391 -0.29505,0.52452 -0.13113,0.36061 -0.16391,0.52452 z m 2.75374,1.08183 q -0.36061,0.26226 -0.26226,0.42617 z m -2.22922,0.81956 q 0,0.16392 0.0983,0.29505 0.0984,0.0984 0.22948,-0.0328 z m -0.88513,1.11461 q 0.0328,0.1967 0.0983,0.36061 0.22948,-0.22948 0.1967,-0.29504 0.0328,-0.16391 -0.0656,-0.13113 -0.0984,0 -0.22948,0.0656 z m 1.08183,4.78627 -0.16391,-0.0656 z m -1.11461,0 q -0.29505,0.81957 -0.59009,1.67191 -0.29504,0.81957 -0.36061,1.54079 l 0.42618,0.0328 q 0,-0.68844 0.22947,-1.83583 0.26227,-1.18018 0.29505,-1.40965 z m 0.36061,0.1967 q -0.29505,1.508 -0.59009,3.016 0.26226,-0.0656 0.42617,-0.0984 0.1967,-0.0328 0.26227,-0.16391 l 0.59008,-2.55705 q -0.36061,-0.0984 -0.68843,-0.1967 z m 1.08182,0.13113 q -0.29504,0.72121 -0.49173,1.37687 -0.1967,0.62287 -0.1967,1.21295 h 0.13113 q 0.0656,-0.5573 0.29504,-1.44243 0.22948,-0.91792 0.26226,-1.14739 z m -4.58957,0.22947 -0.49173,1.54079 q 0.52452,0.52452 1.04904,0.81956 0.52452,0.29505 1.14739,0.29505 l 0.65566,-2.6554 q -0.78679,0.16392 -1.57357,0.32783 -0.45896,0 -0.78679,-0.32783 z m 2.16366,-6.35983 q 0.22948,-0.32783 0.62287,-0.22948 -0.0328,0.13113 -0.22948,0.1967 -0.16391,0.0656 -0.32783,0.13113 z" /></g></svg>
