<?xml version="1.0" encoding="UTF-8" standalone="no"?>
<!-- Created with Inkscape (http://www.inkscape.org/) -->

<svg
   version="1.1"
   id="svg1"
   xml:space="preserve"
   width="37.564072"
   height="89.101616"
   xmlns:inkscape="http://www.inkscape.org/namespaces/inkscape"
   xmlns:sodipodi="http://sodipodi.sourceforge.net/DTD/sodipodi-0.dtd"
   xmlns="http://www.w3.org/2000/svg"
   xmlns:svg="http://www.w3.org/2000/svg"><defs
     id="defs1" /><sodipodi:namedview
     id="namedview1"
     pagecolor="#ffffff"
     bordercolor="#000000"
     borderopacity="0.25"
     inkscape:showpageshadow="2"
     inkscape:pageopacity="0.0"
     inkscape:pagecheckerboard="0"
     inkscape:deskcolor="#d1d1d1" /><inkscape:clipboard
     min="257.16531,696.47403"
     max="294.72938,785.57564"
     geom-min="257.16531,696.47403"
     geom-max="294.72938,785.57564" /><g
     id="g5567"
     transform="matrix(4.1157778,0,0,4.1157778,-288.28253,-716.80534)"><path
       style="display:inline;opacity:1;fill:#ffb380;stroke-width:3.47075"
       d="m 282.42773,658.24414 c -0.70566,0.009 -1.47874,0.29681 -2.33398,0.86328 -1.50962,0.99995 -1.2354,-0.19112 -2.65234,11.50391 -0.8234,6.79559 -0.99437,9.03101 -0.84375,11.02539 0.2236,2.96077 -0.0961,3.7048 -1.78711,4.16016 -1.92639,0.5187 -2.54307,1.49174 -3.34571,5.28124 -0.3927,1.85409 -0.95526,3.76146 -1.25195,4.23829 -0.29668,0.47678 -1.65271,1.9356 -3.01172,3.24218 l -2.4707,2.37696 0.1582,3.02148 c 0.0867,1.66254 0.41153,4.2381 0.72266,5.72266 0.31113,1.4846 0.65893,3.5782 0.77148,4.65234 0.17562,1.67611 0.53735,2.60824 2.55274,6.57617 1.29152,2.54279 2.43159,5.12528 2.53515,5.73828 0.14755,0.8733 -0.0303,1.74894 -0.82226,4.05079 -0.55587,1.61563 -1.00977,3.41177 -1.00977,3.99023 v 1.05273 l 3.4668,1.79297 c 1.90716,0.98582 3.98494,1.95922 4.61719,2.16407 v -0.002 c 0.70936,0.23018 2.23888,0.34822 3.99218,0.30664 2.60004,-0.0618 3.00262,-0.14977 4.74024,-1.0332 3.42634,-1.74206 3.1436,-1.18986 4.92773,-9.62891 1.44679,-6.84336 1.66203,-7.59188 2.5586,-8.83984 1.65727,-2.30683 1.96058,-3.28334 3.10937,-10.05273 l 0.66406,-3.92188 -0.71289,-1.76172 c -0.39201,-0.96862 -0.84539,-1.92431 -1.00976,-2.125 -0.2007,-0.24521 -0.24124,-2.34541 -0.12305,-6.39453 0.1825,-6.25429 0.63608,-9.3607 1.85352,-12.70312 0.57064,-1.56658 1.06203,-6.16817 1.38476,-12.9629 0.2133,-4.49041 -0.52128,-6.32468 -2.77539,-6.93164 -1.22045,-0.32866 -3.19853,0.0245 -3.57812,0.63868 -0.1138,0.18413 -0.36914,1.74669 -0.56836,3.47265 -0.36949,3.20081 -1.04917,6.08881 -3.21094,13.65039 -1.66173,5.81333 -1.66713,5.82618 -2.45508,5.82618 -0.36624,-10e-6 -0.79663,-0.24521 -0.95703,-0.54493 -0.40985,-0.76584 -0.32806,-7.58672 0.17578,-14.65625 0.58841,-8.25528 0.24859,-11.4582 -1.3789,-12.97851 -0.58681,-0.54824 -1.22598,-0.8195 -1.93165,-0.81055 z"
       transform="scale(0.26458333)"
       id="path904" /><path
       id="path899"
       style="font-style:normal;font-variant:normal;font-weight:normal;font-stretch:normal;font-size:medium;line-height:125%;font-family:Gallaudet;-inkscape-font-specification:Gallaudet;text-align:start;letter-spacing:0px;word-spacing:0px;text-anchor:start;display:inline;opacity:1;fill:#000000;fill-opacity:1;stroke:none;stroke-width:0.242967px;stroke-linecap:butt;stroke-linejoin:miter;stroke-opacity:1"
       d="m 74.613246,174.2053 q 0.29504,-0.0656 0.5573,0.13113 0.29505,0.19669 0.39339,0.68843 0.0983,0.45896 0.0983,1.24574 0,0.55731 -0.0983,1.67192 -0.0983,1.11461 -0.0983,1.70469 0.0328,0.16392 0.0328,0.49174 0,0.29505 -0.0328,0.65566 -0.0328,0.36061 -0.0328,0.39339 0,0.29504 0.0984,0.59009 0.0656,0.0656 0.22948,0.0656 0.1967,0 0.26226,0 0.13113,-0.1967 0.22948,-0.72122 0.13113,-0.52452 0.42617,-1.47522 0.32783,-0.98348 0.52453,-1.93418 0.19669,-0.95069 0.19669,-1.70469 0.13113,-0.42618 0.72122,-0.42618 0.1967,0 0.45896,0.0984 0.29504,0.0983 0.42617,0.45896 0.16392,0.32783 0.16392,0.88513 -0.0328,0.45896 -0.0328,0.68844 -0.19669,1.34408 -0.19669,2.68817 -0.42618,0.91792 -0.59009,2.13087 -0.13113,1.21296 -0.13113,2.62262 v 0.68843 q 0.16391,0.13113 0.29504,0.52452 0.13113,0.36061 0.22948,0.52453 -0.26226,1.86861 -0.45896,2.62261 -0.16391,0.754 -0.78678,1.44243 -0.42617,2.03253 -0.85235,4.03227 -0.49174,0.32783 -0.88513,0.52452 -0.36061,0.1967 -0.81957,0.29505 h -0.39339 q -0.72122,0 -1.21296,-0.16392 -0.49173,-0.19669 -1.96695,-1.01626 -0.0656,-0.26226 0.0983,-0.754 0.1967,-0.49174 0.1967,-0.59009 0.22948,-0.42617 0.22948,-0.81956 0,-0.49174 -0.65565,-1.67192 -0.65566,-1.18017 -0.68844,-1.40965 0,-0.59009 -0.22948,-1.67192 -0.22948,-1.08183 -0.22948,-1.7047 v -0.45895 q 0.16392,-0.29505 0.81957,-0.85235 0.68843,-0.55731 0.81957,-1.14739 0.13113,-0.62287 0.22947,-1.18018 0.0984,-0.59009 0.62287,-0.85235 0.68844,-0.0656 0.68844,-0.754 -0.0984,-0.72122 -0.0984,-1.08183 0,-0.13113 0.0656,-0.39339 0.26226,-2.29478 0.5573,-4.58957 0.16392,-0.16391 0.36061,-0.29504 0.22948,-0.16391 0.45896,-0.1967 z m 0.0328,0.22947 q -0.42617,0.0983 -0.62287,0.3934 -0.16391,0.29504 -0.16391,0.72121 0.0656,0.68844 0.0656,1.01627 0,0.29504 -0.0983,0.59008 h 1.40966 l 0.16391,-0.98348 q -0.0656,-0.49174 -0.13113,-1.01626 -0.16391,-0.59009 -0.62287,-0.72122 z m 3.04879,1.54079 q -0.16392,0.32782 -0.16392,0.91791 0.0328,0.754 0.0328,1.04905 0.29504,0 0.59008,0.0984 0.29505,0.0983 0.59009,0.16391 0.0656,-0.32783 0.0656,-0.91791 v -0.88514 q 0,-0.26226 -0.1967,-0.39339 -0.1967,-0.13113 -0.45896,-0.13113 -0.26226,0 -0.45895,0.0984 z m -2.4587,1.60635 q -0.13113,-0.26226 -0.45896,-0.26226 -0.5573,0.0983 -0.81956,0.0983 -0.29505,0.26226 -0.36061,0.98348 -0.0328,0.68843 -0.0984,0.88513 0.0984,0.0328 0.49174,0 0.39339,-0.0328 0.81956,-0.0656 0.16392,0 0.42618,0.0656 0.0656,-0.39339 0.0656,-0.59009 -0.0656,-0.68844 -0.0656,-1.11461 z m 2.36035,0.59009 q -0.29505,0.29504 -0.45896,1.01626 -0.16391,0.72122 -0.22948,0.88513 0.42618,0.0656 0.85235,0.0984 0.49174,0.0983 0.62287,0.42617 -0.19669,0.13113 -0.52452,0.0328 -0.32783,-0.13113 -0.49174,-0.29504 -0.49174,0 -0.68844,0.13113 -0.16391,0.13113 -0.16391,0.85235 v 0.36061 q 0.29505,0 0.78678,0.36061 0.49174,0.32782 0.72122,0.36061 0.29505,-0.91792 0.45896,-1.9014 0.1967,-0.98348 0.1967,-1.90139 -0.22948,0 -0.52453,-0.22948 -0.29504,-0.22948 -0.5573,-0.1967 z m -2.85209,1.24574 -0.39339,-0.0328 z m -1.18018,0.19669 q -0.0983,0.29505 -0.0983,0.59009 0,0.36061 0.0656,0.62287 0.0656,0.22948 0.0983,0.36061 0.19669,-0.0328 0.36061,0.19669 0.16391,0.1967 0.32782,0.36061 0.3934,-0.0983 0.78679,-0.22947 -0.0328,-0.29505 0,-0.85235 0.0328,-0.55731 0.0328,-0.59009 0,-0.32783 -0.0328,-0.45896 -0.26226,0 -0.52452,0.0328 -0.26227,0 -0.52453,0 -0.32782,0 -0.49174,-0.0328 z m -0.65565,1.96696 q -0.26226,0.13113 -0.45896,0.42618 -0.16391,0.29504 -0.0656,0.62287 l -0.22948,-0.13114 v 0.1967 q 0.29504,0.55731 0.78678,1.18018 0.49174,0.62287 0.62287,0.81956 0.16392,0.1967 0.3934,1.04905 0.26226,0.81956 0.72121,1.01626 -0.13113,-0.42618 -0.26226,-0.72122 -0.0984,-0.29504 -0.32782,-0.49174 -0.42618,-0.59009 -0.42618,-1.40965 0,-0.29505 0.0656,-0.49174 0.0656,-0.1967 0.39339,-0.52452 0.36061,-0.36061 0.19669,-0.62288 -0.19669,-0.39339 -0.45895,-0.68843 -0.22948,-0.32783 -0.55731,-0.32783 -0.19669,0 -0.39339,0.0984 z m 2.16366,0.1967 -0.0983,-0.0328 z m 0.85234,0.36061 q -0.72121,-0.0328 -1.08182,-0.0328 h -0.29505 q 0,0.49173 0.52453,0.85234 0.5573,0.36061 1.04904,0.68844 l 1.7047,0.0328 q 0.0983,-0.1967 0.0983,-0.36061 0,-0.29504 -0.22948,-0.52452 -0.1967,-0.22948 -0.62287,-0.49174 -0.42618,-0.26226 -0.754,-0.26226 -0.1967,0 -0.3934,0.0984 z m -3.80278,1.01626 q -0.13113,0.29504 -0.1967,0.49174 -0.0656,0.16391 0,0.29504 l 0.45896,-0.19669 q -0.13113,-0.13114 -0.22948,-0.29505 -0.0984,-0.16391 -0.0328,-0.29504 z m 2.09809,0.16391 q -0.1967,0.0983 -0.22948,0.36061 -0.0328,0.26226 -0.0328,0.45896 0,-0.16392 0.13113,-0.45896 0.13113,-0.29504 0.13113,-0.36061 z m 0.42617,0 q -0.36061,0.22948 -0.36061,0.754 0,0.16391 0.0656,0.42618 0.36061,0.19669 0.68843,0.0984 -0.0328,-0.1967 0.0656,-0.45896 0.13113,-0.26226 0.22948,-0.52452 -0.45896,-0.32783 -0.68844,-0.29505 z m 2.262,0.42618 q -0.22948,0.0328 -0.45895,0.0656 0.45895,0.13113 0.78678,0.42617 0.36061,0.26226 0.59009,0.68844 v -0.3934 q 0.19669,-0.42617 -0.1967,-0.45895 -0.36061,-0.0656 -0.72122,-0.13113 z m -0.62287,0.32782 q -0.16391,-0.13113 -0.32782,-0.13113 -0.22948,0 -0.3934,0.45896 -0.13113,0.45896 -0.29504,0.52452 -0.45896,0 -0.68843,-0.0328 -0.22948,-0.0656 -0.52453,-0.26226 0.0984,0.81957 1.27853,1.37687 1.21295,0.55731 1.37687,0.72122 -0.26226,0.16391 -0.59009,0.0984 0.1967,0.26226 0.78678,0.62287 0.62287,0.32783 0.81957,0.52452 -0.13113,0.0328 -0.22948,0.0328 -0.16391,-0.0656 -0.49174,-0.19669 -0.32783,-0.13114 -0.49174,-0.16392 0.16391,0.0656 0.13113,0.22948 -0.39339,0.0328 -0.68843,-0.39339 -0.29505,-0.42618 -0.42618,-0.59009 l -0.52452,0.39339 q -0.1967,0.65566 -0.29504,1.11461 -0.0984,0.42618 -0.0984,0.91792 0,0.39339 0.0328,0.59008 l 0.9507,1.18018 q 0.95069,0.16391 1.80304,-0.42617 0.1967,-0.22948 0.32783,-0.65566 0.16391,-0.45895 0.36061,-1.01626 0.0656,-0.39339 0.13113,-0.85235 0.0656,-0.49174 0.0656,-0.85235 0,-0.65565 -0.16391,-1.04904 -0.13113,-0.42618 -0.62287,-0.85235 -0.29504,0.26226 -0.59009,0.52452 0,-0.13113 0.26226,-0.39339 0.29505,-0.29504 0.1967,-0.49174 -0.1967,0.29504 -0.42617,0.62287 -0.22948,0.29504 -0.49174,0.29504 0,-0.88513 0.65565,-1.18017 -0.16391,0.39339 -0.32783,0.78678 0.13113,-0.13113 0.22948,-0.32782 0.13113,-0.1967 0.16391,-0.52453 -0.13113,-0.22947 -0.39339,-0.36061 -0.26226,-0.13113 -0.49174,-0.26226 z m -3.54052,0.0984 q -0.39339,-0.16391 -0.62287,0.29505 -0.1967,0.42617 -0.39339,0.49174 l -0.13114,-0.13114 0.0656,-0.29504 q -0.81957,0.45896 -1.27852,1.01626 -0.0984,0.26226 -0.0984,0.55731 0,0.26226 0.0656,0.5573 0.0984,0.29505 0.26227,0.62287 0,0.85235 0.32782,1.9014 0.32783,1.04904 1.31131,2.75374 0.36061,0.13113 0.85235,0.13113 1.14739,0 2.03252,-0.72122 l 0.0656,-0.0984 q -0.26227,-0.16391 -0.62287,-0.52452 -0.36061,-0.39339 -0.52453,-0.52452 -0.0656,-0.22948 -0.0656,-0.68844 0,-0.26226 0.0328,-0.59009 0.0656,-0.36061 0.0656,-0.52452 l -0.0656,-0.13113 q -0.32783,-0.0328 -0.42617,0.36061 -0.0984,0.39339 -0.16392,0.754 -0.0983,-0.1967 -0.0983,-0.32783 0,-0.0983 0.0983,-0.42617 0.0984,-0.32783 0.0656,-0.52452 -0.29505,-0.1967 -0.59009,-0.55731 -0.26226,-0.36061 -0.59009,-0.85235 -0.19669,0.0328 -0.65565,0.32783 -0.45896,0.26226 -0.754,0.16391 0.1967,-0.19669 0.65565,-0.39339 0.45896,-0.22948 0.55731,-0.29504 0.0656,-0.36061 -0.39339,-0.36061 -0.78679,0 -0.85235,-0.26226 0.13113,-0.0656 0.39339,0.0328 0.26226,0.0656 0.39339,0 -0.1967,-0.22948 -0.0983,-0.29505 0.52452,0.26227 0.754,0.42618 0.22948,0.13113 0.29505,0.39339 0.0656,0.0656 0.49174,0.72122 0.45895,0.65565 0.81956,0.754 l -0.0983,-0.22948 q -0.0983,-0.59009 0.22948,-0.91791 -0.0983,-0.0983 -0.22948,-0.42618 -0.13113,-0.32782 -0.26226,-0.39339 l -0.32782,0.22948 0.16391,0.19669 -0.0983,0.0656 q -0.32782,0 -0.39339,-0.0656 0.22948,-0.45895 0.72122,-0.59008 l -0.42618,-0.98348 z m 2.13087,1.99974 q -0.16391,0.22948 0.0984,0.32783 0.29504,0.13113 0.39339,-0.0328 z m -0.45896,1.11461 q -0.0328,-0.0656 -0.32782,0.0328 0,0.32783 0.0656,0.42618 0.13113,0.0328 0.39339,-0.0984 0,-0.22948 -0.13113,-0.36061 z m 1.11461,4.19618 v 0.26226 q 0.52452,0 0.754,-0.13113 z m 1.18018,0.29505 h -0.13113 l -0.22948,1.21295 z m -1.7047,0.0328 q -0.16391,0.22947 -0.22948,0.754 -0.0656,0.49174 -0.0983,0.88513 z m 1.18018,0.0984 q -0.0983,0.0656 -0.3934,0.0984 -0.26226,0.0328 -0.36061,0.0983 -0.19669,1.01626 -0.29504,1.67191 -0.0984,0.65565 -0.0984,1.37687 0.16392,0 0.32783,-0.0984 0.16391,-0.0984 0.32783,-0.19669 0,-0.45896 0.22947,-1.50801 0.26227,-1.04904 0.26227,-1.44243 z m -0.98348,0.0984 q -0.29505,0.88513 -0.45896,1.63913 -0.13113,0.754 -0.13113,1.54078 0.29504,-1.57356 0.59009,-3.17991 z m -0.72122,0.16391 q -0.13113,0.49174 -0.78679,0.52452 -0.62287,0.0328 -1.04904,0.0328 -0.16391,0 -0.1967,-0.19669 -0.0328,-0.1967 -0.26226,-0.13113 -0.16391,0.3606 -0.29504,1.11461 -0.0984,0.72121 -0.16391,0.95069 0.98347,0.39339 1.99974,0.78679 0.13113,0 0.39339,-0.0656 0.22948,-1.50801 0.49174,-3.01601 z m 0,2.19644 0.13113,-0.3934 z m 1.63913,0.19669 0.0328,-0.42617 z" /></g></svg>
