<?xml version="1.0" encoding="UTF-8" standalone="no"?>
<!-- Created with Inkscape (http://www.inkscape.org/) -->

<svg
   version="1.1"
   id="svg1"
   xml:space="preserve"
   width="43.021511"
   height="87.976204"
   xmlns:inkscape="http://www.inkscape.org/namespaces/inkscape"
   xmlns:sodipodi="http://sodipodi.sourceforge.net/DTD/sodipodi-0.dtd"
   xmlns="http://www.w3.org/2000/svg"
   xmlns:svg="http://www.w3.org/2000/svg"><defs
     id="defs1" /><sodipodi:namedview
     id="namedview1"
     pagecolor="#ffffff"
     bordercolor="#000000"
     borderopacity="0.25"
     inkscape:showpageshadow="2"
     inkscape:pageopacity="0.0"
     inkscape:pagecheckerboard="0"
     inkscape:deskcolor="#d1d1d1" /><inkscape:clipboard
     min="343.03107,697.73823"
     max="386.05258,785.71444"
     geom-min="343.03107,697.73823"
     geom-max="386.05258,785.71444" /><g
     id="g5574"
     transform="matrix(4.1157778,0,0,4.1157778,-374.1483,-718.06955)"><path
       style="display:inline;opacity:1;fill:#ffb380;stroke-width:3.47075"
       d="m 366.12305,659.45117 c -0.59976,0.0288 -1.34173,0.14239 -1.86914,0.29688 -1.21974,0.35765 -1.31119,0.46033 -1.97071,2.21093 -0.65683,1.74346 -0.69853,2.24565 -0.85156,10.07422 -0.0885,4.53188 -0.25526,8.3836 -0.36914,8.5586 -0.11386,0.17503 -0.32933,1.95076 -0.48047,3.94726 -0.1511,1.99646 -0.40552,3.76081 -0.56445,3.91992 -0.42651,0.42652 -0.8965,-0.97458 -1.2207,-3.64062 -0.15201,-1.25015 -0.51635,-3.23031 -0.81055,-4.40234 -0.29416,-1.17204 -0.73212,-3.79464 -0.97461,-5.82618 -0.59323,-4.96985 -0.91982,-6.52328 -1.76953,-8.44336 -0.79054,-1.78764 -1.24495,-2.06837 -2.89844,-1.78906 -1.29069,0.21804 -2.47456,1.34003 -2.87109,2.72266 -0.43381,1.5126 -0.33243,6.19151 0.16406,7.61719 0.25466,0.73122 0.53186,3.06858 0.67578,5.68164 0.13451,2.44202 0.32596,4.6418 0.42578,4.88671 0.11706,0.28725 -0.22295,0.90409 -0.95898,1.74024 -0.62756,0.71297 -1.26238,1.61518 -1.41016,2.00391 -0.25217,0.66323 -0.049,2.32973 0.36524,3 0.10061,0.16278 -0.19038,0.56205 -0.64649,0.88671 -0.5969,0.42501 -1.18766,1.44659 -2.10937,3.64454 -2.59095,6.17846 -2.81074,8.11766 -1.93164,17.11914 0.65233,6.67929 1.04297,8.58769 2.32226,11.33593 0.82228,1.76652 0.85294,1.98019 1.0293,7.44532 l 0.18164,5.62695 1.12695,0.45117 c 0.92416,0.36975 4.47149,1.05944 8.44336,1.64258 2.37058,0.34806 11.89914,-2.28293 12.64649,-3.49219 0.1014,-0.16411 0.0217,-1.44065 -0.17579,-2.83594 -0.27964,-1.97646 -0.28522,-3.00718 -0.0273,-4.66601 0.34502,-2.21915 3.13099,-11.30345 4.76953,-15.55274 1.82493,-4.73268 4.33679,-14.72207 6.63281,-26.38085 0.74408,-3.77813 1.69467,-12.58066 1.91993,-17.7754 l 0.17187,-3.99609 -0.78906,-0.62109 c -0.60046,-0.47244 -1.17391,-0.6211 -2.39258,-0.6211 -2.86126,0 -2.84249,-0.0383 -5.1582,9.80078 -1.54871,6.58024 -2.25128,8.82542 -3.89453,12.44141 -0.97741,2.15078 -1.64745,2.698 -1.60743,1.3125 0.0108,-0.37542 0.19354,-2.24212 0.40625,-4.14844 0.32191,-2.88555 0.32464,-4.05975 0.0156,-7.00586 -0.24594,-2.34463 -0.30296,-4.81775 -0.16992,-7.33007 0.22741,-4.29423 -0.0961,-6.87946 -1.08008,-8.63868 -0.54741,-0.97889 -0.76996,-1.13043 -1.75586,-1.19922 -0.15528,-0.0109 -0.33914,-0.0116 -0.53906,-0.002 z"
       transform="scale(0.26458333)"
       id="path900" /><path
       id="path901"
       style="font-style:normal;font-variant:normal;font-weight:normal;font-stretch:normal;font-size:medium;line-height:125%;font-family:Gallaudet;-inkscape-font-specification:Gallaudet;text-align:start;letter-spacing:0px;word-spacing:0px;text-anchor:start;display:inline;opacity:1;fill:#000000;fill-opacity:1;stroke:none;stroke-width:0.242967px;stroke-linecap:butt;stroke-linejoin:miter;stroke-opacity:1"
       d="m 96.103204,174.66425 q 0.26226,-0.0656 0.52452,-0.13113 0.29505,-0.0656 0.32783,-0.0656 0.26226,0 0.42617,0.16392 0.22948,0.39339 0.29505,0.78678 0.0983,0.36061 0.0983,0.9507 0,0.26226 -0.0328,0.81956 -0.0328,0.52452 -0.0328,0.78679 0,0.49174 0.0656,1.01626 0.0983,0.49174 0.0983,0.81956 0,0.52453 -0.0983,1.24574 -0.0983,0.68844 -0.13113,1.08183 0,0.0328 0.0656,0.0656 0.0983,0 0.16391,0.0328 0.75401,-1.34409 1.1474,-3.11435 0.42617,-1.77026 0.59008,-2.49148 0.163916,-0.72122 0.393396,-0.78678 0.22947,-0.0984 0.5573,-0.0984 0.62287,0 0.78678,0.42617 0,1.04904 -0.16391,2.55705 -0.16391,1.508 -0.22948,2.29478 -0.72122,3.57331 -1.14739,5.27801 -0.393386,1.67191 -1.016256,3.08157 -0.0984,0.52452 -0.59009,1.93417 -0.49174,1.37687 -0.49174,2.19644 0,0.39339 0.0983,0.78678 0.0656,0.55731 0,0.65565 -0.55731,0.36061 -1.40965,0.55731 -0.85235,0.16391 -1.63914,0.32783 -0.72121,-0.0983 -1.508,-0.22948 -0.78678,-0.13113 -1.27852,-0.36061 l -0.0328,-2.95044 q -0.59009,-0.85235 -0.75401,-2.32757 -0.13113,-1.47522 -0.26226,-2.8193 0,-0.75401 0.16392,-1.50801 0.19669,-0.754 0.85235,-2.13087 0.29504,-0.19669 0.42617,-0.36061 -0.1967,-0.26226 -0.1967,-0.65565 0,-0.22948 0.13113,-0.36061 l 0.59009,-0.68843 q -0.0984,-0.26227 -0.13113,-0.65566 -0.0328,-0.42617 -0.0328,-0.754 0,-0.62287 -0.0656,-1.01626 -0.0328,-0.42617 -0.19669,-0.78678 -0.0328,-0.62287 -0.0328,-0.9507 0,-0.55731 0.0983,-0.85235 0.0984,-0.32783 0.42618,-0.5573 0.49174,-0.0983 0.52452,-0.0983 0.13113,0 0.29504,0.0983 0.49174,0.65565 0.62287,2.29478 0.16392,1.63913 0.42618,2.22922 0.0656,0.68844 0.0984,1.08183 0.0656,0.39339 0.26226,0.78678 0.16391,-0.0328 0.19669,-0.29504 0.0328,-0.26226 0.0656,-0.32783 v -0.39339 q 0,-0.39339 0.0656,-0.85235 0.0656,-0.45896 0.16392,-0.91791 0,-0.49174 -0.0328,-1.01627 0,-0.52452 0,-1.04904 0,-0.9507 0.0656,-1.54078 0.0983,-0.59009 0.39339,-1.21296 z m 0,0.22948 q -0.13113,1.01626 -0.16391,1.54079 -0.0328,0.49174 -0.0328,1.08182 0.19669,-0.0984 0.52452,-0.13113 0.36061,-0.0328 0.39339,-0.0328 0.39339,0 0.5573,0.0328 0.0328,-0.39339 0.0656,-0.754 0.0656,-0.36061 0.0656,-0.81956 0,-0.32783 -0.0328,-0.49174 0.0328,-0.32783 -0.19669,-0.52453 -0.22948,-0.19669 -0.59009,-0.19669 -0.39339,0 -0.59009,0.29504 z m 4.130606,1.08183 q -0.39339,0.36061 -0.557296,1.37687 -0.16391,1.01626 -0.22948,1.21296 0.16391,-0.0328 0.491736,-0.0328 0.22948,0 0.59009,0.0656 0.36061,0.0328 0.42617,0.0328 l 0.1967,-1.99974 q 0,-0.36061 -0.26226,-0.55731 -0.26226,-0.22948 -0.65566,-0.0983 z m -6.589306,0 q -0.59008,-0.0656 -0.81956,0.19669 -0.0984,0.29505 -0.13113,0.75401 -0.0328,0.45895 -0.0328,0.52452 0,0.59009 0.0983,1.18017 0.13113,0.1967 0.29505,0.1967 0.45895,-0.13113 0.95069,-0.26226 -0.26226,0.0328 -0.52452,0.26226 -0.26226,0.22948 -0.5573,0.49174 0,0.49174 0,1.01626 0.0328,0.49174 0.19669,0.85235 l 1.40965,-0.49174 q -0.13113,-0.81957 -0.29504,-1.93418 -0.13113,-1.11461 -0.22948,-2.16365 z m 2.26201,1.90139 V 179.68 q 0.32782,-0.0328 0.5573,-0.0328 0.26226,-0.0328 0.39339,-0.0328 0.39339,0 0.754,0.13113 l -0.13113,-2.03253 q -0.22948,-0.22947 -0.65565,-0.22947 -0.62287,0 -0.91791,0.39339 z m 3.80278,0.88513 q -0.39339,0.0656 -0.5573,0.59009 -0.13113,0.68844 -0.1967,0.9507 0.13113,-0.0328 0.39339,-0.0328 0.26226,0 0.622866,0.0983 0.3934,0.0983 0.754,0.16391 l 0.16392,-1.57357 q -0.16392,-0.22947 -0.52452,-0.22947 -0.32783,0.0328 -0.655656,0.0328 z m -3.80278,1.24574 q -0.13113,0.36061 -0.16392,0.88514 -0.0328,0.52452 -0.0328,1.18017 0.49174,-0.0984 0.85235,-0.13113 0.39339,-0.0656 0.68843,-0.0328 0.0984,-0.26226 0.16392,-0.81957 0.0983,-0.5573 0.19669,-0.95069 -0.22948,-0.22948 -0.62287,-0.22948 -0.5573,0.0656 -1.08182,0.0984 z m 2.88487,0.754 -0.52452,1.40966 q 0.78678,0.19669 1.18017,0.36061 0.426176,0.13113 0.655646,0.39339 0.22948,-1.01626 0.45896,-2.06531 -0.36061,-0.13113 -0.62287,-0.19669 -0.262256,-0.0656 -0.524516,-0.0656 -0.36061,0 -0.62287,0.16391 z m -4.36009,0.0983 q -0.0983,0.16392 -0.45896,0.22948 -0.36061,0.0656 -0.49174,0.1967 0.26226,0 0.55731,0.22948 0.32782,0.22948 0.72121,0.49174 -0.0656,-0.16392 -0.13113,-0.59009 -0.0328,-0.45896 -0.19669,-0.55731 z m -1.83583,1.44244 q -0.0984,0.32783 0.19669,0.42618 0.32783,0.0983 0.55731,0.16391 0.36061,-0.39339 0.754,-0.78678 -0.13113,-0.49174 -0.52452,-0.49174 -0.26226,0 -0.52452,0.19669 -0.22948,0.16391 -0.45896,0.49174 z m 3.44218,-0.13113 q 0.22947,0.0656 0.62287,0 0.39339,-0.0984 0.5573,-0.0656 -0.16391,-0.13113 -0.39339,-0.13113 -0.13113,0 -0.39339,0.0984 -0.26226,0.0984 -0.39339,0.0984 z m -1.67192,-0.0656 v 0.16391 l -0.85235,0.81957 -1.04904,-0.26226 q 0.5573,0.85235 0.88513,1.24574 0.32783,0.39339 0.68844,0.52452 0.39339,0.0984 0.754,0.42618 0.3606,0.32782 0.62287,0.45895 l -0.42618,0.0328 q 0.16391,0.78679 0.72122,1.04905 -0.0328,0.0984 -0.16391,0.0656 -0.0983,-0.0328 -0.13113,0.0328 0.16391,0.29504 0.754,0.65565 0.59008,0.32783 0.65565,0.39339 -0.52452,0 -0.9507,-0.29504 -0.42617,-0.29505 -0.81956,-0.754 -0.0984,0.19669 -0.45896,0.68843 -0.32783,0.45896 -0.45896,0.78679 0,0.42617 -0.0328,0.91791 -0.0328,0.49174 -0.0656,0.98348 0,0.5573 0.0983,0.98348 0.13113,0.39339 0.45896,0.68843 0.39339,0.16392 0.91791,0.29505 0.52453,0.13113 0.98348,0.13113 0.45896,0 0.91792,-0.1967 1.11461,-1.86861 1.11461,-4.16339 0,-0.22948 0,-0.49174 -0.0656,-0.39339 -0.0656,-0.55731 l -0.22948,-0.42617 q -0.0983,0.0984 -0.32782,0.42617 -0.1967,0.32783 -0.26226,0.39339 -0.0328,-0.16391 0.0656,-0.32782 0.13113,-0.1967 0.22948,-0.32783 0.0984,-0.13113 0.13113,-0.22948 0.0328,-0.13113 0.0328,-0.19669 0,-0.26226 -0.29504,-0.55731 -0.29504,-0.32783 -0.52452,-0.5573 -0.1967,-0.26226 -0.65566,-1.08183 -0.42617,-0.81957 -0.85234,-1.01626 -0.3934,0.42617 -0.75401,0.85235 0.26227,-0.22948 0.42618,-0.36061 0.16391,-0.16392 0.29504,-0.1967 -0.16391,0.13113 -0.52452,0.55731 -0.36061,0.42617 -0.68844,0.49174 0,-0.29505 0.26227,-0.55731 0.29504,-0.26226 0.59008,-0.52452 0,-0.39339 0.26226,-0.32783 -0.65565,-0.32782 -1.27852,-0.65565 z m 4.36009,0.42617 q -0.45895,0 -1.27852,-0.0656 -0.81957,-0.0984 -0.98348,-0.0984 -0.26226,0 -0.72122,0.0656 0.32783,0.0983 0.72122,0.62287 0.42618,0.49174 0.42618,0.52453 0.26226,-0.0328 0.39339,-0.36061 0.13113,-0.32783 0.19669,-0.45896 0.0983,0.22948 -0.26226,0.754 -0.16391,0.13113 -0.16391,0.29505 0,0.16391 0.22948,0.45895 0.22948,0.26226 0.29504,0.39339 0.0984,0.0656 0.29504,0.0656 0.22948,0 0.65566,-0.16391 0.45895,-0.16391 0.52452,-0.16391 -0.1967,0.19669 -0.59009,0.36061 -0.39339,0.16391 -0.59009,0.22948 0.36061,0 0.72122,0 0.22948,0 0.36061,0.13113 -0.36061,0.0656 -0.62287,0.0984 -0.22948,0.0328 -0.29504,0.16391 0.49174,0.29504 0.754,0.59009 0.26226,0.26226 0.26226,0.68843 -0.16391,0.0328 -0.29504,-0.19669 -0.0984,-0.26226 -0.1967,-0.29505 0.0328,0.13113 0.13113,0.98348 0.13113,0.81957 0.1967,1.21296 l 0.754,-2.95044 -0.49174,-0.22948 h 0.622866 q 0.26226,-0.754 0.26226,-1.86861 z m -6.29426,0.88514 q -0.65566,0.29504 -0.65566,1.08182 0.39339,0.26226 0.68844,0.62287 0.32782,0.32783 0.62287,0.81957 0.45896,0.49174 0.72122,0.68843 0.29504,0.16392 0.62287,0.0656 0.26226,-0.0984 0.16391,-0.26226 -0.26226,0.0656 -0.45896,0.0656 -0.26226,0 -0.39339,-0.13113 -0.13113,-0.13113 -0.13113,-0.32782 0,-0.29505 0.29504,-0.52453 0.29505,0 0.42618,0.0328 0.13113,0 0.19669,0.0983 V 185.253 q -0.13113,-0.22948 -0.5573,-0.39339 -0.42617,-0.16391 -0.52452,-0.22948 -0.13113,0 -0.36061,0.1967 -0.22948,0.16391 -0.32783,0.0984 0.32783,-0.32783 0.45896,-0.45896 -0.39339,-0.52452 -0.78678,-1.04904 z m -0.72122,1.24574 -0.42618,1.57356 q 0.29505,-0.0328 0.754,-0.19669 0.45896,-0.1967 0.59009,-0.22948 -0.0656,-0.1967 -0.42617,-0.36061 -0.32783,-0.16391 -0.36061,-0.29504 0.0983,-0.0328 0.13113,0 0.0328,0.0328 0.0656,0.0328 -0.0656,-0.22948 -0.13113,-0.36061 -0.0328,-0.13113 -0.19669,-0.16392 z m 2.39313,0.91791 -0.0984,0.16391 0.1967,-0.0328 z m -0.22948,0.32783 q -0.0656,0.19669 0.13113,0.39339 0.45896,0.19669 0.55731,-0.13113 0,-0.32783 -0.36061,-0.32783 -0.1967,0 -0.32783,0.0656 z m -2.03252,0.26226 q -0.39339,0.19669 -0.55731,0.39339 -0.13113,0.16391 -0.0984,0.52452 0.22948,0.68844 0.32783,2.36035 0.0983,1.67192 0.45896,2.42592 0.45896,0.29504 0.98348,0.29504 0.19669,0 0.29504,-0.0328 0.42618,-0.32783 0.68844,-0.39339 0.13113,0.0656 0,0.1967 -0.13113,0.13113 -0.0656,0.22947 0.16392,0.0656 0.29505,-0.0983 0.16391,-0.19669 0.19669,-0.22947 -0.29504,-0.29505 -0.45896,-0.36061 -0.32782,-0.754 -0.32782,-1.73748 0,-1.54079 0.81956,-2.62262 l -0.19669,0.16392 q -0.49174,1.14739 -0.98348,2.29478 0,-0.42617 0.26226,-1.04904 0.26226,-0.65565 0.62287,-1.44244 -0.26226,-0.0983 -0.81957,-0.59009 -0.5573,-0.52452 -0.91791,-0.52452 -0.22948,0 -0.52452,0.1967 z m 2.68817,5.90087 q 0.29505,0.36061 0.78679,0.45896 0.52452,0.0656 1.27852,0.0656 -0.59009,0 -1.11461,-0.0984 -0.52452,-0.13113 -0.9507,-0.42617 z m -1.63913,0.42618 q -0.0328,0.0328 -0.52452,0.0328 -0.16391,0 -0.1967,0.0983 0,0.42617 0.0328,0.91791 0.0328,0.49174 0.0656,0.9507 0,0.39339 -0.0328,0.59009 l 1.18017,0.16391 v -0.39339 q 0,-0.36061 0.0984,-1.11461 0.0983,-0.754 0.0983,-1.11461 -0.26226,0.0984 -0.39339,0.19669 -0.0984,0.0656 -0.32783,0.0656 -0.16391,0 -0.26226,-0.0984 0.42618,-0.0984 0.62287,-0.19669 0.22948,-0.13113 0.42618,-0.39339 -0.13113,0 -0.36061,0.0984 -0.1967,0.0983 -0.42618,0.19669 z m 1.04905,-0.0984 q -0.0984,0.19669 -0.16392,0.72122 -0.0656,0.49174 -0.0983,0.65565 0.0656,-0.22948 0.16391,-0.68844 0.0984,-0.45895 0.0984,-0.68843 z m 0.26226,0 q -0.1967,0.62287 -0.36061,1.40965 -0.16391,0.78679 -0.16391,1.44244 0.26226,0.0656 0.52452,0.0984 -0.13113,-0.42618 -0.13113,-0.98348 0,-0.32783 0.0656,-1.11461 0.0656,-0.78678 0.0656,-0.85235 z m 0.32782,0.0656 q -0.13113,0.26226 -0.16391,0.78678 -0.0328,0.49174 -0.0656,0.88513 0,0.36061 0,0.68844 0,0.49174 0.36061,0.65565 1.01626,-0.16391 1.34408,-0.22948 0.36061,-0.0983 0.88514,-0.29504 0.0328,-0.1967 0.0328,-0.59009 0,-0.32782 -0.0656,-0.754 -0.0656,-0.45896 -0.13113,-0.88513 -0.45896,0.0656 -0.72122,0.0656 -0.85235,0 -1.47522,-0.32783 z m 2.52427,0.26226 0.0328,-0.1967 z m 0,0.9507 0.0328,-0.52453 z m 0.29504,0.68843 0.0328,-0.754 z m -1.83583,-10.49044 0.49174,-0.754 z m -0.26226,-0.9507 -0.52452,0.49174 z" /></g></svg>
