<?xml version="1.0" encoding="UTF-8" standalone="no"?>
<!-- Created with Inkscape (http://www.inkscape.org/) -->

<svg
   version="1.1"
   id="svg1"
   xml:space="preserve"
   width="50.593491"
   height="75.722549"
   xmlns:inkscape="http://www.inkscape.org/namespaces/inkscape"
   xmlns:sodipodi="http://sodipodi.sourceforge.net/DTD/sodipodi-0.dtd"
   xmlns="http://www.w3.org/2000/svg"
   xmlns:svg="http://www.w3.org/2000/svg"><defs
     id="defs1" /><sodipodi:namedview
     id="namedview1"
     pagecolor="#ffffff"
     bordercolor="#000000"
     borderopacity="0.25"
     inkscape:showpageshadow="2"
     inkscape:pageopacity="0.0"
     inkscape:pagecheckerboard="0"
     inkscape:deskcolor="#d1d1d1" /><inkscape:clipboard
     min="436.26197,711.08766"
     max="486.85547,786.81021"
     geom-min="436.26197,711.08766"
     geom-max="486.85547,786.81021" /><g
     id="g5581"
     transform="matrix(4.1157778,0,0,4.1157778,-467.3792,-731.41897)"><path
       style="display:inline;opacity:1;fill:#ffb380;stroke-width:3.47075"
       d="m 452.43555,671.66406 c -1.28877,-0.004 -2.16888,0.0191 -2.33008,0.0703 -0.61414,0.19491 -3.22711,3.7242 -4.26758,5.76367 -0.87213,1.70944 -0.83225,3.85525 0.0898,4.77734 0.62196,0.62185 0.93693,0.69646 2.91211,0.69336 1.21818,-0.002 2.91785,-0.19132 3.77735,-0.42187 0.85946,-0.23082 1.707,-0.421 1.88086,-0.42383 0.38543,-0.004 1.81445,3.09877 1.81445,3.93945 0,0.33203 -0.0607,0.60352 -0.13477,0.60352 -0.67755,0 -12.24188,3.58079 -13.2207,4.09375 -0.70322,0.36854 -2.55646,1.13476 -4.11914,1.70312 -4.03805,1.46861 -5.69648,2.47377 -6.09961,3.69531 -0.23187,0.7025 -0.69696,1.20207 -1.61523,1.74024 -0.83554,0.48967 -1.42955,1.09692 -1.69336,1.72851 -0.37618,0.9004 -0.34478,1.19385 0.42969,3.88086 0.46068,1.59825 0.98169,3.45589 1.1582,4.12891 0.46397,1.77037 1.92228,3.20203 5.58789,5.49023 1.77985,1.11103 3.32682,2.1653 3.43945,2.3418 0.11263,0.1765 0.72621,1.54105 1.36328,3.0332 1.7791,4.16697 3.83387,6.96734 6.62891,9.03516 1.37348,1.01613 1.65845,1.85674 2.11328,6.25195 0.2307,2.22996 0.46397,4.09055 0.51953,4.13477 0.95339,0.76172 3.93273,2.579 4.73047,2.88476 1.86716,0.71554 5.39448,0.38343 9.07813,-0.85547 3.77272,-1.26882 4.74715,-1.85685 8.27148,-4.98437 3.13005,-2.77761 3.05499,-2.19991 1.08008,-8.32422 l -1.23633,-3.83594 1.37891,-6.77734 c 0.99564,-4.89434 1.42738,-7.76322 1.55664,-10.32813 0.17401,-3.45422 0.15605,-3.61793 -0.68164,-5.96679 -2.57231,-7.21259 -9.84346,-25.85876 -10.42774,-26.74219 l -0.67969,-1.0293 -6.52539,-0.20703 c -1.79414,-0.0576 -3.49053,-0.0897 -4.77929,-0.0937 z"
       transform="scale(0.26458333)"
       id="path898" /><path
       id="path903"
       style="font-style:normal;font-variant:normal;font-weight:normal;font-stretch:normal;font-size:medium;line-height:125%;font-family:Gallaudet;-inkscape-font-specification:Gallaudet;text-align:start;letter-spacing:0px;word-spacing:0px;text-anchor:start;display:inline;opacity:1;fill:#000000;fill-opacity:1;stroke:none;stroke-width:0.242967px;stroke-linecap:butt;stroke-linejoin:miter;stroke-opacity:1"
       d="m 122.70331,177.84918 0.32783,0.45896 q 1.34409,3.5733 2.72096,7.14661 0.0984,0.49174 0.0984,0.98348 0,0.91792 -0.3934,2.6554 -0.36061,1.73748 -0.42617,2.19643 0.36061,1.01626 0.52452,1.60635 0.1967,0.55731 0.1967,0.9507 -0.45896,0.39339 -0.9507,0.85235 -0.49174,0.42617 -0.9507,0.72122 -0.81956,0.29504 -1.44243,0.49174 -0.59009,0.19669 -1.1474,0.19669 -0.52452,0 -0.98347,-0.22948 l -1.01627,-0.65565 q -0.0983,-1.14739 -0.19669,-1.93418 -0.0984,-0.78678 -0.85235,-1.04904 -0.62287,-0.68844 -0.98348,-1.31131 -0.36061,-0.65565 -0.72122,-1.67191 -1.01626,-0.62287 -1.7047,-1.08183 -0.68843,-0.45896 -0.78678,-1.27852 -0.22948,-0.72122 -0.42617,-1.44244 0,-0.59009 0.68843,-0.85235 0.1967,-0.0328 0.32783,-0.59008 0.39339,-0.36061 1.508,-0.75401 1.11461,-0.39339 1.34409,-0.59008 0.36061,-0.13113 1.54078,-0.45896 1.21296,-0.32783 1.80305,-0.52452 0,-0.29505 -0.13113,-0.59009 -0.0983,-0.32783 -0.36061,-0.68844 -0.26226,0.0983 -0.65565,0.1967 -0.36061,0.0983 -0.68844,0.0983 -0.26226,0 -0.39339,-0.0328 -0.55731,0.0656 -0.72122,-0.45896 -0.16391,-0.52452 0.39339,-1.34408 0.59009,-0.81957 0.68844,-0.98348 0.0983,-0.16392 0.59008,-0.16392 z m -3.60609,0.16391 q -0.36061,0.29505 -0.42617,0.81957 l 0.32782,-0.0328 q 0.32783,0.16391 0.32783,0.45895 -0.0984,0.3934 -0.68844,0.52453 -0.5573,0.0983 -0.68843,0.19669 0.0328,0.22948 0.19669,0.32783 0.1967,0.0983 0.52453,0.16391 0.88513,0.0984 1.508,-0.36061 0.62287,-0.45895 1.18017,-1.37687 0,0.22948 -0.22948,0.55731 -0.22947,0.32782 -0.52452,0.72122 0.32783,0.0656 0.45896,0.0656 0.9507,0 1.60635,-0.88514 l 0.0984,0.0656 q -0.32783,0.55731 -0.85235,0.88514 -0.52452,0.32782 -1.11461,0.26226 v 0.19669 q -0.0328,0.26226 0.0328,0.32783 0.0328,0.16391 0.32783,0.62287 0.29504,0.42617 0.19669,0.81957 0.36061,0.16391 0.42618,0.13113 l 1.01626,-2.88488 q -0.0328,0.59009 -0.29504,1.40966 -0.26227,0.78678 -0.49174,1.47522 0.39339,0.0656 0.59008,-0.0984 0.29505,-0.0656 0.49174,-0.0984 0.22948,-0.0656 0.39339,-0.0656 0.13114,0 0.32783,0.0656 -1.01626,0.26226 -1.99974,0.52452 -0.0983,0.0328 -0.29504,-0.0656 -0.1967,-0.13113 -0.29505,0.0656 0,-0.0983 -0.0983,-0.1967 -0.0656,-0.13113 -0.16391,-0.0656 l -0.52452,2.42592 q 0.0984,0.13113 0.32783,0.13113 0.19669,-0.22948 0.49173,-0.45896 0.32783,-0.26226 0.55731,-0.29504 -0.0328,0.0656 -0.39339,0.42617 -0.32783,0.32783 -0.32783,0.59009 0.16391,0.1967 0.39339,0.16391 0.72122,-0.39339 1.44244,-0.78678 0.78678,-0.36061 1.57357,-0.49174 l 0.0656,0.0656 q -0.754,0.32783 -1.54078,0.65565 -0.754,0.32783 -1.31131,0.78679 0.42618,0.26226 0.9507,0.5573 0.52452,0.29505 0.78678,0.42618 0.39339,0.13113 0.62287,0.19669 0.22948,0.0328 0.32783,0.16392 l -0.45896,0.0328 0.22948,0.29504 q -0.52452,-0.22948 -1.01626,-0.45896 0.5573,0.39339 1.11461,0.754 0.0984,0.13113 0.19669,0.36061 0.0983,0.22948 0.0328,0.49174 -0.0984,-0.0984 -0.62287,-0.72122 -0.49174,-0.62287 -0.88514,-0.81956 l 0.0656,-0.0984 q -0.45896,-0.26226 -0.72122,-0.42618 -0.26226,-0.0656 -1.04904,-0.65565 -0.78679,-0.59009 -1.37687,-0.45896 -0.16392,0.22948 -0.32783,0.45896 -0.16391,0.22948 -0.0328,0.49174 l 0.59008,-0.59009 q -0.16391,0.36061 -0.29504,0.55731 -0.0983,0.16391 -0.36061,0.36061 -0.0656,0.26226 -0.0656,0.32782 0,0.32783 0.45895,0.98348 0.45896,0.62287 0.45896,0.91792 0.42618,0.36061 0.91791,0.72122 0.52453,0.3606 1.01627,0.3606 -0.16392,0.0984 -0.36061,0.0984 -0.1967,0 -0.39339,-0.0328 -0.16392,-0.0328 -0.29505,-0.0656 l 0.1967,0.29505 q -0.16392,0 -0.36061,-0.13113 -0.16391,-0.16392 -0.32783,-0.32783 l -0.13113,0.13113 -0.29504,-0.42617 q -0.16392,0.32782 -0.39339,0.62287 -0.1967,0.29504 -0.52453,0.39339 0.16392,0.78678 0.52453,1.40965 0.36061,0.59009 0.98348,1.01626 0.45895,0.22948 1.04904,0.22948 0.39339,0 0.88513,-0.0984 0.52452,-0.13113 0.85235,-0.22948 -0.22948,0.42618 -0.68844,0.59009 -0.45895,0.13113 -1.01626,0.13113 -0.65565,0 -1.01626,-0.13113 0.42618,0.16392 1.11461,0.16392 0.42618,0 1.08183,-0.0656 -0.0328,0.19669 -0.36061,0.32782 -0.32783,0.0984 -0.62287,0.0984 -0.29504,0 -0.59009,-0.0656 -0.26226,-0.0984 -0.59009,-0.26226 0.0656,0.49174 0.1967,0.88513 0.13113,0.39339 0.39339,0.9507 h 0.13113 q 1.14739,-0.13113 2.03253,-0.52452 0.91791,-0.42618 1.60635,-1.27853 l -0.26227,-1.27852 h -0.13113 q 0,0.16391 0.0984,0.5573 0.0983,0.3934 0.0328,0.59009 -0.16391,-0.13113 -0.29504,-0.36061 -0.0984,-0.26226 -0.16391,-0.52452 l -0.32783,0.36061 -0.0656,-0.0656 q 0.0656,-0.0656 0.0656,-0.0983 0.0328,-0.0656 0.0656,-0.16391 -0.0984,-0.0328 -0.1967,0.0656 -0.0984,0.0984 -0.1967,0 0.16392,-0.16392 0.26227,-0.39339 0.13113,-0.26226 0.26226,-0.49174 0.29504,-1.31131 0.5573,-2.75375 0.26226,-1.44243 0.45896,-2.91765 -0.42618,-1.37687 -0.72122,-2.32757 -0.29504,-0.98348 -0.62287,-1.7047 -0.36061,-0.42617 -0.81957,-2.36035 -0.42617,-1.93417 -1.70469,-1.93417 -0.26226,0 -0.62287,0.0983 -0.0328,0 -0.16392,0.13113 -0.0656,-0.0328 -0.13113,-0.0983 -0.26226,-0.13113 -0.59009,-0.13113 -0.26226,0 -0.52452,0.0328 -0.26226,0.0328 -0.52452,0.0656 z m -0.98348,1.60635 q 0.39339,0 0.55731,0 0.42617,-0.13113 0.39339,-0.36061 -0.39339,0 -0.55731,0 -0.36061,0 -0.39339,0.36061 z m 0.9507,2.81931 q -0.22948,0.13113 -0.78679,0.26226 -0.52452,0.13113 -0.62287,0.1967 0.26227,0.0656 0.55731,0.13113 0.29504,0.0656 0.39339,0.32782 -0.0656,0.0656 -0.1967,0.0656 -0.19669,-0.0983 -0.39339,-0.13113 -0.19669,-0.0656 -0.59008,-0.0656 -0.42618,0 -0.59009,0.1967 0,0.5573 -0.0656,1.47522 -0.0328,0.91791 -0.0328,0.95069 0,0.55731 0.0328,1.11461 0.0656,0.55731 0.39339,1.1474 0.29505,0.0328 0.68844,-0.0328 0.39339,-0.0656 0.42617,-0.0656 -0.0656,0.29504 -0.3606,0.36061 -0.26227,0.0656 -0.52453,0.0983 l 0.72122,0.78678 q 0.32783,-0.26226 0.55731,-0.1967 0.26226,0.0656 0.42617,0.29505 0.1967,0.19669 0.49174,0.754 0.52452,-0.45896 0.42617,-1.24574 -0.29504,-0.754 -0.52452,-1.08183 -0.19669,-0.36061 -0.68843,-0.42617 0.19669,-0.1967 0.36061,-0.59009 0.16391,-0.39339 0.16391,-1.21296 0,-0.62287 -0.1967,-1.27852 l 0.13113,-0.0983 0.3934,0.81956 q 0.29504,0.0656 0.52452,-0.32782 0.19669,-0.49174 0.39339,-1.1474 0.1967,-0.65565 0.1967,-1.54078 -0.3934,0.0328 -0.98348,0.22948 -0.59009,0.19669 -0.72122,0.22948 z m -4.19618,1.77026 q 0,0.81957 0.19669,1.73748 0.22948,0.88513 0.45896,1.508 0.22948,0.59009 0.52452,0.68844 0.29505,0.0656 0.75401,0.0656 -0.1967,-0.754 -0.29505,-1.67192 -0.0656,-0.91791 -0.0656,-1.93417 v -1.18018 q -0.88514,0.0984 -1.57357,0.78679 z m -1.04905,1.04905 q 0,0.59008 0.29505,1.27852 0.29504,0.65565 0.754,1.34409 0.42617,0.42617 0.72122,0.26226 -0.36061,-0.68844 -0.59009,-1.44244 -0.1967,-0.78678 -0.45896,-1.93417 -0.19669,-0.0328 -0.42617,0.19669 -0.1967,0.22948 -0.29505,0.29505 z m 5.90088,0.19669 -0.0656,0.0656 z m -4.06505,3.016 q 0.32783,0.22948 0.72122,0.32783 -0.0984,-0.0328 -0.32783,-0.22948 -0.19669,-0.22948 -0.39339,-0.0984 z m 1.83583,0.45896 q -0.13113,-0.16391 -0.29504,-0.32782 -0.16392,-0.16392 -0.29505,-0.16392 -0.16391,0 -0.26226,0.22948 l 0.91792,0.55731 0.0656,-0.0984 q 0.0328,-0.0328 -0.13113,-0.1967 z m -0.78678,0.0983 0.26226,0.16392 q -0.0656,-0.0984 -0.26226,-0.16392 z m 1.63913,0.22948 v 0.1967 q 0.0983,0 0.16391,-0.0328 0.0656,-0.0656 0.0984,-0.0984 -0.0328,-0.0656 -0.26226,-0.0656 z m 0.72122,0.29504 q -0.0984,-0.0983 -0.36061,0 -0.22948,0.0984 -0.26226,0.0984 0,0.16392 0.22948,0.3934 0.26226,0.0656 0.39339,0.0656 0.19669,0 0.29504,-0.0983 0,-0.22948 -0.29504,-0.45896 z m -1.04905,-0.0328 q -0.13113,0.0328 -0.16391,0.0656 -0.0328,0 -0.0656,0 0.13114,0.45896 0.49174,0.42618 -0.13113,-0.22948 -0.26226,-0.49174 z m -1.14739,0.0328 q 1.01626,2.06531 1.67192,2.68818 0.65565,0.62287 1.63913,0.62287 -0.52452,-0.78678 -0.65566,-0.98348 -0.0983,-0.19669 -0.26226,-0.62287 l 0.0656,0.78679 q -0.1967,-0.16392 -0.26226,-0.45896 -0.0656,-0.32783 -0.0656,-0.62287 v -0.39339 q -0.16391,-0.13113 -0.45895,-0.16392 -0.29505,-0.0328 -0.45896,-0.0328 -0.13113,-0.0984 -0.45896,-0.52452 -0.32783,-0.45896 -0.754,-0.29504 z m 2.49148,3.80279 v -0.13113 z m 1.34409,-0.0984 0.0984,0.85235 z m -0.39339,0.32783 -0.65565,-0.0656 q -0.0328,0.39339 0.0656,0.98348 0.0983,0.59008 0.0983,0.68843 0.36061,0.16391 0.72122,0.29504 z m -0.91792,0.19669 -0.0328,-0.19669 0.0328,0.32782 z m 1.44244,0.62287 q 0.0656,0.39339 0.13113,0.68844 0.0984,0.29504 0.26226,0.45896 z m 0.32783,-11.50671 v 0.29505 z m 2.78652,5.63862 q 0.0656,0.29504 -0.0984,0.62287 -0.13113,0.29504 -0.39339,0.59009 -0.32782,0.22948 -0.42617,0.0656 0.26226,-0.29505 0.5573,-0.62287 0.29505,-0.32783 0.36061,-0.65566 z" /></g></svg>
