<?xml version="1.0" encoding="UTF-8" standalone="no"?>
<!-- Created with Inkscape (http://www.inkscape.org/) -->

<svg
   version="1.1"
   id="svg1"
   xml:space="preserve"
   width="75.878555"
   height="64.035866"
   xmlns:inkscape="http://www.inkscape.org/namespaces/inkscape"
   xmlns:sodipodi="http://sodipodi.sourceforge.net/DTD/sodipodi-0.dtd"
   xmlns="http://www.w3.org/2000/svg"
   xmlns:svg="http://www.w3.org/2000/svg"><defs
     id="defs1" /><sodipodi:namedview
     id="namedview1"
     pagecolor="#ffffff"
     bordercolor="#000000"
     borderopacity="0.25"
     inkscape:showpageshadow="2"
     inkscape:pageopacity="0.0"
     inkscape:pagecheckerboard="0"
     inkscape:deskcolor="#d1d1d1" /><inkscape:clipboard
     min="538.21511,721.85463"
     max="614.09367,785.8905"
     geom-min="538.21511,721.85463"
     geom-max="614.09367,785.8905" /><g
     id="g5588"
     transform="matrix(4.1157778,0,0,4.1157778,-569.33234,-742.18594)"><path
       style="display:inline;opacity:1;fill:#ffb380;stroke-width:3.47075"
       d="m 526.01953,681.55273 c -1.37616,10e-4 -2.86673,0.89224 -3.10937,1.85938 -0.10243,0.40807 -0.12083,1.6325 -0.043,2.7207 0.22907,3.20172 1.42688,5.21882 6.4414,10.83985 2.33881,2.6217 4.32033,4.98833 4.40235,5.25781 0.0819,0.26929 1.23009,4.45709 2.55273,9.30664 2.98545,10.94642 3.66862,12.74583 6.25586,16.4707 1.01469,1.46083 1.23488,2.04963 1.54102,4.11914 0.19646,1.32828 0.54232,3.06854 0.76757,3.86719 0.40116,1.42348 0.44936,1.47043 2.4375,2.35938 1.11538,0.49874 3.00179,1.14616 4.19336,1.43945 2.37132,0.58318 7.22681,0.75247 8.78125,0.30664 1.05313,-0.30202 4.9787,-3.29496 6.84571,-5.2207 l 1.24414,-1.28321 -0.19922,-2.93554 c -0.13077,-1.93168 -0.0915,-3.21835 0.11523,-3.75977 0.17284,-0.45267 1.17625,-1.66733 2.23047,-2.69922 1.05423,-1.03192 3.54301,-4.00656 5.5293,-6.60937 3.2519,-4.26138 3.69495,-4.98322 4.45898,-7.26368 1.27265,-3.79857 7.3603,-15.74228 8.25,-16.18554 0.39066,-0.19465 1.35144,-0.65853 2.13282,-1.0293 1.41902,-0.67385 1.41733,-0.67276 1.39843,-2.03906 -0.0166,-1.10786 -0.16116,-1.4879 -0.76562,-2.00781 -1.60891,-1.3838 -4.83627,-1.43898 -7.78906,-0.13282 -1.54991,0.68561 -4.35811,3.45754 -8.22071,8.11524 l -2.83789,3.42383 -0.76758,-1.77539 c -0.42141,-0.9758 -0.76562,-2.11378 -0.76562,-2.5293 0,-0.91578 -3.35445,-6.50145 -5.01563,-8.35156 -0.64932,-0.72322 -1.63265,-1.55878 -2.18359,-1.85547 -0.91465,-0.49247 -1.19245,-0.50902 -3.20898,-0.19532 -2.57337,0.40007 -3.40751,0.86258 -3.9668,2.20118 -0.45041,1.07799 -0.87221,1.18305 -2.12891,0.5332 -1.77532,-0.91809 -6.07345,0.55938 -7.16211,2.46094 l -0.62695,1.09375 -2.27344,-0.15625 c -2.72243,-0.18777 -3.75768,0.29104 -4.5625,2.11523 l -0.5039,1.14453 -3.82422,-3.96875 c -2.10301,-2.18275 -4.5857,-4.89257 -5.51758,-6.02148 -3.14865,-3.81457 -2.92297,-3.61524 -4.10547,-3.61524 z"
       transform="scale(0.26458333)"
       id="path896" /><path
       id="path905"
       style="font-style:normal;font-variant:normal;font-weight:normal;font-stretch:normal;font-size:medium;line-height:125%;font-family:Gallaudet;-inkscape-font-specification:Gallaudet;text-align:start;letter-spacing:0px;word-spacing:0px;text-anchor:start;display:inline;opacity:1;fill:#000000;fill-opacity:1;stroke:none;stroke-width:0.242967px;stroke-linecap:butt;stroke-linejoin:miter;stroke-opacity:1"
       d="m 138.34139,181.10057 q 0,-0.32782 0.22948,-0.52452 0.26226,-0.22948 0.62287,-0.22948 0.1967,0 0.39339,0.0984 0.52452,0.81957 1.73748,2.06531 1.21296,1.21296 1.47522,1.57356 0,-0.39339 0.26226,-0.68843 0.29505,-0.32783 0.68844,-0.32783 0.19669,-0.0656 0.52452,0.0328 0.32783,0.0983 0.45896,0.0328 0.16391,-0.52452 0.68843,-0.754 0.55731,-0.26226 1.14739,-0.26226 0.3934,0.22948 0.55731,0.22948 0.16391,0 0.1967,-0.26226 0.13113,-0.42618 0.59008,-0.52452 0.49174,-0.13113 1.1474,-0.13113 0.72121,0.42617 1.21295,1.24574 0.49174,0.81956 0.81957,1.34408 -0.0656,0.26227 0.16391,0.78679 0.26226,0.52452 0.26226,0.62287 1.1474,-1.44244 2.03253,-2.39313 0.88513,-0.98348 2.03252,-0.98348 0.36061,0 0.72122,0.16391 0.39339,0.13113 0.45896,0.78678 -0.0328,0.1967 -0.36061,0.36061 -0.32783,0.13113 -0.72122,0.29505 -0.36061,0.39339 -0.78678,1.40965 -0.3934,0.98348 -0.65566,1.27852 -0.52452,0.9507 -0.85235,2.19644 -0.68843,0.91791 -1.44243,1.90139 -0.72122,0.98348 -1.508,1.60635 -0.0984,0.16392 -0.13113,0.36061 -0.0328,0.16391 -0.0328,0.39339 0,0.16392 0.0328,0.49174 0.0328,0.32783 0.0328,0.52453 0,0.19669 -0.0328,0.32782 -0.3934,0.42618 -0.62287,0.62287 -0.1967,0.1967 -1.21296,0.9507 -0.16392,0.0656 -0.49174,0.13113 -0.32783,0.0328 -0.68844,0.0328 -0.754,0 -1.47522,-0.19669 -0.72121,-0.1967 -1.508,-0.59009 -0.13113,-0.36061 -0.22948,-0.91792 -0.0983,-0.59008 -0.16391,-1.14739 -0.85235,-0.98348 -1.37687,-2.58983 -0.65565,-2.39313 -1.31131,-4.78626 -1.27852,-1.40966 -2.09809,-2.36035 -0.78678,-0.98348 -0.78678,-2.19644 z m 0.29504,-0.26226 q -0.0656,0.32783 -0.0656,0.49174 0,0.52452 0.26227,0.98348 0.26226,0.42617 0.754,0.88513 0.22948,0.0328 0.45895,-0.16391 0.26226,-0.1967 0.49174,-0.39339 -0.0656,0.22947 -0.22948,0.36061 -0.13113,0.0983 -0.49173,0.32782 0.13113,0.59009 0.65565,0.91792 0.0656,-0.22948 0.42617,-0.62287 0.39339,-0.42618 0.39339,-0.68844 -0.16391,-0.1967 -0.32782,-0.32783 -0.13113,-0.16391 -0.26226,-0.16391 -0.0983,0 -0.1967,0.16391 l 0.13113,-0.39339 q -0.0984,-0.0984 -0.5573,-0.85235 -0.45896,-0.78678 -0.85235,-0.78678 -0.29505,0 -0.59009,0.26226 z m 10.09706,0.78678 q -0.52452,0.0983 -0.91792,0.22948 -0.3606,0.0983 -0.39339,0.52453 l 0.13113,2.98322 q 0.26226,0.0983 0.68844,0.0328 0.45896,-0.0983 0.52452,-0.0983 -0.45896,0.3606 -1.14739,0.3606 0.0328,0.1967 0.16391,0.59009 0.16392,0.36061 0.1967,0.45896 l 0.49174,-0.16391 q 0.32782,-0.0983 0.5573,0.22947 0.22948,0.29505 0.36061,0.49174 0.26226,-0.81956 0.29505,-2.42591 0.0328,-1.63913 0.0984,-2.19644 0.19669,0.13113 0.22947,0.49174 0.0328,0.36061 0.0656,0.68844 l 0.29505,-0.49174 q -0.22948,-0.52453 -0.65566,-0.9507 -0.39339,-0.42617 -0.98348,-0.754 z m -2.22922,0.68844 q -0.59009,0.0983 -0.91792,0.22948 -0.32782,0.13113 -0.59008,0.52452 0.26226,2.03252 0.52452,3.016 0.29504,0.98348 1.18017,1.80305 0,-0.13113 0.16392,-0.22948 0.16391,-0.0983 0.22948,-0.13113 0.29504,-0.13113 0.49174,-0.0328 0.19669,0.0656 0.5573,0.29504 l -0.59009,-1.24574 q -0.29504,0.1967 -0.5573,0.29505 -0.22948,0.0984 -0.55731,0.0984 -0.0656,0.0328 -0.13113,-0.0328 -0.0656,-0.0984 -0.0656,-0.13113 0.13113,-0.0656 0.59009,-0.16392 0.49174,-0.0984 0.65565,-0.26226 -0.19669,-0.45895 -0.29504,-0.95069 -0.0656,-0.52453 -0.0656,-1.21296 0,-0.36061 0,-0.72122 0,-0.36061 0.0328,-0.72122 -0.16391,-0.42617 -0.65565,-0.42617 z m 9.73644,0.0656 q -0.16391,-0.0328 -0.49174,-0.0328 -0.88513,0 -1.57356,0.52452 -0.68844,0.49174 -1.24574,1.31131 -0.0328,0.19669 0.29504,0.5573 0.36061,0.32783 0.22948,0.52452 -0.26226,0 -0.49174,-0.32782 -0.22948,-0.32783 -0.32783,-0.39339 -0.19669,0.16391 -0.42617,0.42617 -0.1967,0.22948 -0.68844,0.98348 0.16392,0.49174 0.36061,0.98348 0.1967,0.49174 0.55731,0.78678 -0.39339,-0.16391 -0.65566,-0.5573 -0.22947,-0.42618 -0.49173,-1.08183 -0.26227,0.16391 -0.26227,0.49174 0,0.32783 0,0.65565 -0.0328,-0.19669 -0.16391,-0.22947 0,0.22947 0.0656,0.49173 0.0656,0.22948 0.16391,0.55731 -0.39339,-0.65565 -0.39339,-1.44244 l -0.91791,0.49174 q -0.0328,0.22948 -0.22948,0.42618 -0.16391,0.19669 -0.29504,0.32782 -0.45896,-0.0983 -0.91792,0.32783 -0.45895,0.42617 -0.78678,0.45896 -0.42618,0.16391 -0.65565,0.59009 -0.1967,0.42617 -0.36061,1.08182 0.26226,0.59009 0.39339,0.88513 0.16391,0.29505 0.49174,0.72122 0.5573,0.0983 1.14739,0.0983 0.754,0 1.34409,-0.0983 0.68843,-0.26226 1.44244,-1.18017 0.78678,-0.9507 1.70469,-2.09809 0.32783,-1.08183 0.52453,-1.60635 0.19669,-0.52452 0.59008,-1.14739 l -0.29504,-0.13114 q 0.0328,-0.0984 0.13113,-0.0984 0.0984,0 0.1967,0 l -0.1967,-0.19669 q 0.36061,0 0.49174,-0.0983 0.26226,-0.78678 0.754,-1.47522 0.52452,-0.72122 1.24574,-1.11461 l -0.0328,-0.16391 z m -14.58827,0.88513 q -0.0656,-0.0983 -0.1967,-0.0983 -0.13113,0 -0.16391,0.13113 0.0656,0.16391 -0.0984,0.36061 -0.13113,0.1967 -0.1967,0.26226 l -0.0656,-0.0656 q 0.13113,-0.13113 0.0984,-0.19669 -0.0656,0.0656 -0.26226,0.3606 l 0.22948,-0.0328 q -0.36061,0.22948 -0.36061,0.45896 0,0.1967 0.26226,0.45896 0.26226,0.22948 0.62287,0.52452 0.0984,-0.0656 0.42618,-0.49174 0.36061,-0.42617 0.59008,-0.52452 z m 1.7047,0.1967 q -0.22948,0.13113 -0.32783,0.39339 -0.0656,0.22948 -0.0656,0.59009 0.42617,1.60635 0.81956,2.62261 0.42618,1.01626 1.60635,1.3113 -0.0328,-0.29504 0.13113,-0.49174 0.16392,-0.19669 0.45896,-0.36061 -0.16391,-0.42617 -0.32782,-0.42617 0,0.13113 -0.16392,0.22948 -0.16391,0.0656 -0.16391,0.13113 -0.26226,0.0983 -0.52452,0.0983 -0.29505,0 -0.45896,-0.13113 0.29504,0 0.49174,-0.0656 0.22948,-0.0656 0.81957,-0.39339 -0.22948,-0.55731 -0.45896,-1.31131 -0.1967,-0.78678 -0.45896,-2.19644 -0.36061,-0.19669 -0.72122,-0.19669 -0.36061,0 -0.65565,0.19669 z m 7.04826,0.19669 -0.0328,0.1967 q 0.0328,-0.0656 0.0328,-0.13113 z m 0.1967,0.26226 q -0.26226,0.29505 -0.52452,0.62287 -0.22948,0.32783 -0.0984,0.68844 0.22948,-0.0328 0.49174,-0.29504 0.26226,-0.26227 0.36061,-0.29505 0.0656,0.32783 -0.49174,0.65565 -0.52453,0.32783 -0.36061,0.72122 0.39339,0.0656 0.5573,0.0656 0.42618,0 0.62287,-0.26226 0.0328,-0.42617 -0.26226,-1.08183 -0.26226,-0.68843 -0.29504,-0.81956 z m -7.80227,0.78679 q -0.26226,0.13113 -0.59009,0.36061 -0.29504,0.22947 -0.5573,0.42617 -0.0984,0.36061 -0.0328,0.65565 0.0984,0.26226 0.32782,0.78679 0.22948,0.0328 0.68844,-0.13113 0.45896,-0.16392 0.72122,-0.0656 -0.36061,-0.55731 -0.68844,-1.11461 0.29505,0.36061 0.49174,0.49174 0,-0.26226 -0.22948,-0.62287 -0.22947,-0.36061 -0.26226,-0.45896 l 0.1967,0.0656 z m 7.50723,1.63913 -0.26227,-0.13113 -0.0984,0.13113 z m -1.96696,0.45896 0.19669,-0.0328 z m -0.26226,0.26226 0.22947,0.52452 q 0.68844,0.0656 0.85235,-0.29504 0,-0.3934 -0.32782,-0.3934 -0.16392,0 -0.39339,0.0656 -0.1967,0.0656 -0.36061,0.0983 z m -5.37636,-0.13113 q -0.45895,0.13113 -0.62287,0.26226 -0.13113,0.0983 -0.0328,0.36061 0.62287,2.03252 1.24574,4.06505 0.32783,0.65565 0.62287,0.98347 0.29505,0.29505 0.78679,0.29505 0.19669,0 0.29504,-0.0328 0.36061,0 0.88513,-0.29505 0.52452,-0.32783 0.754,-0.32783 -0.0984,0.16392 -0.16391,0.26227 -0.0328,0.0983 0.0328,0.22947 0.29504,-0.29504 0.29504,-0.62287 0,-0.32782 -0.19669,-0.62287 -0.1967,-0.32782 -0.36061,-0.62287 0.0656,-0.59008 0.16391,-1.18017 0,-0.0984 0.1967,-0.45896 0.22948,-0.36061 0.22948,-0.49174 0,-0.19669 -0.26227,-0.29504 -0.13113,0.22948 -0.49174,0.26226 -0.3606,0.0328 -0.52452,0.0983 -1.40965,-0.49174 -2.03252,-1.73748 z m 4.58957,0.78678 -0.19669,-0.0656 z m 0.22948,0 q -0.0328,0.0656 -0.42617,0.1967 -0.36061,0.0983 -0.13113,0.42617 0.32782,0.0983 0.52452,0 0.22948,-0.0984 0.52452,-0.29504 -0.13113,-0.16392 -0.22948,-0.26226 -0.0984,-0.13113 -0.26226,-0.0656 z m -1.40965,0.1967 q -0.0656,0.0656 -0.32783,0.16391 -0.26226,0.0656 -0.13113,0.32783 h 0.26226 q 0.16391,-0.0983 0.26226,-0.16392 0.13113,-0.0983 0.0983,-0.26226 z m 1.11461,4.39287 -0.0656,0.13113 q 0.0656,0.29504 0.0984,1.40965 0.0656,1.08183 0.42617,1.60635 0.49174,0.0328 0.88513,-0.19669 0.42618,-0.22948 0.72122,-0.68844 -0.0984,-0.16391 -0.13113,-0.39339 -0.0328,-0.22948 -0.0328,-0.49174 v -0.5573 q 0,-0.13113 0,-0.29505 -0.0656,-0.13113 -0.0656,-0.16391 l -0.85235,0.16391 q -0.52452,-0.0656 -0.59009,-0.32782 0.0983,-0.0656 0.22948,0.0328 0.16392,0.0656 0.22948,0.0328 0.32783,0 0.55731,0 0.26226,-0.0328 0.42617,-0.16391 -0.85235,0 -1.83583,-0.0983 z m -0.32783,0 q -0.0983,0.39339 -0.0983,0.78678 0,0.45896 0.0983,1.34409 0.13113,0.85235 0.13113,1.08183 h 0.39339 q -0.22948,-0.52452 -0.36061,-1.67192 -0.0984,-1.18017 -0.16391,-1.54078 z m 2.95044,0.13113 0.0328,-0.13113 z m -0.39339,-0.0656 q 0.0328,0.0656 -0.1967,0.29504 v 0.72122 q 0,0.754 0.22948,1.01626 0.0984,-0.36061 0.0984,-0.68844 -0.0328,-0.62287 -0.0328,-0.98347 v -0.32783 z m -3.2127,0.29504 q -0.52452,0.26226 -0.88513,0.42617 -0.36061,0.13113 -0.754,0.13113 0.42617,0 0.59008,-0.0328 0.1967,-0.0328 1.04905,-0.29504 z m 3.60609,0.0656 v 0.68844 q 0,0.39339 0.0656,0.55731 z m -3.27827,0.16392 q -0.0656,0.45896 -0.0656,0.72122 0,0.85235 0.26227,1.57356 0.0328,-0.16391 0.0328,-0.52452 0,-0.39339 -0.0328,-0.85235 -0.0328,-0.45895 -0.0656,-0.91791 z m -0.22947,0.16391 q -0.42618,0.16391 -1.01627,0.32783 -0.5573,0.13113 -1.01626,0.16391 l 0.29505,1.37687 1.96695,0.52452 z" /></g></svg>
