<?xml version="1.0" encoding="UTF-8" standalone="no"?>
<!-- Created with Inkscape (http://www.inkscape.org/) -->

<svg
   version="1.1"
   id="svg1"
   xml:space="preserve"
   width="46.084213"
   height="89.650101"
   xmlns:inkscape="http://www.inkscape.org/namespaces/inkscape"
   xmlns:sodipodi="http://sodipodi.sourceforge.net/DTD/sodipodi-0.dtd"
   xmlns="http://www.w3.org/2000/svg"
   xmlns:svg="http://www.w3.org/2000/svg"><defs
     id="defs1" /><sodipodi:namedview
     id="namedview1"
     pagecolor="#ffffff"
     bordercolor="#000000"
     borderopacity="0.25"
     inkscape:showpageshadow="2"
     inkscape:pageopacity="0.0"
     inkscape:pagecheckerboard="0"
     inkscape:deskcolor="#d1d1d1" /><inkscape:clipboard
     min="662.5755,696.83556"
     max="708.65971,786.48566"
     geom-min="662.5755,696.83556"
     geom-max="708.65971,786.48566" /><g
     id="g5594"
     transform="matrix(4.1157778,0,0,4.1157778,-693.69273,-717.16687)"><path
       style="display:inline;opacity:1;fill:#ffb380;stroke-width:3.47075"
       d="m 651.99805,658.58203 c -1.30265,-0.0717 -3.37813,0.49184 -4.35938,1.24024 -0.82658,0.63057 -0.95873,0.89895 -0.95117,1.92578 0.0146,1.87581 0.83602,3.79583 3.00195,7.01757 3.0025,4.46612 8.63389,14.89011 8.63672,15.98243 4.6e-4,0.32504 -0.22073,0.49881 -0.63867,0.50195 -1.13945,0.008 -2.8318,1.22676 -4.72852,3.4043 -1.79111,2.05625 -1.91039,2.1382 -3.38671,2.31054 -1.94854,0.22734 -2.64396,0.75097 -4.74024,3.57227 -1.47061,1.9793 -1.85211,2.32217 -2.77734,2.49414 -1.5583,0.28951 -3.67829,1.81125 -3.96289,2.8457 -0.43911,1.59587 -1.06943,6.24655 -1.07227,7.89453 -0.002,2.24848 0.42475,3.06482 3.16797,6.06055 1.57671,1.72192 3.22729,3.99355 4.92773,6.78125 2.95518,4.84471 4.95433,7.34644 7.53125,9.42578 1.00797,0.81336 1.91837,1.77584 2.02344,2.13867 0.10492,0.3628 0.53105,2.16009 0.94922,3.99415 0.41817,1.83405 0.90799,3.42599 1.08789,3.5371 0.17991,0.1112 1.22634,0.42313 2.32422,0.69336 2.58814,0.63685 7.22704,0.66864 10.47656,0.0723 l 2.51563,-0.46289 3.67773,-3.11133 c 2.62012,-2.21767 3.63658,-3.24887 3.53906,-3.58789 -0.52509,-1.82464 -1.30756,-6.23907 -1.30468,-7.36133 0.002,-0.74498 0.19907,-1.99405 0.43945,-2.77539 0.86801,-2.81964 0.83348,-6.55398 -0.12305,-12.99414 -0.48136,-3.24076 -0.95686,-7.14048 -1.05664,-8.66602 l -0.18164,-2.77343 -4.05859,-9.37696 c -6.51137,-15.04214 -7.30496,-16.59744 -9.92383,-19.46289 -0.64275,-0.70322 -1.92577,-2.30059 -2.85156,-3.55078 -2.27464,-3.07158 -6.6236,-7.43307 -7.67578,-7.69726 -0.14913,-0.0374 -0.31977,-0.062 -0.50586,-0.0723 z"
       transform="scale(0.26458333)"
       id="path902" /><path
       id="path907"
       style="font-style:normal;font-variant:normal;font-weight:normal;font-stretch:normal;font-size:medium;line-height:125%;font-family:Gallaudet;-inkscape-font-specification:Gallaudet;text-align:start;letter-spacing:0px;word-spacing:0px;text-anchor:start;display:inline;opacity:1;fill:#000000;fill-opacity:1;stroke:none;stroke-width:0.242967px;stroke-linecap:butt;stroke-linejoin:miter;stroke-opacity:1"
       d="m 172.72622,174.31707 c 0.26226,0.15299 0.51359,0.36061 0.754,0.62287 0.26226,0.24041 0.66658,0.71029 1.21296,1.40966 0.17484,0.28411 0.45896,0.63379 0.85235,1.04904 0.39339,0.39339 0.84142,1.18018 1.34409,2.36035 0.52452,1.15832 1.26759,2.86302 2.22922,5.1141 0,0.54637 0.0874,1.42058 0.26226,2.62261 0.19669,1.18017 0.29504,1.96696 0.29504,2.36035 0,0.67751 -0.10928,1.33316 -0.32783,1.96696 0,0.37153 0.0437,0.76492 0.13114,1.18017 0.0874,0.39339 0.17484,0.77586 0.26226,1.14739 l -1.86861,1.57357 c -0.6338,0.19669 -1.25667,0.29504 -1.86862,0.29504 -0.4371,0 -0.78678,-0.0109 -1.04904,-0.0328 -0.24041,-0.0437 -0.6338,-0.13115 -1.18017,-0.26226 -0.10928,-0.30597 -0.20763,-0.65565 -0.29505,-1.04904 -0.0874,-0.39339 -0.16391,-0.77586 -0.22948,-1.1474 -0.78678,-0.50267 -1.48614,-1.23481 -2.09809,-2.19643 -0.61194,-0.98348 -1.02719,-1.66099 -1.24574,-2.03253 -0.59009,-0.59009 -0.95069,-0.96162 -1.08182,-1.11461 -0.10928,-0.15299 -0.18577,-0.37154 -0.22948,-0.65565 0,-0.78679 0.10927,-1.61728 0.32782,-2.49148 0.39339,-0.39339 0.80864,-0.59009 1.24574,-0.59009 0.32783,-0.45895 0.61194,-0.84142 0.85235,-1.14739 0.26226,-0.30597 0.57916,-0.45896 0.9507,-0.45896 0.13113,0 0.22948,0.0109 0.29504,0.0328 0.10928,-0.10927 0.34969,-0.39339 0.72122,-0.85235 0.39339,-0.45895 0.78679,-0.68843 1.18018,-0.68843 l 0.0984,-0.0656 c -0.0874,-0.43711 -0.40432,-1.10369 -0.9507,-1.99974 -0.52452,-0.91792 -0.80864,-1.45337 -0.85235,-1.60635 -0.50267,-0.69937 -0.85235,-1.21296 -1.04904,-1.54079 -0.17484,-0.32783 -0.26226,-0.74307 -0.26226,-1.24574 0.15298,-0.24041 0.37153,-0.40432 0.65565,-0.49174 0.28411,-0.0874 0.59008,-0.10929 0.91791,-0.0656 z m -1.24574,0.55731 c -0.0656,0.48081 -3e-5,0.90699 0.1967,1.27852 0.21855,0.34968 0.57915,0.84142 1.08182,1.47522 l 0.32783,0.0656 c 0.61194,-0.15299 1.22388,-0.3169 1.83583,-0.49174 -0.0656,-0.19669 -0.19673,-0.40432 -0.39339,-0.62287 -0.17485,-0.21855 -0.37154,-0.45895 -0.59009,-0.72122 -0.21855,-0.26226 -0.48082,-0.5573 -0.78679,-0.88513 -0.30597,-0.34968 -0.60101,-0.52452 -0.88513,-0.52452 -0.26226,0 -0.52452,0.14206 -0.78678,0.42617 z m 1.60635,3.17992 c 0,0.19669 0.0765,0.4371 0.22948,0.72121 0.15299,0.26227 0.30597,0.5136 0.45896,0.754 0.17484,0.0874 0.41524,0.0765 0.72121,-0.0328 0.32783,-0.10927 0.50267,-0.16391 0.52453,-0.16391 0.0874,0 0.2404,-0.0765 0.45895,-0.22948 0.24041,-0.17484 0.39339,-0.26226 0.45896,-0.26226 0.10927,0 0.19669,0.0656 0.26226,0.1967 -0.28411,0.19669 -0.60101,0.38246 -0.9507,0.5573 -0.34968,0.17484 -0.71029,0.32783 -1.08182,0.45896 0.0219,0.17484 0.13114,0.50267 0.32782,0.98348 0.21855,0.45895 0.30597,0.85234 0.26226,1.18017 h 0.16392 c 0.10927,-0.0874 0.2404,-0.15298 0.39339,-0.19669 0.17484,-0.0437 0.33875,-0.0656 0.49174,-0.0656 0.45895,0.0219 0.79771,0.0328 1.01626,0.0328 0.32783,0 0.57916,-0.0984 0.754,-0.29504 -0.56823,-1.2676 -1.01626,-2.2183 -1.34409,-2.8521 -0.30597,-0.63379 -0.66657,-1.14739 -1.08182,-1.54078 -0.48081,0.13113 -0.88513,0.25134 -1.21296,0.36061 -0.32783,0.0874 -0.61194,0.21855 -0.85235,0.39339 z m -0.78678,5.24522 c 0.10927,0 0.27319,-0.0546 0.49174,-0.16391 0.21855,-0.10928 0.38246,-0.16392 0.49174,-0.16392 0.15298,0 0.27318,0.0765 0.3606,0.22948 -0.85235,0.15299 -1.49707,0.50267 -1.93417,1.04905 -0.0219,0.32782 0.0437,0.69936 0.19669,1.11461 0.21855,-0.0219 0.41525,-0.0328 0.59009,-0.0328 0.17484,-0.0219 0.3169,-0.0328 0.42618,-0.0328 0.69936,0 1.3113,0.10927 1.83582,0.32782 -0.10927,-0.41525 -0.20762,-0.74307 -0.29504,-0.98348 -0.0874,-0.24041 -0.22948,-0.45896 -0.42617,-0.65565 0.0437,-0.0656 0.1093,-0.0765 0.19669,-0.0328 0.10928,0.0219 0.22948,0.0437 0.36061,0.0656 -0.0656,-0.69936 -0.12024,-1.39872 -0.16391,-2.09809 -0.24041,-0.19669 -0.4371,-0.29504 -0.59009,-0.29504 -0.26226,0 -0.56823,0.26226 -0.91791,0.78678 -0.32783,0.52452 -0.53545,0.81956 -0.62287,0.88513 z m 5.278,-1.37687 c -0.24041,0.24041 -0.71029,0.38246 -1.40965,0.42617 -0.67751,0.0219 -1.13646,0.13114 -1.37687,0.32783 l 0.16391,1.86861 c 0.10927,-0.0656 0.19669,-0.19673 0.26226,-0.39339 0.0874,-0.21855 0.16391,-0.33876 0.22948,-0.36061 0.0656,0.19669 0.0219,0.45895 -0.13113,0.78678 -0.15299,0.32783 -0.22948,0.53545 -0.22948,0.62287 0,0.10928 0.0437,0.20763 0.13113,0.29505 0.26226,-0.17485 0.53545,-0.42618 0.81957,-0.75401 0.28411,-0.32782 0.61194,-0.69935 0.98348,-1.1146 l -0.0983,0.26226 1.18017,-0.88514 c -0.0874,-0.30597 -0.15298,-0.54637 -0.19669,-0.72121 -0.0437,-0.1967 -0.15301,-0.3169 -0.32783,-0.36061 z m -7.31053,2.95044 0.36061,-0.1967 c 0.0656,0.0874 0.0656,0.15299 0,0.1967 -0.0437,0.0437 -0.1093,0.0765 -0.19669,0.0983 h 0.22947 c -0.0219,0.0655 -0.0874,0.1311 -0.19669,0.19669 -0.0874,0.0437 -0.14206,0.0874 -0.16392,0.13113 -0.19669,0 -0.31689,0.13113 -0.3606,0.39339 -0.0437,0.26227 -0.0765,0.50267 -0.0984,0.72122 0.19669,0.28412 0.37153,0.5136 0.52452,0.68844 0.15299,0.17484 0.34968,0.33875 0.59009,0.49174 -0.0219,-0.0874 -0.0328,-0.21855 -0.0328,-0.39339 0,-0.30597 0.0437,-0.57916 0.13113,-0.81957 0.10927,-0.26226 0.27319,-0.51359 0.49174,-0.754 -0.0874,-0.52453 -0.16392,-1.04905 -0.22948,-1.57357 0.17484,-0.28411 0.36061,-0.56823 0.5573,-0.85235 -0.39339,0 -0.71029,0.1967 -0.95069,0.59009 -0.24041,0.37154 -0.45896,0.73215 -0.65566,1.08183 z m 7.83505,-1.47522 c -0.50267,0.24041 -0.88513,0.49174 -1.14739,0.754 -0.24041,0.24041 -0.754,0.81957 -1.54078,1.73748 0.13113,0.15299 0.33875,0.26226 0.62287,0.32782 0.28411,0.0437 0.46988,0.0656 0.5573,0.0656 0.30597,-0.19669 0.61195,-0.46988 0.91792,-0.81956 0.32783,-0.37154 0.56823,-0.6338 0.72121,-0.78679 -0.0874,0.0874 -0.22948,0.3169 -0.42617,0.68844 -0.17484,0.37153 -0.36061,0.61194 -0.5573,0.72122 0.0655,0 0.17481,-0.0437 0.32782,-0.13113 0.15299,-0.10928 0.26226,-0.13115 0.32783,-0.0656 l -0.52452,0.52452 c 0.0219,0.0437 0.10929,0.0874 0.26226,0.13113 0.15299,0.0437 0.28412,0.0765 0.39339,0.0983 0.21855,-0.0655 0.37154,-0.24037 0.45896,-0.52452 0.0656,0.10927 0.0437,0.27319 -0.0656,0.49174 -0.10928,0.19669 -0.16392,0.30597 -0.16392,0.32782 0.21855,0.15299 0.38247,0.32783 0.49174,0.52453 0.13113,0.17484 0.25134,0.40432 0.36061,0.68843 0.0437,-0.10927 0.0437,-0.27319 0,-0.49174 -0.0437,-0.21855 -0.0656,-0.34968 -0.0656,-0.39339 0,-0.15299 0.0656,-0.27319 0.1967,-0.36061 h -0.13113 c -0.15299,-0.80864 -0.28412,-1.49708 -0.39339,-2.06531 -0.10928,-0.59009 -0.3169,-1.0709 -0.62287,-1.44243 z m -9.2447,3.73722 0.5573,-0.42618 -0.29504,0.42618 0.32783,-0.13113 c -0.15299,0.17484 -0.29505,0.32782 -0.42618,0.45895 -0.10927,0.10928 -0.16391,0.21856 -0.16391,0.32783 0,0.0437 0.0546,0.15301 0.16391,0.32783 0.10927,0.0655 0.41525,0.33872 0.91792,0.81956 0.52452,0.45896 0.93977,0.68844 1.24574,0.68844 0.21855,0 0.44802,-0.0874 0.68843,-0.26226 v 0.32782 c 0.13113,0 0.28412,-0.0546 0.45896,-0.16391 0.17484,-0.13113 0.29504,-0.20762 0.36061,-0.22948 -0.6338,-0.34968 -1.19111,-0.72122 -1.67192,-1.11461 -0.48081,-0.39339 -0.93977,-0.88513 -1.37687,-1.47522 l -0.22948,-0.0328 c 0.0437,-0.0874 0.0765,-0.34968 0.0984,-0.78678 0.0219,-0.45896 0.13114,-0.78679 0.32783,-0.98348 -0.4371,0 -0.71029,0.13113 -0.81957,0.39339 -0.0874,0.24041 -0.13113,0.62287 -0.13113,1.14739 0,0.32783 -0.0109,0.55731 -0.0328,0.68844 z m 2.95044,-1.44244 c -0.30597,0.1967 -0.48082,0.43711 -0.52453,0.72122 -0.0437,0.28411 -0.0656,0.48081 -0.0656,0.59009 0,0.26226 0.0874,0.4371 0.26227,0.52452 l 0.0984,-0.72122 c 0.10927,-0.26226 0.2404,-0.49174 0.39339,-0.68843 0.17484,-0.1967 0.38246,-0.29505 0.62287,-0.29505 0.26226,0.17484 0.48081,0.32783 0.65565,0.45896 0.17484,0.13113 0.26226,0.29505 0.26226,0.49174 -0.19669,0.4371 -0.38246,0.79771 -0.5573,1.08183 -0.15299,0.28411 -0.41525,0.38246 -0.78679,0.29504 1.00534,0.59009 2.04346,0.88513 3.11436,0.88513 0.37153,-0.0437 0.69936,0.0983 0.98348,0.42618 0.28411,0.32783 0.51359,0.53545 0.68843,0.62287 0,0.0437 -0.0546,0.0656 -0.16391,0.0656 -0.17484,-0.10927 -0.32783,-0.19669 -0.45896,-0.26226 -0.13113,-0.0874 -0.24041,-0.14206 -0.32783,-0.16391 0.26227,0.34968 0.44804,0.59008 0.55731,0.72121 0.13113,0.13113 0.29504,0.22948 0.49174,0.29505 -0.1967,0 -0.56824,-0.24041 -1.11461,-0.72122 -0.52452,-0.50267 -0.97255,-0.72122 -1.34409,-0.65565 -0.0874,0 -0.14206,0.0656 -0.16391,0.19669 -0.0219,0.13113 -0.0547,0.26227 -0.0984,0.3934 -0.0219,0.13113 -0.0328,0.25133 -0.0328,0.3606 0,0.32783 0.0874,0.62287 0.26226,0.88514 0.17484,0.2404 0.61194,0.64472 1.3113,1.21295 0.26227,0.17484 0.61195,0.26226 1.04905,0.26226 0.24041,0 0.4371,-0.0109 0.59009,-0.0328 0.15299,-0.0437 0.42617,-0.1093 0.81956,-0.19669 0.26226,-0.15299 0.48081,-0.38247 0.65566,-0.68844 0.19669,-0.32783 0.29504,-0.78678 0.29504,-1.37687 0,-0.21855 -0.0109,-0.41525 -0.0328,-0.59009 l -0.0656,-0.59009 -0.26226,0.85235 c -0.24041,0.0874 -0.44803,0.18577 -0.62287,0.29505 -0.17484,0.10927 -0.32783,0.12021 -0.45896,0.0328 0.13113,-0.13113 0.21855,-0.22948 0.26226,-0.29504 0.30597,-0.10928 0.50267,-0.27319 0.59009,-0.49174 0.10927,-0.24041 0.16391,-0.54638 0.16391,-0.91792 -0.0219,-0.37153 -0.0328,-0.64472 -0.0328,-0.81956 -0.24041,-0.32783 -0.42617,-0.54638 -0.5573,-0.65566 -0.10927,-0.13113 -0.27319,-0.19669 -0.49174,-0.19669 -0.61195,0 -1.4643,-0.24041 -2.55705,-0.72122 -1.09275,-0.48081 -1.92325,-0.72122 -2.49148,-0.72122 h -0.52452 c -0.19669,0.0655 -0.32782,0.10924 -0.39339,0.13113 z m 0.52452,0.36061 c -0.19669,0.13113 -0.34968,0.36061 -0.45896,0.68844 -0.0874,0.30597 -0.13113,0.54637 -0.13113,0.72121 0,0.37154 0.16391,0.52453 0.49174,0.45896 0.32783,0.0437 0.5136,-0.15296 0.55731,-0.59009 0.0656,-0.45895 0.17487,-0.73214 0.32782,-0.81956 -0.24041,-0.28412 -0.50267,-0.43711 -0.78678,-0.45896 z m 0.65565,1.34409 0.26226,-0.59009 c -0.24041,0.0655 -0.32783,0.26223 -0.26226,0.59009 z m -1.3113,0.88513 c 0.15298,0.15299 0.33875,0.27319 0.5573,0.36061 0.21855,0.0874 0.46989,0.17484 0.754,0.26226 -0.21855,0.0219 -0.44802,-0.0328 -0.68843,-0.16391 -0.30597,-0.21855 -0.5136,-0.37154 -0.62287,-0.45896 z m 1.83582,0.85235 c -0.13113,0.0219 -0.26226,0.13114 -0.39339,0.32783 -0.10927,0.19669 -0.2404,0.34968 -0.39339,0.45895 -0.15299,0.0874 -0.40432,0.13113 -0.754,0.13113 -0.26226,0 -0.51359,-0.0219 -0.754,-0.0656 -0.21855,-0.0437 -0.44803,-0.0984 -0.68844,-0.16391 l 0.36061,0.42617 c 0.24041,0.21855 0.64473,0.77586 1.21296,1.67191 0.59009,0.89606 1.23481,1.34409 1.93418,1.34409 l 0.5573,-0.0656 c 0.17484,-0.0655 0.36061,-0.1311 0.55731,-0.1967 0.19669,-0.0874 0.3169,-0.20762 0.36061,-0.36061 -0.43711,-0.21855 -0.80864,-0.52452 -1.11461,-0.91791 -0.30597,-0.39339 -0.45896,-0.81957 -0.45896,-1.27852 v -0.88514 c 0,-0.30597 -0.14206,-0.44802 -0.42618,-0.42617 z m -1.21295,0.59009 c 0.24041,0 0.37154,-0.0546 0.39339,-0.16392 -0.24041,0 -0.37154,0.0546 -0.39339,0.16392 z m 6.58931,2.88487 0.19669,1.508 c 0.0656,-0.17484 0.0984,-0.33875 0.0984,-0.49174 0,-0.13113 -0.0328,-0.30597 -0.0984,-0.52452 -0.0437,-0.21855 -0.0656,-0.38247 -0.0656,-0.49174 z m -3.11435,0.26226 c -0.39339,0.26226 -0.74308,0.46988 -1.04905,0.62287 -0.28411,0.13113 -0.60101,0.1967 -0.95069,0.1967 0.26226,0.0437 0.59008,-0.0109 0.98347,-0.16392 0.41525,-0.17484 0.69936,-0.27319 0.85235,-0.29504 0.0219,0.17484 0.0547,0.32783 0.0984,0.45896 0.0437,0.10927 0.0656,0.21855 0.0656,0.32782 z m 2.8193,0.0984 c -0.0437,0.17484 -0.0437,0.41525 0,0.72122 0.0655,0.30597 0.0983,0.48081 0.0983,0.52452 -0.0874,-0.13113 -0.16391,-0.32783 -0.22947,-0.59009 -0.0437,-0.26226 -0.0875,-0.4371 -0.13114,-0.52452 l -1.83582,0.39339 c 0.10927,0.72122 0.22948,1.43151 0.36061,2.13087 0.37153,-0.0437 0.72121,-0.17486 1.04904,-0.39339 0.32783,-0.21855 0.65565,-0.50267 0.98348,-0.85235 -0.0219,-0.0874 -0.0437,-0.30597 -0.0656,-0.65565 -0.0219,-0.37154 -0.0984,-0.62287 -0.22948,-0.754 z m -2.65539,0.32783 c 0,0.48081 0.0219,0.89605 0.0656,1.24574 0.0656,0.32783 0.15302,0.73214 0.26226,1.21295 0.17484,0 0.28412,-0.0328 0.32783,-0.0983 l -0.26226,-1.50801 c -0.0656,-0.28411 -0.13116,-0.48081 -0.19669,-0.59008 -0.0437,-0.13113 -0.1093,-0.21855 -0.1967,-0.26226 z m -2.262,0.65565 0.29504,1.37687 c 0.19669,0.19669 0.42617,0.3169 0.68844,0.36061 0.28411,0.0219 0.66658,0.0328 1.14739,0.0328 0,-0.4371 -0.0219,-0.76493 -0.0656,-0.98348 -0.0437,-0.21855 -0.15301,-0.64472 -0.32783,-1.27852 -0.13113,0.0219 -0.39339,0.12021 -0.78678,0.29504 -0.39339,0.17484 -0.71029,0.24041 -0.9507,0.1967 z m 1.67191,-7.34331 c -0.0219,0.0874 0.0765,0.2404 0.29505,0.45895 0,0.43711 -0.0656,0.84143 -0.1967,1.21296 0.10927,0.0219 0.19669,-0.0218 0.26226,-0.13113 0.0874,-0.10927 0.14206,-0.18577 0.16391,-0.22948 0.0437,-0.13113 0.0437,-0.30597 0,-0.52452 -0.0437,-0.24041 -0.0656,-0.39339 -0.0656,-0.45896 0.0874,0.10928 0.13113,0.29505 0.13113,0.55731 0,0.15299 -0.0219,0.33875 -0.0656,0.5573 -0.0437,0.0874 -0.13115,0.1967 -0.26226,0.32783 -0.13113,0.10927 -0.32782,0.21855 -0.59008,0.32783 0.4371,-0.39339 0.60101,-0.87421 0.49174,-1.44244 l -0.16392,0.32783 z m -0.0656,1.18017 v 0.1967 z"
       sodipodi:nodetypes="cccccccsccccsccsccccccccsccccccccsccscccccscsssscccscscsccccccsccccsssssccccscsccccscssscccccsscsccccsscccccccscscsccccccccsccccccccccsccccccsscccccccccssccsccccscccccssccssccccsccccsccccccccscsccscccscccsccccccssscccccsccccccccsccccccsccccccccssscccccccsccccccccccccccccccsccccccccccscccccscscccccccccsccccccccc" /></g></svg>
